<svg width="22" height="21" viewBox="0 0 22 21" fill="none" xmlns="http://www.w3.org/2000/svg">
<path fill-rule="evenodd" clip-rule="evenodd" d="M18.638 17.9456C17.6104 18.954 16.3849 19.7445 15.0367 20.2688C13.6884 20.7932 12.2459 21.0402 10.7975 20.9947C9.34914 20.9492 7.92543 20.6123 6.61369 20.0045C5.30195 19.3967 4.12982 18.5309 3.16919 17.4601C3.88784 17.7562 4.65132 17.9324 5.42848 17.9816C6.75485 18.0618 8.08399 17.877 9.33628 17.4383C10.5886 16.9995 11.7383 16.3158 12.7165 15.4282C13.0627 15.1585 14.2834 13.9897 14.5385 13.9177C14.994 15.7339 15.4313 17.0465 17.1986 17.7478C17.637 17.9053 18.0987 17.9903 18.5651 17.9996L18.638 17.9456ZM20.1867 5.16071C21.2183 6.85383 21.745 8.7998 21.7063 10.7751C21.6676 12.7503 21.0651 14.6748 19.9681 16.3273C18.3829 16.0935 18.1461 15.3383 17.1622 12.5691C16.9618 11.9398 16.4334 10.9148 16.7796 10.3934C17.1257 9.87189 18.966 6.95887 20.1867 5.16071ZM11.0585 7.40839e-07C12.4757 0.00940093 13.8766 0.299081 15.1785 0.851921C16.4803 1.40476 17.6567 2.20954 18.638 3.2187H17.3626L15.2855 6.43741C14.4838 4.7831 13.9372 3.59632 12.1699 2.94898C7.92462 1.3666 2.02133 5.57429 0.417969 10.2135C0.49392 7.4786 1.64841 4.8809 3.63572 2.97334C5.62303 1.06577 8.28622 -0.00102627 11.0585 7.40839e-07V7.40839e-07ZM12.8805 10.1056C11.5784 12.287 9.81313 14.1641 7.70598 15.608C3.82511 17.7478 2.71369 13.9897 3.80689 10.735C4.57214 8.43336 6.52168 5.34053 8.38012 4.56732C8.69179 4.39278 9.03904 4.28919 9.39649 4.2641C9.75394 4.23902 10.1126 4.29309 10.4461 4.42235C10.7797 4.55162 11.0797 4.75281 11.3244 5.01122C11.569 5.26964 11.7521 5.57874 11.8601 5.91594C12.4863 7.23194 12.8512 8.65414 12.9351 10.1056H12.8805Z" fill="#2598D2"/>
</svg>
