<svg width="22" height="21" viewBox="0 0 22 21" fill="none" xmlns="http://www.w3.org/2000/svg">
<path d="M10.8227 0.00318555C12.3172 0.00571198 13.794 0.32571 15.1549 0.941886C16.5158 1.55806 17.7295 2.45628 18.7152 3.57678C19.701 4.69728 20.4362 6.01435 20.872 7.44035C21.3078 8.86636 21.4341 10.3686 21.2426 11.8471C21.0511 13.3256 20.546 14.7464 19.7612 16.0151C18.9763 17.2837 17.9296 18.3711 16.6906 19.2048C15.4517 20.0385 14.049 20.5995 12.5758 20.8503C11.1026 21.1012 9.59274 21.0362 8.1467 20.6596C8.1467 20.4088 8.25448 20.0684 8.25448 19.8534C8.25448 19.6384 8.25448 19.0114 8.25448 18.5635L8.6855 18.7606L9.38594 18.9935C9.62388 19.0343 9.85812 19.0942 10.0864 19.1726C10.3017 19.1588 10.5176 19.1588 10.7329 19.1726C12.0161 19.2394 13.2995 19.0443 14.5045 18.5994C14.6685 18.5065 14.8435 18.4343 15.0253 18.3844C15.1227 18.303 15.2316 18.2366 15.3486 18.1873L15.6539 17.9902L15.9413 17.7752L16.8213 16.9153L16.9111 16.7899L17.1266 16.5033C17.1804 16.3983 17.2404 16.2966 17.3062 16.1987C17.3383 16.0924 17.3935 15.9945 17.4679 15.912C17.5007 15.7617 17.5551 15.6169 17.6295 15.4821C17.6295 15.3567 17.6295 15.1596 17.7732 15.07C17.7495 14.9699 17.7495 14.8656 17.7732 14.7655C17.7577 14.6106 17.7577 14.4545 17.7732 14.2997C17.8121 13.7928 17.8121 13.2837 17.7732 12.7769V12.5977C17.7595 12.4547 17.7595 12.3107 17.7732 12.1677V12.0782V11.9169C17.7732 11.7915 17.6654 11.6661 17.6295 11.5586C17.5451 11.4374 17.4672 11.3118 17.3961 11.1824C17.2331 10.9268 17.0467 10.6869 16.8393 10.4658L16.534 10.1612C16.0893 9.75053 15.5872 9.40654 15.0433 9.14003C15.0433 9.05045 15.0433 9.14003 15.0433 9.14003C15.3253 8.91564 15.5841 8.66356 15.8156 8.38758C15.8831 8.2786 15.9613 8.17658 16.0491 8.08302C16.1448 7.87387 16.2528 7.67048 16.3723 7.4739C16.5974 6.7314 16.6587 5.94909 16.5519 5.18073C16.5519 4.98366 16.4262 4.6791 16.4262 4.55369C16.365 4.47442 16.3221 4.38267 16.3005 4.28496C16.1989 4.03422 16.0725 3.79417 15.9233 3.56835L15.7078 3.38919C15.6248 3.29795 15.5469 3.20226 15.4743 3.10255C15.3424 2.99589 15.2221 2.8758 15.1151 2.74424C15.0152 2.67188 14.9192 2.59413 14.8278 2.51134L14.2171 2.09929C14.2171 2.09929 13.9478 1.99179 13.9118 1.93805L13.1395 1.59765L12.7445 1.49016C12.6143 1.47215 12.4873 1.43597 12.3673 1.38267C11.5142 1.28223 10.6521 1.28223 9.79901 1.38267C9.60145 1.38267 9.15246 1.52599 9.02675 1.52599C8.90103 1.52599 8.75734 1.63349 8.64958 1.66932L8.29038 1.79472L7.80549 2.02762C7.64385 2.02762 7.50017 2.22469 7.35649 2.29635C7.24967 2.39435 7.13559 2.48418 7.01525 2.56509L6.1352 3.47877L5.45272 4.69702C5.23099 5.27278 5.08609 5.87512 5.0217 6.48855C5.0217 7.13351 5.0217 7.92178 5.0217 8.58465V19.2085C5.0217 19.2085 5.0217 19.3518 5.0217 19.4235C3.05696 18.2095 1.5474 16.3842 0.726084 14.2294C-0.0952352 12.0745 -0.182658 9.70983 0.477305 7.50046C1.13727 5.29108 2.50793 3.35983 4.37769 2.00483C6.24745 0.649822 8.51234 -0.0535862 10.8227 0.00318555ZM13.1395 8.38758C13.0837 8.51459 13.0045 8.63005 12.9061 8.72798C12.9061 8.72798 12.9061 8.72798 12.9061 8.85338C12.9061 8.97879 12.062 8.67423 11.5591 8.62048C11.0912 8.52341 10.6082 8.52341 10.1402 8.62048L9.90679 8.76381C9.81699 8.76381 9.90677 8.90713 9.74513 8.96088C9.74513 9.3371 9.74515 9.42668 10.1043 9.57C10.9027 9.74767 11.7305 9.74767 12.5289 9.57C12.7624 9.39085 13.0677 9.71332 13.2294 9.82082C13.9021 10.2249 14.4011 10.8631 14.6302 11.6124C14.7705 12.054 14.8549 12.5114 14.8817 12.9739C14.9137 13.4892 14.8835 14.0065 14.7919 14.5146V14.6221C14.7742 14.7908 14.7255 14.9548 14.6482 15.1059C14.4846 15.4804 14.26 15.8255 13.9837 16.127C13.6893 16.4172 13.3417 16.6483 12.96 16.8078C12.7318 16.9353 12.4823 17.0203 12.2236 17.0586H12.0799H11.4872H10.8227H10.3917C10.3339 17.0807 10.2699 17.0807 10.2121 17.0586C9.98977 17.021 9.77651 16.942 9.5835 16.8257C9.02077 16.5533 8.56103 16.1073 8.27243 15.5537C8.22243 14.9935 8.22243 14.4299 8.27243 13.8697V8.92505C8.2085 7.81521 8.2085 6.70262 8.27243 5.59278C8.24938 5.49257 8.24938 5.38844 8.27243 5.28822C8.31831 5.04076 8.40963 4.80388 8.54182 4.58952C8.54182 4.4462 8.84716 4.08789 8.95492 4.05206C8.97408 4.01049 9.00143 3.97319 9.03538 3.94241C9.06932 3.91163 9.10917 3.88799 9.15248 3.87291C9.15688 3.83808 9.17393 3.80607 9.20041 3.78296C9.22689 3.75984 9.26094 3.74723 9.29613 3.7475L9.45779 3.65792C9.84892 3.39862 10.3005 3.24435 10.7689 3.21004C11.2485 3.23317 11.716 3.36816 12.1338 3.60418C12.3536 3.72305 12.5586 3.86737 12.7445 4.03415C12.9197 4.21974 13.0651 4.43125 13.1755 4.66118C13.32 4.90203 13.4119 5.17068 13.4449 5.44946C13.4449 5.44946 13.4449 5.44946 13.4449 5.59278C13.4449 5.73611 13.4449 5.70028 13.4449 5.75402C13.4956 6.28283 13.453 6.81641 13.3192 7.33058C13.2641 7.55311 13.1859 7.76928 13.0857 7.97553C13.0948 8.11273 13.0948 8.25039 13.0857 8.38758H13.1395Z" fill="#7E8E97"/>
</svg>
