<svg width="103" height="24" viewBox="0 0 103 24" fill="none" xmlns="http://www.w3.org/2000/svg">
<path d="M0.0585938 11.5108C0.0585938 5.15355 5.21214 0 11.5694 0H91.0983C97.4555 0 102.609 5.15355 102.609 11.5108C102.609 17.868 97.4555 23.0215 91.0983 23.0215H11.5694C5.21214 23.0215 0.0585938 17.868 0.0585938 11.5108Z" fill="white"/>
<path d="M37.636 15.5814C37.2384 15.5814 36.8407 15.5674 36.4431 15.5395C36.0524 15.5186 35.6443 15.4628 35.2188 15.3721V8.34008C35.5536 8.27729 35.9199 8.23194 36.3175 8.20404C36.7152 8.16916 37.0849 8.15172 37.4267 8.15172C37.8872 8.15172 38.3092 8.1866 38.6929 8.25636C39.0836 8.31915 39.4184 8.43077 39.6975 8.59122C39.9765 8.75167 40.1928 8.96445 40.3463 9.22954C40.5067 9.48766 40.587 9.80857 40.587 10.1923C40.587 10.7713 40.3079 11.2282 39.7498 11.5631C40.2103 11.7375 40.5242 11.9747 40.6916 12.2747C40.859 12.5746 40.9428 12.913 40.9428 13.2897C40.9428 14.0501 40.6637 14.6222 40.1056 15.0059C39.5545 15.3895 38.7313 15.5814 37.636 15.5814ZM36.8093 12.327V14.2001C36.9279 14.2141 37.057 14.2245 37.1965 14.2315C37.336 14.2385 37.4895 14.242 37.657 14.242C38.1453 14.242 38.5394 14.1722 38.8394 14.0327C39.1394 13.8932 39.2894 13.635 39.2894 13.2583C39.2894 12.9235 39.1638 12.6863 38.9127 12.5467C38.6615 12.4002 38.3023 12.327 37.8349 12.327H36.8093ZM36.8093 11.0817H37.6046C38.1069 11.0817 38.4662 11.0189 38.6825 10.8934C38.8987 10.7608 39.0069 10.5515 39.0069 10.2655C39.0069 9.97251 38.8952 9.76671 38.672 9.64812C38.4488 9.52952 38.1209 9.47022 37.6884 9.47022C37.5488 9.47022 37.3988 9.47371 37.2384 9.48069C37.0779 9.48069 36.9349 9.48766 36.8093 9.50162V11.0817Z" fill="#333333"/>
<path d="M42.2495 15.4872V8.23543H47.1468V9.60626H43.8819V11.0294H46.7805V12.3688H43.8819V14.1164H47.3875V15.4872H42.2495Z" fill="#333333"/>
<path d="M53.9742 8.23543V9.62719H51.7872V15.4872H50.1547V9.62719H47.9677V8.23543H53.9742Z" fill="#333333"/>
<path d="M59.0204 15.4872C58.9437 15.2361 58.8564 14.978 58.7588 14.7129C58.6681 14.4478 58.5774 14.1827 58.4867 13.9176H55.6613C55.5706 14.1827 55.4765 14.4478 55.3788 14.7129C55.2881 14.978 55.2044 15.2361 55.1277 15.4872H53.4324C53.7045 14.7059 53.9626 13.9838 54.2068 13.3211C54.451 12.6584 54.6882 12.034 54.9184 11.448C55.1556 10.862 55.3858 10.3074 55.609 9.78415C55.8392 9.25396 56.0764 8.73772 56.3206 8.23543H57.8798C58.117 8.73772 58.3507 9.25396 58.5809 9.78415C58.8111 10.3074 59.0413 10.862 59.2715 11.448C59.5087 12.034 59.7494 12.6584 59.9936 13.3211C60.2377 13.9838 60.4959 14.7059 60.7679 15.4872H59.0204ZM57.0636 9.87833C57.0287 9.98298 56.9764 10.126 56.9066 10.3074C56.8368 10.4888 56.7566 10.698 56.6659 10.9352C56.5752 11.1724 56.4741 11.434 56.3624 11.7201C56.2578 12.0061 56.1497 12.3061 56.0381 12.62H58.0995C57.9879 12.3061 57.8798 12.0061 57.7751 11.7201C57.6705 11.434 57.5693 11.1724 57.4717 10.9352C57.381 10.698 57.3008 10.4888 57.231 10.3074C57.1612 10.126 57.1054 9.98298 57.0636 9.87833Z" fill="#333333"/>
<path d="M61.1311 11.6573H64.1657V13.07H61.1311V11.6573Z" fill="#333333"/>
<path d="M65.2629 15.4872V8.23543H70.1602V9.60626H66.8953V11.0294H69.7939V12.3688H66.8953V14.1164H70.4008V15.4872H65.2629Z" fill="#333333"/>
<path d="M76.4539 14.085V15.4872H71.6089V8.23543H73.2413V14.085H76.4539Z" fill="#333333"/>
<path d="M77.5053 8.23543H79.1377V15.4872H77.5053V8.23543Z" fill="#333333"/>
<path d="M86.195 8.23543V9.62719H84.0079V15.4872H82.3755V9.62719H80.1884V8.23543H86.195Z" fill="#333333"/>
<path d="M87.2441 15.4872V8.23543H92.1414V9.60626H88.8765V11.0294H91.7752V12.3688H88.8765V14.1164H92.3821V15.4872H87.2441Z" fill="#333333"/>
<path fill-rule="evenodd" clip-rule="evenodd" d="M19.3751 3.3522C20.5576 3.35421 21.7261 3.60937 22.8028 4.10069C23.8796 4.59201 24.8399 5.30823 25.6199 6.20169C26.3998 7.09514 26.9816 8.14534 27.3264 9.2824C27.6712 10.4195 27.7711 11.6173 27.6196 12.7962C27.468 13.9751 27.0684 15.1081 26.4474 16.1197C25.8264 17.1313 24.9982 17.9983 24.018 18.6631C23.0377 19.3278 21.9278 19.7751 20.7622 19.9751C19.5966 20.1752 18.4019 20.1233 17.2578 19.8231C17.2578 19.6231 17.343 19.3517 17.343 19.1803C17.343 19.0088 17.343 18.5088 17.343 18.1517L17.6841 18.3089L18.2383 18.4946C18.4265 18.5273 18.6118 18.5751 18.7925 18.6374C18.9628 18.6266 19.1337 18.6266 19.3041 18.6374C20.3194 18.6906 21.3347 18.5351 22.2882 18.1803C22.418 18.1062 22.5564 18.0487 22.7003 18.0089C22.7774 17.9441 22.8636 17.8912 22.9561 17.8517L23.1977 17.6946L23.425 17.5232L24.1213 16.8375L24.1924 16.7375L24.3629 16.5089C24.4058 16.4254 24.4532 16.3443 24.505 16.2661C24.5299 16.1811 24.5737 16.103 24.6329 16.0375C24.6589 15.9176 24.702 15.8021 24.7608 15.6947C24.7608 15.5947 24.7608 15.4375 24.8745 15.3661C24.8557 15.2862 24.8557 15.2031 24.8745 15.1232C24.8623 14.9997 24.8623 14.8753 24.8745 14.7518C24.9055 14.3477 24.9055 13.9417 24.8745 13.5376V13.3947C24.8635 13.2807 24.8635 13.1659 24.8745 13.0519V12.9805V12.8519C24.8745 12.7519 24.7892 12.6519 24.7608 12.5662C24.6938 12.4696 24.6322 12.3695 24.5761 12.2662C24.4469 12.0626 24.2994 11.8713 24.1356 11.6948L23.894 11.4519C23.5423 11.1243 23.145 10.85 22.7145 10.6377C22.7145 10.5662 22.7145 10.6377 22.7145 10.6377C22.9377 10.4588 23.1424 10.2577 23.3256 10.0377C23.3788 9.95069 23.4407 9.86932 23.5103 9.79485C23.586 9.62806 23.6714 9.46588 23.7661 9.30915C23.9729 8.72343 24.0505 8.0995 23.9934 7.48064C23.9934 7.3235 23.894 7.08065 23.894 6.98065C23.8506 6.91619 23.8215 6.84312 23.8087 6.76637C23.7282 6.56648 23.6283 6.37508 23.5103 6.19496L23.3256 6.05211C23.2599 5.97934 23.1982 5.90304 23.1408 5.82355C23.0363 5.73866 22.9411 5.64289 22.8566 5.53784C22.7726 5.48065 22.692 5.41864 22.615 5.35213L22.2172 4.95215C22.2172 4.95215 22.004 4.86643 21.9756 4.82358L21.3077 4.62358L20.9951 4.53787C20.8921 4.5237 20.7916 4.49484 20.6966 4.45216C20.0216 4.37207 19.3396 4.37207 18.6646 4.45216C18.5083 4.45216 18.153 4.56644 18.0535 4.56644C17.9541 4.56644 17.8404 4.65216 17.7551 4.68073L17.4709 4.78072L17.0873 4.96643C16.9594 4.96643 16.8457 5.12357 16.732 5.18071C16.6475 5.25885 16.5572 5.33047 16.462 5.39499L15.7657 6.12354L15.2257 7.09493C15.0513 7.55437 14.9367 8.03451 14.8846 8.52346C14.8846 9.03773 14.8846 9.66628 14.8846 10.1948V18.666C14.8846 18.666 14.8846 18.7803 14.8846 18.8374C13.3382 17.8736 12.1484 16.4271 11.4971 14.7192C10.8458 13.0113 10.7688 11.136 11.2781 9.37994C11.7873 7.62392 12.8546 6.08389 14.3168 4.99535C15.7791 3.90681 17.5557 3.32967 19.3751 3.3522ZM21.2082 10.0377C21.1641 10.139 21.1014 10.231 21.0235 10.3091C21.0235 10.3091 21.0235 10.3091 21.0235 10.4091C21.0235 10.5091 20.3556 10.2663 19.9577 10.2234C19.5875 10.146 19.2053 10.146 18.8351 10.2234L18.6504 10.3377C18.6504 10.3377 18.6504 10.452 18.5225 10.4948C18.5225 10.7948 18.5225 10.8662 18.8067 10.9805C19.4384 11.1222 20.0934 11.1222 20.7251 10.9805C20.9098 10.8377 21.1514 11.0948 21.2793 11.1805C21.8125 11.5017 22.2076 12.0109 22.3877 12.609C22.4989 12.9611 22.5658 13.3259 22.5866 13.6947C22.6117 14.1056 22.5878 14.518 22.5156 14.9233V15.009C22.5019 15.1435 22.4634 15.2743 22.4019 15.3947C22.2722 15.6932 22.0946 15.9683 21.8761 16.2089C21.6432 16.4403 21.3682 16.6246 21.0661 16.7518C20.8856 16.8534 20.6882 16.9212 20.4835 16.9518H20.3698H19.9009H19.5741H19.233C19.1872 16.9693 19.1366 16.9693 19.0909 16.9518C18.915 16.9218 18.7463 16.8588 18.5935 16.766C18.1483 16.5488 17.7845 16.1932 17.5562 15.7518C17.5163 15.3051 17.5163 14.8557 17.5562 14.409V10.4663C17.5059 9.58129 17.5059 8.69416 17.5562 7.8092C17.5379 7.72928 17.5379 7.64626 17.5562 7.56635C17.5925 7.36902 17.6647 7.18014 17.7693 7.00922C17.7693 6.89494 18.0109 6.60923 18.0962 6.58066C18.1235 6.51644 18.1744 6.46527 18.2383 6.43781C18.2418 6.41004 18.2552 6.38452 18.2762 6.36609C18.2971 6.34766 18.3241 6.3376 18.352 6.33782L18.4798 6.26639C18.7893 6.05963 19.1466 5.93662 19.5172 5.90926C19.8968 5.92717 20.2668 6.03485 20.5972 6.22353C20.771 6.31843 20.9332 6.4335 21.0804 6.56638C21.219 6.71437 21.334 6.88302 21.4214 7.06636C21.5358 7.25841 21.6084 7.47262 21.6345 7.69491C21.6345 7.69491 21.6345 7.69491 21.6345 7.8092C21.6345 7.92348 21.6345 7.89491 21.6345 7.93776C21.6746 8.35942 21.6409 8.78488 21.535 9.19487C21.4913 9.37225 21.4295 9.54459 21.3504 9.70913C21.3295 9.82049 21.3009 9.93027 21.265 10.0377H21.2082Z" fill="#80C2EC"/>
</svg>
