<svg width="86" height="24" viewBox="0 0 86 24" fill="none" xmlns="http://www.w3.org/2000/svg">
<path d="M0.35791 11.6392C0.35791 5.21103 5.56053 0 11.9783 0H73.672C80.0898 0 85.2924 5.21103 85.2924 11.6392C85.2924 18.0673 80.0898 23.2783 73.672 23.2783H11.9783C5.56053 23.2783 0.35791 18.0673 0.35791 11.6392Z" fill="white"/>
<path d="M39.3744 9.67721C38.6068 9.67721 38.0504 9.89236 37.7053 10.3227C37.3673 10.7459 37.1983 11.3279 37.1983 12.0685C37.1983 12.4283 37.2405 12.7563 37.325 13.0526C37.4095 13.3418 37.5363 13.5922 37.7053 13.8038C37.8743 14.0154 38.0856 14.1812 38.3392 14.3011C38.5927 14.414 38.8885 14.4704 39.2265 14.4704C39.4096 14.4704 39.5646 14.4669 39.6914 14.4598C39.8252 14.4528 39.9414 14.4387 40.04 14.4175V11.8675H41.6879V15.4968C41.4908 15.5744 41.1738 15.6555 40.7372 15.7402C40.3005 15.8319 39.7618 15.8777 39.1209 15.8777C38.5716 15.8777 38.0715 15.7931 37.6208 15.6238C37.1771 15.4545 36.7968 15.2076 36.4799 14.8831C36.163 14.5586 35.9165 14.1601 35.7404 13.6874C35.5714 13.2148 35.4869 12.6752 35.4869 12.0685C35.4869 11.4548 35.582 10.9117 35.7721 10.439C35.9623 9.96642 36.2228 9.56787 36.5538 9.24338C36.8849 8.91184 37.2722 8.66143 37.7159 8.49213C38.1666 8.32283 38.6455 8.23818 39.1526 8.23818C39.4977 8.23818 39.8076 8.26287 40.0822 8.31225C40.3639 8.35457 40.6034 8.40748 40.8006 8.47097C41.0048 8.5274 41.1703 8.58736 41.2971 8.65084C41.4309 8.71433 41.526 8.76371 41.5823 8.79898L41.1069 10.1216C40.8816 10.0017 40.621 9.89941 40.3252 9.81476C40.0364 9.72306 39.7195 9.67721 39.3744 9.67721Z" fill="#333333"/>
<path d="M48.123 15.7402C48.0455 15.4862 47.9575 15.2252 47.8589 14.9572C47.7673 14.6891 47.6758 14.4211 47.5842 14.153H44.7319C44.6404 14.4211 44.5453 14.6891 44.4467 14.9572C44.3552 15.2252 44.2706 15.4862 44.1932 15.7402H42.4818C42.7565 14.9501 43.0171 14.22 43.2635 13.5499C43.51 12.8797 43.7495 12.2484 43.9819 11.6559C44.2214 11.0633 44.4538 10.5025 44.6791 9.97348C44.9115 9.43737 45.151 8.91537 45.3975 8.40748H46.9715C47.211 8.91537 47.4469 9.43737 47.6793 9.97348C47.9117 10.5025 48.1441 11.0633 48.3765 11.6559C48.616 12.2484 48.8589 12.8797 49.1054 13.5499C49.3519 14.22 49.6125 14.9501 49.8872 15.7402H48.123ZM46.1475 10.0687C46.1123 10.1745 46.0595 10.3191 45.9891 10.5025C45.9186 10.6859 45.8376 10.8976 45.7461 11.1374C45.6545 11.3772 45.5524 11.6418 45.4397 11.931C45.3341 12.2202 45.2249 12.5235 45.1122 12.8409H47.1934C47.0807 12.5235 46.9715 12.2202 46.8659 11.931C46.7602 11.6418 46.6581 11.3772 46.5595 11.1374C46.468 10.8976 46.387 10.6859 46.3165 10.5025C46.2461 10.3191 46.1898 10.1745 46.1475 10.0687Z" fill="#333333"/>
<path d="M52.7786 8.40748C52.9053 8.64026 53.0497 8.92948 53.2117 9.27513C53.3807 9.61372 53.5533 9.98406 53.7293 10.3861C53.9124 10.7812 54.092 11.1868 54.2681 11.603C54.4442 12.0191 54.6097 12.4106 54.7646 12.7775C54.9195 12.4106 55.085 12.0191 55.2611 11.603C55.4372 11.1868 55.6132 10.7812 55.7893 10.3861C55.9724 9.98406 56.145 9.61372 56.3069 9.27513C56.476 8.92948 56.6239 8.64026 56.7506 8.40748H58.2507C58.3211 8.89421 58.3845 9.4409 58.4409 10.0475C58.5042 10.6471 58.5571 11.2749 58.5993 11.931C58.6486 12.5799 58.6909 13.2324 58.7261 13.8885C58.7683 14.5445 58.8036 15.1617 58.8317 15.7402H57.226C57.2049 15.0277 57.1767 14.2518 57.1415 13.4123C57.1063 12.5729 57.0535 11.7264 56.983 10.8729C56.8563 11.1691 56.7154 11.4972 56.5605 11.8569C56.4055 12.2167 56.2506 12.5764 56.0957 12.9362C55.9478 13.2959 55.8034 13.6416 55.6625 13.9731C55.5217 14.2976 55.402 14.5762 55.3034 14.809H54.1519C54.0533 14.5762 53.9336 14.2976 53.7927 13.9731C53.6519 13.6416 53.504 13.2959 53.349 12.9362C53.2011 12.5764 53.0497 12.2167 52.8948 11.8569C52.7398 11.4972 52.599 11.1691 52.4722 10.8729C52.4018 11.7264 52.349 12.5729 52.3138 13.4123C52.2785 14.2518 52.2504 15.0277 52.2292 15.7402H50.6235C50.6517 15.1617 50.6834 14.5445 50.7186 13.8885C50.7608 13.2324 50.8031 12.5799 50.8454 11.931C50.8947 11.2749 50.9475 10.6471 51.0038 10.0475C51.0672 9.4409 51.1341 8.89421 51.2045 8.40748H52.7786Z" fill="#333333"/>
<path d="M62.2593 8.40748C62.3861 8.64026 62.5305 8.92948 62.6925 9.27513C62.8615 9.61372 63.034 9.98406 63.2101 10.3861C63.3932 10.7812 63.5728 11.1868 63.7489 11.603C63.9249 12.0191 64.0904 12.4106 64.2454 12.7775C64.4003 12.4106 64.5658 12.0191 64.7419 11.603C64.9179 11.1868 65.094 10.7812 65.2701 10.3861C65.4532 9.98406 65.6257 9.61372 65.7877 9.27513C65.9567 8.92948 66.1046 8.64026 66.2314 8.40748H67.7315C67.8019 8.89421 67.8653 9.4409 67.9216 10.0475C67.985 10.6471 68.0378 11.2749 68.0801 11.931C68.1294 12.5799 68.1716 13.2324 68.2069 13.8885C68.2491 14.5445 68.2843 15.1617 68.3125 15.7402H66.7068C66.6856 15.0277 66.6575 14.2518 66.6223 13.4123C66.587 12.5729 66.5342 11.7264 66.4638 10.8729C66.337 11.1691 66.1962 11.4972 66.0412 11.8569C65.8863 12.2167 65.7314 12.5764 65.5764 12.9362C65.4285 13.2959 65.2842 13.6416 65.1433 13.9731C65.0024 14.2976 64.8827 14.5762 64.7841 14.809H63.6327C63.5341 14.5762 63.4143 14.2976 63.2735 13.9731C63.1326 13.6416 62.9847 13.2959 62.8298 12.9362C62.6819 12.5764 62.5305 12.2167 62.3755 11.8569C62.2206 11.4972 62.0797 11.1691 61.953 10.8729C61.8825 11.7264 61.8297 12.5729 61.7945 13.4123C61.7593 14.2518 61.7311 15.0277 61.71 15.7402H60.1043C60.1325 15.1617 60.1641 14.5445 60.1994 13.8885C60.2416 13.2324 60.2839 12.5799 60.3261 11.931C60.3754 11.2749 60.4282 10.6471 60.4846 10.0475C60.548 9.4409 60.6149 8.89421 60.6853 8.40748H62.2593Z" fill="#333333"/>
<path d="M74.698 15.7402C74.6206 15.4862 74.5325 15.2252 74.4339 14.9572C74.3424 14.6891 74.2508 14.4211 74.1592 14.153H71.307C71.2154 14.4211 71.1203 14.6891 71.0217 14.9572C70.9302 15.2252 70.8457 15.4862 70.7682 15.7402H69.0568C69.3315 14.9501 69.5921 14.22 69.8386 13.5499C70.0851 12.8797 70.3245 12.2484 70.5569 11.6559C70.7964 11.0633 71.0288 10.5025 71.2542 9.97348C71.4866 9.43737 71.726 8.91537 71.9725 8.40748H73.5465C73.786 8.91537 74.0219 9.43737 74.2543 9.97348C74.4867 10.5025 74.7191 11.0633 74.9516 11.6559C75.191 12.2484 75.434 12.8797 75.6805 13.5499C75.927 14.22 76.1875 14.9501 76.4622 15.7402H74.698ZM72.7225 10.0687C72.6873 10.1745 72.6345 10.3191 72.5641 10.5025C72.4937 10.6859 72.4127 10.8976 72.3211 11.1374C72.2296 11.3772 72.1274 11.6418 72.0148 11.931C71.9091 12.2202 71.8 12.5235 71.6873 12.8409H73.7684C73.6557 12.5235 73.5465 12.2202 73.4409 11.931C73.3353 11.6418 73.2331 11.3772 73.1345 11.1374C73.043 10.8976 72.962 10.6859 72.8916 10.5025C72.8211 10.3191 72.7648 10.1745 72.7225 10.0687Z" fill="#333333"/>
<path d="M19.3635 3.38594C21.4581 3.3848 23.4777 4.16347 25.0268 5.56948C22.1806 5.56948 17.9331 5.56948 16.6779 5.7296C15.7839 5.8336 14.9287 6.153 14.1862 6.66022C13.4436 7.16744 12.836 7.84726 12.4157 8.64099C11.8606 9.71424 11.5939 10.9127 11.6415 12.1194C11.6892 13.3261 12.0496 14.4999 12.6877 15.5262C13.3258 16.5526 14.2196 17.3965 15.2822 17.9757C16.3448 18.5549 17.5397 18.8495 18.7505 18.8308C19.9239 18.9304 21.1018 18.701 22.1514 18.1686C23.2011 17.6362 24.0807 16.8219 24.6912 15.8175C25.2099 14.7331 25.348 13.5061 25.0833 12.3339C24.8186 11.1617 24.1664 10.1122 23.2315 9.35428C22.8812 9.04858 22.6477 8.84478 22.239 8.53909C21.8768 8.31931 21.5259 8.08123 21.188 7.8258H26.7784C27.6713 9.44519 28.0058 11.3124 27.7304 13.14C27.455 14.9675 26.5848 16.6541 25.254 17.9402C23.9232 19.2262 22.2055 20.0404 20.3652 20.2573C18.5249 20.4743 16.6642 20.082 15.0694 19.1409C13.4746 18.1998 12.2341 16.7619 11.539 15.0488C10.8439 13.3357 10.7327 11.4421 11.2224 9.65975C11.7121 7.87736 12.7757 6.3049 14.2493 5.18443C15.723 4.06397 17.525 3.45762 19.3781 3.45873L19.3635 3.38594ZM18.2688 7.8258C18.6191 7.8258 18.9986 7.8258 19.3635 7.8258C19.7284 7.8258 19.9328 7.8258 20.2247 8.11694C20.6338 8.48298 21.0009 8.89307 21.3194 9.33972C22.043 10.2879 22.4923 11.4156 22.6185 12.6005C22.8246 13.9315 22.5393 15.2918 21.8157 16.4289C21.4663 16.9353 20.9862 17.338 20.426 17.5943C19.8658 17.8505 19.2464 17.9509 18.6337 17.8846C18.043 17.8375 17.4682 17.6712 16.9438 17.396C16.4194 17.1207 15.9565 16.7422 15.5831 16.2834C14.8167 15.3729 14.3481 14.2502 14.2402 13.0663C13.8899 9.68908 15.2912 8.04415 18.2688 7.78213V7.8258Z" fill="#224386"/>
</svg>
