<svg width="372" height="326" viewBox="0 0 372 326" fill="none" xmlns="http://www.w3.org/2000/svg">
<rect width="372" height="326" rx="29" fill="#EDEDED"/>
<path d="M50.056 146C49.88 145.424 49.68 144.832 49.456 144.224C49.248 143.616 49.04 143.008 48.832 142.4H42.352C42.144 143.008 41.928 143.616 41.704 144.224C41.496 144.832 41.304 145.424 41.128 146H37.24C37.864 144.208 38.456 142.552 39.016 141.032C39.576 139.512 40.12 138.08 40.648 136.736C41.192 135.392 41.72 134.12 42.232 132.92C42.76 131.704 43.304 130.52 43.864 129.368H47.44C47.984 130.52 48.52 131.704 49.048 132.92C49.576 134.12 50.104 135.392 50.632 136.736C51.176 138.08 51.728 139.512 52.288 141.032C52.848 142.552 53.44 144.208 54.064 146H50.056ZM45.568 133.136C45.488 133.376 45.368 133.704 45.208 134.12C45.048 134.536 44.864 135.016 44.656 135.56C44.448 136.104 44.216 136.704 43.96 137.36C43.72 138.016 43.472 138.704 43.216 139.424H47.944C47.688 138.704 47.44 138.016 47.2 137.36C46.96 136.704 46.728 136.104 46.504 135.56C46.296 135.016 46.112 134.536 45.952 134.12C45.792 133.704 45.664 133.376 45.568 133.136ZM63.3556 146.336C60.6516 146.336 58.5876 145.584 57.1636 144.08C55.7556 142.576 55.0516 140.44 55.0516 137.672C55.0516 136.296 55.2676 135.072 55.6996 134C56.1316 132.912 56.7236 132 57.4756 131.264C58.2276 130.512 59.1236 129.944 60.1636 129.56C61.2036 129.176 62.3316 128.984 63.5476 128.984C64.2516 128.984 64.8916 129.04 65.4676 129.152C66.0436 129.248 66.5476 129.368 66.9796 129.512C67.4116 129.64 67.7716 129.776 68.0596 129.92C68.3476 130.064 68.5556 130.176 68.6836 130.256L67.6036 133.28C67.0916 133.008 66.4916 132.776 65.8036 132.584C65.1316 132.392 64.3636 132.296 63.4996 132.296C62.9236 132.296 62.3556 132.392 61.7956 132.584C61.2516 132.776 60.7636 133.088 60.3316 133.52C59.9156 133.936 59.5796 134.48 59.3236 135.152C59.0676 135.824 58.9396 136.64 58.9396 137.6C58.9396 138.368 59.0196 139.088 59.1796 139.76C59.3556 140.416 59.6276 140.984 59.9956 141.464C60.3796 141.944 60.8756 142.328 61.4836 142.616C62.0916 142.888 62.8276 143.024 63.6916 143.024C64.2356 143.024 64.7236 142.992 65.1556 142.928C65.5876 142.864 65.9716 142.792 66.3076 142.712C66.6436 142.616 66.9396 142.512 67.1956 142.4C67.4516 142.288 67.6836 142.184 67.8916 142.088L68.9236 145.088C68.3956 145.408 67.6516 145.696 66.6916 145.952C65.7316 146.208 64.6196 146.336 63.3556 146.336ZM78.5196 146.336C75.8156 146.336 73.7516 145.584 72.3276 144.08C70.9196 142.576 70.2156 140.44 70.2156 137.672C70.2156 136.296 70.4316 135.072 70.8636 134C71.2956 132.912 71.8876 132 72.6396 131.264C73.3916 130.512 74.2876 129.944 75.3276 129.56C76.3676 129.176 77.4956 128.984 78.7116 128.984C79.4156 128.984 80.0556 129.04 80.6316 129.152C81.2076 129.248 81.7116 129.368 82.1436 129.512C82.5756 129.64 82.9356 129.776 83.2236 129.92C83.5116 130.064 83.7196 130.176 83.8476 130.256L82.7676 133.28C82.2556 133.008 81.6556 132.776 80.9676 132.584C80.2956 132.392 79.5276 132.296 78.6636 132.296C78.0876 132.296 77.5196 132.392 76.9596 132.584C76.4156 132.776 75.9276 133.088 75.4956 133.52C75.0796 133.936 74.7436 134.48 74.4876 135.152C74.2316 135.824 74.1036 136.64 74.1036 137.6C74.1036 138.368 74.1836 139.088 74.3436 139.76C74.5196 140.416 74.7916 140.984 75.1596 141.464C75.5436 141.944 76.0396 142.328 76.6476 142.616C77.2556 142.888 77.9916 143.024 78.8556 143.024C79.3996 143.024 79.8876 142.992 80.3196 142.928C80.7516 142.864 81.1356 142.792 81.4716 142.712C81.8076 142.616 82.1036 142.512 82.3596 142.4C82.6156 142.288 82.8476 142.184 83.0556 142.088L84.0876 145.088C83.5596 145.408 82.8156 145.696 81.8556 145.952C80.8956 146.208 79.7836 146.336 78.5196 146.336ZM89.0328 137.672C89.0328 138.488 89.1288 139.224 89.3208 139.88C89.5288 140.536 89.8168 141.104 90.1848 141.584C90.5688 142.048 91.0328 142.408 91.5768 142.664C92.1208 142.92 92.7448 143.048 93.4488 143.048C94.1368 143.048 94.7528 142.92 95.2968 142.664C95.8568 142.408 96.3208 142.048 96.6888 141.584C97.0728 141.104 97.3608 140.536 97.5528 139.88C97.7608 139.224 97.8648 138.488 97.8648 137.672C97.8648 136.856 97.7608 136.12 97.5528 135.464C97.3608 134.792 97.0728 134.224 96.6888 133.76C96.3208 133.28 95.8568 132.912 95.2968 132.656C94.7528 132.4 94.1368 132.272 93.4488 132.272C92.7448 132.272 92.1208 132.408 91.5768 132.68C91.0328 132.936 90.5688 133.304 90.1848 133.784C89.8168 134.248 89.5288 134.816 89.3208 135.488C89.1288 136.144 89.0328 136.872 89.0328 137.672ZM101.729 137.672C101.729 139.096 101.513 140.352 101.081 141.44C100.665 142.512 100.089 143.416 99.3528 144.152C98.6168 144.872 97.7368 145.416 96.7128 145.784C95.7048 146.152 94.6168 146.336 93.4488 146.336C92.3128 146.336 91.2408 146.152 90.2328 145.784C89.2248 145.416 88.3448 144.872 87.5928 144.152C86.8408 143.416 86.2488 142.512 85.8168 141.44C85.3848 140.352 85.1688 139.096 85.1688 137.672C85.1688 136.248 85.3928 135 85.8408 133.928C86.2888 132.84 86.8888 131.928 87.6408 131.192C88.4088 130.456 89.2888 129.904 90.2808 129.536C91.2888 129.168 92.3448 128.984 93.4488 128.984C94.5848 128.984 95.6568 129.168 96.6648 129.536C97.6728 129.904 98.5528 130.456 99.3048 131.192C100.057 131.928 100.649 132.84 101.081 133.928C101.513 135 101.729 136.248 101.729 137.672ZM109.842 129.176C112.322 129.176 114.226 129.616 115.554 130.496C116.882 131.36 117.546 132.784 117.546 134.768C117.546 136.768 116.874 138.216 115.53 139.112C114.186 139.992 112.266 140.432 109.77 140.432H108.594V146H104.85V129.608C105.666 129.448 106.53 129.336 107.442 129.272C108.354 129.208 109.154 129.176 109.842 129.176ZM110.082 132.368C109.81 132.368 109.538 132.376 109.266 132.392C109.01 132.408 108.786 132.424 108.594 132.44V137.24H109.77C111.066 137.24 112.042 137.064 112.698 136.712C113.354 136.36 113.682 135.704 113.682 134.744C113.682 134.28 113.594 133.896 113.418 133.592C113.258 133.288 113.018 133.048 112.698 132.872C112.394 132.68 112.018 132.552 111.57 132.488C111.122 132.408 110.626 132.368 110.082 132.368ZM132.936 129.368V132.56H127.92V146H124.176V132.56H119.16V129.368H132.936ZM135.342 146V129.368H139.062V139.184C139.638 138.32 140.254 137.424 140.91 136.496C141.566 135.552 142.222 134.648 142.878 133.784C143.55 132.904 144.206 132.08 144.846 131.312C145.486 130.544 146.07 129.896 146.598 129.368H149.646V146H145.95V135.104C144.542 136.752 143.214 138.504 141.966 140.36C140.718 142.216 139.558 144.096 138.486 146H135.342ZM157.898 129.368C158.187 129.896 158.515 130.552 158.883 131.336C159.267 132.104 159.659 132.944 160.059 133.856C160.475 134.752 160.883 135.672 161.283 136.616C161.683 137.56 162.059 138.448 162.411 139.28C162.763 138.448 163.139 137.56 163.539 136.616C163.939 135.672 164.339 134.752 164.739 133.856C165.155 132.944 165.547 132.104 165.915 131.336C166.299 130.552 166.635 129.896 166.923 129.368H170.331C170.491 130.472 170.635 131.712 170.763 133.088C170.907 134.448 171.027 135.872 171.123 137.36C171.235 138.832 171.331 140.312 171.411 141.8C171.507 143.288 171.587 144.688 171.651 146H168.003C167.955 144.384 167.891 142.624 167.811 140.72C167.731 138.816 167.611 136.896 167.451 134.96C167.163 135.632 166.843 136.376 166.491 137.192C166.139 138.008 165.787 138.824 165.435 139.64C165.099 140.456 164.771 141.24 164.451 141.992C164.131 142.728 163.859 143.36 163.635 143.888H161.019C160.795 143.36 160.523 142.728 160.203 141.992C159.883 141.24 159.547 140.456 159.195 139.64C158.859 138.824 158.515 138.008 158.163 137.192C157.811 136.376 157.491 135.632 157.203 134.96C157.043 136.896 156.923 138.816 156.843 140.72C156.763 142.624 156.699 144.384 156.651 146H153.003C153.067 144.688 153.139 143.288 153.219 141.8C153.315 140.312 153.411 138.832 153.507 137.36C153.619 135.872 153.739 134.448 153.867 133.088C154.011 131.712 154.163 130.472 154.323 129.368H157.898ZM175.022 146V129.368H186.254V132.512H178.766V135.776H185.414V138.848H178.766V142.856H186.806V146H175.022ZM199.608 129.368H203.352V146H199.608V138.944H193.32V146H189.576V129.368H193.32V135.728H199.608V129.368ZM219.537 129.368V132.56H214.521V146H210.777V132.56H205.761V129.368H219.537Z" fill="#224386"/>
<path d="M39.465 177.115H40.349C40.723 177.115 41.1027 177.087 41.488 177.03C41.8733 176.973 42.2247 176.871 42.542 176.724C42.8593 176.565 43.12 176.356 43.324 176.095C43.528 175.834 43.63 175.506 43.63 175.109C43.63 174.599 43.409 174.185 42.967 173.868C42.5363 173.539 41.9583 173.375 41.233 173.375C40.6097 173.375 40.0487 173.449 39.55 173.596C39.0513 173.732 38.683 173.874 38.445 174.021L37.918 172.678C38.054 172.587 38.2353 172.502 38.462 172.423C38.7 172.332 38.9607 172.253 39.244 172.185C39.5387 172.117 39.856 172.066 40.196 172.032C40.536 171.987 40.8873 171.964 41.25 171.964C41.8393 171.964 42.3833 172.026 42.882 172.151C43.3807 172.276 43.8113 172.468 44.174 172.729C44.5367 172.978 44.82 173.301 45.024 173.698C45.228 174.083 45.33 174.542 45.33 175.075C45.33 175.619 45.1543 176.129 44.803 176.605C44.463 177.081 43.9587 177.427 43.29 177.642C43.63 177.733 43.953 177.863 44.259 178.033C44.5763 178.192 44.8483 178.401 45.075 178.662C45.313 178.911 45.5 179.206 45.636 179.546C45.7833 179.886 45.857 180.283 45.857 180.736C45.857 181.359 45.738 181.898 45.5 182.351C45.2733 182.793 44.9503 183.156 44.531 183.439C44.123 183.722 43.6243 183.926 43.035 184.051C42.4457 184.187 41.794 184.255 41.08 184.255C40.6493 184.255 40.2413 184.221 39.856 184.153C39.4707 184.096 39.125 184.028 38.819 183.949C38.513 183.858 38.2467 183.762 38.02 183.66C37.7933 183.558 37.6177 183.473 37.493 183.405L37.986 182.045C38.1107 182.113 38.275 182.192 38.479 182.283C38.6943 182.374 38.9323 182.459 39.193 182.538C39.4537 182.617 39.7427 182.685 40.06 182.742C40.3773 182.799 40.7117 182.827 41.063 182.827C42.0263 182.827 42.7743 182.668 43.307 182.351C43.851 182.022 44.123 181.473 44.123 180.702C44.123 180.249 44.0267 179.88 43.834 179.597C43.6527 179.302 43.3977 179.07 43.069 178.9C42.7517 178.73 42.372 178.617 41.93 178.56C41.4993 178.492 41.029 178.458 40.519 178.458H39.465V177.115ZM51.0805 182.861C51.4545 182.861 51.7832 182.855 52.0665 182.844C52.3612 182.821 52.6048 182.787 52.7975 182.742V180.107C52.6842 180.05 52.4972 180.005 52.2365 179.971C51.9872 179.926 51.6812 179.903 51.3185 179.903C51.0805 179.903 50.8255 179.92 50.5535 179.954C50.2928 179.988 50.0492 180.062 49.8225 180.175C49.6072 180.277 49.4258 180.424 49.2785 180.617C49.1312 180.798 49.0575 181.042 49.0575 181.348C49.0575 181.915 49.2388 182.311 49.6015 182.538C49.9642 182.753 50.4572 182.861 51.0805 182.861ZM50.9445 174.939C51.5792 174.939 52.1118 175.024 52.5425 175.194C52.9845 175.353 53.3358 175.585 53.5965 175.891C53.8685 176.186 54.0612 176.543 54.1745 176.962C54.2878 177.37 54.3445 177.823 54.3445 178.322V183.847C54.2085 183.87 54.0158 183.904 53.7665 183.949C53.5285 183.983 53.2565 184.017 52.9505 184.051C52.6445 184.085 52.3102 184.113 51.9475 184.136C51.5962 184.17 51.2448 184.187 50.8935 184.187C50.3948 184.187 49.9358 184.136 49.5165 184.034C49.0972 183.932 48.7345 183.773 48.4285 183.558C48.1225 183.331 47.8845 183.037 47.7145 182.674C47.5445 182.311 47.4595 181.875 47.4595 181.365C47.4595 180.878 47.5558 180.458 47.7485 180.107C47.9525 179.756 48.2245 179.472 48.5645 179.257C48.9045 179.042 49.3012 178.883 49.7545 178.781C50.2078 178.679 50.6838 178.628 51.1825 178.628C51.3412 178.628 51.5055 178.639 51.6755 178.662C51.8455 178.673 52.0042 178.696 52.1515 178.73C52.3102 178.753 52.4462 178.775 52.5595 178.798C52.6728 178.821 52.7522 178.838 52.7975 178.849V178.407C52.7975 178.146 52.7692 177.891 52.7125 177.642C52.6558 177.381 52.5538 177.155 52.4065 176.962C52.2592 176.758 52.0552 176.599 51.7945 176.486C51.5452 176.361 51.2165 176.299 50.8085 176.299C50.2872 176.299 49.8282 176.339 49.4315 176.418C49.0462 176.486 48.7572 176.56 48.5645 176.639L48.3775 175.33C48.5815 175.239 48.9215 175.154 49.3975 175.075C49.8735 174.984 50.3892 174.939 50.9445 174.939ZM58.5174 182.81C58.5854 182.821 58.6817 182.833 58.8064 182.844C58.931 182.855 59.0727 182.867 59.2314 182.878C59.39 182.878 59.5544 182.884 59.7244 182.895C59.9057 182.895 60.0757 182.895 60.2344 182.895C60.563 182.895 60.8747 182.872 61.1694 182.827C61.4754 182.782 61.736 182.702 61.9514 182.589C62.178 182.476 62.3537 182.328 62.4784 182.147C62.6144 181.954 62.6824 181.711 62.6824 181.416C62.6824 181.133 62.62 180.9 62.4954 180.719C62.382 180.526 62.2234 180.373 62.0194 180.26C61.8154 180.147 61.5717 180.067 61.2884 180.022C61.0164 179.977 60.7217 179.954 60.4044 179.954H58.5174V182.81ZM60.2004 178.781C60.5064 178.781 60.784 178.764 61.0334 178.73C61.294 178.685 61.515 178.611 61.6964 178.509C61.889 178.407 62.0364 178.271 62.1384 178.101C62.2517 177.931 62.3084 177.716 62.3084 177.455C62.3084 177.183 62.2404 176.968 62.1044 176.809C61.9684 176.65 61.787 176.531 61.5604 176.452C61.345 176.361 61.0957 176.305 60.8124 176.282C60.5404 176.248 60.2627 176.231 59.9794 176.231C59.7187 176.231 59.4524 176.237 59.1804 176.248C58.9197 176.259 58.6987 176.271 58.5174 176.282V178.781H60.2004ZM60.1664 184.153C59.4977 184.153 58.88 184.119 58.3134 184.051C57.7467 183.994 57.299 183.926 56.9704 183.847V175.245C57.299 175.166 57.7467 175.098 58.3134 175.041C58.88 174.973 59.4977 174.939 60.1664 174.939C60.631 174.939 61.0844 174.979 61.5264 175.058C61.9684 175.137 62.3594 175.273 62.6994 175.466C63.0394 175.647 63.3114 175.902 63.5154 176.231C63.7307 176.548 63.8384 176.945 63.8384 177.421C63.8384 177.852 63.7307 178.22 63.5154 178.526C63.3 178.832 63.011 179.07 62.6484 179.24C63.1357 179.41 63.521 179.665 63.8044 180.005C64.099 180.334 64.2464 180.798 64.2464 181.399C64.2464 181.932 64.1387 182.374 63.9234 182.725C63.7194 183.076 63.4304 183.36 63.0564 183.575C62.6937 183.79 62.263 183.938 61.7644 184.017C61.2657 184.108 60.733 184.153 60.1664 184.153ZM74.0868 179.58C74.0868 180.283 73.9848 180.917 73.7808 181.484C73.5768 182.051 73.2878 182.538 72.9138 182.946C72.5512 183.354 72.1148 183.671 71.6048 183.898C71.0948 184.113 70.5395 184.221 69.9388 184.221C69.3382 184.221 68.7828 184.113 68.2728 183.898C67.7628 183.671 67.3208 183.354 66.9468 182.946C66.5842 182.538 66.3008 182.051 66.0968 181.484C65.8928 180.917 65.7908 180.283 65.7908 179.58C65.7908 178.889 65.8928 178.26 66.0968 177.693C66.3008 177.115 66.5842 176.622 66.9468 176.214C67.3208 175.806 67.7628 175.494 68.2728 175.279C68.7828 175.052 69.3382 174.939 69.9388 174.939C70.5395 174.939 71.0948 175.052 71.6048 175.279C72.1148 175.494 72.5512 175.806 72.9138 176.214C73.2878 176.622 73.5768 177.115 73.7808 177.693C73.9848 178.26 74.0868 178.889 74.0868 179.58ZM72.4378 179.58C72.4378 178.583 72.2112 177.795 71.7578 177.217C71.3158 176.628 70.7095 176.333 69.9388 176.333C69.1682 176.333 68.5562 176.628 68.1028 177.217C67.6608 177.795 67.4398 178.583 67.4398 179.58C67.4398 180.577 67.6608 181.371 68.1028 181.96C68.5562 182.538 69.1682 182.827 69.9388 182.827C70.7095 182.827 71.3158 182.538 71.7578 181.96C72.2112 181.371 72.4378 180.577 72.4378 179.58ZM75.2232 182.708H76.1752C76.5492 182.164 76.8438 181.603 77.0592 181.025C77.2858 180.447 77.4558 179.852 77.5692 179.24C77.6825 178.617 77.7562 177.971 77.7902 177.302C77.8242 176.622 77.8468 175.908 77.8582 175.16H83.6552V182.708H84.8452V186.465H83.3492V184H76.7192V186.465H75.2232V182.708ZM82.0742 182.708V176.486H79.3032C79.2918 177.019 79.2635 177.557 79.2182 178.101C79.1728 178.634 79.0992 179.166 78.9972 179.699C78.8952 180.22 78.7478 180.736 78.5552 181.246C78.3738 181.745 78.1415 182.232 77.8582 182.708H82.0742ZM93.7189 172.1C95.3736 172.1 96.6429 172.417 97.5269 173.052C98.4222 173.675 98.8699 174.61 98.8699 175.857C98.8699 176.537 98.7452 177.121 98.4959 177.608C98.2579 178.084 97.9066 178.475 97.4419 178.781C96.9886 179.076 96.4332 179.291 95.7759 179.427C95.1186 179.563 94.3762 179.631 93.5489 179.631H92.2399V184H90.5909V172.389C91.0556 172.276 91.5712 172.202 92.1379 172.168C92.7159 172.123 93.2429 172.1 93.7189 172.1ZM93.8549 173.545C93.1522 173.545 92.6139 173.562 92.2399 173.596V178.22H93.4809C94.0476 178.22 94.5576 178.186 95.0109 178.118C95.4642 178.039 95.8439 177.914 96.1499 177.744C96.4672 177.563 96.7109 177.319 96.8809 177.013C97.0509 176.707 97.1359 176.316 97.1359 175.84C97.1359 175.387 97.0452 175.013 96.8639 174.718C96.6939 174.423 96.4559 174.191 96.1499 174.021C95.8552 173.84 95.5096 173.715 95.1129 173.647C94.7162 173.579 94.2969 173.545 93.8549 173.545ZM108.805 172.219V173.647H105.099V184H103.45V173.647H99.7437V172.219H108.805ZM119.505 172.219V184H117.856V173.63H112.195V184H110.546V172.219H119.505ZM133.898 184C133.672 183.581 133.405 183.11 133.099 182.589C132.793 182.056 132.47 181.507 132.13 180.94C131.79 180.373 131.433 179.795 131.059 179.206C130.685 178.617 130.317 178.05 129.954 177.506C129.592 176.951 129.235 176.435 128.883 175.959C128.543 175.472 128.226 175.047 127.931 174.684V184H126.367V172.219H127.846C128.345 172.786 128.872 173.454 129.427 174.225C129.994 174.984 130.549 175.772 131.093 176.588C131.637 177.393 132.147 178.186 132.623 178.968C133.111 179.75 133.524 180.441 133.864 181.042V172.219H135.445V184H133.898ZM143.163 175.194C143.163 175.681 143.084 176.123 142.925 176.52C142.778 176.917 142.568 177.257 142.296 177.54C142.024 177.823 141.701 178.044 141.327 178.203C140.953 178.35 140.545 178.424 140.103 178.424C139.661 178.424 139.253 178.35 138.879 178.203C138.505 178.044 138.182 177.823 137.91 177.54C137.638 177.257 137.423 176.917 137.264 176.52C137.117 176.123 137.043 175.681 137.043 175.194C137.043 174.707 137.117 174.265 137.264 173.868C137.423 173.46 137.638 173.12 137.91 172.848C138.182 172.565 138.505 172.349 138.879 172.202C139.253 172.043 139.661 171.964 140.103 171.964C140.545 171.964 140.953 172.043 141.327 172.202C141.701 172.349 142.024 172.565 142.296 172.848C142.568 173.12 142.778 173.46 142.925 173.868C143.084 174.265 143.163 174.707 143.163 175.194ZM141.905 175.194C141.905 174.548 141.747 174.038 141.429 173.664C141.123 173.29 140.681 173.103 140.103 173.103C139.525 173.103 139.078 173.29 138.76 173.664C138.454 174.038 138.301 174.548 138.301 175.194C138.301 175.817 138.454 176.322 138.76 176.707C139.078 177.092 139.525 177.285 140.103 177.285C140.681 177.285 141.123 177.092 141.429 176.707C141.747 176.322 141.905 175.817 141.905 175.194ZM137.213 180.141H142.993V181.45H137.213V180.141ZM145.694 174.65C146.34 174.401 146.969 174.083 147.581 173.698C148.193 173.301 148.754 172.808 149.264 172.219H150.386V184H148.805V174.412C148.669 174.537 148.499 174.667 148.295 174.803C148.103 174.939 147.887 175.069 147.649 175.194C147.423 175.319 147.179 175.438 146.918 175.551C146.669 175.664 146.425 175.761 146.187 175.84L145.694 174.65ZM160.551 182.81C160.619 182.821 160.715 182.833 160.84 182.844C160.964 182.855 161.106 182.867 161.265 182.878C161.423 182.878 161.588 182.884 161.758 182.895C161.939 182.895 162.109 182.895 162.268 182.895C162.596 182.895 162.908 182.872 163.203 182.827C163.509 182.782 163.769 182.702 163.985 182.589C164.211 182.476 164.387 182.328 164.512 182.147C164.648 181.954 164.716 181.711 164.716 181.416C164.716 181.133 164.653 180.9 164.529 180.719C164.415 180.526 164.257 180.373 164.053 180.26C163.849 180.147 163.605 180.067 163.322 180.022C163.05 179.977 162.755 179.954 162.438 179.954H160.551V182.81ZM162.234 178.781C162.54 178.781 162.817 178.764 163.067 178.73C163.327 178.685 163.548 178.611 163.73 178.509C163.922 178.407 164.07 178.271 164.172 178.101C164.285 177.931 164.342 177.716 164.342 177.455C164.342 177.183 164.274 176.968 164.138 176.809C164.002 176.65 163.82 176.531 163.594 176.452C163.378 176.361 163.129 176.305 162.846 176.282C162.574 176.248 162.296 176.231 162.013 176.231C161.752 176.231 161.486 176.237 161.214 176.248C160.953 176.259 160.732 176.271 160.551 176.282V178.781H162.234ZM162.2 184.153C161.531 184.153 160.913 184.119 160.347 184.051C159.78 183.994 159.332 183.926 159.004 183.847V175.245C159.332 175.166 159.78 175.098 160.347 175.041C160.913 174.973 161.531 174.939 162.2 174.939C162.664 174.939 163.118 174.979 163.56 175.058C164.002 175.137 164.393 175.273 164.733 175.466C165.073 175.647 165.345 175.902 165.549 176.231C165.764 176.548 165.872 176.945 165.872 177.421C165.872 177.852 165.764 178.22 165.549 178.526C165.333 178.832 165.044 179.07 164.682 179.24C165.169 179.41 165.554 179.665 165.838 180.005C166.132 180.334 166.28 180.798 166.28 181.399C166.28 181.932 166.172 182.374 165.957 182.725C165.753 183.076 165.464 183.36 165.09 183.575C164.727 183.79 164.296 183.938 163.798 184.017C163.299 184.108 162.766 184.153 162.2 184.153ZM175.482 172.1C177.136 172.1 178.406 172.417 179.29 173.052C180.185 173.675 180.633 174.61 180.633 175.857C180.633 176.537 180.508 177.121 180.259 177.608C180.021 178.084 179.669 178.475 179.205 178.781C178.751 179.076 178.196 179.291 177.539 179.427C176.881 179.563 176.139 179.631 175.312 179.631H174.003V184H172.354V172.389C172.818 172.276 173.334 172.202 173.901 172.168C174.479 172.123 175.006 172.1 175.482 172.1ZM175.618 173.545C174.915 173.545 174.377 173.562 174.003 173.596V178.22H175.244C175.81 178.22 176.32 178.186 176.774 178.118C177.227 178.039 177.607 177.914 177.913 177.744C178.23 177.563 178.474 177.319 178.644 177.013C178.814 176.707 178.899 176.316 178.899 175.84C178.899 175.387 178.808 175.013 178.627 174.718C178.457 174.423 178.219 174.191 177.913 174.021C177.618 173.84 177.272 173.715 176.876 173.647C176.479 173.579 176.06 173.545 175.618 173.545ZM190.397 179.58C190.397 180.283 190.295 180.917 190.091 181.484C189.887 182.051 189.598 182.538 189.224 182.946C188.862 183.354 188.425 183.671 187.915 183.898C187.405 184.113 186.85 184.221 186.249 184.221C185.649 184.221 185.093 184.113 184.583 183.898C184.073 183.671 183.631 183.354 183.257 182.946C182.895 182.538 182.611 182.051 182.407 181.484C182.203 180.917 182.101 180.283 182.101 179.58C182.101 178.889 182.203 178.26 182.407 177.693C182.611 177.115 182.895 176.622 183.257 176.214C183.631 175.806 184.073 175.494 184.583 175.279C185.093 175.052 185.649 174.939 186.249 174.939C186.85 174.939 187.405 175.052 187.915 175.279C188.425 175.494 188.862 175.806 189.224 176.214C189.598 176.622 189.887 177.115 190.091 177.693C190.295 178.26 190.397 178.889 190.397 179.58ZM188.748 179.58C188.748 178.583 188.522 177.795 188.068 177.217C187.626 176.628 187.02 176.333 186.249 176.333C185.479 176.333 184.867 176.628 184.413 177.217C183.971 177.795 183.75 178.583 183.75 179.58C183.75 180.577 183.971 181.371 184.413 181.96C184.867 182.538 185.479 182.827 186.249 182.827C187.02 182.827 187.626 182.538 188.068 181.96C188.522 181.371 188.748 180.577 188.748 179.58ZM196.464 184.204C195.75 184.204 195.121 184.091 194.577 183.864C194.044 183.637 193.591 183.32 193.217 182.912C192.854 182.504 192.582 182.022 192.401 181.467C192.219 180.9 192.129 180.277 192.129 179.597C192.129 178.917 192.225 178.294 192.418 177.727C192.622 177.16 192.905 176.673 193.268 176.265C193.63 175.846 194.072 175.523 194.594 175.296C195.126 175.058 195.716 174.939 196.362 174.939C196.758 174.939 197.155 174.973 197.552 175.041C197.948 175.109 198.328 175.217 198.691 175.364L198.334 176.707C198.096 176.594 197.818 176.503 197.501 176.435C197.195 176.367 196.866 176.333 196.515 176.333C195.631 176.333 194.951 176.611 194.475 177.166C194.01 177.721 193.778 178.532 193.778 179.597C193.778 180.073 193.829 180.509 193.931 180.906C194.044 181.303 194.214 181.643 194.441 181.926C194.679 182.209 194.979 182.43 195.342 182.589C195.704 182.736 196.146 182.81 196.668 182.81C197.087 182.81 197.467 182.77 197.807 182.691C198.147 182.612 198.413 182.527 198.606 182.436L198.827 183.762C198.736 183.819 198.606 183.875 198.436 183.932C198.266 183.977 198.073 184.017 197.858 184.051C197.642 184.096 197.41 184.13 197.161 184.153C196.923 184.187 196.69 184.204 196.464 184.204ZM204.366 184.204C203.652 184.204 203.023 184.091 202.479 183.864C201.946 183.637 201.493 183.32 201.119 182.912C200.756 182.504 200.484 182.022 200.303 181.467C200.122 180.9 200.031 180.277 200.031 179.597C200.031 178.917 200.127 178.294 200.32 177.727C200.524 177.16 200.807 176.673 201.17 176.265C201.533 175.846 201.975 175.523 202.496 175.296C203.029 175.058 203.618 174.939 204.264 174.939C204.661 174.939 205.057 174.973 205.454 175.041C205.851 175.109 206.23 175.217 206.593 175.364L206.236 176.707C205.998 176.594 205.72 176.503 205.403 176.435C205.097 176.367 204.768 176.333 204.417 176.333C203.533 176.333 202.853 176.611 202.377 177.166C201.912 177.721 201.68 178.532 201.68 179.597C201.68 180.073 201.731 180.509 201.833 180.906C201.946 181.303 202.116 181.643 202.343 181.926C202.581 182.209 202.881 182.43 203.244 182.589C203.607 182.736 204.049 182.81 204.57 182.81C204.989 182.81 205.369 182.77 205.709 182.691C206.049 182.612 206.315 182.527 206.508 182.436L206.729 183.762C206.638 183.819 206.508 183.875 206.338 183.932C206.168 183.977 205.975 184.017 205.76 184.051C205.545 184.096 205.312 184.13 205.063 184.153C204.825 184.187 204.593 184.204 204.366 184.204ZM215.855 175.16V184H214.325V177.268C213.985 177.699 213.611 178.203 213.203 178.781C212.795 179.359 212.387 179.96 211.979 180.583C211.571 181.195 211.18 181.801 210.806 182.402C210.432 183.003 210.109 183.535 209.837 184H208.426V175.16H209.956V181.518C210.251 181.031 210.585 180.498 210.959 179.92C211.333 179.331 211.719 178.753 212.115 178.186C212.523 177.608 212.926 177.058 213.322 176.537C213.73 176.004 214.11 175.545 214.461 175.16H215.855ZM225.999 175.16V184H224.469V177.268C224.129 177.699 223.755 178.203 223.347 178.781C222.939 179.359 222.531 179.96 222.123 180.583C221.715 181.195 221.324 181.801 220.95 182.402C220.576 183.003 220.253 183.535 219.981 184H218.57V175.16H220.1V181.518C220.395 181.031 220.729 180.498 221.103 179.92C221.477 179.331 221.862 178.753 222.259 178.186C222.667 177.608 223.069 177.058 223.466 176.537C223.874 176.004 224.254 175.545 224.605 175.16H225.999ZM239.754 184H238.173V176.486H234.229V184H232.648V175.16H239.754V184ZM250.279 179.58C250.279 180.283 250.177 180.917 249.973 181.484C249.769 182.051 249.48 182.538 249.106 182.946C248.744 183.354 248.307 183.671 247.797 183.898C247.287 184.113 246.732 184.221 246.131 184.221C245.531 184.221 244.975 184.113 244.465 183.898C243.955 183.671 243.513 183.354 243.139 182.946C242.777 182.538 242.493 182.051 242.289 181.484C242.085 180.917 241.983 180.283 241.983 179.58C241.983 178.889 242.085 178.26 242.289 177.693C242.493 177.115 242.777 176.622 243.139 176.214C243.513 175.806 243.955 175.494 244.465 175.279C244.975 175.052 245.531 174.939 246.131 174.939C246.732 174.939 247.287 175.052 247.797 175.279C248.307 175.494 248.744 175.806 249.106 176.214C249.48 176.622 249.769 177.115 249.973 177.693C250.177 178.26 250.279 178.889 250.279 179.58ZM248.63 179.58C248.63 178.583 248.404 177.795 247.95 177.217C247.508 176.628 246.902 176.333 246.131 176.333C245.361 176.333 244.749 176.628 244.295 177.217C243.853 177.795 243.632 178.583 243.632 179.58C243.632 180.577 243.853 181.371 244.295 181.96C244.749 182.538 245.361 182.827 246.131 182.827C246.902 182.827 247.508 182.538 247.95 181.96C248.404 181.371 248.63 180.577 248.63 179.58ZM41.59 208.189C41.9413 208.438 42.321 208.756 42.729 209.141C43.137 209.515 43.5337 209.923 43.919 210.365C44.3157 210.807 44.684 211.26 45.024 211.725C45.364 212.178 45.653 212.603 45.891 213H44.021C43.7717 212.615 43.477 212.224 43.137 211.827C42.8083 211.419 42.4627 211.028 42.1 210.654C41.7373 210.28 41.369 209.934 40.995 209.617C40.621 209.3 40.2697 209.033 39.941 208.818V213H38.36V204.16H39.941V207.951C40.213 207.69 40.5247 207.39 40.876 207.05C41.2273 206.699 41.5787 206.347 41.93 205.996C42.2927 205.633 42.627 205.293 42.933 204.976C43.239 204.647 43.4883 204.375 43.681 204.16H45.517C45.2677 204.432 44.973 204.744 44.633 205.095C44.3043 205.435 43.9587 205.786 43.596 206.149C43.2447 206.512 42.8933 206.874 42.542 207.237C42.1907 207.588 41.8733 207.906 41.59 208.189ZM54.7958 208.58C54.7958 209.283 54.6938 209.917 54.4898 210.484C54.2858 211.051 53.9968 211.538 53.6228 211.946C53.2601 212.354 52.8238 212.671 52.3138 212.898C51.8038 213.113 51.2485 213.221 50.6478 213.221C50.0471 213.221 49.4918 213.113 48.9818 212.898C48.4718 212.671 48.0298 212.354 47.6558 211.946C47.2931 211.538 47.0098 211.051 46.8058 210.484C46.6018 209.917 46.4998 209.283 46.4998 208.58C46.4998 207.889 46.6018 207.26 46.8058 206.693C47.0098 206.115 47.2931 205.622 47.6558 205.214C48.0298 204.806 48.4718 204.494 48.9818 204.279C49.4918 204.052 50.0471 203.939 50.6478 203.939C51.2485 203.939 51.8038 204.052 52.3138 204.279C52.8238 204.494 53.2601 204.806 53.6228 205.214C53.9968 205.622 54.2858 206.115 54.4898 206.693C54.6938 207.26 54.7958 207.889 54.7958 208.58ZM53.1468 208.58C53.1468 207.583 52.9201 206.795 52.4668 206.217C52.0248 205.628 51.4185 205.333 50.6478 205.333C49.8771 205.333 49.2651 205.628 48.8118 206.217C48.3698 206.795 48.1488 207.583 48.1488 208.58C48.1488 209.577 48.3698 210.371 48.8118 210.96C49.2651 211.538 49.8771 211.827 50.6478 211.827C51.4185 211.827 52.0248 211.538 52.4668 210.96C52.9201 210.371 53.1468 209.577 53.1468 208.58ZM60.0972 205.486C60.0972 205.86 60.0858 206.262 60.0632 206.693C60.0518 207.112 60.0235 207.537 59.9782 207.968C59.9328 208.387 59.8705 208.807 59.7912 209.226C59.7118 209.634 59.6098 210.019 59.4852 210.382C59.3605 210.745 59.2018 211.085 59.0092 211.402C58.8278 211.719 58.6012 212.003 58.3292 212.252C58.0572 212.49 57.7398 212.694 57.3772 212.864C57.0145 213.023 56.5895 213.125 56.1022 213.17L55.8812 211.844C56.4365 211.731 56.8728 211.521 57.1902 211.215C57.5188 210.909 57.7795 210.535 57.9722 210.093C58.1422 209.708 58.2668 209.271 58.3462 208.784C58.4255 208.297 58.4822 207.792 58.5162 207.271C58.5502 206.738 58.5672 206.206 58.5672 205.673C58.5785 205.14 58.5842 204.636 58.5842 204.16H64.4662V213H62.8852V205.486H60.0972ZM74.6093 204.16V213H73.0793V206.268C72.7393 206.699 72.3653 207.203 71.9573 207.781C71.5493 208.359 71.1413 208.96 70.7333 209.583C70.3253 210.195 69.9343 210.801 69.5603 211.402C69.1863 212.003 68.8633 212.535 68.5913 213H67.1803V204.16H68.7103V210.518C69.005 210.031 69.3393 209.498 69.7133 208.92C70.0873 208.331 70.4726 207.753 70.8693 207.186C71.2773 206.608 71.6796 206.058 72.0763 205.537C72.4843 205.004 72.864 204.545 73.2153 204.16H74.6093ZM78.3269 204.16V206.761C78.3269 207.43 78.4969 207.9 78.8369 208.172C79.1769 208.433 79.6415 208.563 80.2309 208.563C80.6615 208.563 81.0185 208.54 81.3019 208.495C81.5965 208.45 81.8572 208.399 82.0839 208.342V204.16H83.6649V213H82.0839V209.566C81.9932 209.589 81.8742 209.617 81.7269 209.651C81.5795 209.685 81.4095 209.719 81.2169 209.753C81.0355 209.776 80.8429 209.798 80.6389 209.821C80.4349 209.844 80.2365 209.855 80.0439 209.855C79.5565 209.855 79.1089 209.804 78.7009 209.702C78.3042 209.6 77.9585 209.43 77.6639 209.192C77.3805 208.954 77.1539 208.642 76.9839 208.257C76.8252 207.86 76.7459 207.367 76.7459 206.778V204.16H78.3269ZM85.8953 208.597C85.8953 207.815 86.0087 207.135 86.2353 206.557C86.462 205.968 86.7623 205.48 87.1363 205.095C87.5103 204.71 87.941 204.421 88.4283 204.228C88.9157 204.035 89.4143 203.939 89.9243 203.939C91.1143 203.939 92.0267 204.313 92.6613 205.061C93.296 205.798 93.6133 206.925 93.6133 208.444C93.6133 208.512 93.6133 208.603 93.6133 208.716C93.6133 208.818 93.6077 208.914 93.5963 209.005H87.5443C87.6123 209.923 87.8787 210.62 88.3433 211.096C88.808 211.572 89.5333 211.81 90.5193 211.81C91.0747 211.81 91.5393 211.765 91.9133 211.674C92.2987 211.572 92.5877 211.476 92.7803 211.385L93.0013 212.711C92.8087 212.813 92.4687 212.921 91.9813 213.034C91.5053 213.147 90.9613 213.204 90.3493 213.204C89.5787 213.204 88.91 213.091 88.3433 212.864C87.788 212.626 87.329 212.303 86.9663 211.895C86.6037 211.487 86.3317 211.005 86.1503 210.45C85.9803 209.883 85.8953 209.266 85.8953 208.597ZM91.9643 207.73C91.9757 207.016 91.7943 206.432 91.4203 205.979C91.0577 205.514 90.5533 205.282 89.9073 205.282C89.5447 205.282 89.2217 205.356 88.9383 205.503C88.6663 205.639 88.434 205.82 88.2413 206.047C88.0487 206.274 87.8957 206.534 87.7823 206.829C87.6803 207.124 87.6123 207.424 87.5783 207.73H91.9643ZM99.7264 213.204C99.0124 213.204 98.3834 213.091 97.8394 212.864C97.3067 212.637 96.8534 212.32 96.4794 211.912C96.1167 211.504 95.8447 211.022 95.6634 210.467C95.4821 209.9 95.3914 209.277 95.3914 208.597C95.3914 207.917 95.4877 207.294 95.6804 206.727C95.8844 206.16 96.1677 205.673 96.5304 205.265C96.8931 204.846 97.3351 204.523 97.8564 204.296C98.3891 204.058 98.9784 203.939 99.6244 203.939C100.021 203.939 100.418 203.973 100.814 204.041C101.211 204.109 101.591 204.217 101.953 204.364L101.596 205.707C101.358 205.594 101.081 205.503 100.763 205.435C100.457 205.367 100.129 205.333 99.7774 205.333C98.8934 205.333 98.2134 205.611 97.7374 206.166C97.2727 206.721 97.0404 207.532 97.0404 208.597C97.0404 209.073 97.0914 209.509 97.1934 209.906C97.3067 210.303 97.4767 210.643 97.7034 210.926C97.9414 211.209 98.2417 211.43 98.6044 211.589C98.9671 211.736 99.4091 211.81 99.9304 211.81C100.35 211.81 100.729 211.77 101.069 211.691C101.409 211.612 101.676 211.527 101.868 211.436L102.089 212.762C101.999 212.819 101.868 212.875 101.698 212.932C101.528 212.977 101.336 213.017 101.12 213.051C100.905 213.096 100.673 213.13 100.423 213.153C100.185 213.187 99.9531 213.204 99.7264 213.204ZM110.275 204.16V205.486H107.402V213H105.821V205.486H102.948V204.16H110.275ZM113.452 211.81C113.52 211.821 113.616 211.833 113.741 211.844C113.866 211.855 114.007 211.867 114.166 211.878C114.325 211.878 114.489 211.884 114.659 211.895C114.84 211.895 115.01 211.895 115.169 211.895C115.498 211.895 115.809 211.872 116.104 211.827C116.41 211.782 116.671 211.702 116.886 211.589C117.113 211.476 117.288 211.328 117.413 211.147C117.549 210.954 117.617 210.711 117.617 210.416C117.617 210.133 117.555 209.9 117.43 209.719C117.317 209.526 117.158 209.373 116.954 209.26C116.75 209.147 116.506 209.067 116.223 209.022C115.951 208.977 115.656 208.954 115.339 208.954H113.452V211.81ZM115.135 207.781C115.441 207.781 115.719 207.764 115.968 207.73C116.229 207.685 116.45 207.611 116.631 207.509C116.824 207.407 116.971 207.271 117.073 207.101C117.186 206.931 117.243 206.716 117.243 206.455C117.243 206.183 117.175 205.968 117.039 205.809C116.903 205.65 116.722 205.531 116.495 205.452C116.28 205.361 116.03 205.305 115.747 205.282C115.475 205.248 115.197 205.231 114.914 205.231C114.653 205.231 114.387 205.237 114.115 205.248C113.854 205.259 113.633 205.271 113.452 205.282V207.781H115.135ZM115.101 213.153C114.432 213.153 113.815 213.119 113.248 213.051C112.681 212.994 112.234 212.926 111.905 212.847V204.245C112.234 204.166 112.681 204.098 113.248 204.041C113.815 203.973 114.432 203.939 115.101 203.939C115.566 203.939 116.019 203.979 116.461 204.058C116.903 204.137 117.294 204.273 117.634 204.466C117.974 204.647 118.246 204.902 118.45 205.231C118.665 205.548 118.773 205.945 118.773 206.421C118.773 206.852 118.665 207.22 118.45 207.526C118.235 207.832 117.946 208.07 117.583 208.24C118.07 208.41 118.456 208.665 118.739 209.005C119.034 209.334 119.181 209.798 119.181 210.399C119.181 210.932 119.073 211.374 118.858 211.725C118.654 212.076 118.365 212.36 117.991 212.575C117.628 212.79 117.198 212.938 116.699 213.017C116.2 213.108 115.668 213.153 115.101 213.153ZM120.181 214.649C120.306 214.706 120.465 214.757 120.657 214.802C120.861 214.859 121.06 214.887 121.252 214.887C121.876 214.887 122.363 214.745 122.714 214.462C123.066 214.19 123.383 213.742 123.666 213.119C122.952 211.759 122.284 210.32 121.66 208.801C121.048 207.271 120.538 205.724 120.13 204.16H121.83C121.955 204.67 122.102 205.22 122.272 205.809C122.454 206.398 122.652 207.005 122.867 207.628C123.083 208.251 123.315 208.875 123.564 209.498C123.814 210.121 124.074 210.722 124.346 211.3C124.777 210.11 125.151 208.931 125.468 207.764C125.786 206.597 126.086 205.395 126.369 204.16H128.001C127.593 205.826 127.14 207.43 126.641 208.971C126.143 210.501 125.604 211.935 125.026 213.272C124.8 213.782 124.562 214.218 124.312 214.581C124.074 214.955 123.808 215.261 123.513 215.499C123.219 215.737 122.884 215.913 122.51 216.026C122.148 216.139 121.734 216.196 121.269 216.196C121.145 216.196 121.014 216.185 120.878 216.162C120.742 216.151 120.606 216.128 120.47 216.094C120.346 216.071 120.227 216.043 120.113 216.009C120.011 215.975 119.938 215.947 119.892 215.924L120.181 214.649ZM144.644 213H143.063V205.486H139.119V213H137.538V204.16H144.644V213ZM153.503 208.597C153.503 207.566 153.248 206.772 152.738 206.217C152.228 205.662 151.548 205.384 150.698 205.384C150.222 205.384 149.848 205.401 149.576 205.435C149.315 205.469 149.106 205.509 148.947 205.554V211.13C149.14 211.289 149.417 211.442 149.78 211.589C150.143 211.736 150.539 211.81 150.97 211.81C151.423 211.81 151.809 211.731 152.126 211.572C152.455 211.402 152.721 211.175 152.925 210.892C153.129 210.597 153.276 210.257 153.367 209.872C153.458 209.475 153.503 209.05 153.503 208.597ZM155.152 208.597C155.152 209.266 155.061 209.883 154.88 210.45C154.71 211.017 154.455 211.504 154.115 211.912C153.775 212.32 153.356 212.637 152.857 212.864C152.37 213.091 151.809 213.204 151.174 213.204C150.664 213.204 150.211 213.136 149.814 213C149.429 212.864 149.14 212.734 148.947 212.609V216.145H147.366V204.432C147.74 204.341 148.205 204.245 148.76 204.143C149.327 204.03 149.978 203.973 150.715 203.973C151.395 203.973 152.007 204.081 152.551 204.296C153.095 204.511 153.56 204.817 153.945 205.214C154.33 205.611 154.625 206.098 154.829 206.676C155.044 207.243 155.152 207.883 155.152 208.597ZM165.18 208.58C165.18 209.283 165.078 209.917 164.874 210.484C164.67 211.051 164.381 211.538 164.007 211.946C163.644 212.354 163.208 212.671 162.698 212.898C162.188 213.113 161.632 213.221 161.032 213.221C160.431 213.221 159.876 213.113 159.366 212.898C158.856 212.671 158.414 212.354 158.04 211.946C157.677 211.538 157.394 211.051 157.19 210.484C156.986 209.917 156.884 209.283 156.884 208.58C156.884 207.889 156.986 207.26 157.19 206.693C157.394 206.115 157.677 205.622 158.04 205.214C158.414 204.806 158.856 204.494 159.366 204.279C159.876 204.052 160.431 203.939 161.032 203.939C161.632 203.939 162.188 204.052 162.698 204.279C163.208 204.494 163.644 204.806 164.007 205.214C164.381 205.622 164.67 206.115 164.874 206.693C165.078 207.26 165.18 207.889 165.18 208.58ZM163.531 208.58C163.531 207.583 163.304 206.795 162.851 206.217C162.409 205.628 161.802 205.333 161.032 205.333C160.261 205.333 159.649 205.628 159.196 206.217C158.754 206.795 158.533 207.583 158.533 208.58C158.533 209.577 158.754 210.371 159.196 210.96C159.649 211.538 160.261 211.827 161.032 211.827C161.802 211.827 162.409 211.538 162.851 210.96C163.304 210.371 163.531 209.577 163.531 208.58ZM174.833 204.16V213H173.303V206.268C172.963 206.699 172.589 207.203 172.181 207.781C171.773 208.359 171.365 208.96 170.957 209.583C170.549 210.195 170.158 210.801 169.784 211.402C169.41 212.003 169.087 212.535 168.815 213H167.404V204.16H168.934V210.518C169.229 210.031 169.563 209.498 169.937 208.92C170.311 208.331 170.696 207.753 171.093 207.186C171.501 206.608 171.903 206.058 172.3 205.537C172.708 205.004 173.088 204.545 173.439 204.16H174.833ZM179.792 203.939C180.302 203.939 180.778 203.99 181.22 204.092C181.662 204.194 182.041 204.347 182.359 204.551C182.676 204.755 182.925 205.01 183.107 205.316C183.288 205.622 183.379 205.979 183.379 206.387C183.379 206.648 183.333 206.886 183.243 207.101C183.152 207.316 183.039 207.509 182.903 207.679C182.767 207.849 182.614 207.996 182.444 208.121C182.285 208.234 182.132 208.314 181.985 208.359C182.506 208.518 182.914 208.801 183.209 209.209C183.515 209.606 183.668 210.11 183.668 210.722C183.668 211.561 183.328 212.184 182.648 212.592C181.968 213 181.044 213.204 179.877 213.204C179.163 213.204 178.545 213.147 178.024 213.034C177.514 212.921 177.151 212.813 176.936 212.711L177.208 211.368C177.389 211.436 177.712 211.532 178.177 211.657C178.653 211.77 179.219 211.827 179.877 211.827C180.591 211.827 181.135 211.719 181.509 211.504C181.883 211.277 182.07 210.943 182.07 210.501C182.07 210.184 181.996 209.929 181.849 209.736C181.713 209.532 181.537 209.379 181.322 209.277C181.106 209.175 180.874 209.107 180.625 209.073C180.375 209.039 180.143 209.022 179.928 209.022H178.449V207.764H179.877C180.081 207.764 180.29 207.753 180.506 207.73C180.732 207.696 180.936 207.634 181.118 207.543C181.31 207.452 181.469 207.328 181.594 207.169C181.718 206.999 181.781 206.778 181.781 206.506C181.781 206.291 181.724 206.109 181.611 205.962C181.509 205.803 181.367 205.673 181.185 205.571C181.004 205.469 180.789 205.395 180.54 205.35C180.302 205.293 180.052 205.265 179.792 205.265C179.588 205.265 179.367 205.282 179.129 205.316C178.891 205.35 178.658 205.395 178.431 205.452C178.205 205.497 178.001 205.548 177.82 205.605C177.638 205.662 177.508 205.713 177.429 205.758L177.14 204.398C177.23 204.364 177.372 204.319 177.565 204.262C177.757 204.205 177.973 204.154 178.211 204.109C178.46 204.064 178.721 204.024 178.993 203.99C179.265 203.956 179.531 203.939 179.792 203.939ZM187.412 211.81C187.48 211.821 187.576 211.833 187.701 211.844C187.826 211.855 187.967 211.867 188.126 211.878C188.285 211.878 188.449 211.884 188.619 211.895C188.8 211.895 188.97 211.895 189.129 211.895C189.458 211.895 189.769 211.872 190.064 211.827C190.37 211.782 190.631 211.702 190.846 211.589C191.073 211.476 191.248 211.328 191.373 211.147C191.509 210.954 191.577 210.711 191.577 210.416C191.577 210.133 191.515 209.9 191.39 209.719C191.277 209.526 191.118 209.373 190.914 209.26C190.71 209.147 190.466 209.067 190.183 209.022C189.911 208.977 189.616 208.954 189.299 208.954H187.412V211.81ZM189.095 207.781C189.401 207.781 189.679 207.764 189.928 207.73C190.189 207.685 190.41 207.611 190.591 207.509C190.784 207.407 190.931 207.271 191.033 207.101C191.146 206.931 191.203 206.716 191.203 206.455C191.203 206.183 191.135 205.968 190.999 205.809C190.863 205.65 190.682 205.531 190.455 205.452C190.24 205.361 189.99 205.305 189.707 205.282C189.435 205.248 189.157 205.231 188.874 205.231C188.613 205.231 188.347 205.237 188.075 205.248C187.814 205.259 187.593 205.271 187.412 205.282V207.781H189.095ZM189.061 213.153C188.392 213.153 187.775 213.119 187.208 213.051C186.641 212.994 186.194 212.926 185.865 212.847V204.245C186.194 204.166 186.641 204.098 187.208 204.041C187.775 203.973 188.392 203.939 189.061 203.939C189.526 203.939 189.979 203.979 190.421 204.058C190.863 204.137 191.254 204.273 191.594 204.466C191.934 204.647 192.206 204.902 192.41 205.231C192.625 205.548 192.733 205.945 192.733 206.421C192.733 206.852 192.625 207.22 192.41 207.526C192.195 207.832 191.906 208.07 191.543 208.24C192.03 208.41 192.416 208.665 192.699 209.005C192.994 209.334 193.141 209.798 193.141 210.399C193.141 210.932 193.033 211.374 192.818 211.725C192.614 212.076 192.325 212.36 191.951 212.575C191.588 212.79 191.158 212.938 190.659 213.017C190.16 213.108 189.628 213.153 189.061 213.153ZM202.981 208.58C202.981 209.283 202.879 209.917 202.675 210.484C202.471 211.051 202.182 211.538 201.808 211.946C201.446 212.354 201.009 212.671 200.499 212.898C199.989 213.113 199.434 213.221 198.833 213.221C198.233 213.221 197.677 213.113 197.167 212.898C196.657 212.671 196.215 212.354 195.841 211.946C195.479 211.538 195.195 211.051 194.991 210.484C194.787 209.917 194.685 209.283 194.685 208.58C194.685 207.889 194.787 207.26 194.991 206.693C195.195 206.115 195.479 205.622 195.841 205.214C196.215 204.806 196.657 204.494 197.167 204.279C197.677 204.052 198.233 203.939 198.833 203.939C199.434 203.939 199.989 204.052 200.499 204.279C201.009 204.494 201.446 204.806 201.808 205.214C202.182 205.622 202.471 206.115 202.675 206.693C202.879 207.26 202.981 207.889 202.981 208.58ZM201.332 208.58C201.332 207.583 201.106 206.795 200.652 206.217C200.21 205.628 199.604 205.333 198.833 205.333C198.063 205.333 197.451 205.628 196.997 206.217C196.555 206.795 196.334 207.583 196.334 208.58C196.334 209.577 196.555 210.371 196.997 210.96C197.451 211.538 198.063 211.827 198.833 211.827C199.604 211.827 200.21 211.538 200.652 210.96C201.106 210.371 201.332 209.577 201.332 208.58ZM204.118 211.708H205.07C205.444 211.164 205.738 210.603 205.954 210.025C206.18 209.447 206.35 208.852 206.464 208.24C206.577 207.617 206.651 206.971 206.685 206.302C206.719 205.622 206.741 204.908 206.753 204.16H212.55V211.708H213.74V215.465H212.244V213H205.614V215.465H204.118V211.708ZM210.969 211.708V205.486H208.198C208.186 206.019 208.158 206.557 208.113 207.101C208.067 207.634 207.994 208.166 207.892 208.699C207.79 209.22 207.642 209.736 207.45 210.246C207.268 210.745 207.036 211.232 206.753 211.708H210.969ZM222.878 204.16V213H221.348V206.268C221.008 206.699 220.634 207.203 220.226 207.781C219.818 208.359 219.41 208.96 219.002 209.583C218.594 210.195 218.203 210.801 217.829 211.402C217.455 212.003 217.132 212.535 216.86 213H215.449V204.16H216.979V210.518C217.274 210.031 217.608 209.498 217.982 208.92C218.356 208.331 218.741 207.753 219.138 207.186C219.546 206.608 219.948 206.058 220.345 205.537C220.753 205.004 221.133 204.545 221.484 204.16H222.878ZM227.275 206.489C227.162 207.611 227.077 208.733 227.02 209.855C226.964 210.966 226.918 212.014 226.884 213H225.371C225.394 212.309 225.428 211.589 225.473 210.841C225.519 210.082 225.57 209.322 225.626 208.563C225.683 207.792 225.745 207.039 225.813 206.302C225.881 205.554 225.955 204.84 226.034 204.16H227.479C227.842 204.749 228.267 205.56 228.754 206.591C229.242 207.611 229.803 208.79 230.437 210.127C231.072 208.79 231.633 207.611 232.12 206.591C232.608 205.56 233.033 204.749 233.395 204.16H234.857C234.937 204.84 235.01 205.554 235.078 206.302C235.146 207.039 235.209 207.792 235.265 208.563C235.322 209.322 235.373 210.082 235.418 210.841C235.464 211.589 235.498 212.309 235.52 213H233.956C233.922 212.014 233.877 210.966 233.82 209.855C233.764 208.733 233.679 207.611 233.565 206.489C233.384 206.84 233.174 207.265 232.936 207.764C232.698 208.251 232.46 208.75 232.222 209.26C231.996 209.77 231.78 210.257 231.576 210.722C231.372 211.187 231.214 211.555 231.1 211.827H229.774C229.65 211.544 229.48 211.17 229.264 210.705C229.06 210.24 228.839 209.753 228.601 209.243C228.375 208.722 228.142 208.217 227.904 207.73C227.666 207.231 227.457 206.818 227.275 206.489ZM245.83 208.58C245.83 209.283 245.728 209.917 245.524 210.484C245.32 211.051 245.031 211.538 244.657 211.946C244.294 212.354 243.858 212.671 243.348 212.898C242.838 213.113 242.283 213.221 241.682 213.221C241.081 213.221 240.526 213.113 240.016 212.898C239.506 212.671 239.064 212.354 238.69 211.946C238.327 211.538 238.044 211.051 237.84 210.484C237.636 209.917 237.534 209.283 237.534 208.58C237.534 207.889 237.636 207.26 237.84 206.693C238.044 206.115 238.327 205.622 238.69 205.214C239.064 204.806 239.506 204.494 240.016 204.279C240.526 204.052 241.081 203.939 241.682 203.939C242.283 203.939 242.838 204.052 243.348 204.279C243.858 204.494 244.294 204.806 244.657 205.214C245.031 205.622 245.32 206.115 245.524 206.693C245.728 207.26 245.83 207.889 245.83 208.58ZM244.181 208.58C244.181 207.583 243.954 206.795 243.501 206.217C243.059 205.628 242.453 205.333 241.682 205.333C240.911 205.333 240.299 205.628 239.846 206.217C239.404 206.795 239.183 207.583 239.183 208.58C239.183 209.577 239.404 210.371 239.846 210.96C240.299 211.538 240.911 211.827 241.682 211.827C242.453 211.827 243.059 211.538 243.501 210.96C243.954 210.371 244.181 209.577 244.181 208.58ZM255.483 204.16V213H253.953V206.268C253.613 206.699 253.239 207.203 252.831 207.781C252.423 208.359 252.015 208.96 251.607 209.583C251.199 210.195 250.808 210.801 250.434 211.402C250.06 212.003 249.737 212.535 249.465 213H248.054V204.16H249.584V210.518C249.879 210.031 250.213 209.498 250.587 208.92C250.961 208.331 251.347 207.753 251.743 207.186C252.151 206.608 252.554 206.058 252.95 205.537C253.358 205.004 253.738 204.545 254.089 204.16H255.483ZM251.777 202.732C251.063 202.732 250.48 202.551 250.026 202.188C249.584 201.825 249.318 201.321 249.227 200.675L250.434 200.352C250.525 200.715 250.678 201.009 250.893 201.236C251.109 201.463 251.403 201.576 251.777 201.576C252.151 201.576 252.446 201.463 252.661 201.236C252.877 201.009 253.03 200.715 253.12 200.352L254.31 200.675C254.22 201.321 253.953 201.825 253.511 202.188C253.069 202.551 252.491 202.732 251.777 202.732ZM45.466 242H43.885V234.486H39.941V242H38.36V233.16H45.466V242ZM54.3251 237.597C54.3251 236.566 54.0701 235.772 53.5601 235.217C53.0501 234.662 52.3701 234.384 51.5201 234.384C51.0441 234.384 50.6701 234.401 50.3981 234.435C50.1375 234.469 49.9278 234.509 49.7691 234.554V240.13C49.9618 240.289 50.2395 240.442 50.6021 240.589C50.9648 240.736 51.3615 240.81 51.7921 240.81C52.2455 240.81 52.6308 240.731 52.9481 240.572C53.2768 240.402 53.5431 240.175 53.7471 239.892C53.9511 239.597 54.0985 239.257 54.1891 238.872C54.2798 238.475 54.3251 238.05 54.3251 237.597ZM55.9741 237.597C55.9741 238.266 55.8835 238.883 55.7021 239.45C55.5321 240.017 55.2771 240.504 54.9371 240.912C54.5971 241.32 54.1778 241.637 53.6791 241.864C53.1918 242.091 52.6308 242.204 51.9961 242.204C51.4861 242.204 51.0328 242.136 50.6361 242C50.2508 241.864 49.9618 241.734 49.7691 241.609V245.145H48.1881V233.432C48.5621 233.341 49.0268 233.245 49.5821 233.143C50.1488 233.03 50.8005 232.973 51.5371 232.973C52.2171 232.973 52.8291 233.081 53.3731 233.296C53.9171 233.511 54.3818 233.817 54.7671 234.214C55.1525 234.611 55.4471 235.098 55.6511 235.676C55.8665 236.243 55.9741 236.883 55.9741 237.597ZM66.0019 237.58C66.0019 238.283 65.8999 238.917 65.6959 239.484C65.4919 240.051 65.2029 240.538 64.8289 240.946C64.4662 241.354 64.0299 241.671 63.5199 241.898C63.0099 242.113 62.4545 242.221 61.8539 242.221C61.2532 242.221 60.6979 242.113 60.1879 241.898C59.6779 241.671 59.2359 241.354 58.8619 240.946C58.4992 240.538 58.2159 240.051 58.0119 239.484C57.8079 238.917 57.7059 238.283 57.7059 237.58C57.7059 236.889 57.8079 236.26 58.0119 235.693C58.2159 235.115 58.4992 234.622 58.8619 234.214C59.2359 233.806 59.6779 233.494 60.1879 233.279C60.6979 233.052 61.2532 232.939 61.8539 232.939C62.4545 232.939 63.0099 233.052 63.5199 233.279C64.0299 233.494 64.4662 233.806 64.8289 234.214C65.2029 234.622 65.4919 235.115 65.6959 235.693C65.8999 236.26 66.0019 236.889 66.0019 237.58ZM64.3529 237.58C64.3529 236.583 64.1262 235.795 63.6729 235.217C63.2309 234.628 62.6245 234.333 61.8539 234.333C61.0832 234.333 60.4712 234.628 60.0179 235.217C59.5759 235.795 59.3549 236.583 59.3549 237.58C59.3549 238.577 59.5759 239.371 60.0179 239.96C60.4712 240.538 61.0832 240.827 61.8539 240.827C62.6245 240.827 63.2309 240.538 63.6729 239.96C64.1262 239.371 64.3529 238.577 64.3529 237.58ZM67.1382 240.708H68.0902C68.4642 240.164 68.7589 239.603 68.9742 239.025C69.2009 238.447 69.3709 237.852 69.4842 237.24C69.5975 236.617 69.6712 235.971 69.7052 235.302C69.7392 234.622 69.7619 233.908 69.7732 233.16H75.5702V240.708H76.7602V244.465H75.2642V242H68.6342V244.465H67.1382V240.708ZM73.9892 240.708V234.486H71.2182C71.2069 235.019 71.1785 235.557 71.1332 236.101C71.0879 236.634 71.0142 237.166 70.9122 237.699C70.8102 238.22 70.6629 238.736 70.4702 239.246C70.2889 239.745 70.0565 240.232 69.7732 240.708H73.9892ZM77.8474 243.649C77.9721 243.706 78.1307 243.757 78.3234 243.802C78.5274 243.859 78.7257 243.887 78.9184 243.887C79.5417 243.887 80.0291 243.745 80.3804 243.462C80.7317 243.19 81.0491 242.742 81.3324 242.119C80.6184 240.759 79.9497 239.32 79.3264 237.801C78.7144 236.271 78.2044 234.724 77.7964 233.16H79.4964C79.6211 233.67 79.7684 234.22 79.9384 234.809C80.1197 235.398 80.3181 236.005 80.5334 236.628C80.7487 237.251 80.9811 237.875 81.2304 238.498C81.4797 239.121 81.7404 239.722 82.0124 240.3C82.4431 239.11 82.8171 237.931 83.1344 236.764C83.4517 235.597 83.7521 234.395 84.0354 233.16H85.6674C85.2594 234.826 84.8061 236.43 84.3074 237.971C83.8087 239.501 83.2704 240.935 82.6924 242.272C82.4657 242.782 82.2277 243.218 81.9784 243.581C81.7404 243.955 81.4741 244.261 81.1794 244.499C80.8847 244.737 80.5504 244.913 80.1764 245.026C79.8137 245.139 79.4001 245.196 78.9354 245.196C78.8107 245.196 78.6804 245.185 78.5444 245.162C78.4084 245.151 78.2724 245.128 78.1364 245.094C78.0117 245.071 77.8927 245.043 77.7794 245.009C77.6774 244.975 77.6037 244.947 77.5584 244.924L77.8474 243.649ZM90.5646 237.189C90.9159 237.438 91.2956 237.756 91.7036 238.141C92.1116 238.515 92.5083 238.923 92.8936 239.365C93.2903 239.807 93.6586 240.26 93.9986 240.725C94.3386 241.178 94.6276 241.603 94.8656 242H92.9956C92.7463 241.615 92.4516 241.224 92.1116 240.827C91.7829 240.419 91.4373 240.028 91.0746 239.654C90.7119 239.28 90.3436 238.934 89.9696 238.617C89.5956 238.3 89.2443 238.033 88.9156 237.818V242H87.3346V233.16H88.9156V236.951C89.1876 236.69 89.4993 236.39 89.8506 236.05C90.2019 235.699 90.5533 235.347 90.9046 234.996C91.2673 234.633 91.6016 234.293 91.9076 233.976C92.2136 233.647 92.4629 233.375 92.6556 233.16H94.4916C94.2423 233.432 93.9476 233.744 93.6076 234.095C93.2789 234.435 92.9333 234.786 92.5706 235.149C92.2193 235.512 91.8679 235.874 91.5166 236.237C91.1653 236.588 90.8479 236.906 90.5646 237.189ZM103.52 240.691H104.71V244.465H103.214V242H96.4655V233.16H98.0465V240.691H101.939V233.16H103.52V240.691ZM113.855 233.16V242H112.325V235.268C111.985 235.699 111.611 236.203 111.203 236.781C110.795 237.359 110.387 237.96 109.979 238.583C109.571 239.195 109.18 239.801 108.806 240.402C108.432 241.003 108.109 241.535 107.837 242H106.426V233.16H107.956V239.518C108.251 239.031 108.585 238.498 108.959 237.92C109.333 237.331 109.719 236.753 110.115 236.186C110.523 235.608 110.926 235.058 111.322 234.537C111.73 234.004 112.11 233.545 112.461 233.16H113.855ZM123.999 233.16V242H122.469V235.268C122.129 235.699 121.755 236.203 121.347 236.781C120.939 237.359 120.531 237.96 120.123 238.583C119.715 239.195 119.324 239.801 118.95 240.402C118.576 241.003 118.253 241.535 117.981 242H116.57V233.16H118.1V239.518C118.395 239.031 118.729 238.498 119.103 237.92C119.477 237.331 119.862 236.753 120.259 236.186C120.667 235.608 121.069 235.058 121.466 234.537C121.874 234.004 122.254 233.545 122.605 233.16H123.999ZM129.73 236.169H133.929V237.648H129.73V236.169ZM141.091 234.18C141.442 233.897 141.85 233.681 142.315 233.534C142.791 233.375 143.244 233.296 143.675 233.296C144.944 233.296 145.902 233.687 146.548 234.469C147.205 235.24 147.534 236.316 147.534 237.699C147.534 238.288 147.454 238.855 147.296 239.399C147.137 239.943 146.888 240.425 146.548 240.844C146.219 241.263 145.8 241.598 145.29 241.847C144.78 242.096 144.173 242.221 143.471 242.221C142.666 242.221 141.997 242.074 141.465 241.779C140.932 241.484 140.507 241.082 140.19 240.572C139.884 240.062 139.668 239.467 139.544 238.787C139.419 238.107 139.357 237.387 139.357 236.628C139.357 235.642 139.425 234.724 139.561 233.874C139.708 233.024 139.969 232.276 140.343 231.63C140.717 230.984 141.232 230.451 141.89 230.032C142.558 229.601 143.414 229.312 144.457 229.165C144.763 229.12 145.029 229.086 145.256 229.063C145.494 229.029 145.698 229.001 145.868 228.978C146.049 228.955 146.213 228.933 146.361 228.91C146.508 228.876 146.661 228.842 146.82 228.808L146.99 230.236C146.91 230.259 146.825 230.276 146.735 230.287C146.655 230.298 146.536 230.315 146.378 230.338C146.23 230.361 146.026 230.389 145.766 230.423C145.516 230.457 145.188 230.497 144.78 230.542C143.658 230.667 142.796 231.007 142.196 231.562C141.595 232.117 141.227 232.99 141.091 234.18ZM140.989 236.883C140.989 237.416 141.023 237.92 141.091 238.396C141.17 238.872 141.3 239.291 141.482 239.654C141.674 240.017 141.929 240.306 142.247 240.521C142.564 240.725 142.972 240.827 143.471 240.827C143.901 240.827 144.27 240.748 144.576 240.589C144.882 240.419 145.131 240.192 145.324 239.909C145.516 239.626 145.658 239.297 145.749 238.923C145.839 238.538 145.885 238.13 145.885 237.699C145.885 237.314 145.845 236.94 145.766 236.577C145.698 236.214 145.567 235.891 145.375 235.608C145.182 235.325 144.921 235.098 144.593 234.928C144.275 234.758 143.873 234.673 143.386 234.673C142.91 234.673 142.451 234.775 142.009 234.979C141.578 235.183 141.244 235.432 141.006 235.727C140.994 235.852 140.989 236.027 140.989 236.254C140.989 236.481 140.989 236.69 140.989 236.883ZM157.576 237.58C157.576 238.283 157.474 238.917 157.27 239.484C157.066 240.051 156.777 240.538 156.403 240.946C156.04 241.354 155.604 241.671 155.094 241.898C154.584 242.113 154.029 242.221 153.428 242.221C152.827 242.221 152.272 242.113 151.762 241.898C151.252 241.671 150.81 241.354 150.436 240.946C150.073 240.538 149.79 240.051 149.586 239.484C149.382 238.917 149.28 238.283 149.28 237.58C149.28 236.889 149.382 236.26 149.586 235.693C149.79 235.115 150.073 234.622 150.436 234.214C150.81 233.806 151.252 233.494 151.762 233.279C152.272 233.052 152.827 232.939 153.428 232.939C154.029 232.939 154.584 233.052 155.094 233.279C155.604 233.494 156.04 233.806 156.403 234.214C156.777 234.622 157.066 235.115 157.27 235.693C157.474 236.26 157.576 236.889 157.576 237.58ZM155.927 237.58C155.927 236.583 155.7 235.795 155.247 235.217C154.805 234.628 154.199 234.333 153.428 234.333C152.657 234.333 152.045 234.628 151.592 235.217C151.15 235.795 150.929 236.583 150.929 237.58C150.929 238.577 151.15 239.371 151.592 239.96C152.045 240.538 152.657 240.827 153.428 240.827C154.199 240.827 154.805 240.538 155.247 239.96C155.7 239.371 155.927 238.577 155.927 237.58ZM162.877 234.486C162.877 234.86 162.866 235.262 162.843 235.693C162.832 236.112 162.804 236.537 162.758 236.968C162.713 237.387 162.651 237.807 162.571 238.226C162.492 238.634 162.39 239.019 162.265 239.382C162.141 239.745 161.982 240.085 161.789 240.402C161.608 240.719 161.381 241.003 161.109 241.252C160.837 241.49 160.52 241.694 160.157 241.864C159.795 242.023 159.37 242.125 158.882 242.17L158.661 240.844C159.217 240.731 159.653 240.521 159.97 240.215C160.299 239.909 160.56 239.535 160.752 239.093C160.922 238.708 161.047 238.271 161.126 237.784C161.206 237.297 161.262 236.792 161.296 236.271C161.33 235.738 161.347 235.206 161.347 234.673C161.359 234.14 161.364 233.636 161.364 233.16H167.246V242H165.665V234.486H162.877ZM169.468 237.597C169.468 236.815 169.581 236.135 169.808 235.557C170.034 234.968 170.335 234.48 170.709 234.095C171.083 233.71 171.513 233.421 172.001 233.228C172.488 233.035 172.987 232.939 173.497 232.939C174.687 232.939 175.599 233.313 176.234 234.061C176.868 234.798 177.186 235.925 177.186 237.444C177.186 237.512 177.186 237.603 177.186 237.716C177.186 237.818 177.18 237.914 177.169 238.005H171.117C171.185 238.923 171.451 239.62 171.916 240.096C172.38 240.572 173.106 240.81 174.092 240.81C174.647 240.81 175.112 240.765 175.486 240.674C175.871 240.572 176.16 240.476 176.353 240.385L176.574 241.711C176.381 241.813 176.041 241.921 175.554 242.034C175.078 242.147 174.534 242.204 173.922 242.204C173.151 242.204 172.482 242.091 171.916 241.864C171.36 241.626 170.901 241.303 170.539 240.895C170.176 240.487 169.904 240.005 169.723 239.45C169.553 238.883 169.468 238.266 169.468 237.597ZM175.537 236.73C175.548 236.016 175.367 235.432 174.993 234.979C174.63 234.514 174.126 234.282 173.48 234.282C173.117 234.282 172.794 234.356 172.511 234.503C172.239 234.639 172.006 234.82 171.814 235.047C171.621 235.274 171.468 235.534 171.355 235.829C171.253 236.124 171.185 236.424 171.151 236.73H175.537ZM178.964 237.597C178.964 236.815 179.077 236.135 179.304 235.557C179.53 234.968 179.831 234.48 180.205 234.095C180.579 233.71 181.009 233.421 181.497 233.228C181.984 233.035 182.483 232.939 182.993 232.939C184.183 232.939 185.095 233.313 185.73 234.061C186.364 234.798 186.682 235.925 186.682 237.444C186.682 237.512 186.682 237.603 186.682 237.716C186.682 237.818 186.676 237.914 186.665 238.005H180.613C180.681 238.923 180.947 239.62 181.412 240.096C181.876 240.572 182.602 240.81 183.588 240.81C184.143 240.81 184.608 240.765 184.982 240.674C185.367 240.572 185.656 240.476 185.849 240.385L186.07 241.711C185.877 241.813 185.537 241.921 185.05 242.034C184.574 242.147 184.03 242.204 183.418 242.204C182.647 242.204 181.978 242.091 181.412 241.864C180.856 241.626 180.397 241.303 180.035 240.895C179.672 240.487 179.4 240.005 179.219 239.45C179.049 238.883 178.964 238.266 178.964 237.597ZM185.033 236.73C185.044 236.016 184.863 235.432 184.489 234.979C184.126 234.514 183.622 234.282 182.976 234.282C182.613 234.282 182.29 234.356 182.007 234.503C181.735 234.639 181.502 234.82 181.31 235.047C181.117 235.274 180.964 235.534 180.851 235.829C180.749 236.124 180.681 236.424 180.647 236.73H185.033ZM195.369 240.844C196.378 240.844 197.098 240.646 197.528 240.249C197.97 239.852 198.191 239.32 198.191 238.651C198.191 238.22 198.101 237.858 197.919 237.563C197.738 237.268 197.5 237.036 197.205 236.866C196.911 236.685 196.565 236.56 196.168 236.492C195.783 236.413 195.386 236.373 194.978 236.373H194.57V235.081H195.131C195.415 235.081 195.704 235.053 195.998 234.996C196.304 234.939 196.582 234.837 196.831 234.69C197.081 234.543 197.285 234.344 197.443 234.095C197.602 233.834 197.681 233.511 197.681 233.126C197.681 232.809 197.625 232.537 197.511 232.31C197.398 232.083 197.245 231.896 197.052 231.749C196.871 231.602 196.656 231.5 196.406 231.443C196.168 231.375 195.913 231.341 195.641 231.341C195.097 231.341 194.633 231.42 194.247 231.579C193.873 231.738 193.556 231.902 193.295 232.072L192.683 230.865C192.819 230.774 192.989 230.678 193.193 230.576C193.409 230.463 193.647 230.361 193.907 230.27C194.168 230.179 194.446 230.106 194.74 230.049C195.046 229.981 195.364 229.947 195.692 229.947C196.316 229.947 196.854 230.026 197.307 230.185C197.761 230.332 198.135 230.548 198.429 230.831C198.724 231.103 198.945 231.432 199.092 231.817C199.24 232.191 199.313 232.599 199.313 233.041C199.313 233.653 199.138 234.18 198.786 234.622C198.435 235.053 198.01 235.381 197.511 235.608C197.817 235.699 198.112 235.829 198.395 235.999C198.679 236.169 198.922 236.384 199.126 236.645C199.342 236.906 199.512 237.206 199.636 237.546C199.772 237.886 199.84 238.266 199.84 238.685C199.84 239.195 199.75 239.671 199.568 240.113C199.398 240.544 199.126 240.918 198.752 241.235C198.39 241.552 197.931 241.802 197.375 241.983C196.82 242.164 196.163 242.255 195.403 242.255C195.109 242.255 194.803 242.232 194.485 242.187C194.179 242.142 193.89 242.085 193.618 242.017C193.346 241.949 193.108 241.881 192.904 241.813C192.7 241.745 192.553 241.688 192.462 241.643L192.768 240.266C192.961 240.357 193.278 240.476 193.72 240.623C194.174 240.77 194.723 240.844 195.369 240.844ZM201.973 236.101C201.973 234.129 202.319 232.61 203.01 231.545C203.713 230.48 204.682 229.947 205.917 229.947C207.152 229.947 208.116 230.48 208.807 231.545C209.51 232.61 209.861 234.129 209.861 236.101C209.861 238.073 209.51 239.592 208.807 240.657C208.116 241.722 207.152 242.255 205.917 242.255C204.682 242.255 203.713 241.722 203.01 240.657C202.319 239.592 201.973 238.073 201.973 236.101ZM208.195 236.101C208.195 235.455 208.155 234.843 208.076 234.265C208.008 233.687 207.883 233.183 207.702 232.752C207.532 232.321 207.3 231.981 207.005 231.732C206.71 231.471 206.348 231.341 205.917 231.341C205.486 231.341 205.124 231.471 204.829 231.732C204.534 231.981 204.296 232.321 204.115 232.752C203.945 233.183 203.82 233.687 203.741 234.265C203.673 234.843 203.639 235.455 203.639 236.101C203.639 236.747 203.673 237.359 203.741 237.937C203.82 238.515 203.945 239.019 204.115 239.45C204.296 239.881 204.534 240.226 204.829 240.487C205.124 240.736 205.486 240.861 205.917 240.861C206.348 240.861 206.71 240.736 207.005 240.487C207.3 240.226 207.532 239.881 207.702 239.45C207.883 239.019 208.008 238.515 208.076 237.937C208.155 237.359 208.195 236.747 208.195 236.101ZM211.569 236.101C211.569 234.129 211.914 232.61 212.606 231.545C213.308 230.48 214.277 229.947 215.513 229.947C216.748 229.947 217.711 230.48 218.403 231.545C219.105 232.61 219.457 234.129 219.457 236.101C219.457 238.073 219.105 239.592 218.403 240.657C217.711 241.722 216.748 242.255 215.513 242.255C214.277 242.255 213.308 241.722 212.606 240.657C211.914 239.592 211.569 238.073 211.569 236.101ZM217.791 236.101C217.791 235.455 217.751 234.843 217.672 234.265C217.604 233.687 217.479 233.183 217.298 232.752C217.128 232.321 216.895 231.981 216.601 231.732C216.306 231.471 215.943 231.341 215.513 231.341C215.082 231.341 214.719 231.471 214.425 231.732C214.13 231.981 213.892 232.321 213.711 232.752C213.541 233.183 213.416 233.687 213.337 234.265C213.269 234.843 213.235 235.455 213.235 236.101C213.235 236.747 213.269 237.359 213.337 237.937C213.416 238.515 213.541 239.019 213.711 239.45C213.892 239.881 214.13 240.226 214.425 240.487C214.719 240.736 215.082 240.861 215.513 240.861C215.943 240.861 216.306 240.736 216.601 240.487C216.895 240.226 217.128 239.881 217.298 239.45C217.479 239.019 217.604 238.515 217.672 237.937C217.751 237.359 217.791 236.747 217.791 236.101ZM221.164 236.101C221.164 234.129 221.51 232.61 222.201 231.545C222.904 230.48 223.873 229.947 225.108 229.947C226.344 229.947 227.307 230.48 227.998 231.545C228.701 232.61 229.052 234.129 229.052 236.101C229.052 238.073 228.701 239.592 227.998 240.657C227.307 241.722 226.344 242.255 225.108 242.255C223.873 242.255 222.904 241.722 222.201 240.657C221.51 239.592 221.164 238.073 221.164 236.101ZM227.386 236.101C227.386 235.455 227.347 234.843 227.267 234.265C227.199 233.687 227.075 233.183 226.893 232.752C226.723 232.321 226.491 231.981 226.196 231.732C225.902 231.471 225.539 231.341 225.108 231.341C224.678 231.341 224.315 231.471 224.02 231.732C223.726 231.981 223.488 232.321 223.306 232.752C223.136 233.183 223.012 233.687 222.932 234.265C222.864 234.843 222.83 235.455 222.83 236.101C222.83 236.747 222.864 237.359 222.932 237.937C223.012 238.515 223.136 239.019 223.306 239.45C223.488 239.881 223.726 240.226 224.02 240.487C224.315 240.736 224.678 240.861 225.108 240.861C225.539 240.861 225.902 240.736 226.196 240.487C226.491 240.226 226.723 239.881 226.893 239.45C227.075 239.019 227.199 238.515 227.267 237.937C227.347 237.359 227.386 236.747 227.386 236.101ZM45.602 271H44.021V267.09H39.941V271H38.36V262.16H39.941V265.764H44.021V262.16H45.602V271ZM51.3129 269.861C51.6869 269.861 52.0156 269.855 52.2989 269.844C52.5936 269.821 52.8373 269.787 53.0299 269.742V267.107C52.9166 267.05 52.7296 267.005 52.4689 266.971C52.2196 266.926 51.9136 266.903 51.5509 266.903C51.3129 266.903 51.0579 266.92 50.7859 266.954C50.5253 266.988 50.2816 267.062 50.0549 267.175C49.8396 267.277 49.6583 267.424 49.5109 267.617C49.3636 267.798 49.2899 268.042 49.2899 268.348C49.2899 268.915 49.4713 269.311 49.8339 269.538C50.1966 269.753 50.6896 269.861 51.3129 269.861ZM51.1769 261.939C51.8116 261.939 52.3443 262.024 52.7749 262.194C53.2169 262.353 53.5683 262.585 53.8289 262.891C54.1009 263.186 54.2936 263.543 54.4069 263.962C54.5203 264.37 54.5769 264.823 54.5769 265.322V270.847C54.4409 270.87 54.2483 270.904 53.9989 270.949C53.7609 270.983 53.4889 271.017 53.1829 271.051C52.8769 271.085 52.5426 271.113 52.1799 271.136C51.8286 271.17 51.4773 271.187 51.1259 271.187C50.6273 271.187 50.1683 271.136 49.7489 271.034C49.3296 270.932 48.9669 270.773 48.6609 270.558C48.3549 270.331 48.1169 270.037 47.9469 269.674C47.7769 269.311 47.6919 268.875 47.6919 268.365C47.6919 267.878 47.7883 267.458 47.9809 267.107C48.1849 266.756 48.4569 266.472 48.7969 266.257C49.1369 266.042 49.5336 265.883 49.9869 265.781C50.4403 265.679 50.9163 265.628 51.4149 265.628C51.5736 265.628 51.7379 265.639 51.9079 265.662C52.0779 265.673 52.2366 265.696 52.3839 265.73C52.5426 265.753 52.6786 265.775 52.7919 265.798C52.9053 265.821 52.9846 265.838 53.0299 265.849V265.407C53.0299 265.146 53.0016 264.891 52.9449 264.642C52.8883 264.381 52.7863 264.155 52.6389 263.962C52.4916 263.758 52.2876 263.599 52.0269 263.486C51.7776 263.361 51.4489 263.299 51.0409 263.299C50.5196 263.299 50.0606 263.339 49.6639 263.418C49.2786 263.486 48.9896 263.56 48.7969 263.639L48.6099 262.33C48.8139 262.239 49.1539 262.154 49.6299 262.075C50.1059 261.984 50.6216 261.939 51.1769 261.939ZM64.6318 262.16V271H63.1018V264.268C62.7618 264.699 62.3878 265.203 61.9798 265.781C61.5718 266.359 61.1638 266.96 60.7558 267.583C60.3478 268.195 59.9568 268.801 59.5828 269.402C59.2088 270.003 58.8858 270.535 58.6138 271H57.2028V262.16H58.7328V268.518C59.0274 268.031 59.3618 267.498 59.7358 266.92C60.1098 266.331 60.4951 265.753 60.8918 265.186C61.2998 264.608 61.7021 264.058 62.0988 263.537C62.5068 263.004 62.8864 262.545 63.2378 262.16H64.6318ZM69.0293 264.489C68.916 265.611 68.831 266.733 68.7743 267.855C68.7177 268.966 68.6723 270.014 68.6383 271H67.1253C67.148 270.309 67.182 269.589 67.2273 268.841C67.2727 268.082 67.3237 267.322 67.3803 266.563C67.437 265.792 67.4993 265.039 67.5673 264.302C67.6353 263.554 67.709 262.84 67.7883 262.16H69.2333C69.596 262.749 70.021 263.56 70.5083 264.591C70.9957 265.611 71.5567 266.79 72.1913 268.127C72.826 266.79 73.387 265.611 73.8743 264.591C74.3617 263.56 74.7867 262.749 75.1493 262.16H76.6113C76.6907 262.84 76.7643 263.554 76.8323 264.302C76.9003 265.039 76.9627 265.792 77.0193 266.563C77.076 267.322 77.127 268.082 77.1723 268.841C77.2177 269.589 77.2517 270.309 77.2743 271H75.7103C75.6763 270.014 75.631 268.966 75.5743 267.855C75.5177 266.733 75.4327 265.611 75.3193 264.489C75.138 264.84 74.9283 265.265 74.6903 265.764C74.4523 266.251 74.2143 266.75 73.9763 267.26C73.7497 267.77 73.5343 268.257 73.3303 268.722C73.1263 269.187 72.9677 269.555 72.8543 269.827H71.5283C71.4037 269.544 71.2337 269.17 71.0183 268.705C70.8143 268.24 70.5933 267.753 70.3553 267.243C70.1287 266.722 69.8963 266.217 69.6583 265.73C69.4203 265.231 69.2107 264.818 69.0293 264.489ZM79.2879 266.597C79.2879 265.815 79.4012 265.135 79.6279 264.557C79.8546 263.968 80.1549 263.48 80.5289 263.095C80.9029 262.71 81.3336 262.421 81.8209 262.228C82.3082 262.035 82.8069 261.939 83.3169 261.939C84.5069 261.939 85.4192 262.313 86.0539 263.061C86.6886 263.798 87.0059 264.925 87.0059 266.444C87.0059 266.512 87.0059 266.603 87.0059 266.716C87.0059 266.818 87.0002 266.914 86.9889 267.005H80.9369C81.0049 267.923 81.2712 268.62 81.7359 269.096C82.2006 269.572 82.9259 269.81 83.9119 269.81C84.4672 269.81 84.9319 269.765 85.3059 269.674C85.6912 269.572 85.9802 269.476 86.1729 269.385L86.3939 270.711C86.2012 270.813 85.8612 270.921 85.3739 271.034C84.8979 271.147 84.3539 271.204 83.7419 271.204C82.9712 271.204 82.3026 271.091 81.7359 270.864C81.1806 270.626 80.7216 270.303 80.3589 269.895C79.9962 269.487 79.7242 269.005 79.5429 268.45C79.3729 267.883 79.2879 267.266 79.2879 266.597ZM85.3569 265.73C85.3682 265.016 85.1869 264.432 84.8129 263.979C84.4502 263.514 83.9459 263.282 83.2999 263.282C82.9372 263.282 82.6142 263.356 82.3309 263.503C82.0589 263.639 81.8266 263.82 81.6339 264.047C81.4412 264.274 81.2882 264.534 81.1749 264.829C81.0729 265.124 81.0049 265.424 80.9709 265.73H85.3569ZM96.519 271H94.938V267.09H90.858V271H89.277V262.16H90.858V265.764H94.938V262.16H96.519V271ZM107.041 266.58C107.041 267.283 106.939 267.917 106.735 268.484C106.531 269.051 106.242 269.538 105.868 269.946C105.505 270.354 105.069 270.671 104.559 270.898C104.049 271.113 103.494 271.221 102.893 271.221C102.292 271.221 101.737 271.113 101.227 270.898C100.717 270.671 100.275 270.354 99.9009 269.946C99.5383 269.538 99.2549 269.051 99.0509 268.484C98.8469 267.917 98.7449 267.283 98.7449 266.58C98.7449 265.889 98.8469 265.26 99.0509 264.693C99.2549 264.115 99.5383 263.622 99.9009 263.214C100.275 262.806 100.717 262.494 101.227 262.279C101.737 262.052 102.292 261.939 102.893 261.939C103.494 261.939 104.049 262.052 104.559 262.279C105.069 262.494 105.505 262.806 105.868 263.214C106.242 263.622 106.531 264.115 106.735 264.693C106.939 265.26 107.041 265.889 107.041 266.58ZM105.392 266.58C105.392 265.583 105.165 264.795 104.712 264.217C104.27 263.628 103.664 263.333 102.893 263.333C102.122 263.333 101.51 263.628 101.057 264.217C100.615 264.795 100.394 265.583 100.394 266.58C100.394 267.577 100.615 268.371 101.057 268.96C101.51 269.538 102.122 269.827 102.893 269.827C103.664 269.827 104.27 269.538 104.712 268.96C105.165 268.371 105.392 267.577 105.392 266.58ZM110.812 269.81C110.88 269.821 110.977 269.833 111.101 269.844C111.226 269.855 111.368 269.867 111.526 269.878C111.685 269.878 111.849 269.884 112.019 269.895C112.201 269.895 112.371 269.895 112.529 269.895C112.858 269.895 113.17 269.872 113.464 269.827C113.77 269.782 114.031 269.702 114.246 269.589C114.473 269.476 114.649 269.328 114.773 269.147C114.909 268.954 114.977 268.711 114.977 268.416C114.977 268.133 114.915 267.9 114.79 267.719C114.677 267.526 114.518 267.373 114.314 267.26C114.11 267.147 113.867 267.067 113.583 267.022C113.311 266.977 113.017 266.954 112.699 266.954H110.812V269.81ZM112.495 265.781C112.801 265.781 113.079 265.764 113.328 265.73C113.589 265.685 113.81 265.611 113.991 265.509C114.184 265.407 114.331 265.271 114.433 265.101C114.547 264.931 114.603 264.716 114.603 264.455C114.603 264.183 114.535 263.968 114.399 263.809C114.263 263.65 114.082 263.531 113.855 263.452C113.64 263.361 113.391 263.305 113.107 263.282C112.835 263.248 112.558 263.231 112.274 263.231C112.014 263.231 111.747 263.237 111.475 263.248C111.215 263.259 110.994 263.271 110.812 263.282V265.781H112.495ZM112.461 271.153C111.793 271.153 111.175 271.119 110.608 271.051C110.042 270.994 109.594 270.926 109.265 270.847V262.245C109.594 262.166 110.042 262.098 110.608 262.041C111.175 261.973 111.793 261.939 112.461 261.939C112.926 261.939 113.379 261.979 113.821 262.058C114.263 262.137 114.654 262.273 114.994 262.466C115.334 262.647 115.606 262.902 115.81 263.231C116.026 263.548 116.133 263.945 116.133 264.421C116.133 264.852 116.026 265.22 115.81 265.526C115.595 265.832 115.306 266.07 114.943 266.24C115.431 266.41 115.816 266.665 116.099 267.005C116.394 267.334 116.541 267.798 116.541 268.399C116.541 268.932 116.434 269.374 116.218 269.725C116.014 270.076 115.725 270.36 115.351 270.575C114.989 270.79 114.558 270.938 114.059 271.017C113.561 271.108 113.028 271.153 112.461 271.153ZM121.571 269.861C121.945 269.861 122.273 269.855 122.557 269.844C122.851 269.821 123.095 269.787 123.288 269.742V267.107C123.174 267.05 122.987 267.005 122.727 266.971C122.477 266.926 122.171 266.903 121.809 266.903C121.571 266.903 121.316 266.92 121.044 266.954C120.783 266.988 120.539 267.062 120.313 267.175C120.097 267.277 119.916 267.424 119.769 267.617C119.621 267.798 119.548 268.042 119.548 268.348C119.548 268.915 119.729 269.311 120.092 269.538C120.454 269.753 120.947 269.861 121.571 269.861ZM121.435 261.939C122.069 261.939 122.602 262.024 123.033 262.194C123.475 262.353 123.826 262.585 124.087 262.891C124.359 263.186 124.551 263.543 124.665 263.962C124.778 264.37 124.835 264.823 124.835 265.322V270.847C124.699 270.87 124.506 270.904 124.257 270.949C124.019 270.983 123.747 271.017 123.441 271.051C123.135 271.085 122.8 271.113 122.438 271.136C122.086 271.17 121.735 271.187 121.384 271.187C120.885 271.187 120.426 271.136 120.007 271.034C119.587 270.932 119.225 270.773 118.919 270.558C118.613 270.331 118.375 270.037 118.205 269.674C118.035 269.311 117.95 268.875 117.95 268.365C117.95 267.878 118.046 267.458 118.239 267.107C118.443 266.756 118.715 266.472 119.055 266.257C119.395 266.042 119.791 265.883 120.245 265.781C120.698 265.679 121.174 265.628 121.673 265.628C121.831 265.628 121.996 265.639 122.166 265.662C122.336 265.673 122.494 265.696 122.642 265.73C122.8 265.753 122.936 265.775 123.05 265.798C123.163 265.821 123.242 265.838 123.288 265.849V265.407C123.288 265.146 123.259 264.891 123.203 264.642C123.146 264.381 123.044 264.155 122.897 263.962C122.749 263.758 122.545 263.599 122.285 263.486C122.035 263.361 121.707 263.299 121.299 263.299C120.777 263.299 120.318 263.339 119.922 263.418C119.536 263.486 119.247 263.56 119.055 263.639L118.868 262.33C119.072 262.239 119.412 262.154 119.888 262.075C120.364 261.984 120.879 261.939 121.435 261.939ZM134.703 271H133.122V267.09H129.042V271H127.461V262.16H129.042V265.764H133.122V262.16H134.703V271ZM144.851 262.16V271H143.321V264.268C142.981 264.699 142.607 265.203 142.199 265.781C141.791 266.359 141.383 266.96 140.975 267.583C140.567 268.195 140.176 268.801 139.802 269.402C139.428 270.003 139.105 270.535 138.833 271H137.422V262.16H138.952V268.518C139.246 268.031 139.581 267.498 139.955 266.92C140.329 266.331 140.714 265.753 141.111 265.186C141.519 264.608 141.921 264.058 142.318 263.537C142.726 263.004 143.105 262.545 143.457 262.16H144.851ZM154.994 262.16V271H153.464V264.268C153.124 264.699 152.75 265.203 152.342 265.781C151.934 266.359 151.526 266.96 151.118 267.583C150.71 268.195 150.319 268.801 149.945 269.402C149.571 270.003 149.248 270.535 148.976 271H147.565V262.16H149.095V268.518C149.39 268.031 149.724 267.498 150.098 266.92C150.472 266.331 150.857 265.753 151.254 265.186C151.662 264.608 152.064 264.058 152.461 263.537C152.869 263.004 153.249 262.545 153.6 262.16H154.994ZM151.288 260.732C150.574 260.732 149.99 260.551 149.537 260.188C149.095 259.825 148.829 259.321 148.738 258.675L149.945 258.352C150.036 258.715 150.189 259.009 150.404 259.236C150.619 259.463 150.914 259.576 151.288 259.576C151.662 259.576 151.957 259.463 152.172 259.236C152.387 259.009 152.54 258.715 152.631 258.352L153.821 258.675C153.73 259.321 153.464 259.825 153.022 260.188C152.58 260.551 152.002 260.732 151.288 260.732ZM159.579 270.082C159.579 270.388 159.477 270.654 159.273 270.881C159.069 271.108 158.791 271.221 158.44 271.221C158.088 271.221 157.811 271.108 157.607 270.881C157.403 270.654 157.301 270.388 157.301 270.082C157.301 269.776 157.403 269.51 157.607 269.283C157.811 269.056 158.088 268.943 158.44 268.943C158.791 268.943 159.069 269.056 159.273 269.283C159.477 269.51 159.579 269.776 159.579 270.082Z" fill="#6C7689"/>
<path d="M28.0664 33.5078H89.6295V95.0856H28.0664V33.5078Z" fill="white" fill-opacity="0.01"/>
<path d="M35.7617 70.7109H53.7176V88.6711H35.7617V70.7109Z" fill="#EDEDED" stroke="#224386" stroke-width="4" stroke-linecap="round" stroke-linejoin="round"/>
<path d="M58.8491 38.6406L71.6747 60.4494H46.0234L58.8491 38.6406Z" fill="#EDEDED" stroke="#224386" stroke-width="4" stroke-linecap="round" stroke-linejoin="round"/>
<path d="M74.239 89.9556C79.9058 89.9556 84.4996 85.3607 84.4996 79.6926C84.4996 74.0246 79.9058 69.4297 74.239 69.4297C68.5723 69.4297 63.9785 74.0246 63.9785 79.6926C63.9785 85.3607 68.5723 89.9556 74.239 89.9556Z" fill="#EDEDED" stroke="#224386" stroke-width="4" stroke-linecap="round" stroke-linejoin="round"/>
</svg>
