<svg width="22" height="21" viewBox="0 0 22 21" fill="none" xmlns="http://www.w3.org/2000/svg">
<path fill-rule="evenodd" clip-rule="evenodd" d="M18.6341 17.9456C17.6065 18.954 16.381 19.7445 15.0327 20.2688C13.6845 20.7932 12.242 21.0402 10.7936 20.9947C9.34523 20.9492 7.92152 20.6123 6.60978 20.0045C5.29804 19.3967 4.12592 18.5309 3.16529 17.4601C3.88393 17.7562 4.64742 17.9324 5.42457 17.9816C6.75095 18.0618 8.08008 17.877 9.33238 17.4383C10.5847 16.9995 11.7344 16.3158 12.7126 15.4282C13.0588 15.1585 14.2795 13.9897 14.5346 13.9177C14.9901 15.7339 15.4274 17.0465 17.1947 17.7478C17.6331 17.9053 18.0948 17.9903 18.5612 17.9996L18.6341 17.9456ZM20.1828 5.16071C21.2144 6.85383 21.7411 8.7998 21.7024 10.7751C21.6637 12.7503 21.0612 14.6748 19.9642 16.3273C18.379 16.0935 18.1422 15.3383 17.1583 12.5691C16.9578 11.9398 16.4295 10.9148 16.7756 10.3934C17.1218 9.87189 18.9621 6.95887 20.1828 5.16071ZM11.0546 7.40839e-07C12.4718 0.00940093 13.8727 0.299081 15.1746 0.851921C16.4764 1.40476 17.6528 2.20954 18.6341 3.2187H17.3587L15.2816 6.43741C14.4799 4.7831 13.9333 3.59632 12.166 2.94898C7.92071 1.3666 2.01743 5.57429 0.414062 10.2135C0.490014 7.4786 1.64451 4.8809 3.63181 2.97334C5.61912 1.06577 8.28232 -0.00102627 11.0546 7.40839e-07ZM12.8766 10.1056C11.5745 12.287 9.80922 14.1641 7.70207 15.608C3.82121 17.7478 2.70979 13.9897 3.80299 10.735C4.56823 8.43336 6.51777 5.34053 8.37622 4.56732C8.68789 4.39278 9.03514 4.28919 9.39259 4.2641C9.75003 4.23902 10.1086 4.29309 10.4422 4.42235C10.7758 4.55162 11.0758 4.75281 11.3205 5.01122C11.5651 5.26964 11.7482 5.57874 11.8562 5.91594C12.4824 7.23194 12.8473 8.65414 12.9312 10.1056H12.8766Z" fill="#8CA7DD"/>
</svg>
