<svg width="23" height="21" viewBox="0 0 23 21" fill="none" xmlns="http://www.w3.org/2000/svg">
<path d="M11.7269 0.00318555C13.2925 0.00571198 14.8397 0.32571 16.2653 0.941886C17.691 1.55806 18.9625 2.45628 19.9952 3.57678C21.0279 4.69728 21.7982 6.01435 22.2547 7.44035C22.7112 8.86636 22.8436 10.3686 22.6429 11.8471C22.4422 13.3256 21.9132 14.7464 21.091 16.0151C20.2687 17.2837 19.1721 18.3711 17.8742 19.2048C16.5763 20.0385 15.1067 20.5995 13.5634 20.8503C12.0201 21.1012 10.4383 21.0362 8.9234 20.6596C8.9234 20.4088 9.03632 20.0684 9.03632 19.8534C9.03632 19.6384 9.03632 19.0114 9.03632 18.5635L9.48786 18.7606L10.2217 18.9935C10.4709 19.0343 10.7163 19.0942 10.9554 19.1726C11.181 19.1588 11.4072 19.1588 11.6328 19.1726C12.9771 19.2394 14.3216 19.0443 15.584 18.5994C15.7558 18.5065 15.9391 18.4343 16.1296 18.3844C16.2315 18.303 16.3457 18.2366 16.4683 18.1873L16.7881 17.9902L17.0892 17.7752L18.0111 16.9153L18.1052 16.7899L18.331 16.5033C18.3873 16.3983 18.4501 16.2966 18.5191 16.1987C18.5527 16.0924 18.6105 15.9945 18.6884 15.912C18.7228 15.7617 18.7798 15.6169 18.8578 15.4821C18.8578 15.3567 18.8578 15.1596 19.0083 15.07C18.9835 14.9699 18.9835 14.8656 19.0083 14.7655C18.9921 14.6106 18.9921 14.4545 19.0083 14.2997C19.049 13.7928 19.049 13.2837 19.0083 12.7769V12.5977C18.9939 12.4547 18.9939 12.3107 19.0083 12.1677V12.0782V11.9169C19.0083 11.7915 18.8954 11.6661 18.8578 11.5586C18.7694 11.4374 18.6878 11.3118 18.6132 11.1824C18.4425 10.9268 18.2472 10.6869 18.0299 10.4658L17.7101 10.1612C17.2442 9.75053 16.7182 9.40654 16.1484 9.14003C16.1484 9.05045 16.1484 9.14003 16.1484 9.14003C16.4439 8.91564 16.7149 8.66356 16.9575 8.38758C17.0282 8.2786 17.1101 8.17658 17.2021 8.08302C17.3024 7.87387 17.4155 7.67048 17.5407 7.4739C17.7765 6.7314 17.8407 5.94909 17.7289 5.18073C17.7289 4.98366 17.5972 4.6791 17.5972 4.55369C17.5331 4.47442 17.4881 4.38267 17.4655 4.28496C17.359 4.03422 17.2266 3.79417 17.0703 3.56835L16.8446 3.38919C16.7576 3.29795 16.676 3.20226 16.6 3.10255C16.4618 2.99589 16.3357 2.8758 16.2237 2.74424C16.119 2.67188 16.0184 2.59413 15.9226 2.51134L15.2829 2.09929C15.2829 2.09929 15.0007 1.99179 14.9631 1.93805L14.154 1.59765L13.7401 1.49016C13.6037 1.47215 13.4707 1.43597 13.345 1.38267C12.4512 1.28223 11.5481 1.28223 10.6544 1.38267C10.4474 1.38267 9.97706 1.52599 9.84536 1.52599C9.71365 1.52599 9.56312 1.63349 9.45022 1.66932L9.07393 1.79472L8.56594 2.02762C8.39661 2.02762 8.24608 2.22469 8.09556 2.29635C7.98365 2.39435 7.86415 2.48418 7.73807 2.56509L6.81612 3.47877L6.10114 4.69702C5.86885 5.27278 5.71705 5.87512 5.64959 6.48855C5.64959 7.13351 5.64959 7.92178 5.64959 8.58465V19.2085C5.64959 19.2085 5.64959 19.3518 5.64959 19.4235C3.5913 18.2095 2.00985 16.3842 1.14942 14.2294C0.288995 12.0745 0.197409 9.70983 0.888799 7.50046C1.58019 5.29108 3.01612 3.35983 4.97492 2.00483C6.93371 0.649822 9.30645 -0.0535862 11.7269 0.00318555ZM14.154 8.38758C14.0955 8.51459 14.0126 8.63005 13.9094 8.72798C13.9094 8.72798 13.9094 8.72798 13.9094 8.85338C13.9094 8.97879 13.0251 8.67423 12.4983 8.62048C12.0081 8.52341 11.5021 8.52341 11.0119 8.62048L10.7673 8.76381C10.6732 8.76381 10.7673 8.90713 10.5979 8.96088C10.5979 9.3371 10.598 9.42668 10.9743 9.57C11.8107 9.74767 12.6779 9.74767 13.5143 9.57C13.7589 9.39085 14.0787 9.71332 14.2481 9.82082C14.9529 10.2249 15.4757 10.8631 15.7157 11.6124C15.8626 12.054 15.9511 12.5114 15.9791 12.9739C16.0126 13.4892 15.981 14.0065 15.885 14.5146V14.6221C15.8665 14.7908 15.8155 14.9548 15.7345 15.1059C15.5631 15.4804 15.3279 15.8255 15.0383 16.127C14.7299 16.4172 14.3658 16.6483 13.9659 16.8078C13.7268 16.9353 13.4654 17.0203 13.1944 17.0586H13.0439H12.423H11.7269H11.2753C11.2147 17.0807 11.1477 17.0807 11.0872 17.0586C10.8542 17.021 10.6308 16.942 10.4286 16.8257C9.83909 16.5533 9.35746 16.1073 9.05512 15.5537C9.00274 14.9935 9.00274 14.4299 9.05512 13.8697V8.92505C8.98814 7.81521 8.98814 6.70262 9.05512 5.59278C9.03097 5.49257 9.03097 5.38844 9.05512 5.28822C9.10319 5.04076 9.19886 4.80388 9.33734 4.58952C9.33734 4.4462 9.65722 4.08789 9.77011 4.05206C9.79019 4.01049 9.81884 3.97319 9.8544 3.94241C9.88996 3.91163 9.9317 3.88799 9.97707 3.87291C9.98168 3.83808 9.99954 3.80607 10.0273 3.78296C10.055 3.75984 10.0907 3.74723 10.1276 3.7475L10.2969 3.65792C10.7067 3.39862 11.1798 3.24435 11.6704 3.21004C12.1729 3.23317 12.6626 3.36816 13.1004 3.60418C13.3306 3.72305 13.5454 3.86737 13.7401 4.03415C13.9237 4.21974 14.076 4.43125 14.1916 4.66118C14.3431 4.90203 14.4393 5.17068 14.4739 5.44946C14.4739 5.44946 14.4739 5.44946 14.4739 5.59278C14.4739 5.73611 14.4739 5.70028 14.4739 5.75402C14.527 6.28283 14.4824 6.81641 14.3422 7.33058C14.2845 7.55311 14.2025 7.76928 14.0976 7.97553C14.1072 8.11273 14.1072 8.25039 14.0976 8.38758H14.154Z" fill="#8CA7DD"/>
</svg>
