<svg width="23" height="21" viewBox="0 0 23 21" fill="none" xmlns="http://www.w3.org/2000/svg">
<path d="M11.5691 1.55177e-06C14.3331 -0.00141311 16.9982 0.964467 19.0424 2.70851C15.2865 2.70851 9.68161 2.70851 8.02518 2.90714C6.84552 3.03614 5.71701 3.43232 4.73716 4.06149C3.75731 4.69066 2.95547 5.53392 2.4009 6.51848C1.66835 7.84977 1.31641 9.33633 1.37931 10.8332C1.4422 12.33 1.91782 13.786 2.75981 15.0591C3.6018 16.3323 4.78135 17.3791 6.18349 18.0975C7.58563 18.8159 9.1625 19.1813 10.7602 19.1582C12.3086 19.2817 13.8629 18.9972 15.248 18.3368C16.6331 17.6764 17.7939 16.6663 18.5994 15.4205C19.284 14.0752 19.4662 12.5533 19.1169 11.0992C18.7676 9.6452 17.907 8.34347 16.6733 7.40326C16.2111 7.02407 15.9029 6.77128 15.3636 6.39209C14.8856 6.11946 14.4226 5.82415 13.9767 5.50731H21.3537C22.532 7.51603 22.9734 9.83215 22.6099 12.0991C22.2465 14.3661 21.0983 16.4582 19.3421 18.0534C17.586 19.6487 15.3194 20.6586 12.891 20.9277C10.4626 21.1968 8.00712 20.7102 5.90264 19.5428C3.79816 18.3754 2.16126 16.5919 1.244 14.4669C0.326732 12.3419 0.179961 9.9931 0.826192 7.78218C1.47242 5.57126 2.87587 3.62074 4.82051 2.23089C6.76514 0.841046 9.1431 0.088915 11.5884 0.0902852L11.5691 1.55177e-06ZM10.1245 5.50731C10.5868 5.50731 11.0876 5.50731 11.5691 5.50731C12.0506 5.50731 12.3203 5.50731 12.7056 5.86844C13.2453 6.32249 13.7298 6.83118 14.1501 7.38521C15.105 8.56132 15.6978 9.96019 15.8644 11.4299C16.1364 13.0809 15.7598 14.7684 14.8049 16.1788C14.344 16.807 13.7104 17.3065 12.9711 17.6243C12.2319 17.9422 11.4146 18.0667 10.6061 17.9845C9.82664 17.926 9.06803 17.7198 8.37609 17.3784C7.68415 17.037 7.07333 16.5675 6.58061 15.9983C5.56926 14.8689 4.95081 13.4763 4.80852 12.0077C4.34625 7.81857 6.19532 5.77816 10.1245 5.45314V5.50731Z" fill="#8CA7DD"/>
</svg>
