<svg width="21" height="20" viewBox="0 0 21 20" fill="none" xmlns="http://www.w3.org/2000/svg">
<path d="M16.4772 18.1049C14.7379 19.3369 12.6466 20 10.5008 20C8.35504 20 6.26383 19.3369 4.5245 18.1049H7.57894V16.0451C7.57894 15.924 6.92562 15.4566 6.73142 15.2663C6.44599 14.9954 6.18599 14.7 5.95458 14.3835C5.79006 14.1662 5.63684 13.9409 5.49552 13.7085C4.65787 12.2854 4.3638 10.6166 4.66578 9.00051C4.70225 8.80775 4.74943 8.61707 4.80705 8.42933C4.85414 8.24129 4.91306 8.05631 4.98356 7.87545C5.14388 7.47459 5.35757 7.09628 5.61912 6.75039L5.7604 6.54268C5.87576 6.41372 5.99965 6.2923 6.1312 6.1792C6.49161 5.82121 6.90904 5.52307 7.36709 5.29646C7.88899 5.03533 8.44862 4.85436 9.02658 4.75989C10.2557 4.53767 11.5229 4.63921 12.6989 5.05414L14.0054 5.76379L14.1997 5.93688C14.3939 6.12727 14.1997 5.93688 14.5351 6.26574C14.7053 6.43608 14.8588 6.62149 14.9941 6.81962L15.2413 7.23503C15.3273 7.39208 15.4039 7.55391 15.4708 7.71967C15.7645 8.46497 15.9142 9.25735 15.9122 10.0563C15.921 11.4359 15.5224 12.7884 14.7646 13.9508C14.6236 14.1765 14.4642 14.3907 14.2879 14.5912C14.2059 14.7001 14.1175 14.8041 14.0231 14.9028C13.84 15.0984 13.6454 15.2833 13.4404 15.4566L13.1226 15.7163L12.9638 15.8374C12.9638 15.8374 12.8402 15.8374 12.8402 15.9932V18.0529L16.4772 18.1049ZM10.492 4.20868e-06C12.3191 -0.00163856 14.1131 0.477661 15.6868 1.38785C17.2604 2.29804 18.556 3.60574 19.4381 5.17438C20.3202 6.74302 20.7565 8.51508 20.7016 10.3055C20.6466 12.0959 20.1022 13.839 19.1255 15.3528H17.2363C17.6951 14.6096 18.0569 13.813 18.3133 12.9815C18.5178 12.2752 18.648 11.5502 18.7018 10.8179C18.7811 9.92081 18.7276 9.01716 18.5428 8.13508C17.5365 3.27134 12.8225 0.986599 7.73778 2.23282C7.12263 2.40754 6.53017 2.65148 5.97225 2.95979C5.50384 3.20422 5.0655 3.50039 4.66578 3.84253L4.45392 4.01562C3.92681 4.48778 3.46924 5.02954 3.09443 5.62532C2.89549 5.92118 2.72417 6.234 2.58246 6.55999C2.50205 6.72908 2.43133 6.90244 2.37061 7.07925C1.6644 9.0986 1.6644 11.291 2.37061 13.3104C2.54373 13.8436 2.76839 14.3595 3.04152 14.8508C3.14203 15.0057 3.23049 15.1677 3.30628 15.3355H1.99981C1.03377 13.8319 0.493695 12.1033 0.435034 10.3272C0.376374 8.55118 0.801283 6.79187 1.66608 5.2302C2.53087 3.66853 3.80435 2.36084 5.35554 1.44162C6.90674 0.522395 8.67962 0.0248011 10.492 4.20868e-06Z" fill="#8CA7DD"/>
</svg>
