<svg width="22" height="20" viewBox="0 0 22 20" fill="none" xmlns="http://www.w3.org/2000/svg">
<path d="M8.86607 19.8427C6.90096 19.4524 5.09299 18.5463 3.65097 17.2291C2.20894 15.9119 1.19164 14.2372 0.716435 12.3984C0.241232 10.5596 0.32756 8.63167 0.96541 6.83712C1.60326 5.04256 2.76662 3.45458 4.32124 2.2565L4.20994 2.57116C4.1393 2.80675 4.08356 3.04608 4.043 3.2879C4.02108 3.54709 3.97765 3.80427 3.91313 4.05707C3.93081 4.18473 3.93081 4.31401 3.91313 4.44166V5.2458H4.6737V4.47662C4.8221 3.2879 5.39713 2.34391 6.7884 2.43131C7.05567 2.45146 7.31513 2.52596 7.54891 2.64969C7.78268 2.77343 7.98524 2.94345 8.14258 3.14805C8.45132 3.54889 8.69516 3.99075 8.86607 4.45914C8.95725 4.61106 9.01995 4.77664 9.05153 4.94862C9.21873 5.30141 9.34321 5.67086 9.42255 6.04994L9.57093 6.5569C9.70078 7.15126 9.84923 7.78059 9.96053 8.40991C10.0718 9.03924 10.2202 9.66856 10.3315 10.3154V10.5776L10.4799 11.4167C10.5079 11.5494 10.5079 11.686 10.4799 11.8188C10.5664 12.0307 10.6104 12.256 10.6097 12.483V12.99C10.4219 13.3771 10.205 13.751 9.96053 14.1088C9.90933 14.2888 9.82791 14.46 9.71936 14.6158C9.64697 14.7909 9.56011 14.9604 9.45963 15.1227L8.97737 16.2066C8.95852 16.3766 8.90826 16.5423 8.82893 16.696C8.78531 16.9045 8.72324 17.1092 8.64342 17.3079C8.6665 17.4586 8.6665 17.6117 8.64342 17.7624C8.57489 18.3082 8.57489 18.8598 8.64342 19.4056L8.86607 19.8427ZM17.5661 2.08169C19.2479 3.3061 20.5025 4.97679 21.1683 6.87877C21.8342 8.78075 21.8808 10.827 21.3022 12.7541C20.7236 14.6813 19.5463 16.4012 17.9218 17.6925C16.2972 18.9838 14.2998 19.7875 12.1865 20V19.8601C12.2017 19.7103 12.2392 19.5632 12.2978 19.4231C12.4024 18.8158 12.4644 18.2026 12.4833 17.5876C12.4869 16.9397 12.456 16.2921 12.3906 15.6472V15.1577V14.5633C12.3642 14.4246 12.3642 14.2825 12.3906 14.1438L12.1494 13.5494C12.1494 13.4445 12.1494 13.2872 12.1494 13.1648C12.1494 13.0425 12.0381 12.8851 12.1494 12.8327L12.2422 12.6229V12.5355C12.2422 12.5355 12.2422 12.5355 12.2422 12.4306C12.2969 12.2628 12.3782 12.1036 12.4833 11.9586L16.5644 4.02211C16.5644 3.89974 16.5644 4.02211 16.5644 4.02211C16.6193 3.84882 16.7005 3.68395 16.8056 3.53263L17.0467 3.02568C17.0965 2.87305 17.165 2.72639 17.2508 2.58864V2.46628C17.3279 2.31975 17.4351 2.18905 17.5661 2.08169ZM11.055 0.00141541C12.3812 -0.00164835 13.6962 0.229602 14.932 0.683185C14.9524 0.793062 14.9524 0.905453 14.932 1.01533V1.15518C14.9208 1.31325 14.8766 1.46769 14.8021 1.60969C14.7067 2.00386 14.5764 2.3898 14.4126 2.76346C14.3317 3.13063 14.2264 3.49263 14.0972 3.8473C14.0972 4.07455 13.1511 6.88904 13.0584 6.99393C12.9859 7.35155 12.8804 7.70252 12.7431 8.0428C12.7132 8.23975 12.6439 8.42957 12.539 8.60221C12.539 8.75954 11.9269 10.5951 11.8155 10.8923L11.4816 8.58472V8.0428C11.4555 7.87472 11.4555 7.70394 11.4816 7.53585C11.4081 7.3514 11.3704 7.15599 11.3703 6.95897C11.3393 6.82064 11.3393 6.67773 11.3703 6.53941C11.2589 6.16016 11.1722 5.77485 11.1106 5.38565C11.088 5.22904 11.088 5.07026 11.1106 4.91366C11.0231 4.71865 10.9668 4.51244 10.9437 4.30181C10.7355 3.38408 10.431 2.48813 10.0347 1.62717C9.74108 1.00177 9.2029 0.507124 8.53212 0.246153C9.35972 0.070149 10.2067 -0.012013 11.055 0.00141541Z" fill="#8CA7DD"/>
</svg>
