<svg width="86" height="24" viewBox="0 0 86 24" fill="none" xmlns="http://www.w3.org/2000/svg">
<path d="M0.320312 11.6392C0.320312 5.21103 5.56147 0 12.0268 0H74.1775C80.6428 0 85.8839 5.21103 85.8839 11.6392C85.8839 18.0673 80.6428 23.2783 74.1775 23.2783H12.0268C5.56147 23.2783 0.320312 18.0673 0.320312 11.6392Z" fill="white"/>
<path fill-rule="evenodd" clip-rule="evenodd" d="M25.5646 17.4526C24.765 18.243 23.8115 18.8627 22.7625 19.2736C21.7135 19.6846 20.5911 19.8782 19.4642 19.8426C18.3373 19.807 17.2295 19.5428 16.2089 19.0664C15.1883 18.59 14.2763 17.9113 13.5289 17.072C14.088 17.3041 14.6821 17.4422 15.2867 17.4808C16.3187 17.5437 17.3529 17.3988 18.3272 17.0549C19.3016 16.711 20.1961 16.1751 20.9573 15.4793C21.2266 15.2679 22.1764 14.3517 22.3749 14.2953C22.7293 15.7189 23.0695 16.7478 24.4446 17.2975C24.7857 17.421 25.145 17.4876 25.5079 17.4949L25.5646 17.4526ZM26.7696 7.43116C27.5722 8.7583 27.982 10.2836 27.9519 11.832C27.9218 13.3803 27.453 14.8887 26.5994 16.184C25.3661 16.0008 25.1818 15.4088 24.4163 13.2382C24.2603 12.7449 23.8492 11.9415 24.1186 11.5328C24.3879 11.124 25.8197 8.84064 26.7696 7.43116ZM19.6672 3.38594C20.7699 3.39331 21.8599 3.62037 22.8728 4.05372C23.8858 4.48706 24.801 5.11789 25.5646 5.90892H24.5722L22.9561 8.43189C22.3324 7.13517 21.9071 6.20491 20.532 5.69749C17.2289 4.45715 12.6358 7.75534 11.3882 11.3918C11.4473 9.24803 12.3456 7.21183 13.8919 5.71659C15.4381 4.22134 17.5102 3.38513 19.6672 3.38594ZM21.0849 11.3072C20.0718 13.0171 18.6983 14.4885 17.0588 15.6203C14.0392 17.2975 13.1745 14.3517 14.025 11.8006C14.6204 9.99642 16.1373 7.57211 17.5833 6.96603C17.8258 6.82922 18.096 6.74801 18.3741 6.72835C18.6522 6.70869 18.9312 6.75107 19.1908 6.85239C19.4503 6.95372 19.6838 7.11142 19.8741 7.31398C20.0645 7.51654 20.2069 7.75883 20.291 8.02314C20.7782 9.05468 21.0621 10.1695 21.1274 11.3072H21.0849Z" fill="#2598D2"/>
<path d="M40.9669 15.74C40.8889 15.486 40.8002 15.225 40.7009 14.957C40.6086 14.6889 40.5164 14.4209 40.4242 14.1528H37.5508C37.4585 14.4209 37.3628 14.6889 37.2634 14.957C37.1712 15.225 37.0861 15.486 37.008 15.74H35.284C35.5607 14.9499 35.8232 14.2198 36.0715 13.5497C36.3198 12.8796 36.561 12.2482 36.7952 11.6557C37.0364 11.0631 37.2705 10.5023 37.4976 9.9733C37.7317 9.43719 37.9729 8.91519 38.2212 8.4073H39.8069C40.0481 8.91519 40.2858 9.43719 40.5199 9.9733C40.7541 10.5023 40.9882 11.0631 41.2223 11.6557C41.4636 12.2482 41.7083 12.8796 41.9566 13.5497C42.205 14.2198 42.4675 14.9499 42.7442 15.74H40.9669ZM38.9768 10.0685C38.9413 10.1743 38.8881 10.3189 38.8172 10.5023C38.7462 10.6858 38.6646 10.8974 38.5724 11.1372C38.4802 11.377 38.3773 11.6416 38.2638 11.9308C38.1574 12.22 38.0474 12.5233 37.9339 12.8408H40.0304C39.9169 12.5233 39.8069 12.22 39.7005 11.9308C39.5941 11.6416 39.4912 11.377 39.3919 11.1372C39.2996 10.8974 39.218 10.6858 39.1471 10.5023C39.0761 10.3189 39.0194 10.1743 38.9768 10.0685Z" fill="#333333"/>
<path d="M48.6262 14.3221V15.74H43.6988V8.4073H45.359V14.3221H48.6262Z" fill="#333333"/>
<path d="M51.9091 8.32265C53.0088 8.32265 53.853 8.51664 54.4419 8.90461C55.0308 9.28553 55.3252 9.91334 55.3252 10.788C55.3252 11.6698 55.0272 12.3082 54.4313 12.7032C53.8353 13.0912 52.9839 13.2852 51.8771 13.2852H51.3557V15.74H49.6955V8.51311C50.0573 8.44257 50.4404 8.39319 50.8448 8.36497C51.2492 8.33676 51.604 8.32265 51.9091 8.32265ZM52.0155 9.72993C51.8949 9.72993 51.7743 9.73346 51.6536 9.74051C51.5401 9.74757 51.4408 9.75462 51.3557 9.76167V11.8779H51.8771C52.4518 11.8779 52.8846 11.8003 53.1755 11.6451C53.4664 11.4899 53.6118 11.2007 53.6118 10.7775C53.6118 10.5729 53.5728 10.4036 53.4948 10.2696C53.4238 10.1355 53.3174 10.0297 53.1755 9.95213C53.0407 9.86748 52.874 9.81105 52.6753 9.78284C52.4766 9.74757 52.2567 9.72993 52.0155 9.72993Z" fill="#333333"/>
<path d="M60.9928 8.4073H62.653V15.74H60.9928V12.6291H58.2045V15.74H56.5443V8.4073H58.2045V11.2113H60.9928V8.4073Z" fill="#333333"/>
<path d="M69.2977 15.74C69.2197 15.486 69.131 15.225 69.0317 14.957C68.9394 14.6889 68.8472 14.4209 68.755 14.1528H65.8816C65.7893 14.4209 65.6936 14.6889 65.5942 14.957C65.502 15.225 65.4169 15.486 65.3388 15.74H63.6148C63.8915 14.9499 64.154 14.2198 64.4023 13.5497C64.6506 12.8796 64.8918 12.2482 65.126 11.6557C65.3672 11.0631 65.6013 10.5023 65.8284 9.9733C66.0625 9.43719 66.3037 8.91519 66.552 8.4073H68.1377C68.379 8.91519 68.6166 9.43719 68.8508 9.9733C69.0849 10.5023 69.319 11.0631 69.5531 11.6557C69.7944 12.2482 70.0391 12.8796 70.2875 13.5497C70.5358 14.2198 70.7983 14.9499 71.075 15.74H69.2977ZM67.3076 10.0685C67.2722 10.1743 67.2189 10.3189 67.148 10.5023C67.077 10.6858 66.9955 10.8974 66.9032 11.1372C66.811 11.377 66.7081 11.6416 66.5946 11.9308C66.4882 12.22 66.3782 12.5233 66.2647 12.8408H68.3612C68.2477 12.5233 68.1377 12.22 68.0313 11.9308C67.9249 11.6416 67.822 11.377 67.7227 11.1372C67.6304 10.8974 67.5489 10.6858 67.4779 10.5023C67.407 10.3189 67.3502 10.1743 67.3076 10.0685Z" fill="#333333"/>
</svg>
