<svg width="22" height="21" viewBox="0 0 22 21" fill="none" xmlns="http://www.w3.org/2000/svg">
<path d="M11.2016 0.00318555C12.6961 0.00571198 14.173 0.32571 15.5338 0.941886C16.8947 1.55806 18.1084 2.45628 19.0941 3.57678C20.0799 4.69728 20.8152 6.01435 21.2509 7.44035C21.6867 8.86636 21.813 10.3686 21.6215 11.8471C21.43 13.3256 20.925 14.7464 20.1401 16.0151C19.3552 17.2837 18.3085 18.3711 17.0695 19.2048C15.8306 20.0385 14.4279 20.5995 12.9547 20.8503C11.4815 21.1012 9.97165 21.0362 8.52561 20.6596C8.52561 20.4088 8.63339 20.0684 8.63339 19.8534C8.63339 19.6384 8.63339 19.0114 8.63339 18.5635L9.06441 18.7606L9.76484 18.9935C10.0028 19.0343 10.237 19.0942 10.4653 19.1726C10.6806 19.1588 10.8965 19.1588 11.1118 19.1726C12.395 19.2394 13.6784 19.0443 14.8834 18.5994C15.0475 18.5065 15.2224 18.4343 15.4042 18.3844C15.5016 18.303 15.6105 18.2366 15.7275 18.1873L16.0329 17.9902L16.3202 17.7752L17.2002 16.9153L17.29 16.7899L17.5055 16.5033C17.5593 16.3983 17.6193 16.2966 17.6852 16.1987C17.7172 16.0924 17.7724 15.9945 17.8468 15.912C17.8796 15.7617 17.934 15.6169 18.0084 15.4821C18.0084 15.3567 18.0084 15.1596 18.1521 15.07C18.1284 14.9699 18.1284 14.8656 18.1521 14.7655C18.1366 14.6106 18.1366 14.4545 18.1521 14.2997C18.191 13.7928 18.191 13.2837 18.1521 12.7769V12.5977C18.1384 12.4547 18.1384 12.3107 18.1521 12.1677V12.0782V11.9169C18.1521 11.7915 18.0443 11.6661 18.0084 11.5586C17.924 11.4374 17.8461 11.3118 17.775 11.1824C17.612 10.9268 17.4256 10.6869 17.2182 10.4658L16.9129 10.1612C16.4682 9.75053 15.9661 9.40654 15.4222 9.14003C15.4222 9.05045 15.4222 9.14003 15.4222 9.14003C15.7042 8.91564 15.963 8.66356 16.1945 8.38758C16.262 8.2786 16.3402 8.17658 16.428 8.08302C16.5237 7.87387 16.6317 7.67048 16.7512 7.4739C16.9763 6.7314 17.0376 5.94909 16.9308 5.18073C16.9308 4.98366 16.8051 4.6791 16.8051 4.55369C16.7439 4.47442 16.701 4.38267 16.6794 4.28496C16.5778 4.03422 16.4514 3.79417 16.3022 3.56835L16.0867 3.38919C16.0037 3.29795 15.9258 3.20226 15.8532 3.10255C15.7213 2.99589 15.601 2.8758 15.494 2.74424C15.3941 2.67188 15.2982 2.59413 15.2067 2.51134L14.5961 2.09929C14.5961 2.09929 14.3267 1.99179 14.2907 1.93805L13.5185 1.59765L13.1234 1.49016C12.9932 1.47215 12.8662 1.43597 12.7462 1.38267C11.8931 1.28223 11.031 1.28223 10.1779 1.38267C9.98035 1.38267 9.53137 1.52599 9.40565 1.52599C9.27993 1.52599 9.13624 1.63349 9.02848 1.66932L8.66929 1.79472L8.18439 2.02762C8.02275 2.02762 7.87908 2.22469 7.7354 2.29635C7.62857 2.39435 7.5145 2.48418 7.39415 2.56509L6.51411 3.47877L5.83163 4.69702C5.6099 5.27278 5.465 5.87512 5.40061 6.48855C5.40061 7.13351 5.40061 7.92178 5.40061 8.58465V19.2085C5.40061 19.2085 5.40061 19.3518 5.40061 19.4235C3.43587 18.2095 1.92631 16.3842 1.10499 14.2294C0.283671 12.0745 0.196248 9.70983 0.856212 7.50046C1.51617 5.29108 2.88684 3.35983 4.7566 2.00483C6.62636 0.649822 8.89124 -0.0535862 11.2016 0.00318555ZM13.5185 8.38758C13.4626 8.51459 13.3834 8.63005 13.285 8.72798C13.285 8.72798 13.285 8.72798 13.285 8.85338C13.285 8.97879 12.4409 8.67423 11.938 8.62048C11.4701 8.52341 10.9871 8.52341 10.5192 8.62048L10.2857 8.76381C10.1959 8.76381 10.2857 8.90713 10.124 8.96088C10.124 9.3371 10.1241 9.42668 10.4833 9.57C11.2816 9.74767 12.1094 9.74767 12.9078 9.57C13.1413 9.39085 13.4466 9.71332 13.6083 9.82082C14.281 10.2249 14.78 10.8631 15.0091 11.6124C15.1494 12.054 15.2338 12.5114 15.2606 12.9739C15.2926 13.4892 15.2624 14.0065 15.1708 14.5146V14.6221C15.1531 14.7908 15.1044 14.9548 15.0271 15.1059C14.8635 15.4804 14.639 15.8255 14.3626 16.127C14.0682 16.4172 13.7206 16.6483 13.3389 16.8078C13.1107 16.9353 12.8612 17.0203 12.6025 17.0586H12.4588H11.8661H11.2016H10.7706C10.7128 17.0807 10.6488 17.0807 10.591 17.0586C10.3687 17.021 10.1554 16.942 9.9624 16.8257C9.39967 16.5533 8.93994 16.1073 8.65134 15.5537C8.60134 14.9935 8.60134 14.4299 8.65134 13.8697V8.92505C8.5874 7.81521 8.5874 6.70262 8.65134 5.59278C8.62828 5.49257 8.62828 5.38844 8.65134 5.28822C8.69722 5.04076 8.78854 4.80388 8.92073 4.58952C8.92073 4.4462 9.22606 4.08789 9.33382 4.05206C9.35299 4.01049 9.38034 3.97319 9.41428 3.94241C9.44823 3.91163 9.48807 3.88799 9.53138 3.87291C9.53578 3.83808 9.55283 3.80607 9.57931 3.78296C9.6058 3.75984 9.63985 3.74723 9.67504 3.7475L9.8367 3.65792C10.2278 3.39862 10.6794 3.24435 11.1478 3.21004C11.6274 3.23317 12.0949 3.36816 12.5127 3.60418C12.7325 3.72305 12.9375 3.86737 13.1234 4.03415C13.2986 4.21974 13.444 4.43125 13.5544 4.66118C13.6989 4.90203 13.7908 5.17068 13.8238 5.44946C13.8238 5.44946 13.8238 5.44946 13.8238 5.59278C13.8238 5.73611 13.8238 5.70028 13.8238 5.75402C13.8745 6.28283 13.8319 6.81641 13.6981 7.33058C13.643 7.55311 13.5648 7.76928 13.4646 7.97553C13.4737 8.11273 13.4737 8.25039 13.4646 8.38758H13.5185Z" fill="#EE741D"/>
</svg>
