<svg width="86" height="24" viewBox="0 0 86 24" fill="none" xmlns="http://www.w3.org/2000/svg">
<path d="M0.913574 11.6392C0.913574 5.21103 6.07766 0 12.4479 0H73.6846C80.0548 0 85.2189 5.21103 85.2189 11.6392C85.2189 18.0673 80.0548 23.2783 73.6846 23.2783H12.4479C6.07766 23.2783 0.913574 18.0673 0.913574 11.6392Z" fill="white"/>
<path d="M38.5191 15.8354C38.1207 15.8354 37.7222 15.8213 37.3237 15.7931C36.9323 15.7719 36.5233 15.7155 36.0969 15.6238V8.51329C36.4324 8.4498 36.7994 8.40395 37.1979 8.37574C37.5964 8.34047 37.9669 8.32283 38.3094 8.32283C38.7708 8.32283 39.1937 8.3581 39.5782 8.42864C39.9696 8.49213 40.3052 8.60499 40.5848 8.76724C40.8644 8.92948 41.0811 9.14463 41.2349 9.41268C41.3957 9.67368 41.4761 9.99817 41.4761 10.3861C41.4761 10.9716 41.1965 11.4337 40.6372 11.7723C41.0986 11.9486 41.4132 12.1884 41.5809 12.4918C41.7487 12.7951 41.8326 13.1372 41.8326 13.5181C41.8326 14.287 41.553 14.8655 40.9937 15.2534C40.4415 15.6414 39.6166 15.8354 38.5191 15.8354ZM37.6907 12.5447V14.4387C37.8096 14.4528 37.9389 14.4634 38.0787 14.4704C38.2185 14.4775 38.3723 14.481 38.5401 14.481C39.0294 14.481 39.4244 14.4105 39.725 14.2694C40.0256 14.1283 40.1759 13.8673 40.1759 13.4864C40.1759 13.1478 40.05 12.908 39.7984 12.7669C39.5467 12.6187 39.1867 12.5447 38.7183 12.5447H37.6907ZM37.6907 11.2855H38.4876C38.991 11.2855 39.351 11.222 39.5677 11.0951C39.7844 10.961 39.8927 10.7494 39.8927 10.4602C39.8927 10.1639 39.7809 9.95584 39.5572 9.83592C39.3335 9.716 39.0049 9.65604 38.5715 9.65604C38.4317 9.65604 38.2814 9.65957 38.1206 9.66663C37.9599 9.66663 37.8166 9.67368 37.6907 9.68779V11.2855Z" fill="#333333"/>
<path d="M43.142 15.7402V8.40748H48.0493V9.7936H44.7778V11.2326H47.6823V12.587H44.7778V14.354H48.2905V15.7402H43.142Z" fill="#333333"/>
<path d="M54.8907 8.40748V9.81476H52.6992V15.7402H51.0634V9.81476H48.8719V8.40748H54.8907Z" fill="#333333"/>
<path d="M59.9472 15.7402C59.8703 15.4862 59.7829 15.2252 59.6851 14.9572C59.5942 14.6891 59.5033 14.4211 59.4124 14.153H56.5813C56.4904 14.4211 56.396 14.6891 56.2982 14.9572C56.2073 15.2252 56.1234 15.4862 56.0465 15.7402H54.3478C54.6204 14.9501 54.8791 14.22 55.1238 13.5499C55.3684 12.8797 55.6061 12.2484 55.8368 11.6559C56.0745 11.0633 56.3052 10.5025 56.5289 9.97348C56.7595 9.43737 56.9972 8.91537 57.2419 8.40748H58.8043C59.0419 8.91537 59.2761 9.43737 59.5068 9.97348C59.7375 10.5025 59.9682 11.0633 60.1989 11.6559C60.4365 12.2484 60.6777 12.8797 60.9224 13.5499C61.167 14.22 61.4257 14.9501 61.6983 15.7402H59.9472ZM57.9864 10.0687C57.9514 10.1745 57.899 10.3191 57.8291 10.5025C57.7592 10.6859 57.6788 10.8976 57.5879 11.1374C57.497 11.3772 57.3957 11.6418 57.2838 11.931C57.179 12.2202 57.0706 12.5235 56.9588 12.8409H59.0245C58.9126 12.5235 58.8043 12.2202 58.6994 11.931C58.5945 11.6418 58.4932 11.3772 58.3953 11.1374C58.3044 10.8976 58.224 10.6859 58.1541 10.5025C58.0842 10.3191 58.0283 10.1745 57.9864 10.0687Z" fill="#333333"/>
<path d="M20.0672 3.38693C21.2207 3.38891 22.3606 3.64046 23.4109 4.12483C24.4612 4.6092 25.398 5.31529 26.1588 6.19611C26.9197 7.07692 27.4871 8.11227 27.8235 9.23324C28.1598 10.3542 28.2573 11.5351 28.1095 12.6973C27.9617 13.8596 27.5719 14.9765 26.9661 15.9738C26.3603 16.9711 25.5524 17.8258 24.5962 18.4812C23.64 19.1366 22.5573 19.5775 21.4203 19.7747C20.2832 19.9719 19.1179 19.9208 18.0018 19.6248C18.0018 19.4277 18.085 19.1601 18.085 18.9911C18.085 18.8221 18.085 18.3292 18.085 17.9771L18.4177 18.132L18.9583 18.3151C19.142 18.3471 19.3228 18.3942 19.4989 18.4559C19.6651 18.4448 19.8318 18.4448 19.9979 18.4559C20.9883 18.508 21.9787 18.3547 22.9089 18.0053C23.0355 17.9323 23.1705 17.8755 23.3109 17.8363C23.386 17.7723 23.4701 17.7201 23.5604 17.6813L23.7961 17.5264L24.0179 17.3574L24.6971 16.6814L24.7664 16.5829L24.9327 16.3575C24.975 16.28 25.0212 16.2048 25.0713 16.1322C25.0961 16.0487 25.1387 15.9717 25.1961 15.9069C25.2216 15.7887 25.2636 15.6749 25.3209 15.5689C25.3209 15.4703 25.3209 15.3154 25.4318 15.245C25.4135 15.1662 25.4135 15.0843 25.4318 15.0055C25.4198 14.8838 25.4198 14.7611 25.4318 14.6394C25.4621 14.241 25.4621 13.8407 25.4318 13.4423V13.2874C25.4211 13.175 25.4211 13.0618 25.4318 12.9494V12.7522C25.4318 12.6537 25.3486 12.5551 25.3209 12.4706C25.2554 12.3755 25.1952 12.2767 25.1407 12.1748C25.0148 11.974 24.8709 11.7855 24.7109 11.6115L24.3505 11.2876C24.0072 10.9649 23.6197 10.6945 23.2 10.4848C23.4177 10.3085 23.6174 10.1103 23.7961 9.89335C23.8482 9.80768 23.9085 9.72749 23.9763 9.65394C24.0501 9.48951 24.1335 9.32962 24.2258 9.17511C24.4393 8.62918 24.5385 8.04401 24.5169 7.45696C24.5169 7.30205 24.4198 7.06263 24.4198 6.96405C24.3775 6.90051 24.3492 6.82846 24.3367 6.7528C24.258 6.55582 24.1605 6.36714 24.0456 6.18948L23.8654 6.04865C23.8008 5.97248 23.7406 5.89254 23.6852 5.80923C23.5832 5.72554 23.4903 5.63113 23.4079 5.52757C23.3308 5.47066 23.2568 5.40955 23.1861 5.34449L22.7148 5.02057C22.7148 5.02057 22.5069 4.93607 22.4792 4.89383L21.8831 4.64033L21.5782 4.52766C21.4777 4.51369 21.3797 4.48524 21.2871 4.44316C20.6286 4.36472 19.9633 4.36472 19.3048 4.44316C19.1524 4.44316 18.8058 4.55583 18.7088 4.55583C18.6118 4.55583 18.5009 4.64033 18.4177 4.66849L18.1404 4.76708L17.7662 4.95016C17.6414 4.95016 17.5305 5.10507 17.4196 5.16141C17.3374 5.23865 17.2493 5.30927 17.1563 5.37265L16.477 6.0909L15.9503 7.04855C15.7793 7.50121 15.6675 7.97468 15.6176 8.45687C15.6176 8.96386 15.6176 9.58352 15.6176 10.1046V18.4559C15.6176 18.4559 15.6176 18.5686 15.6176 18.6249C14.117 17.6662 12.9663 16.2351 12.3409 14.5499C11.7156 12.8648 11.65 11.018 12.1542 9.29144C12.6584 7.56486 13.7046 6.05323 15.1334 4.98716C16.5621 3.92109 18.2948 3.3591 20.0672 3.38693ZM21.8554 9.97785C21.8123 10.0777 21.7512 10.1685 21.6752 10.2454C21.6752 10.2454 21.6752 10.2454 21.6752 10.344C21.6752 10.4426 21.0237 10.2032 20.6356 10.1609C20.2744 10.0846 19.9017 10.0846 19.5405 10.1609L19.3603 10.2736C19.291 10.2736 19.3603 10.3863 19.2355 10.4285C19.2355 10.7243 19.2355 10.7947 19.5128 10.9073C20.1289 11.0475 20.768 11.0475 21.3841 10.9073C21.5643 10.7665 21.8 11.02 21.9247 11.1045C22.444 11.4221 22.8291 11.9238 23.0059 12.5128C23.114 12.86 23.1792 13.2196 23.2 13.5831C23.2246 13.9882 23.2013 14.3948 23.1307 14.7943V14.8788C23.1171 15.0114 23.0795 15.1403 23.0198 15.259C22.8933 15.5534 22.72 15.8246 22.5069 16.0618C22.2797 16.2899 22.0115 16.4716 21.7168 16.5969C21.5408 16.6974 21.3482 16.7643 21.1485 16.7941H19.9286C19.884 16.8114 19.8346 16.8114 19.79 16.7941C19.6184 16.7646 19.4538 16.7025 19.3048 16.611C18.8705 16.3969 18.5157 16.0463 18.2929 15.6111C18.254 15.1707 18.254 14.7277 18.2929 14.2873V10.4003C18.2438 9.5279 18.2438 8.65332 18.2929 7.78088C18.2756 7.70204 18.2756 7.6203 18.2929 7.54146C18.3286 7.34702 18.3991 7.16086 18.5009 6.99222C18.5009 6.87955 18.7365 6.59789 18.8197 6.56972C18.8463 6.50641 18.896 6.45597 18.9583 6.42889C18.9617 6.40151 18.9749 6.37635 18.9953 6.35818C19.0157 6.34001 19.042 6.33009 19.0692 6.33031L19.1939 6.25989C19.4955 6.05548 19.8442 5.93416 20.2059 5.90781C20.5761 5.92547 20.9371 6.03163 21.2593 6.21764C21.4288 6.31142 21.5869 6.42484 21.7307 6.55564C21.8659 6.70153 21.9781 6.8678 22.0633 7.04855C22.1753 7.2377 22.2462 7.44897 22.2713 7.66821C22.2713 7.66821 22.2713 7.66821 22.2713 7.78088C22.2713 7.89354 22.2713 7.86538 22.2713 7.90763C22.3101 8.32332 22.2772 8.74271 22.1742 9.14694C22.1315 9.32179 22.0711 9.49169 21.994 9.65394C21.9511 9.76557 21.9002 9.87384 21.8416 9.97785H21.8554Z" fill="#7E8E97"/>
</svg>
