<svg width="121" height="24" viewBox="0 0 121 24" fill="none" xmlns="http://www.w3.org/2000/svg">
<path d="M0.203613 11.6392C0.203613 5.21103 5.41316 0 11.8395 0H108.734C115.161 0 120.37 5.21103 120.37 11.6392C120.37 18.0673 115.161 23.2783 108.734 23.2783H11.8395C5.41316 23.2783 0.203613 18.0673 0.203613 11.6392Z" fill="white"/>
<path d="M37.7662 15.7552C37.3643 15.7552 36.9623 15.7411 36.5603 15.7129C36.1654 15.6917 35.7529 15.6353 35.3227 15.5436V8.43311C35.6612 8.36962 36.0314 8.32377 36.4334 8.29555C36.8354 8.26028 37.2091 8.24265 37.5547 8.24265C38.0201 8.24265 38.4468 8.27792 38.8346 8.34846C39.2295 8.41194 39.568 8.52481 39.8501 8.68705C40.1322 8.84929 40.3508 9.06444 40.5059 9.3325C40.6681 9.5935 40.7492 9.91798 40.7492 10.306C40.7492 10.8914 40.4672 11.3535 39.903 11.6921C40.3684 11.8684 40.6858 12.1083 40.855 12.4116C41.0243 12.7149 41.1089 13.057 41.1089 13.4379C41.1089 14.2068 40.8268 14.7853 40.2627 15.1732C39.7055 15.5612 38.8734 15.7552 37.7662 15.7552ZM36.9306 12.4645V14.3585C37.0505 14.3726 37.1809 14.3832 37.322 14.3902C37.463 14.3973 37.6181 14.4008 37.7874 14.4008C38.281 14.4008 38.6795 14.3303 38.9827 14.1892C39.2859 14.0481 39.4376 13.7871 39.4376 13.4062C39.4376 13.0676 39.3106 12.8278 39.0568 12.6867C38.8029 12.5386 38.4397 12.4645 37.9672 12.4645H36.9306ZM36.9306 11.2053H37.7345C38.2422 11.2053 38.6054 11.1419 38.824 11.0149C39.0427 10.8809 39.152 10.6692 39.152 10.38C39.152 10.0838 39.0391 9.87566 38.8135 9.75574C38.5878 9.63582 38.2564 9.57586 37.8191 9.57586C37.6781 9.57586 37.5265 9.57939 37.3643 9.58644C37.2021 9.58644 37.0575 9.5935 36.9306 9.6076V11.2053Z" fill="#333333"/>
<path d="M42.4298 15.66V8.3273H47.3804V9.71341H44.08V11.1524H47.0101V12.5068H44.08V14.2739H47.6236V15.66H42.4298Z" fill="#333333"/>
<path d="M54.2819 8.3273V9.73458H52.0711V15.66H50.421V9.73458H48.2101V8.3273H54.2819Z" fill="#333333"/>
<path d="M59.383 15.66C59.3054 15.406 59.2172 15.145 59.1185 14.877C59.0268 14.6089 58.9352 14.3409 58.8435 14.0728H55.9874C55.8957 14.3409 55.8005 14.6089 55.7018 14.877C55.6101 15.145 55.5255 15.406 55.4479 15.66H53.7343C54.0093 14.8699 54.2702 14.1398 54.5171 13.4697C54.7639 12.7996 55.0036 12.1682 55.2364 11.5757C55.4761 10.9831 55.7088 10.4223 55.9345 9.89329C56.1672 9.35719 56.407 8.83519 56.6538 8.3273H58.2299C58.4697 8.83519 58.706 9.35719 58.9387 9.89329C59.1714 10.4223 59.4041 10.9831 59.6368 11.5757C59.8766 12.1682 60.1199 12.7996 60.3667 13.4697C60.6135 14.1398 60.8745 14.8699 61.1495 15.66H59.383ZM57.4049 9.98852C57.3696 10.0943 57.3167 10.2389 57.2462 10.4223C57.1757 10.6058 57.0946 10.8174 57.0029 11.0572C56.9112 11.297 56.809 11.5616 56.6961 11.8508C56.5904 12.14 56.481 12.4433 56.3682 12.7608H58.4521C58.3393 12.4433 58.2299 12.14 58.1242 11.8508C58.0184 11.5616 57.9161 11.297 57.8174 11.0572C57.7257 10.8174 57.6446 10.6058 57.5741 10.4223C57.5036 10.2389 57.4472 10.0943 57.4049 9.98852Z" fill="#333333"/>
<path d="M61.5166 11.7873H64.5842V13.2157H61.5166V11.7873Z" fill="#333333"/>
<path d="M67.2856 11.9883C67.2856 12.3481 67.3279 12.6726 67.4125 12.9618C67.5042 13.251 67.6311 13.5014 67.7933 13.7131C67.9626 13.9176 68.1671 14.0763 68.4069 14.1892C68.6466 14.3021 68.9216 14.3585 69.2319 14.3585C69.5352 14.3585 69.8067 14.3021 70.0464 14.1892C70.2933 14.0763 70.4978 13.9176 70.66 13.7131C70.8292 13.5014 70.9562 13.251 71.0408 12.9618C71.1325 12.6726 71.1783 12.3481 71.1783 11.9883C71.1783 11.6286 71.1325 11.3041 71.0408 11.0149C70.9562 10.7186 70.8292 10.4682 70.66 10.2636C70.4978 10.052 70.2933 9.88977 70.0464 9.7769C69.8067 9.66404 69.5352 9.6076 69.2319 9.6076C68.9216 9.6076 68.6466 9.66756 68.4069 9.78748C68.1671 9.90035 67.9626 10.0626 67.7933 10.2742C67.6311 10.4788 67.5042 10.7292 67.4125 11.0255C67.3279 11.3147 67.2856 11.6356 67.2856 11.9883ZM72.8814 11.9883C72.8814 12.6162 72.7862 13.1699 72.5957 13.6496C72.4124 14.1222 72.1585 14.5207 71.8341 14.8452C71.5097 15.1627 71.1219 15.4025 70.6705 15.5647C70.2263 15.727 69.7467 15.8081 69.2319 15.8081C68.7312 15.8081 68.2588 15.727 67.8145 15.5647C67.3702 15.4025 66.9823 15.1627 66.6509 14.8452C66.3194 14.5207 66.0585 14.1222 65.8681 13.6496C65.6777 13.1699 65.5825 12.6162 65.5825 11.9883C65.5825 11.3605 65.6812 10.8103 65.8787 10.3377C66.0761 9.85802 66.3406 9.45594 66.6721 9.13146C67.0105 8.80697 67.3984 8.56361 67.8356 8.40136C68.2799 8.23912 68.7453 8.158 69.2319 8.158C69.7326 8.158 70.2051 8.23912 70.6494 8.40136C71.0937 8.56361 71.4815 8.80697 71.813 9.13146C72.1444 9.45594 72.4053 9.85802 72.5957 10.3377C72.7862 10.8103 72.8814 11.3605 72.8814 11.9883Z" fill="#333333"/>
<path d="M76.4043 8.24265C77.5044 8.24265 78.3471 8.44016 78.9324 8.83519C79.5177 9.22316 79.8104 9.82981 79.8104 10.6551C79.8104 11.1701 79.6905 11.5898 79.4507 11.9143C79.218 12.2317 78.8795 12.4821 78.4352 12.6655C78.5833 12.8489 78.7385 13.0606 78.9007 13.3004C79.0629 13.5332 79.2215 13.7801 79.3767 14.0411C79.5389 14.295 79.694 14.5631 79.8421 14.8452C79.9902 15.1203 80.1277 15.3919 80.2547 15.66H78.4035C78.2695 15.4201 78.132 15.1768 77.991 14.9299C77.857 14.683 77.7159 14.4431 77.5678 14.2104C77.4268 13.9776 77.2858 13.7589 77.1447 13.5543C77.0037 13.3427 76.8626 13.1523 76.7216 12.983H75.9071V15.66H74.2569V8.43311C74.6166 8.36257 74.9868 8.31319 75.3676 8.28497C75.7555 8.25675 76.101 8.24265 76.4043 8.24265ZM76.4995 9.64993C76.3796 9.64993 76.2703 9.65345 76.1715 9.66051C76.0799 9.66756 75.9917 9.67462 75.9071 9.68167V11.6709H76.3725C76.9931 11.6709 77.4374 11.5933 77.7054 11.4381C77.9733 11.2829 78.1073 11.0184 78.1073 10.6445C78.1073 10.2848 77.9698 10.0308 77.6948 9.88271C77.4268 9.72752 77.0284 9.64993 76.4995 9.64993Z" fill="#333333"/>
<path d="M86.5512 15.66C86.4736 15.406 86.3854 15.145 86.2867 14.877C86.195 14.6089 86.1034 14.3409 86.0117 14.0728H83.1556C83.0639 14.3409 82.9687 14.6089 82.87 14.877C82.7783 15.145 82.6937 15.406 82.6161 15.66H80.9025C81.1775 14.8699 81.4384 14.1398 81.6853 13.4697C81.9321 12.7996 82.1719 12.1682 82.4046 11.5757C82.6443 10.9831 82.8771 10.4223 83.1027 9.89329C83.3354 9.35719 83.5752 8.83519 83.822 8.3273H85.3982C85.6379 8.83519 85.8742 9.35719 86.1069 9.89329C86.3396 10.4223 86.5723 10.9831 86.805 11.5757C87.0448 12.1682 87.2881 12.7996 87.5349 13.4697C87.7817 14.1398 88.0427 14.8699 88.3177 15.66H86.5512ZM84.5731 9.98852C84.5378 10.0943 84.4849 10.2389 84.4144 10.4223C84.3439 10.6058 84.2628 10.8174 84.1711 11.0572C84.0794 11.297 83.9772 11.5616 83.8643 11.8508C83.7586 12.14 83.6493 12.4433 83.5364 12.7608H85.6203C85.5075 12.4433 85.3982 12.14 85.2924 11.8508C85.1866 11.5616 85.0843 11.297 84.9856 11.0572C84.8939 10.8174 84.8128 10.6058 84.7423 10.4223C84.6718 10.2389 84.6154 10.0943 84.5731 9.98852Z" fill="#333333"/>
<path d="M94.1854 15.66C93.7129 14.8205 93.2016 13.9917 92.6516 13.1734C92.1015 12.3552 91.5162 11.5827 90.8956 10.8562V15.66H89.2666V8.3273H90.61C90.8427 8.56008 91.1001 8.84577 91.3822 9.18436C91.6643 9.52296 91.9499 9.88624 92.239 10.2742C92.5352 10.6551 92.8279 11.0537 93.117 11.4699C93.4061 11.879 93.6776 12.274 93.9315 12.655V8.3273H95.5711V15.66H94.1854Z" fill="#333333"/>
<path d="M100.837 9.59702C100.069 9.59702 99.5117 9.81217 99.1661 10.2425C98.8276 10.6657 98.6584 11.2477 98.6584 11.9883C98.6584 12.3481 98.7007 12.6761 98.7853 12.9724C98.87 13.2616 98.9969 13.512 99.1661 13.7236C99.3354 13.9353 99.5469 14.101 99.8008 14.2209C100.055 14.3338 100.351 14.3902 100.689 14.3902C100.873 14.3902 101.028 14.3867 101.155 14.3797C101.289 14.3726 101.405 14.3585 101.504 14.3373V11.7873H103.154V15.4166C102.957 15.4942 102.639 15.5753 102.202 15.66C101.765 15.7517 101.225 15.7975 100.584 15.7975C100.034 15.7975 99.5328 15.7129 99.0815 15.5436C98.6372 15.3743 98.2564 15.1274 97.9391 14.8029C97.6217 14.4784 97.3749 14.0799 97.1986 13.6072C97.0294 13.1346 96.9447 12.595 96.9447 11.9883C96.9447 11.3746 97.04 10.8315 97.2304 10.3589C97.4208 9.88624 97.6817 9.48769 98.0131 9.1632C98.3446 8.83166 98.7324 8.58124 99.1767 8.41194C99.628 8.24265 100.108 8.158 100.615 8.158C100.961 8.158 101.271 8.18269 101.546 8.23207C101.828 8.27439 102.068 8.3273 102.266 8.39078C102.47 8.44721 102.636 8.50717 102.763 8.57066C102.897 8.63415 102.992 8.68353 103.048 8.71879L102.572 10.0414C102.347 9.92151 102.086 9.81923 101.789 9.73458C101.5 9.64287 101.183 9.59702 100.837 9.59702Z" fill="#333333"/>
<path d="M104.689 15.66V8.3273H109.64V9.71341H106.34V11.1524H109.27V12.5068H106.34V14.2739H109.883V15.66H104.689Z" fill="#333333"/>
<path d="M19.563 3.38844C20.7214 3.39043 21.866 3.64196 22.9208 4.12628C23.9756 4.61061 24.9163 5.31663 25.6803 6.19737C26.4444 7.0781 27.0143 8.11335 27.352 9.23422C27.6898 10.3551 27.7877 11.5359 27.6392 12.698C27.4908 13.8601 27.0994 14.977 26.491 15.9741C25.8827 16.9713 25.0714 17.826 24.1111 18.4813C23.1508 19.1367 22.0636 19.5776 20.9218 19.7747C19.7799 19.9719 18.6097 19.9208 17.4889 19.6249C17.4889 19.4277 17.5724 19.1601 17.5724 18.9912C17.5724 18.8222 17.5724 18.3293 17.5724 17.9773L17.9065 18.1322L18.4494 18.3152C18.6338 18.3473 18.8154 18.3944 18.9923 18.4561C19.1591 18.4452 19.3265 18.4452 19.4934 18.4561C20.488 18.5085 21.4827 18.3552 22.4167 18.0054C22.5438 17.9324 22.6794 17.8757 22.8204 17.8365C22.8958 17.7725 22.9803 17.7203 23.0709 17.6816L23.3076 17.5266L23.5303 17.3577L24.2124 16.6817L24.282 16.5832L24.449 16.3579C24.4907 16.2753 24.5372 16.1954 24.5883 16.1185C24.6131 16.0349 24.6559 15.958 24.7135 15.8932C24.739 15.775 24.7812 15.6611 24.8388 15.5552C24.8388 15.4566 24.8388 15.3017 24.9502 15.2313C24.9318 15.1526 24.9318 15.0706 24.9502 14.9919C24.9382 14.8702 24.9382 14.7475 24.9502 14.6258C24.9803 14.2274 24.9803 13.8272 24.9502 13.4288V13.288C24.9395 13.1756 24.9395 13.0624 24.9502 12.95V12.7529C24.9502 12.6543 24.8667 12.5557 24.8388 12.4713C24.7734 12.376 24.713 12.2773 24.6579 12.1755C24.5316 11.9747 24.3871 11.7861 24.2263 11.6123L23.9897 11.3729C23.645 11.0501 23.2559 10.7797 22.8343 10.5702C23.0529 10.3938 23.2534 10.1957 23.4329 9.97876C23.4852 9.8931 23.5458 9.81291 23.6138 9.73937C23.6881 9.57497 23.7717 9.4151 23.8644 9.26059C24.0388 8.67696 24.0863 8.06206 24.0036 7.45811C24.0036 7.30321 23.9062 7.06381 23.9062 6.96524C23.8587 6.90293 23.8255 6.83081 23.8087 6.75401C23.7299 6.55693 23.632 6.36824 23.5164 6.19074L23.3493 6.04992C23.285 5.9782 23.2246 5.90299 23.1684 5.82461C23.0661 5.74077 22.9728 5.64638 22.89 5.54297C22.8125 5.48609 22.7381 5.42498 22.6672 5.35991L22.194 5.03602C22.194 5.03602 21.9851 4.95153 21.9573 4.90929L21.3587 4.64173L21.0525 4.55724C20.9516 4.54308 20.8532 4.51464 20.7602 4.47275C20.0989 4.3938 19.4308 4.3938 18.7695 4.47275C18.6164 4.47275 18.2684 4.5854 18.171 4.5854C18.0735 4.5854 17.9622 4.66989 17.8786 4.69806L17.6002 4.79663L17.2244 4.9797C17.0991 4.9797 16.9877 5.1346 16.8764 5.19092C16.7936 5.26795 16.7052 5.33856 16.6119 5.40215L15.9298 6.12033L15.4008 7.0779C15.2289 7.53046 15.1166 8.00391 15.0667 8.48608C15.0667 8.99303 15.0667 9.61263 15.0667 10.1337V18.4842C15.0667 18.4842 15.0667 18.5969 15.0667 18.6532C13.5439 17.699 12.3739 16.2643 11.7373 14.5705C11.1007 12.8767 11.0329 11.0181 11.5444 9.28146C12.056 7.54485 13.1184 6.02684 14.5676 4.96178C16.0168 3.89671 17.7723 3.34382 19.563 3.38844ZM21.3587 9.97876C21.3154 10.0786 21.2541 10.1693 21.1778 10.2463C21.1778 10.2463 21.1778 10.2463 21.1778 10.3449C21.1778 10.4435 20.5235 10.2041 20.1337 10.1618C19.7711 10.0855 19.3967 10.0855 19.034 10.1618L18.8531 10.2745C18.7835 10.2745 18.8531 10.3871 18.7278 10.4294C18.7278 10.7251 18.7278 10.7955 19.0062 10.9082C19.625 11.0478 20.2666 11.0478 20.8854 10.9082C21.0664 10.7673 21.303 11.0208 21.4283 11.1053C21.9498 11.4229 22.3365 11.9245 22.5141 12.5135C22.6228 12.8607 22.6883 13.2202 22.709 13.5837C22.7338 13.9888 22.7104 14.3954 22.6394 14.7948V14.8793C22.6257 15.0118 22.588 15.1407 22.528 15.2595C22.4012 15.5539 22.2272 15.8251 22.013 16.0621C21.7848 16.2902 21.5154 16.4719 21.2195 16.5972C21.0427 16.6974 20.8493 16.7643 20.6488 16.7944H19.2289C19.1841 16.8117 19.1345 16.8117 19.0897 16.7944C18.9174 16.7649 18.7521 16.7028 18.6025 16.6113C18.1663 16.3972 17.81 16.0466 17.5863 15.6115C17.5476 15.1712 17.5476 14.7282 17.5863 14.2878V10.4012C17.5368 9.52886 17.5368 8.65435 17.5863 7.78199C17.5684 7.70322 17.5684 7.62137 17.5863 7.5426C17.6219 7.34808 17.6927 7.16189 17.7951 6.99341C17.7951 6.88075 18.0318 6.59911 18.1153 6.57095C18.1301 6.53827 18.1513 6.50896 18.1777 6.48476C18.204 6.46057 18.2348 6.44198 18.2684 6.43013C18.2718 6.40275 18.285 6.3776 18.3056 6.35943C18.3261 6.34126 18.3525 6.33134 18.3798 6.33156L18.5051 6.26115C18.8082 6.05733 19.1582 5.93607 19.5212 5.9091C19.893 5.92728 20.2553 6.03339 20.5792 6.2189C20.7495 6.31234 20.9084 6.42578 21.0525 6.55687C21.1883 6.70275 21.301 6.869 21.3866 7.04973C21.4986 7.23904 21.5698 7.45021 21.5954 7.66934C21.5954 7.66934 21.5954 7.66934 21.5954 7.78199C21.5954 7.89465 21.5954 7.86648 21.5954 7.90873C21.6347 8.32438 21.6017 8.74378 21.4979 9.14793C21.4553 9.32285 21.3946 9.49276 21.317 9.65488C21.3241 9.76272 21.3241 9.87092 21.317 9.97876H21.3587Z" fill="#EE741D"/>
</svg>
