<svg width="238" height="170" viewBox="0 0 238 170" fill="none" xmlns="http://www.w3.org/2000/svg">
<path fill-rule="evenodd" clip-rule="evenodd" d="M111.303 101.723C112.769 110.538 113.08 121.626 125.417 121.626H196.675C208.353 121.626 208.821 111.93 210.865 103.732L225.827 43.8867H101.662L111.303 101.723Z" fill="#2598D2"/>
<path fill-rule="evenodd" clip-rule="evenodd" d="M163.506 69.1543C153.54 86.4135 147.259 104.411 144.529 121.622H196.677C208.355 121.622 208.823 111.926 210.868 103.728L225.829 43.8828H181.491C174.923 51.427 168.855 59.8835 163.503 69.1543H163.506Z" fill="#76CCF7"/>
<path fill-rule="evenodd" clip-rule="evenodd" d="M183.875 143.902C176.928 143.902 171.287 149.541 171.287 156.49C171.287 163.44 176.926 169.076 183.875 169.076C190.825 169.076 196.458 163.437 196.458 156.49C196.461 149.541 190.82 143.902 183.875 143.902Z" fill="#FAFEFF"/>
<path fill-rule="evenodd" clip-rule="evenodd" d="M135.659 143.902C128.712 143.902 123.071 149.541 123.071 156.49C123.071 163.437 128.71 169.076 135.659 169.076C142.609 169.076 148.245 163.437 148.245 156.49C148.245 149.541 142.609 143.902 135.659 143.902Z" fill="#FAFEFF"/>
<path fill-rule="evenodd" clip-rule="evenodd" d="M232.636 32.4113H101.151L97.6141 6.14877C97.103 2.34444 94.9824 0.710938 91.2186 0.710938H65.2928C61.8156 0.710937 59 3.53374 59 7.00851C59 10.4833 61.8132 13.3013 65.2928 13.3013H85.8166L100.52 102.783C102.971 118.184 106.498 133.101 126.513 133.101H195.736C216.005 133.101 218.233 118.636 221.87 104.08L237.312 42.3126C238.506 37.5387 238.8 32.4113 232.636 32.4113ZM220.076 60.914H134.413C130.95 60.914 128.12 63.7439 128.12 67.2068C128.12 70.672 130.95 73.5019 134.413 73.5019H216.931L213.339 87.8715H149.8C146.34 87.8715 143.51 90.7014 143.51 94.1643V94.169C143.51 97.6295 146.34 100.459 149.8 100.459H210.189L209.523 103.132C207.534 111.094 207.08 120.515 195.736 120.515H126.513C114.529 120.515 114.229 109.745 112.803 101.181L103.439 44.9969H224.057L220.076 60.914Z" fill="#FAFEFF"/>
<rect x="15" y="30" width="54" height="13" rx="6.5" fill="white"/>
<rect y="53" width="79" height="13" rx="6.5" fill="white"/>
<rect x="45" y="76" width="38" height="13" rx="6.5" fill="white"/>
</svg>
