<svg width="600" height="159" viewBox="0 0 600 159" fill="none" xmlns="http://www.w3.org/2000/svg">
<path d="M4.122 6.902V8.954H5.04C5.964 8.954 6.786 9.026 7.506 9.17C8.238 9.314 8.85 9.548 9.342 9.872C9.846 10.196 10.23 10.616 10.494 11.132C10.758 11.648 10.89 12.278 10.89 13.022C10.89 14.402 10.386 15.434 9.378 16.118C8.382 16.79 6.954 17.126 5.094 17.126C4.59 17.126 4.014 17.096 3.366 17.036C2.73 16.976 2.088 16.868 1.44 16.712V4.526H9.72V6.902H4.122ZM5.238 14.732C5.61 14.732 5.964 14.708 6.3 14.66C6.636 14.612 6.93 14.528 7.182 14.408C7.446 14.276 7.656 14.102 7.812 13.886C7.968 13.67 8.046 13.388 8.046 13.04C8.046 12.68 7.974 12.386 7.83 12.158C7.686 11.93 7.482 11.75 7.218 11.618C6.954 11.486 6.63 11.396 6.246 11.348C5.862 11.3 5.43 11.276 4.95 11.276H4.122V14.696C4.254 14.708 4.41 14.72 4.59 14.732C4.782 14.732 4.998 14.732 5.238 14.732ZM17.215 9.728C17.203 10.076 17.185 10.448 17.161 10.844C17.149 11.228 17.119 11.618 17.071 12.014C17.023 12.398 16.957 12.776 16.873 13.148C16.801 13.52 16.705 13.868 16.585 14.192C16.441 14.576 16.255 14.936 16.027 15.272C15.811 15.596 15.529 15.89 15.181 16.154C14.845 16.418 14.431 16.64 13.939 16.82C13.459 16.988 12.895 17.102 12.247 17.162L11.887 14.93C12.499 14.81 12.973 14.642 13.309 14.426C13.645 14.198 13.897 13.91 14.065 13.562C14.197 13.262 14.299 12.914 14.371 12.518C14.455 12.122 14.515 11.708 14.551 11.276C14.587 10.832 14.605 10.382 14.605 9.926C14.617 9.47 14.623 9.032 14.623 8.612V7.532H21.733V17H19.051V9.728H17.215ZM33.1082 12.248C33.1082 12.992 33.0002 13.676 32.7842 14.3C32.5682 14.912 32.2562 15.44 31.8482 15.884C31.4402 16.316 30.9482 16.652 30.3722 16.892C29.8082 17.132 29.1722 17.252 28.4642 17.252C27.7682 17.252 27.1322 17.132 26.5562 16.892C25.9922 16.652 25.5062 16.316 25.0982 15.884C24.6902 15.44 24.3722 14.912 24.1442 14.3C23.9162 13.676 23.8022 12.992 23.8022 12.248C23.8022 11.504 23.9162 10.826 24.1442 10.214C24.3842 9.602 24.7082 9.08 25.1162 8.648C25.5362 8.216 26.0282 7.88 26.5922 7.64C27.1682 7.4 27.7922 7.28 28.4642 7.28C29.1482 7.28 29.7722 7.4 30.3362 7.64C30.9122 7.88 31.4042 8.216 31.8122 8.648C32.2202 9.08 32.5382 9.602 32.7662 10.214C32.9942 10.826 33.1082 11.504 33.1082 12.248ZM30.3722 12.248C30.3722 11.42 30.2042 10.772 29.8682 10.304C29.5442 9.824 29.0762 9.584 28.4642 9.584C27.8522 9.584 27.3782 9.824 27.0422 10.304C26.7062 10.772 26.5382 11.42 26.5382 12.248C26.5382 13.076 26.7062 13.736 27.0422 14.228C27.3782 14.708 27.8522 14.948 28.4642 14.948C29.0762 14.948 29.5442 14.708 29.8682 14.228C30.2042 13.736 30.3722 13.076 30.3722 12.248ZM37.8678 10.844C38.1318 10.592 38.4078 10.316 38.6958 10.016C38.9958 9.716 39.2838 9.422 39.5598 9.134C39.8358 8.834 40.0998 8.546 40.3518 8.27C40.6038 7.994 40.8258 7.748 41.0178 7.532H44.2758C44.0358 7.784 43.7358 8.096 43.3758 8.468C43.0278 8.84 42.6558 9.23 42.2598 9.638C41.8638 10.034 41.4618 10.43 41.0538 10.826C40.6578 11.222 40.2798 11.576 39.9198 11.888C40.2798 12.164 40.6638 12.506 41.0718 12.914C41.4798 13.322 41.8758 13.76 42.2598 14.228C42.6558 14.696 43.0278 15.17 43.3758 15.65C43.7358 16.13 44.0418 16.58 44.2938 17H41.2338C41.0178 16.676 40.7718 16.34 40.4958 15.992C40.2198 15.632 39.9318 15.284 39.6318 14.948C39.3318 14.6 39.0258 14.276 38.7138 13.976C38.4138 13.676 38.1318 13.418 37.8678 13.202V17H35.1858V7.532H37.8678V10.844ZM53.8189 10.412L55.6909 7.532H58.4629L55.2229 12.086C55.9429 12.986 56.5969 13.862 57.1849 14.714C57.7729 15.566 58.2409 16.328 58.5889 17H55.7089C55.6129 16.82 55.4929 16.598 55.3489 16.334C55.2049 16.058 55.0429 15.776 54.8629 15.488C54.6829 15.188 54.4909 14.894 54.2869 14.606C54.0949 14.306 53.9029 14.036 53.7109 13.796C53.5309 14.024 53.3449 14.276 53.1529 14.552C52.9729 14.828 52.7989 15.11 52.6309 15.398C52.4629 15.674 52.2949 15.95 52.1269 16.226C51.9709 16.502 51.8329 16.76 51.7129 17H48.9769C49.1209 16.7 49.3189 16.346 49.5709 15.938C49.8229 15.53 50.0929 15.11 50.3809 14.678C50.6809 14.234 50.9929 13.796 51.3169 13.364C51.6409 12.92 51.9589 12.506 52.2709 12.122C51.7309 11.366 51.1909 10.604 50.6509 9.836C50.1109 9.056 49.5769 8.288 49.0489 7.532H51.9469L53.8189 10.412ZM63.6417 15.128C63.9057 15.128 64.1577 15.122 64.3977 15.11C64.6377 15.098 64.8297 15.08 64.9737 15.056V13.022C64.8657 12.998 64.7037 12.974 64.4877 12.95C64.2717 12.926 64.0737 12.914 63.8937 12.914C63.6417 12.914 63.4017 12.932 63.1737 12.968C62.9577 12.992 62.7657 13.046 62.5977 13.13C62.4297 13.214 62.2977 13.328 62.2017 13.472C62.1057 13.616 62.0577 13.796 62.0577 14.012C62.0577 14.432 62.1957 14.726 62.4717 14.894C62.7597 15.05 63.1497 15.128 63.6417 15.128ZM63.4257 7.28C64.2177 7.28 64.8777 7.37 65.4057 7.55C65.9337 7.73 66.3537 7.988 66.6657 8.324C66.9897 8.66 67.2177 9.068 67.3497 9.548C67.4817 10.028 67.5477 10.562 67.5477 11.15V16.73C67.1637 16.814 66.6297 16.91 65.9457 17.018C65.2617 17.138 64.4337 17.198 63.4617 17.198C62.8497 17.198 62.2917 17.144 61.7877 17.036C61.2957 16.928 60.8697 16.754 60.5097 16.514C60.1497 16.262 59.8737 15.938 59.6817 15.542C59.4897 15.146 59.3937 14.66 59.3937 14.084C59.3937 13.532 59.5017 13.064 59.7177 12.68C59.9457 12.296 60.2457 11.99 60.6177 11.762C60.9897 11.534 61.4157 11.372 61.8957 11.276C62.3757 11.168 62.8737 11.114 63.3897 11.114C63.7377 11.114 64.0437 11.132 64.3077 11.168C64.5837 11.192 64.8057 11.228 64.9737 11.276V11.024C64.9737 10.568 64.8357 10.202 64.5597 9.926C64.2837 9.65 63.8037 9.512 63.1197 9.512C62.6637 9.512 62.2137 9.548 61.7697 9.62C61.3257 9.68 60.9417 9.77 60.6177 9.89L60.2757 7.73C60.4317 7.682 60.6237 7.634 60.8517 7.586C61.0917 7.526 61.3497 7.478 61.6257 7.442C61.9017 7.394 62.1897 7.358 62.4897 7.334C62.8017 7.298 63.1137 7.28 63.4257 7.28ZM76.0389 12.338C76.0389 11.51 75.8529 10.85 75.4809 10.358C75.1089 9.854 74.5569 9.602 73.8249 9.602C73.5849 9.602 73.3629 9.614 73.1589 9.638C72.9549 9.65 72.7869 9.668 72.6549 9.692V14.534C72.8229 14.642 73.0389 14.732 73.3029 14.804C73.5789 14.876 73.8549 14.912 74.1309 14.912C75.4029 14.912 76.0389 14.054 76.0389 12.338ZM78.7749 12.266C78.7749 12.998 78.6849 13.664 78.5049 14.264C78.3249 14.864 78.0609 15.38 77.7129 15.812C77.3649 16.244 76.9329 16.58 76.4169 16.82C75.9009 17.06 75.3069 17.18 74.6349 17.18C74.2629 17.18 73.9149 17.144 73.5909 17.072C73.2669 17 72.9549 16.898 72.6549 16.766V20.33H69.9729V7.856C70.2129 7.784 70.4889 7.718 70.8009 7.658C71.1129 7.586 71.4369 7.526 71.7729 7.478C72.1209 7.43 72.4689 7.394 72.8169 7.37C73.1769 7.334 73.5189 7.316 73.8429 7.316C74.6229 7.316 75.3189 7.436 75.9309 7.676C76.5429 7.904 77.0589 8.234 77.4789 8.666C77.8989 9.086 78.2169 9.602 78.4329 10.214C78.6609 10.826 78.7749 11.51 78.7749 12.266ZM84.4542 15.128C84.7182 15.128 84.9702 15.122 85.2102 15.11C85.4502 15.098 85.6422 15.08 85.7862 15.056V13.022C85.6782 12.998 85.5162 12.974 85.3002 12.95C85.0842 12.926 84.8862 12.914 84.7062 12.914C84.4542 12.914 84.2142 12.932 83.9862 12.968C83.7702 12.992 83.5782 13.046 83.4102 13.13C83.2422 13.214 83.1102 13.328 83.0142 13.472C82.9182 13.616 82.8702 13.796 82.8702 14.012C82.8702 14.432 83.0082 14.726 83.2842 14.894C83.5722 15.05 83.9622 15.128 84.4542 15.128ZM84.2382 7.28C85.0302 7.28 85.6902 7.37 86.2182 7.55C86.7462 7.73 87.1662 7.988 87.4782 8.324C87.8022 8.66 88.0302 9.068 88.1622 9.548C88.2942 10.028 88.3602 10.562 88.3602 11.15V16.73C87.9762 16.814 87.4422 16.91 86.7582 17.018C86.0742 17.138 85.2462 17.198 84.2742 17.198C83.6622 17.198 83.1042 17.144 82.6002 17.036C82.1082 16.928 81.6822 16.754 81.3222 16.514C80.9622 16.262 80.6862 15.938 80.4942 15.542C80.3022 15.146 80.2062 14.66 80.2062 14.084C80.2062 13.532 80.3142 13.064 80.5302 12.68C80.7582 12.296 81.0582 11.99 81.4302 11.762C81.8022 11.534 82.2282 11.372 82.7082 11.276C83.1882 11.168 83.6862 11.114 84.2022 11.114C84.5502 11.114 84.8562 11.132 85.1202 11.168C85.3962 11.192 85.6182 11.228 85.7862 11.276V11.024C85.7862 10.568 85.6482 10.202 85.3722 9.926C85.0962 9.65 84.6162 9.512 83.9322 9.512C83.4762 9.512 83.0262 9.548 82.5822 9.62C82.1382 9.68 81.7542 9.77 81.4302 9.89L81.0882 7.73C81.2442 7.682 81.4362 7.634 81.6642 7.586C81.9042 7.526 82.1622 7.478 82.4382 7.442C82.7142 7.394 83.0022 7.358 83.3022 7.334C83.6142 7.298 83.9262 7.28 84.2382 7.28ZM93.4674 10.844C93.7314 10.592 94.0074 10.316 94.2954 10.016C94.5954 9.716 94.8834 9.422 95.1594 9.134C95.4354 8.834 95.6994 8.546 95.9514 8.27C96.2034 7.994 96.4254 7.748 96.6174 7.532H99.8754C99.6354 7.784 99.3354 8.096 98.9754 8.468C98.6274 8.84 98.2554 9.23 97.8594 9.638C97.4634 10.034 97.0614 10.43 96.6534 10.826C96.2574 11.222 95.8794 11.576 95.5194 11.888C95.8794 12.164 96.2634 12.506 96.6714 12.914C97.0794 13.322 97.4754 13.76 97.8594 14.228C98.2554 14.696 98.6274 15.17 98.9754 15.65C99.3354 16.13 99.6414 16.58 99.8934 17H96.8334C96.6174 16.676 96.3714 16.34 96.0954 15.992C95.8194 15.632 95.5314 15.284 95.2314 14.948C94.9314 14.6 94.6254 14.276 94.3134 13.976C94.0134 13.676 93.7314 13.418 93.4674 13.202V17H90.7854V7.532H93.4674V10.844ZM109.496 9.728H106.472V17H103.79V9.728H100.766V7.532H109.496V9.728ZM110.673 12.338C110.673 11.498 110.799 10.766 111.051 10.142C111.315 9.506 111.657 8.978 112.077 8.558C112.497 8.138 112.977 7.82 113.517 7.604C114.069 7.388 114.633 7.28 115.209 7.28C116.553 7.28 117.615 7.694 118.395 8.522C119.175 9.338 119.565 10.544 119.565 12.14C119.565 12.296 119.559 12.47 119.547 12.662C119.535 12.842 119.523 13.004 119.511 13.148H113.427C113.487 13.7 113.745 14.138 114.201 14.462C114.657 14.786 115.269 14.948 116.037 14.948C116.529 14.948 117.009 14.906 117.477 14.822C117.957 14.726 118.347 14.612 118.647 14.48L119.007 16.658C118.863 16.73 118.671 16.802 118.431 16.874C118.191 16.946 117.921 17.006 117.621 17.054C117.333 17.114 117.021 17.162 116.685 17.198C116.349 17.234 116.013 17.252 115.677 17.252C114.825 17.252 114.081 17.126 113.445 16.874C112.821 16.622 112.299 16.28 111.879 15.848C111.471 15.404 111.165 14.882 110.961 14.282C110.769 13.682 110.673 13.034 110.673 12.338ZM116.973 11.312C116.961 11.084 116.919 10.862 116.847 10.646C116.787 10.43 116.685 10.238 116.541 10.07C116.409 9.902 116.235 9.764 116.019 9.656C115.815 9.548 115.557 9.494 115.245 9.494C114.945 9.494 114.687 9.548 114.471 9.656C114.255 9.752 114.075 9.884 113.931 10.052C113.787 10.22 113.673 10.418 113.589 10.646C113.517 10.862 113.463 11.084 113.427 11.312H116.973ZM127.701 12.338C127.701 11.51 127.515 10.85 127.143 10.358C126.771 9.854 126.219 9.602 125.487 9.602C125.247 9.602 125.025 9.614 124.821 9.638C124.617 9.65 124.449 9.668 124.317 9.692V14.534C124.485 14.642 124.701 14.732 124.965 14.804C125.241 14.876 125.517 14.912 125.793 14.912C127.065 14.912 127.701 14.054 127.701 12.338ZM130.437 12.266C130.437 12.998 130.347 13.664 130.167 14.264C129.987 14.864 129.723 15.38 129.375 15.812C129.027 16.244 128.595 16.58 128.079 16.82C127.563 17.06 126.969 17.18 126.297 17.18C125.925 17.18 125.577 17.144 125.253 17.072C124.929 17 124.617 16.898 124.317 16.766V20.33H121.635V7.856C121.875 7.784 122.151 7.718 122.463 7.658C122.775 7.586 123.099 7.526 123.435 7.478C123.783 7.43 124.131 7.394 124.479 7.37C124.839 7.334 125.181 7.316 125.505 7.316C126.285 7.316 126.981 7.436 127.593 7.676C128.205 7.904 128.721 8.234 129.141 8.666C129.561 9.086 129.879 9.602 130.095 10.214C130.323 10.826 130.437 11.51 130.437 12.266ZM141.12 7.532V17H138.42C138.42 16.4 138.426 15.806 138.438 15.218C138.45 14.618 138.462 14.066 138.474 13.562C138.486 13.058 138.498 12.62 138.51 12.248C138.534 11.864 138.546 11.582 138.546 11.402C138.198 11.894 137.85 12.392 137.502 12.896C137.154 13.4 136.818 13.898 136.494 14.39C136.182 14.87 135.882 15.332 135.594 15.776C135.318 16.22 135.072 16.628 134.856 17H132.498V7.532H135.18C135.18 8.132 135.174 8.708 135.162 9.26C135.162 9.8 135.156 10.292 135.144 10.736C135.132 11.18 135.12 11.57 135.108 11.906C135.096 12.23 135.09 12.482 135.09 12.662C135.81 11.606 136.47 10.658 137.07 9.818C137.682 8.978 138.276 8.216 138.852 7.532H141.12ZM143.193 12.266C143.193 11.582 143.301 10.94 143.517 10.34C143.745 9.728 144.069 9.2 144.489 8.756C144.909 8.3 145.419 7.94 146.019 7.676C146.619 7.412 147.303 7.28 148.071 7.28C148.575 7.28 149.037 7.328 149.457 7.424C149.877 7.508 150.285 7.634 150.681 7.802L150.123 9.944C149.871 9.848 149.595 9.764 149.295 9.692C148.995 9.62 148.659 9.584 148.287 9.584C147.495 9.584 146.901 9.83 146.505 10.322C146.121 10.814 145.929 11.462 145.929 12.266C145.929 13.118 146.109 13.778 146.469 14.246C146.841 14.714 147.483 14.948 148.395 14.948C148.719 14.948 149.067 14.918 149.439 14.858C149.811 14.798 150.153 14.702 150.465 14.57L150.843 16.766C150.531 16.898 150.141 17.012 149.673 17.108C149.205 17.204 148.689 17.252 148.125 17.252C147.261 17.252 146.517 17.126 145.893 16.874C145.269 16.61 144.753 16.256 144.345 15.812C143.949 15.368 143.655 14.846 143.463 14.246C143.283 13.634 143.193 12.974 143.193 12.266ZM160.473 9.728H157.449V17H154.767V9.728H151.743V7.532H160.473V9.728ZM170.722 7.532V17H168.022C168.022 16.4 168.028 15.806 168.04 15.218C168.052 14.618 168.064 14.066 168.076 13.562C168.088 13.058 168.1 12.62 168.112 12.248C168.136 11.864 168.148 11.582 168.148 11.402C167.8 11.894 167.452 12.392 167.104 12.896C166.756 13.4 166.42 13.898 166.096 14.39C165.784 14.87 165.484 15.332 165.196 15.776C164.92 16.22 164.674 16.628 164.458 17H162.1V7.532H164.782C164.782 8.132 164.776 8.708 164.764 9.26C164.764 9.8 164.758 10.292 164.746 10.736C164.734 11.18 164.722 11.57 164.71 11.906C164.698 12.23 164.692 12.482 164.692 12.662C165.412 11.606 166.072 10.658 166.672 9.818C167.284 8.978 167.878 8.216 168.454 7.532H170.722ZM175.926 10.844C176.19 10.592 176.466 10.316 176.754 10.016C177.054 9.716 177.342 9.422 177.618 9.134C177.894 8.834 178.158 8.546 178.41 8.27C178.662 7.994 178.884 7.748 179.076 7.532H182.334C182.094 7.784 181.794 8.096 181.434 8.468C181.086 8.84 180.714 9.23 180.318 9.638C179.922 10.034 179.52 10.43 179.112 10.826C178.716 11.222 178.338 11.576 177.978 11.888C178.338 12.164 178.722 12.506 179.13 12.914C179.538 13.322 179.934 13.76 180.318 14.228C180.714 14.696 181.086 15.17 181.434 15.65C181.794 16.13 182.1 16.58 182.352 17H179.292C179.076 16.676 178.83 16.34 178.554 15.992C178.278 15.632 177.99 15.284 177.69 14.948C177.39 14.6 177.084 14.276 176.772 13.976C176.472 13.676 176.19 13.418 175.926 13.202V17H173.244V7.532H175.926V10.844Z" fill="#42474D"/>
<path d="M9.056 40.912V42.656H5.648V52H3.616V42.656H0.208V40.912H9.056ZM16.7631 43.632V52H14.8431C14.8431 51.392 14.8431 50.7893 14.8431 50.192C14.8538 49.5947 14.8591 49.04 14.8591 48.528C14.8698 48.016 14.8751 47.5733 14.8751 47.2C14.8858 46.816 14.8911 46.5333 14.8911 46.352C14.5711 46.768 14.2405 47.2267 13.8991 47.728C13.5578 48.2293 13.2165 48.7307 12.8751 49.232C12.5445 49.7333 12.2298 50.224 11.9311 50.704C11.6325 51.184 11.3711 51.616 11.1471 52H9.43513V43.632H11.3391C11.3391 44.2507 11.3338 44.8427 11.3231 45.408C11.3231 45.9627 11.3231 46.4693 11.3231 46.928C11.3231 47.3867 11.3178 47.7867 11.3071 48.128C11.3071 48.4693 11.3071 48.7307 11.3071 48.912C11.6058 48.4533 11.9151 47.984 12.2351 47.504C12.5551 47.0133 12.8751 46.5387 13.1951 46.08C13.5258 45.6107 13.8511 45.168 14.1711 44.752C14.4911 44.336 14.8005 43.9627 15.0991 43.632H16.7631ZM26.192 43.632V52H24.256V45.248H21.168V52H19.232V43.632H26.192ZM30.8299 44.96C30.8299 45.3333 30.7019 45.6373 30.4459 45.872C30.2005 46.1067 29.9019 46.224 29.5499 46.224C29.1872 46.224 28.8832 46.1067 28.6379 45.872C28.3925 45.6373 28.2699 45.3333 28.2699 44.96C28.2699 44.5867 28.3925 44.2827 28.6379 44.048C28.8832 43.8027 29.1872 43.68 29.5499 43.68C29.9019 43.68 30.2005 43.8027 30.4459 44.048C30.7019 44.2827 30.8299 44.5867 30.8299 44.96ZM30.8299 50.944C30.8299 51.3173 30.7019 51.6213 30.4459 51.856C30.2005 52.0907 29.9019 52.208 29.5499 52.208C29.1872 52.208 28.8832 52.0907 28.6379 51.856C28.3925 51.6213 28.2699 51.3173 28.2699 50.944C28.2699 50.5707 28.3925 50.2667 28.6379 50.032C28.8832 49.7867 29.1872 49.664 29.5499 49.664C29.9019 49.664 30.2005 49.7867 30.4459 50.032C30.7019 50.2667 30.8299 50.5707 30.8299 50.944Z" fill="#828D99"/>
<line x1="36.5" y1="54.5" x2="401.5" y2="54.5" stroke="#A6ACB3" stroke-linecap="round" stroke-dasharray="2 2"/>
<path d="M415.056 40.912V42.656H411.648V52H409.616V42.656H406.208V40.912H415.056ZM421.472 47.856C421.472 46.992 421.274 46.32 420.88 45.84C420.496 45.36 419.872 45.12 419.008 45.12C418.826 45.12 418.634 45.1307 418.432 45.152C418.24 45.1627 418.048 45.1947 417.856 45.248V50.032C418.026 50.1493 418.25 50.2613 418.528 50.368C418.816 50.464 419.12 50.512 419.44 50.512C420.144 50.512 420.656 50.272 420.976 49.792C421.306 49.312 421.472 48.6667 421.472 47.856ZM423.456 47.824C423.456 48.464 423.37 49.0507 423.2 49.584C423.04 50.1173 422.805 50.576 422.496 50.96C422.186 51.344 421.797 51.6427 421.328 51.856C420.869 52.0693 420.346 52.176 419.76 52.176C419.365 52.176 419.002 52.128 418.672 52.032C418.341 51.936 418.069 51.8293 417.856 51.712V54.96H415.92V43.904C416.314 43.7973 416.8 43.696 417.376 43.6C417.952 43.504 418.56 43.456 419.2 43.456C419.861 43.456 420.453 43.5573 420.976 43.76C421.498 43.9627 421.941 44.256 422.304 44.64C422.677 45.0133 422.96 45.472 423.152 46.016C423.354 46.5493 423.456 47.152 423.456 47.824ZM432.095 43.632C431.231 46.8107 430.229 49.6907 429.087 52.272C428.874 52.752 428.655 53.1627 428.431 53.504C428.207 53.8453 427.957 54.128 427.679 54.352C427.402 54.576 427.093 54.736 426.751 54.832C426.41 54.9387 426.015 54.992 425.567 54.992C425.269 54.992 424.97 54.96 424.671 54.896C424.383 54.832 424.165 54.7627 424.015 54.688L424.367 53.136C424.751 53.2853 425.13 53.36 425.503 53.36C426.005 53.36 426.394 53.2373 426.671 52.992C426.959 52.7573 427.21 52.3893 427.423 51.888C426.815 50.7147 426.229 49.4347 425.663 48.048C425.109 46.6613 424.613 45.1893 424.175 43.632H426.239C426.346 44.08 426.474 44.5653 426.623 45.088C426.783 45.6107 426.954 46.144 427.135 46.688C427.317 47.2213 427.509 47.7547 427.711 48.288C427.914 48.8213 428.117 49.3173 428.319 49.776C428.661 48.8267 428.981 47.8187 429.279 46.752C429.578 45.6747 429.85 44.6347 430.095 43.632H432.095ZM440.744 41.28C440.637 41.3013 440.52 41.3227 440.392 41.344C440.275 41.3653 440.131 41.3867 439.96 41.408C439.789 41.4293 439.587 41.456 439.352 41.488C439.128 41.5093 438.867 41.536 438.568 41.568C438.109 41.6213 437.699 41.712 437.336 41.84C436.973 41.9573 436.659 42.1333 436.392 42.368C436.125 42.592 435.907 42.88 435.736 43.232C435.565 43.584 435.443 44.0107 435.368 44.512C435.699 44.2987 436.056 44.1333 436.44 44.016C436.835 43.8987 437.219 43.84 437.592 43.84C438.701 43.84 439.581 44.192 440.232 44.896C440.883 45.6 441.208 46.6187 441.208 47.952C441.208 48.592 441.117 49.1733 440.936 49.696C440.755 50.2187 440.493 50.6667 440.152 51.04C439.811 51.4133 439.4 51.7067 438.92 51.92C438.44 52.1227 437.896 52.224 437.288 52.224C436.531 52.224 435.896 52.1013 435.384 51.856C434.872 51.6 434.461 51.2427 434.152 50.784C433.843 50.3147 433.619 49.7547 433.48 49.104C433.341 48.4533 433.272 47.728 433.272 46.928C433.272 45.8827 433.357 44.96 433.528 44.16C433.709 43.3493 433.997 42.656 434.392 42.08C434.797 41.504 435.32 41.04 435.96 40.688C436.611 40.3253 437.4 40.0747 438.328 39.936C438.808 39.8613 439.208 39.8027 439.528 39.76C439.859 39.7173 440.189 39.6587 440.52 39.584L440.744 41.28ZM435.304 46.208C435.283 46.3467 435.272 46.5173 435.272 46.72C435.272 46.912 435.272 47.0933 435.272 47.264C435.272 47.744 435.304 48.1867 435.368 48.592C435.432 48.9973 435.544 49.344 435.704 49.632C435.864 49.92 436.072 50.144 436.328 50.304C436.584 50.464 436.904 50.544 437.288 50.544C437.619 50.544 437.907 50.48 438.152 50.352C438.397 50.224 438.6 50.0427 438.76 49.808C438.92 49.5733 439.037 49.3013 439.112 48.992C439.197 48.672 439.24 48.3253 439.24 47.952C439.24 47.632 439.203 47.328 439.128 47.04C439.064 46.7413 438.952 46.48 438.792 46.256C438.643 46.0213 438.44 45.8347 438.184 45.696C437.928 45.5573 437.613 45.488 437.24 45.488C436.877 45.488 436.515 45.552 436.152 45.68C435.8 45.808 435.517 45.984 435.304 46.208ZM446.16 50.64C446.758 50.64 447.211 50.608 447.52 50.544V48.4C447.414 48.368 447.259 48.336 447.056 48.304C446.854 48.272 446.63 48.256 446.384 48.256C446.171 48.256 445.952 48.272 445.728 48.304C445.515 48.336 445.318 48.3947 445.136 48.48C444.966 48.5653 444.827 48.688 444.72 48.848C444.614 48.9973 444.56 49.1893 444.56 49.424C444.56 49.8827 444.704 50.2027 444.992 50.384C445.28 50.5547 445.67 50.64 446.16 50.64ZM446 43.424C446.64 43.424 447.179 43.504 447.616 43.664C448.054 43.824 448.4 44.048 448.656 44.336C448.923 44.624 449.11 44.976 449.216 45.392C449.334 45.7973 449.392 46.2453 449.392 46.736V51.808C449.094 51.872 448.64 51.9467 448.032 52.032C447.435 52.128 446.758 52.176 446 52.176C445.499 52.176 445.04 52.128 444.624 52.032C444.208 51.936 443.851 51.7813 443.552 51.568C443.264 51.3547 443.035 51.0773 442.864 50.736C442.704 50.3947 442.624 49.9733 442.624 49.472C442.624 48.992 442.715 48.5867 442.896 48.256C443.088 47.9253 443.344 47.6587 443.664 47.456C443.984 47.2427 444.352 47.0933 444.768 47.008C445.195 46.912 445.638 46.864 446.096 46.864C446.31 46.864 446.534 46.88 446.768 46.912C447.003 46.9333 447.254 46.976 447.52 47.04V46.72C447.52 46.496 447.494 46.2827 447.44 46.08C447.387 45.8773 447.291 45.7013 447.152 45.552C447.024 45.392 446.848 45.2693 446.624 45.184C446.411 45.0987 446.139 45.056 445.808 45.056C445.36 45.056 444.95 45.088 444.576 45.152C444.203 45.216 443.899 45.2907 443.664 45.376L443.424 43.808C443.67 43.7227 444.027 43.6373 444.496 43.552C444.966 43.4667 445.467 43.424 446 43.424ZM462.826 43.632V52H460.906C460.906 51.392 460.906 50.7893 460.906 50.192C460.916 49.5947 460.922 49.04 460.922 48.528C460.932 48.016 460.938 47.5733 460.938 47.2C460.948 46.816 460.954 46.5333 460.954 46.352C460.634 46.768 460.303 47.2267 459.962 47.728C459.62 48.2293 459.279 48.7307 458.938 49.232C458.607 49.7333 458.292 50.224 457.994 50.704C457.695 51.184 457.434 51.616 457.21 52H455.498V43.632H457.402C457.402 44.2507 457.396 44.8427 457.386 45.408C457.386 45.9627 457.386 46.4693 457.386 46.928C457.386 47.3867 457.38 47.7867 457.37 48.128C457.37 48.4693 457.37 48.7307 457.37 48.912C457.668 48.4533 457.978 47.984 458.298 47.504C458.618 47.0133 458.938 46.5387 459.258 46.08C459.588 45.6107 459.914 45.168 460.234 44.752C460.554 44.336 460.863 43.9627 461.162 43.632H462.826ZM464.927 43.888C465.065 43.8347 465.236 43.7813 465.439 43.728C465.641 43.6747 465.86 43.6267 466.095 43.584C466.329 43.5413 466.575 43.5093 466.831 43.488C467.097 43.456 467.364 43.44 467.631 43.44C468.089 43.44 468.527 43.4827 468.943 43.568C469.359 43.6533 469.721 43.792 470.031 43.984C470.34 44.176 470.585 44.4213 470.767 44.72C470.959 45.0187 471.055 45.376 471.055 45.792C471.055 46.24 470.932 46.6187 470.687 46.928C470.441 47.2373 470.159 47.4667 469.839 47.616C470.319 47.7973 470.687 48.064 470.943 48.416C471.199 48.768 471.327 49.216 471.327 49.76C471.327 50.1973 471.231 50.5707 471.039 50.88C470.857 51.1893 470.601 51.4453 470.271 51.648C469.951 51.84 469.572 51.9787 469.135 52.064C468.697 52.16 468.223 52.208 467.711 52.208C467.092 52.208 466.516 52.1547 465.983 52.048C465.449 51.952 465.028 51.8347 464.719 51.696L465.055 50.128C465.257 50.2133 465.583 50.3147 466.031 50.432C466.479 50.5387 467.007 50.592 467.615 50.592C468.788 50.592 469.375 50.2507 469.375 49.568C469.375 49.3227 469.321 49.1253 469.215 48.976C469.108 48.8267 468.975 48.7147 468.815 48.64C468.655 48.5547 468.473 48.5013 468.271 48.48C468.068 48.448 467.871 48.432 467.679 48.432H466.079V46.992H467.663C468.057 46.992 468.393 46.9227 468.671 46.784C468.959 46.6347 469.103 46.3787 469.103 46.016C469.103 45.7173 468.964 45.4827 468.687 45.312C468.42 45.1307 468.041 45.04 467.551 45.04C467.337 45.04 467.119 45.056 466.895 45.088C466.671 45.1093 466.452 45.1413 466.239 45.184C466.036 45.2267 465.849 45.2747 465.679 45.328C465.508 45.3707 465.375 45.4133 465.279 45.456L464.927 43.888ZM483.989 43.632V52H482.053V45.248H478.965V52H477.029V43.632H483.989ZM494.019 47.808C494.019 48.4693 493.923 49.072 493.731 49.616C493.539 50.16 493.267 50.624 492.915 51.008C492.563 51.392 492.136 51.6907 491.635 51.904C491.144 52.1173 490.6 52.224 490.003 52.224C489.405 52.224 488.861 52.1173 488.371 51.904C487.88 51.6907 487.459 51.392 487.107 51.008C486.755 50.624 486.477 50.16 486.275 49.616C486.083 49.072 485.987 48.4693 485.987 47.808C485.987 47.1467 486.083 46.5493 486.275 46.016C486.477 45.472 486.755 45.008 487.107 44.624C487.469 44.24 487.896 43.9467 488.387 43.744C488.877 43.5307 489.416 43.424 490.003 43.424C490.589 43.424 491.128 43.5307 491.619 43.744C492.12 43.9467 492.547 44.24 492.899 44.624C493.251 45.008 493.523 45.472 493.715 46.016C493.917 46.5493 494.019 47.1467 494.019 47.808ZM492.035 47.808C492.035 46.976 491.853 46.32 491.491 45.84C491.139 45.3493 490.643 45.104 490.003 45.104C489.363 45.104 488.861 45.3493 488.499 45.84C488.147 46.32 487.971 46.976 487.971 47.808C487.971 48.6507 488.147 49.3173 488.499 49.808C488.861 50.2987 489.363 50.544 490.003 50.544C490.643 50.544 491.139 50.2987 491.491 49.808C491.853 49.3173 492.035 48.6507 492.035 47.808ZM499.293 45.232C499.283 45.7013 499.267 46.192 499.245 46.704C499.224 47.2053 499.171 47.7013 499.085 48.192C499.011 48.6827 498.888 49.152 498.717 49.6C498.547 50.048 498.307 50.4533 497.997 50.816C497.699 51.168 497.32 51.4667 496.861 51.712C496.413 51.9467 495.864 52.096 495.213 52.16L494.941 50.544C495.485 50.4373 495.907 50.2667 496.205 50.032C496.504 49.7867 496.733 49.4773 496.893 49.104C497.021 48.8267 497.117 48.512 497.181 48.16C497.256 47.808 497.309 47.44 497.341 47.056C497.384 46.6613 497.411 46.2613 497.421 45.856C497.432 45.4507 497.437 45.056 497.437 44.672V43.632H503.357V52H501.421V45.232H499.293ZM513.154 43.632V52H511.234C511.234 51.392 511.234 50.7893 511.234 50.192C511.244 49.5947 511.25 49.04 511.25 48.528C511.26 48.016 511.266 47.5733 511.266 47.2C511.276 46.816 511.282 46.5333 511.282 46.352C510.962 46.768 510.631 47.2267 510.29 47.728C509.948 48.2293 509.607 48.7307 509.266 49.232C508.935 49.7333 508.62 50.224 508.322 50.704C508.023 51.184 507.762 51.616 507.538 52H505.826V43.632H507.73C507.73 44.2507 507.724 44.8427 507.714 45.408C507.714 45.9627 507.714 46.4693 507.714 46.928C507.714 47.3867 507.708 47.7867 507.698 48.128C507.698 48.4693 507.698 48.7307 507.698 48.912C507.996 48.4533 508.306 47.984 508.626 47.504C508.946 47.0133 509.266 46.5387 509.586 46.08C509.916 45.6107 510.242 45.168 510.562 44.752C510.882 44.336 511.191 43.9627 511.49 43.632H513.154ZM522.583 43.632V52H520.647V45.248H517.559V52H515.623V43.632H522.583ZM530.597 47.856C530.597 46.992 530.399 46.32 530.005 45.84C529.621 45.36 528.997 45.12 528.133 45.12C527.951 45.12 527.759 45.1307 527.557 45.152C527.365 45.1627 527.173 45.1947 526.981 45.248V50.032C527.151 50.1493 527.375 50.2613 527.653 50.368C527.941 50.464 528.245 50.512 528.565 50.512C529.269 50.512 529.781 50.272 530.101 49.792C530.431 49.312 530.597 48.6667 530.597 47.856ZM532.581 47.824C532.581 48.464 532.495 49.0507 532.325 49.584C532.165 50.1173 531.93 50.576 531.621 50.96C531.311 51.344 530.922 51.6427 530.453 51.856C529.994 52.0693 529.471 52.176 528.885 52.176C528.49 52.176 528.127 52.128 527.797 52.032C527.466 51.936 527.194 51.8293 526.981 51.712V54.96H525.045V43.904C525.439 43.7973 525.925 43.696 526.501 43.6C527.077 43.504 527.685 43.456 528.325 43.456C528.986 43.456 529.578 43.5573 530.101 43.76C530.623 43.9627 531.066 44.256 531.429 44.64C531.802 45.0133 532.085 45.472 532.277 46.016C532.479 46.5493 532.581 47.152 532.581 47.824ZM542.144 47.808C542.144 48.4693 542.048 49.072 541.856 49.616C541.664 50.16 541.392 50.624 541.04 51.008C540.688 51.392 540.261 51.6907 539.76 51.904C539.269 52.1173 538.725 52.224 538.128 52.224C537.53 52.224 536.986 52.1173 536.496 51.904C536.005 51.6907 535.584 51.392 535.232 51.008C534.88 50.624 534.602 50.16 534.4 49.616C534.208 49.072 534.112 48.4693 534.112 47.808C534.112 47.1467 534.208 46.5493 534.4 46.016C534.602 45.472 534.88 45.008 535.232 44.624C535.594 44.24 536.021 43.9467 536.512 43.744C537.002 43.5307 537.541 43.424 538.128 43.424C538.714 43.424 539.253 43.5307 539.744 43.744C540.245 43.9467 540.672 44.24 541.024 44.624C541.376 45.008 541.648 45.472 541.84 46.016C542.042 46.5493 542.144 47.1467 542.144 47.808ZM540.16 47.808C540.16 46.976 539.978 46.32 539.616 45.84C539.264 45.3493 538.768 45.104 538.128 45.104C537.488 45.104 536.986 45.3493 536.624 45.84C536.272 46.32 536.096 46.976 536.096 47.808C536.096 48.6507 536.272 49.3173 536.624 49.808C536.986 50.2987 537.488 50.544 538.128 50.544C538.768 50.544 539.264 50.2987 539.616 49.808C539.978 49.3173 540.16 48.6507 540.16 47.808ZM551.098 43.632V52H549.162V45.248H546.074V52H544.138V43.632H551.098ZM560.888 43.632V52H558.968C558.968 51.392 558.968 50.7893 558.968 50.192C558.979 49.5947 558.984 49.04 558.984 48.528C558.995 48.016 559 47.5733 559 47.2C559.011 46.816 559.016 46.5333 559.016 46.352C558.696 46.768 558.365 47.2267 558.024 47.728C557.683 48.2293 557.341 48.7307 557 49.232C556.669 49.7333 556.355 50.224 556.056 50.704C555.757 51.184 555.496 51.616 555.272 52H553.56V43.632H555.464C555.464 44.2507 555.459 44.8427 555.448 45.408C555.448 45.9627 555.448 46.4693 555.448 46.928C555.448 47.3867 555.443 47.7867 555.432 48.128C555.432 48.4693 555.432 48.7307 555.432 48.912C555.731 48.4533 556.04 47.984 556.36 47.504C556.68 47.0133 557 46.5387 557.32 46.08C557.651 45.6107 557.976 45.168 558.296 44.752C558.616 44.336 558.925 43.9627 559.224 43.632H560.888ZM566.637 45.232C566.626 45.7013 566.61 46.192 566.589 46.704C566.568 47.2053 566.514 47.7013 566.429 48.192C566.354 48.6827 566.232 49.152 566.061 49.6C565.89 50.048 565.65 50.4533 565.341 50.816C565.042 51.168 564.664 51.4667 564.205 51.712C563.757 51.9467 563.208 52.096 562.557 52.16L562.285 50.544C562.829 50.4373 563.25 50.2667 563.549 50.032C563.848 49.7867 564.077 49.4773 564.237 49.104C564.365 48.8267 564.461 48.512 564.525 48.16C564.6 47.808 564.653 47.44 564.685 47.056C564.728 46.6613 564.754 46.2613 564.765 45.856C564.776 45.4507 564.781 45.056 564.781 44.672V43.632H570.701V52H568.765V45.232H566.637ZM572.706 47.856C572.706 47.12 572.812 46.4747 573.026 45.92C573.25 45.3653 573.543 44.9067 573.906 44.544C574.268 44.1707 574.684 43.8933 575.154 43.712C575.623 43.52 576.103 43.424 576.594 43.424C577.746 43.424 578.642 43.7813 579.282 44.496C579.932 45.2107 580.258 46.2773 580.258 47.696C580.258 47.8027 580.252 47.9253 580.242 48.064C580.242 48.192 580.236 48.3093 580.226 48.416H574.706C574.759 49.088 574.994 49.6107 575.41 49.984C575.836 50.3467 576.45 50.528 577.25 50.528C577.719 50.528 578.146 50.4853 578.53 50.4C578.924 50.3147 579.234 50.224 579.458 50.128L579.714 51.712C579.607 51.7653 579.458 51.824 579.266 51.888C579.084 51.9413 578.871 51.9893 578.626 52.032C578.391 52.0853 578.135 52.128 577.858 52.16C577.58 52.192 577.298 52.208 577.01 52.208C576.274 52.208 575.634 52.1013 575.09 51.888C574.546 51.664 574.098 51.36 573.746 50.976C573.394 50.5813 573.132 50.1227 572.962 49.6C572.791 49.0667 572.706 48.4853 572.706 47.856ZM578.322 46.992C578.322 46.7253 578.284 46.4747 578.21 46.24C578.135 45.9947 578.023 45.7867 577.874 45.616C577.735 45.4347 577.559 45.296 577.346 45.2C577.143 45.0933 576.898 45.04 576.61 45.04C576.311 45.04 576.05 45.0987 575.826 45.216C575.602 45.3227 575.41 45.4667 575.25 45.648C575.1 45.8293 574.983 46.0373 574.898 46.272C574.812 46.5067 574.754 46.7467 574.722 46.992H578.322ZM589.334 52H587.398V48.496H584.246V52H582.31V43.632H584.246V46.896H587.398V43.632H589.334V52ZM594.739 50.64C595.336 50.64 595.789 50.608 596.099 50.544V48.4C595.992 48.368 595.837 48.336 595.635 48.304C595.432 48.272 595.208 48.256 594.963 48.256C594.749 48.256 594.531 48.272 594.307 48.304C594.093 48.336 593.896 48.3947 593.715 48.48C593.544 48.5653 593.405 48.688 593.299 48.848C593.192 48.9973 593.139 49.1893 593.139 49.424C593.139 49.8827 593.283 50.2027 593.571 50.384C593.859 50.5547 594.248 50.64 594.739 50.64ZM594.579 43.424C595.219 43.424 595.757 43.504 596.195 43.664C596.632 43.824 596.979 44.048 597.235 44.336C597.501 44.624 597.688 44.976 597.795 45.392C597.912 45.7973 597.971 46.2453 597.971 46.736V51.808C597.672 51.872 597.219 51.9467 596.611 52.032C596.013 52.128 595.336 52.176 594.579 52.176C594.077 52.176 593.619 52.128 593.203 52.032C592.787 51.936 592.429 51.7813 592.131 51.568C591.843 51.3547 591.613 51.0773 591.443 50.736C591.283 50.3947 591.203 49.9733 591.203 49.472C591.203 48.992 591.293 48.5867 591.475 48.256C591.667 47.9253 591.923 47.6587 592.243 47.456C592.563 47.2427 592.931 47.0933 593.347 47.008C593.773 46.912 594.216 46.864 594.674 46.864C594.888 46.864 595.112 46.88 595.347 46.912C595.581 46.9333 595.832 46.976 596.099 47.04V46.72C596.099 46.496 596.072 46.2827 596.019 46.08C595.965 45.8773 595.869 45.7013 595.731 45.552C595.603 45.392 595.427 45.2693 595.203 45.184C594.989 45.0987 594.717 45.056 594.387 45.056C593.939 45.056 593.528 45.088 593.155 45.152C592.781 45.216 592.477 45.2907 592.243 45.376L592.003 43.808C592.248 43.7227 592.605 43.6373 593.075 43.552C593.544 43.4667 594.045 43.424 594.579 43.424Z" fill="#A6ACB3"/>
<path d="M3.744 66.912C3.97867 67.3173 4.24 67.8133 4.528 68.4C4.816 68.9867 5.10933 69.6053 5.408 70.256C5.70667 70.896 6 71.552 6.288 72.224C6.58667 72.8853 6.85867 73.4987 7.104 74.064C7.34933 73.4987 7.616 72.8853 7.904 72.224C8.192 71.552 8.48533 70.896 8.784 70.256C9.08267 69.6053 9.376 68.9867 9.664 68.4C9.952 67.8133 10.2133 67.3173 10.448 66.912H12.272C12.368 67.7227 12.4587 68.5867 12.544 69.504C12.6293 70.4107 12.704 71.344 12.768 72.304C12.8427 73.2533 12.9067 74.2133 12.96 75.184C13.024 76.144 13.0773 77.0827 13.12 78H11.136C11.0933 76.7093 11.04 75.3813 10.976 74.016C10.9227 72.6507 10.8373 71.328 10.72 70.048C10.6027 70.2933 10.464 70.5867 10.304 70.928C10.144 71.2693 9.97333 71.6427 9.792 72.048C9.61067 72.4427 9.424 72.8533 9.232 73.28C9.05067 73.7067 8.86933 74.1227 8.688 74.528C8.51733 74.9227 8.35733 75.296 8.208 75.648C8.05867 75.9893 7.93067 76.2827 7.824 76.528H6.32C6.21333 76.2827 6.08533 75.984 5.936 75.632C5.78667 75.28 5.62133 74.9067 5.44 74.512C5.26933 74.1067 5.088 73.6907 4.896 73.264C4.71467 72.8373 4.53333 72.4267 4.352 72.032C4.17067 71.6373 4 71.2693 3.84 70.928C3.68 70.576 3.54133 70.2827 3.424 70.048C3.30667 71.328 3.216 72.6507 3.152 74.016C3.09867 75.3813 3.05067 76.7093 3.008 78H1.024C1.06667 77.0827 1.11467 76.1333 1.168 75.152C1.232 74.1707 1.296 73.2 1.36 72.24C1.43467 71.2693 1.51467 70.3307 1.6 69.424C1.68533 68.5173 1.776 67.68 1.872 66.912H3.744ZM18.3166 76.64C18.914 76.64 19.3673 76.608 19.6766 76.544V74.4C19.57 74.368 19.4153 74.336 19.2126 74.304C19.01 74.272 18.786 74.256 18.5406 74.256C18.3273 74.256 18.1086 74.272 17.8846 74.304C17.6713 74.336 17.474 74.3947 17.2926 74.48C17.122 74.5653 16.9833 74.688 16.8766 74.848C16.77 74.9973 16.7166 75.1893 16.7166 75.424C16.7166 75.8827 16.8606 76.2027 17.1486 76.384C17.4366 76.5547 17.826 76.64 18.3166 76.64ZM18.1566 69.424C18.7966 69.424 19.3353 69.504 19.7726 69.664C20.21 69.824 20.5566 70.048 20.8126 70.336C21.0793 70.624 21.266 70.976 21.3726 71.392C21.49 71.7973 21.5486 72.2453 21.5486 72.736V77.808C21.25 77.872 20.7966 77.9467 20.1886 78.032C19.5913 78.128 18.914 78.176 18.1566 78.176C17.6553 78.176 17.1966 78.128 16.7806 78.032C16.3646 77.936 16.0073 77.7813 15.7086 77.568C15.4206 77.3547 15.1913 77.0773 15.0206 76.736C14.8606 76.3947 14.7806 75.9733 14.7806 75.472C14.7806 74.992 14.8713 74.5867 15.0526 74.256C15.2446 73.9253 15.5006 73.6587 15.8206 73.456C16.1406 73.2427 16.5086 73.0933 16.9246 73.008C17.3513 72.912 17.794 72.864 18.2526 72.864C18.466 72.864 18.69 72.88 18.9246 72.912C19.1593 72.9333 19.41 72.976 19.6766 73.04V72.72C19.6766 72.496 19.65 72.2827 19.5966 72.08C19.5433 71.8773 19.4473 71.7013 19.3086 71.552C19.1806 71.392 19.0046 71.2693 18.7806 71.184C18.5673 71.0987 18.2953 71.056 17.9646 71.056C17.5166 71.056 17.106 71.088 16.7326 71.152C16.3593 71.216 16.0553 71.2907 15.8206 71.376L15.5806 69.808C15.826 69.7227 16.1833 69.6373 16.6526 69.552C17.122 69.4667 17.6233 69.424 18.1566 69.424ZM30.2235 71.248H27.5195V78H25.5835V71.248H22.8955V69.632H30.2235V71.248ZM31.2055 73.856C31.2055 73.12 31.3122 72.4747 31.5255 71.92C31.7495 71.3653 32.0428 70.9067 32.4055 70.544C32.7682 70.1707 33.1842 69.8933 33.6535 69.712C34.1228 69.52 34.6028 69.424 35.0935 69.424C36.2455 69.424 37.1415 69.7813 37.7815 70.496C38.4322 71.2107 38.7575 72.2773 38.7575 73.696C38.7575 73.8027 38.7522 73.9253 38.7415 74.064C38.7415 74.192 38.7362 74.3093 38.7255 74.416H33.2055C33.2588 75.088 33.4935 75.6107 33.9095 75.984C34.3362 76.3467 34.9495 76.528 35.7495 76.528C36.2188 76.528 36.6455 76.4853 37.0295 76.4C37.4242 76.3147 37.7335 76.224 37.9575 76.128L38.2135 77.712C38.1068 77.7653 37.9575 77.824 37.7655 77.888C37.5842 77.9413 37.3708 77.9893 37.1255 78.032C36.8908 78.0853 36.6348 78.128 36.3575 78.16C36.0802 78.192 35.7975 78.208 35.5095 78.208C34.7735 78.208 34.1335 78.1013 33.5895 77.888C33.0455 77.664 32.5975 77.36 32.2455 76.976C31.8935 76.5813 31.6322 76.1227 31.4615 75.6C31.2908 75.0667 31.2055 74.4853 31.2055 73.856ZM36.8215 72.992C36.8215 72.7253 36.7842 72.4747 36.7095 72.24C36.6348 71.9947 36.5228 71.7867 36.3735 71.616C36.2348 71.4347 36.0588 71.296 35.8455 71.2C35.6428 71.0933 35.3975 71.04 35.1095 71.04C34.8108 71.04 34.5495 71.0987 34.3255 71.216C34.1015 71.3227 33.9095 71.4667 33.7495 71.648C33.6002 71.8293 33.4828 72.0373 33.3975 72.272C33.3122 72.5067 33.2535 72.7467 33.2215 72.992H36.8215ZM46.3621 73.856C46.3621 72.992 46.1648 72.32 45.7701 71.84C45.3861 71.36 44.7621 71.12 43.8981 71.12C43.7168 71.12 43.5248 71.1307 43.3221 71.152C43.1301 71.1627 42.9381 71.1947 42.7461 71.248V76.032C42.9168 76.1493 43.1408 76.2613 43.4181 76.368C43.7061 76.464 44.0101 76.512 44.3301 76.512C45.0341 76.512 45.5461 76.272 45.8661 75.792C46.1968 75.312 46.3621 74.6667 46.3621 73.856ZM48.3461 73.824C48.3461 74.464 48.2608 75.0507 48.0901 75.584C47.9301 76.1173 47.6955 76.576 47.3861 76.96C47.0768 77.344 46.6875 77.6427 46.2181 77.856C45.7595 78.0693 45.2368 78.176 44.6501 78.176C44.2555 78.176 43.8928 78.128 43.5621 78.032C43.2315 77.936 42.9595 77.8293 42.7461 77.712V80.96H40.8101V69.904C41.2048 69.7973 41.6901 69.696 42.2661 69.6C42.8421 69.504 43.4501 69.456 44.0901 69.456C44.7515 69.456 45.3435 69.5573 45.8661 69.76C46.3888 69.9627 46.8315 70.256 47.1941 70.64C47.5675 71.0133 47.8501 71.472 48.0421 72.016C48.2448 72.5493 48.3461 73.152 48.3461 73.824ZM57.6694 69.632V78H55.7494C55.7494 77.392 55.7494 76.7893 55.7494 76.192C55.76 75.5947 55.7654 75.04 55.7654 74.528C55.776 74.016 55.7814 73.5733 55.7814 73.2C55.792 72.816 55.7974 72.5333 55.7974 72.352C55.4774 72.768 55.1467 73.2267 54.8054 73.728C54.464 74.2293 54.1227 74.7307 53.7814 75.232C53.4507 75.7333 53.136 76.224 52.8374 76.704C52.5387 77.184 52.2774 77.616 52.0534 78H50.3414V69.632H52.2454C52.2454 70.2507 52.24 70.8427 52.2294 71.408C52.2294 71.9627 52.2294 72.4693 52.2294 72.928C52.2294 73.3867 52.224 73.7867 52.2134 74.128C52.2134 74.4693 52.2134 74.7307 52.2134 74.912C52.512 74.4533 52.8214 73.984 53.1414 73.504C53.4614 73.0133 53.7814 72.5387 54.1014 72.08C54.432 71.6107 54.7574 71.168 55.0774 70.752C55.3974 70.336 55.7067 69.9627 56.0054 69.632H57.6694ZM63.0823 76.64C63.6796 76.64 64.1329 76.608 64.4423 76.544V74.4C64.3356 74.368 64.1809 74.336 63.9783 74.304C63.7756 74.272 63.5516 74.256 63.3063 74.256C63.0929 74.256 62.8743 74.272 62.6503 74.304C62.4369 74.336 62.2396 74.3947 62.0583 74.48C61.8876 74.5653 61.7489 74.688 61.6423 74.848C61.5356 74.9973 61.4823 75.1893 61.4823 75.424C61.4823 75.8827 61.6263 76.2027 61.9143 76.384C62.2023 76.5547 62.5916 76.64 63.0823 76.64ZM62.9223 69.424C63.5623 69.424 64.1009 69.504 64.5383 69.664C64.9756 69.824 65.3223 70.048 65.5783 70.336C65.8449 70.624 66.0316 70.976 66.1383 71.392C66.2556 71.7973 66.3143 72.2453 66.3143 72.736V77.808C66.0156 77.872 65.5623 77.9467 64.9543 78.032C64.3569 78.128 63.6796 78.176 62.9223 78.176C62.4209 78.176 61.9623 78.128 61.5463 78.032C61.1303 77.936 60.7729 77.7813 60.4743 77.568C60.1863 77.3547 59.9569 77.0773 59.7863 76.736C59.6263 76.3947 59.5463 75.9733 59.5463 75.472C59.5463 74.992 59.6369 74.5867 59.8183 74.256C60.0103 73.9253 60.2663 73.6587 60.5863 73.456C60.9063 73.2427 61.2743 73.0933 61.6903 73.008C62.1169 72.912 62.5596 72.864 63.0182 72.864C63.2316 72.864 63.4556 72.88 63.6903 72.912C63.9249 72.9333 64.1756 72.976 64.4423 73.04V72.72C64.4423 72.496 64.4156 72.2827 64.3623 72.08C64.3089 71.8773 64.2129 71.7013 64.0743 71.552C63.9463 71.392 63.7703 71.2693 63.5463 71.184C63.3329 71.0987 63.0609 71.056 62.7303 71.056C62.2823 71.056 61.8716 71.088 61.4983 71.152C61.1249 71.216 60.8209 71.2907 60.5863 71.376L60.3463 69.808C60.5916 69.7227 60.9489 69.6373 61.4183 69.552C61.8876 69.4667 62.3889 69.424 62.9223 69.424ZM71.9651 71.232C71.9545 71.7013 71.9385 72.192 71.9171 72.704C71.8958 73.2053 71.8425 73.7013 71.7571 74.192C71.6825 74.6827 71.5598 75.152 71.3891 75.6C71.2185 76.048 70.9785 76.4533 70.6691 76.816C70.3705 77.168 69.9918 77.4667 69.5331 77.712C69.0851 77.9467 68.5358 78.096 67.8851 78.16L67.6131 76.544C68.1571 76.4373 68.5785 76.2667 68.8771 76.032C69.1758 75.7867 69.4051 75.4773 69.5651 75.104C69.6931 74.8267 69.7891 74.512 69.8531 74.16C69.9278 73.808 69.9811 73.44 70.0131 73.056C70.0558 72.6613 70.0825 72.2613 70.0931 71.856C70.1038 71.4507 70.1091 71.056 70.1091 70.672V69.632H76.0291V78H74.0931V71.232H71.9651ZM80.6736 70.96C80.6736 71.3333 80.5456 71.6373 80.2896 71.872C80.0443 72.1067 79.7456 72.224 79.3936 72.224C79.031 72.224 78.727 72.1067 78.4816 71.872C78.2363 71.6373 78.1136 71.3333 78.1136 70.96C78.1136 70.5867 78.2363 70.2827 78.4816 70.048C78.727 69.8027 79.031 69.68 79.3936 69.68C79.7456 69.68 80.0443 69.8027 80.2896 70.048C80.5456 70.2827 80.6736 70.5867 80.6736 70.96ZM80.6736 76.944C80.6736 77.3173 80.5456 77.6213 80.2896 77.856C80.0443 78.0907 79.7456 78.208 79.3936 78.208C79.031 78.208 78.727 78.0907 78.4816 77.856C78.2363 77.6213 78.1136 77.3173 78.1136 76.944C78.1136 76.5707 78.2363 76.2667 78.4816 76.032C78.727 75.7867 79.031 75.664 79.3936 75.664C79.7456 75.664 80.0443 75.7867 80.2896 76.032C80.5456 76.2667 80.6736 76.5707 80.6736 76.944Z" fill="#828D99"/>
<line x1="86.5" y1="80.5" x2="478.5" y2="80.5" stroke="#A6ACB3" stroke-linecap="round" stroke-dasharray="2 2"/>
<path d="M493.096 66.912V78H491.08V68.64H486.344V78H484.328V66.912H493.096ZM503.222 73.808C503.222 74.4693 503.126 75.072 502.934 75.616C502.742 76.16 502.47 76.624 502.118 77.008C501.766 77.392 501.339 77.6907 500.838 77.904C500.347 78.1173 499.803 78.224 499.206 78.224C498.609 78.224 498.065 78.1173 497.574 77.904C497.083 77.6907 496.662 77.392 496.31 77.008C495.958 76.624 495.681 76.16 495.478 75.616C495.286 75.072 495.19 74.4693 495.19 73.808C495.19 73.1467 495.286 72.5493 495.478 72.016C495.681 71.472 495.958 71.008 496.31 70.624C496.673 70.24 497.099 69.9467 497.59 69.744C498.081 69.5307 498.619 69.424 499.206 69.424C499.793 69.424 500.331 69.5307 500.822 69.744C501.323 69.9467 501.75 70.24 502.102 70.624C502.454 71.008 502.726 71.472 502.918 72.016C503.121 72.5493 503.222 73.1467 503.222 73.808ZM501.238 73.808C501.238 72.976 501.057 72.32 500.694 71.84C500.342 71.3493 499.846 71.104 499.206 71.104C498.566 71.104 498.065 71.3493 497.702 71.84C497.35 72.32 497.174 72.976 497.174 73.808C497.174 74.6507 497.35 75.3173 497.702 75.808C498.065 76.2987 498.566 76.544 499.206 76.544C499.846 76.544 500.342 76.2987 500.694 75.808C501.057 75.3173 501.238 74.6507 501.238 73.808ZM508.496 71.232C508.486 71.7013 508.47 72.192 508.448 72.704C508.427 73.2053 508.374 73.7013 508.288 74.192C508.214 74.6827 508.091 75.152 507.92 75.6C507.75 76.048 507.51 76.4533 507.2 76.816C506.902 77.168 506.523 77.4667 506.064 77.712C505.616 77.9467 505.067 78.096 504.416 78.16L504.144 76.544C504.688 76.4373 505.11 76.2667 505.408 76.032C505.707 75.7867 505.936 75.4773 506.096 75.104C506.224 74.8267 506.32 74.512 506.384 74.16C506.459 73.808 506.512 73.44 506.544 73.056C506.587 72.6613 506.614 72.2613 506.624 71.856C506.635 71.4507 506.64 71.056 506.64 70.672V69.632H512.56V78H510.624V71.232H508.496ZM522.357 69.632V78H520.437C520.437 77.392 520.437 76.7893 520.437 76.192C520.448 75.5947 520.453 75.04 520.453 74.528C520.464 74.016 520.469 73.5733 520.469 73.2C520.48 72.816 520.485 72.5333 520.485 72.352C520.165 72.768 519.834 73.2267 519.493 73.728C519.152 74.2293 518.81 74.7307 518.469 75.232C518.138 75.7333 517.824 76.224 517.525 76.704C517.226 77.184 516.965 77.616 516.741 78H515.029V69.632H516.933C516.933 70.2507 516.928 70.8427 516.917 71.408C516.917 71.9627 516.917 72.4693 516.917 72.928C516.917 73.3867 516.912 73.7867 516.901 74.128C516.901 74.4693 516.901 74.7307 516.901 74.912C517.2 74.4533 517.509 73.984 517.829 73.504C518.149 73.0133 518.469 72.5387 518.789 72.08C519.12 71.6107 519.445 71.168 519.765 70.752C520.085 70.336 520.394 69.9627 520.693 69.632H522.357ZM531.786 69.632V78H529.85V71.248H526.762V78H524.826V69.632H531.786ZM539.8 73.856C539.8 72.992 539.602 72.32 539.208 71.84C538.824 71.36 538.2 71.12 537.336 71.12C537.154 71.12 536.962 71.1307 536.76 71.152C536.568 71.1627 536.376 71.1947 536.184 71.248V76.032C536.354 76.1493 536.578 76.2613 536.856 76.368C537.144 76.464 537.448 76.512 537.768 76.512C538.472 76.512 538.984 76.272 539.304 75.792C539.634 75.312 539.8 74.6667 539.8 73.856ZM541.784 73.824C541.784 74.464 541.698 75.0507 541.528 75.584C541.368 76.1173 541.133 76.576 540.824 76.96C540.514 77.344 540.125 77.6427 539.656 77.856C539.197 78.0693 538.674 78.176 538.088 78.176C537.693 78.176 537.33 78.128 537 78.032C536.669 77.936 536.397 77.8293 536.184 77.712V80.96H534.248V69.904C534.642 69.7973 535.128 69.696 535.704 69.6C536.28 69.504 536.888 69.456 537.528 69.456C538.189 69.456 538.781 69.5573 539.304 69.76C539.826 69.9627 540.269 70.256 540.632 70.64C541.005 71.0133 541.288 71.472 541.48 72.016C541.682 72.5493 541.784 73.152 541.784 73.824ZM551.347 73.808C551.347 74.4693 551.251 75.072 551.059 75.616C550.867 76.16 550.595 76.624 550.243 77.008C549.891 77.392 549.464 77.6907 548.963 77.904C548.472 78.1173 547.928 78.224 547.331 78.224C546.734 78.224 546.19 78.1173 545.699 77.904C545.208 77.6907 544.787 77.392 544.435 77.008C544.083 76.624 543.806 76.16 543.603 75.616C543.411 75.072 543.315 74.4693 543.315 73.808C543.315 73.1467 543.411 72.5493 543.603 72.016C543.806 71.472 544.083 71.008 544.435 70.624C544.798 70.24 545.224 69.9467 545.715 69.744C546.206 69.5307 546.744 69.424 547.331 69.424C547.918 69.424 548.456 69.5307 548.947 69.744C549.448 69.9467 549.875 70.24 550.227 70.624C550.579 71.008 550.851 71.472 551.043 72.016C551.246 72.5493 551.347 73.1467 551.347 73.808ZM549.363 73.808C549.363 72.976 549.182 72.32 548.819 71.84C548.467 71.3493 547.971 71.104 547.331 71.104C546.691 71.104 546.19 71.3493 545.827 71.84C545.475 72.32 545.299 72.976 545.299 73.808C545.299 74.6507 545.475 75.3173 545.827 75.808C546.19 76.2987 546.691 76.544 547.331 76.544C547.971 76.544 548.467 76.2987 548.819 75.808C549.182 75.3173 549.363 74.6507 549.363 73.808ZM560.301 69.632V78H558.365V71.248H555.277V78H553.341V69.632H560.301ZM570.091 69.632V78H568.171C568.171 77.392 568.171 76.7893 568.171 76.192C568.182 75.5947 568.187 75.04 568.187 74.528C568.198 74.016 568.203 73.5733 568.203 73.2C568.214 72.816 568.219 72.5333 568.219 72.352C567.899 72.768 567.569 73.2267 567.227 73.728C566.886 74.2293 566.545 74.7307 566.203 75.232C565.873 75.7333 565.558 76.224 565.259 76.704C564.961 77.184 564.699 77.616 564.475 78H562.763V69.632H564.667C564.667 70.2507 564.662 70.8427 564.651 71.408C564.651 71.9627 564.651 72.4693 564.651 72.928C564.651 73.3867 564.646 73.7867 564.635 74.128C564.635 74.4693 564.635 74.7307 564.635 74.912C564.934 74.4533 565.243 73.984 565.563 73.504C565.883 73.0133 566.203 72.5387 566.523 72.08C566.854 71.6107 567.179 71.168 567.499 70.752C567.819 70.336 568.129 69.9627 568.427 69.632H570.091ZM575.84 71.232C575.829 71.7013 575.813 72.192 575.792 72.704C575.771 73.2053 575.717 73.7013 575.632 74.192C575.557 74.6827 575.435 75.152 575.264 75.6C575.093 76.048 574.853 76.4533 574.544 76.816C574.245 77.168 573.867 77.4667 573.408 77.712C572.96 77.9467 572.411 78.096 571.76 78.16L571.488 76.544C572.032 76.4373 572.453 76.2667 572.752 76.032C573.051 75.7867 573.28 75.4773 573.44 75.104C573.568 74.8267 573.664 74.512 573.728 74.16C573.803 73.808 573.856 73.44 573.888 73.056C573.931 72.6613 573.957 72.2613 573.968 71.856C573.979 71.4507 573.984 71.056 573.984 70.672V69.632H579.904V78H577.968V71.232H575.84ZM581.909 73.856C581.909 73.12 582.015 72.4747 582.229 71.92C582.453 71.3653 582.746 70.9067 583.109 70.544C583.471 70.1707 583.887 69.8933 584.357 69.712C584.826 69.52 585.306 69.424 585.797 69.424C586.949 69.424 587.845 69.7813 588.485 70.496C589.135 71.2107 589.461 72.2773 589.461 73.696C589.461 73.8027 589.455 73.9253 589.445 74.064C589.445 74.192 589.439 74.3093 589.429 74.416H583.909C583.962 75.088 584.197 75.6107 584.613 75.984C585.039 76.3467 585.653 76.528 586.453 76.528C586.922 76.528 587.349 76.4853 587.733 76.4C588.127 76.3147 588.437 76.224 588.661 76.128L588.917 77.712C588.81 77.7653 588.661 77.824 588.469 77.888C588.287 77.9413 588.074 77.9893 587.829 78.032C587.594 78.0853 587.338 78.128 587.061 78.16C586.783 78.192 586.501 78.208 586.213 78.208C585.477 78.208 584.837 78.1013 584.293 77.888C583.749 77.664 583.301 77.36 582.949 76.976C582.597 76.5813 582.335 76.1227 582.165 75.6C581.994 75.0667 581.909 74.4853 581.909 73.856ZM587.525 72.992C587.525 72.7253 587.487 72.4747 587.413 72.24C587.338 71.9947 587.226 71.7867 587.077 71.616C586.938 71.4347 586.762 71.296 586.549 71.2C586.346 71.0933 586.101 71.04 585.813 71.04C585.514 71.04 585.253 71.0987 585.029 71.216C584.805 71.3227 584.613 71.4667 584.453 71.648C584.303 71.8293 584.186 72.0373 584.101 72.272C584.015 72.5067 583.957 72.7467 583.925 72.992H587.525ZM598.537 78H596.601V74.496H593.449V78H591.513V69.632H593.449V72.896H596.601V69.632H598.537V78Z" fill="#A6ACB3"/>
<path d="M0.208 102.288H1.584C2.064 101.627 2.432 100.933 2.688 100.208C2.95467 99.472 3.14667 98.7147 3.264 97.936C3.392 97.1467 3.46667 96.336 3.488 95.504C3.50933 94.6613 3.52 93.7973 3.52 92.912H10.32V102.288H11.968V106.96H10.032V104H2.144V106.96H0.208V102.288ZM5.456 94.64C5.424 95.28 5.38667 95.936 5.344 96.608C5.30133 97.28 5.22133 97.9467 5.104 98.608C4.99733 99.2587 4.84267 99.8987 4.64 100.528C4.43733 101.147 4.16 101.733 3.808 102.288H8.336V94.64H5.456ZM17.0433 97.232C17.0326 97.7013 17.0166 98.192 16.9953 98.704C16.9739 99.2053 16.9206 99.7013 16.8353 100.192C16.7606 100.683 16.6379 101.152 16.4673 101.6C16.2966 102.048 16.0566 102.453 15.7473 102.816C15.4486 103.168 15.0699 103.467 14.6113 103.712C14.1633 103.947 13.6139 104.096 12.9633 104.16L12.6913 102.544C13.2353 102.437 13.6566 102.267 13.9553 102.032C14.2539 101.787 14.4833 101.477 14.6432 101.104C14.7713 100.827 14.8673 100.512 14.9313 100.16C15.0059 99.808 15.0593 99.44 15.0913 99.056C15.1339 98.6613 15.1606 98.2613 15.1713 97.856C15.1819 97.4507 15.1873 97.056 15.1873 96.672V95.632H21.1073V104H19.1713V97.232H17.0433ZM30.9038 95.632V104H28.9838C28.9838 103.392 28.9838 102.789 28.9838 102.192C28.9944 101.595 28.9998 101.04 28.9998 100.528C29.0104 100.016 29.0158 99.5733 29.0158 99.2C29.0264 98.816 29.0318 98.5333 29.0318 98.352C28.7118 98.768 28.3811 99.2267 28.0398 99.728C27.6984 100.229 27.3571 100.731 27.0158 101.232C26.6851 101.733 26.3704 102.224 26.0718 102.704C25.7731 103.184 25.5118 103.616 25.2878 104H23.5758V95.632H25.4798C25.4798 96.2507 25.4744 96.8427 25.4638 97.408C25.4638 97.9627 25.4638 98.4693 25.4638 98.928C25.4638 99.3867 25.4584 99.7867 25.4478 100.128C25.4478 100.469 25.4478 100.731 25.4478 100.912C25.7464 100.453 26.0558 99.984 26.3758 99.504C26.6958 99.0133 27.0158 98.5387 27.3358 98.08C27.6664 97.6107 27.9918 97.168 28.3118 96.752C28.6318 96.336 28.9411 95.9627 29.2398 95.632H30.9038ZM40.3966 104H38.4606V100.496H35.3086V104H33.3726V95.632H35.3086V98.896H38.4606V95.632H40.3966V104ZM49.881 104H47.945V100.496H44.793V104H42.857V95.632H44.793V98.896H47.945V95.632H49.881V104ZM55.2854 102.64C55.8827 102.64 56.336 102.608 56.6454 102.544V100.4C56.5387 100.368 56.384 100.336 56.1814 100.304C55.9787 100.272 55.7547 100.256 55.5094 100.256C55.296 100.256 55.0774 100.272 54.8534 100.304C54.64 100.336 54.4427 100.395 54.2614 100.48C54.0907 100.565 53.952 100.688 53.8454 100.848C53.7387 100.997 53.6854 101.189 53.6854 101.424C53.6854 101.883 53.8294 102.203 54.1174 102.384C54.4054 102.555 54.7947 102.64 55.2854 102.64ZM55.1254 95.424C55.7654 95.424 56.304 95.504 56.7414 95.664C57.1787 95.824 57.5254 96.048 57.7814 96.336C58.048 96.624 58.2347 96.976 58.3414 97.392C58.4587 97.7973 58.5174 98.2453 58.5174 98.736V103.808C58.2187 103.872 57.7654 103.947 57.1574 104.032C56.56 104.128 55.8827 104.176 55.1254 104.176C54.624 104.176 54.1654 104.128 53.7494 104.032C53.3334 103.936 52.976 103.781 52.6774 103.568C52.3894 103.355 52.16 103.077 51.9894 102.736C51.8294 102.395 51.7494 101.973 51.7494 101.472C51.7494 100.992 51.84 100.587 52.0214 100.256C52.2134 99.9253 52.4694 99.6587 52.7894 99.456C53.1094 99.2427 53.4774 99.0933 53.8934 99.008C54.32 98.912 54.7627 98.864 55.2214 98.864C55.4347 98.864 55.6587 98.88 55.8934 98.912C56.128 98.9333 56.3787 98.976 56.6454 99.04V98.72C56.6454 98.496 56.6187 98.2827 56.5654 98.08C56.512 97.8773 56.416 97.7013 56.2774 97.552C56.1494 97.392 55.9734 97.2693 55.7494 97.184C55.536 97.0987 55.264 97.056 54.9334 97.056C54.4854 97.056 54.0747 97.088 53.7014 97.152C53.328 97.216 53.024 97.2907 52.7894 97.376L52.5494 95.808C52.7947 95.7227 53.152 95.6373 53.6214 95.552C54.0907 95.4667 54.592 95.424 55.1254 95.424ZM62.8883 101.872C62.9096 102.053 62.9203 102.187 62.9203 102.272C62.9203 102.357 62.9203 102.443 62.9203 102.528C62.9203 103.189 62.8136 103.872 62.6003 104.576C62.3976 105.28 62.1096 105.947 61.7363 106.576L60.2163 106.16C60.4723 105.541 60.6429 104.933 60.7283 104.336C60.8243 103.749 60.8723 103.232 60.8723 102.784C60.8723 102.656 60.8669 102.496 60.8563 102.304C60.8563 102.112 60.8509 101.968 60.8403 101.872H62.8883ZM70.8559 98.512C70.8239 98.96 70.7919 99.4293 70.7599 99.92C70.7279 100.4 70.7012 100.88 70.6799 101.36C70.6585 101.84 70.6372 102.304 70.6159 102.752C70.5945 103.2 70.5785 103.616 70.5679 104H68.6959C68.7172 103.381 68.7492 102.715 68.7919 102C68.8345 101.275 68.8825 100.544 68.9359 99.808C68.9999 99.0613 69.0639 98.3307 69.1279 97.616C69.1919 96.9013 69.2612 96.24 69.3359 95.632H71.0159C71.4212 96.2827 71.8319 97.0507 72.2479 97.936C72.6639 98.8107 73.1279 99.808 73.6399 100.928C74.1732 99.7867 74.6585 98.7573 75.0959 97.84C75.5332 96.912 75.9225 96.176 76.2639 95.632H77.9599C78.0345 96.24 78.1039 96.9013 78.1679 97.616C78.2425 98.3307 78.3065 99.0613 78.3599 99.808C78.4132 100.544 78.4612 101.275 78.5039 102C78.5465 102.715 78.5785 103.381 78.5999 104H76.6799C76.6585 103.125 76.6212 102.224 76.5679 101.296C76.5252 100.357 76.4719 99.4293 76.4079 98.512C76.2479 98.832 76.0719 99.1893 75.8799 99.584C75.6985 99.9787 75.5172 100.379 75.3359 100.784C75.1545 101.189 74.9785 101.584 74.8079 101.968C74.6372 102.341 74.4879 102.672 74.3599 102.96H72.9199C72.7919 102.672 72.6372 102.336 72.4559 101.952C72.2852 101.568 72.1092 101.173 71.9279 100.768C71.7465 100.363 71.5599 99.968 71.3679 99.584C71.1865 99.1893 71.0159 98.832 70.8559 98.512ZM83.033 96.96C83.033 97.3333 82.905 97.6373 82.649 97.872C82.4037 98.1067 82.105 98.224 81.753 98.224C81.3903 98.224 81.0863 98.1067 80.841 97.872C80.5957 97.6373 80.473 97.3333 80.473 96.96C80.473 96.5867 80.5957 96.2827 80.841 96.048C81.0863 95.8027 81.3903 95.68 81.753 95.68C82.105 95.68 82.4037 95.8027 82.649 96.048C82.905 96.2827 83.033 96.5867 83.033 96.96ZM83.033 102.944C83.033 103.317 82.905 103.621 82.649 103.856C82.4037 104.091 82.105 104.208 81.753 104.208C81.3903 104.208 81.0863 104.091 80.841 103.856C80.5957 103.621 80.473 103.317 80.473 102.944C80.473 102.571 80.5957 102.267 80.841 102.032C81.0863 101.787 81.3903 101.664 81.753 101.664C82.105 101.664 82.4037 101.787 82.649 102.032C82.905 102.267 83.033 102.571 83.033 102.944Z" fill="#828D99"/>
<line x1="88.5" y1="106.5" x2="585.5" y2="106.5" stroke="#A6ACB3" stroke-linecap="round" stroke-dasharray="2 2"/>
<path d="M595.392 95.296C595.136 95.6053 594.869 95.936 594.592 96.288C594.325 96.64 594.064 97.008 593.808 97.392C593.552 97.776 593.307 98.1707 593.072 98.576C592.837 98.9707 592.624 99.3653 592.432 99.76H595.392V95.296ZM597.28 92.912V99.76H598.528V101.344H597.28V104H595.392V101.344H590.528V99.968C590.741 99.4987 591.024 98.96 591.376 98.352C591.739 97.744 592.139 97.12 592.576 96.48C593.013 95.84 593.477 95.2107 593.968 94.592C594.459 93.9733 594.949 93.4133 595.44 92.912H597.28Z" fill="#A6ACB3"/>
<path d="M3.344 128.336C3.46133 128.347 3.616 128.357 3.808 128.368C4 128.368 4.26133 128.368 4.592 128.368C5.94667 128.368 6.95467 128.027 7.616 127.344C8.288 126.651 8.624 125.685 8.624 124.448C8.624 123.189 8.29867 122.224 7.648 121.552C6.99733 120.88 5.98933 120.544 4.624 120.544C4.02667 120.544 3.6 120.56 3.344 120.592V128.336ZM10.736 124.448C10.736 125.408 10.5867 126.245 10.288 126.96C9.98933 127.664 9.56267 128.256 9.008 128.736C8.464 129.205 7.80267 129.557 7.024 129.792C6.256 130.016 5.40267 130.128 4.464 130.128C4.016 130.128 3.50933 130.107 2.944 130.064C2.37867 130.032 1.84 129.957 1.328 129.84V119.072C1.84 118.955 2.384 118.88 2.96 118.848C3.536 118.816 4.048 118.8 4.496 118.8C5.424 118.8 6.272 118.912 7.04 119.136C7.808 119.349 8.464 119.691 9.008 120.16C9.56267 120.619 9.98933 121.205 10.288 121.92C10.5867 122.624 10.736 123.467 10.736 124.448ZM20.4094 130C20.0467 129.392 19.6414 128.741 19.1934 128.048C18.7454 127.344 18.2814 126.64 17.8014 125.936C17.3214 125.221 16.8307 124.533 16.3294 123.872C15.8387 123.2 15.3694 122.597 14.9214 122.064V130H12.9374V118.912H14.5854C15.012 119.36 15.4707 119.893 15.9614 120.512C16.452 121.12 16.9427 121.755 17.4334 122.416C17.9347 123.077 18.4147 123.744 18.8734 124.416C19.3427 125.077 19.7587 125.696 20.1214 126.272V118.912H22.1214V130H20.4094ZM35.4435 130H33.5075V126.496H30.3555V130H28.4195V121.632H30.3555V124.896H33.5075V121.632H35.4435V130ZM45.4719 125.808C45.4719 126.469 45.3759 127.072 45.1839 127.616C44.9919 128.16 44.7199 128.624 44.3679 129.008C44.0159 129.392 43.5892 129.691 43.0879 129.904C42.5972 130.117 42.0532 130.224 41.4559 130.224C40.8585 130.224 40.3145 130.117 39.8239 129.904C39.3332 129.691 38.9119 129.392 38.5599 129.008C38.2079 128.624 37.9305 128.16 37.7279 127.616C37.5359 127.072 37.4399 126.469 37.4399 125.808C37.4399 125.147 37.5359 124.549 37.7279 124.016C37.9305 123.472 38.2079 123.008 38.5599 122.624C38.9225 122.24 39.3492 121.947 39.8399 121.744C40.3305 121.531 40.8692 121.424 41.4559 121.424C42.0425 121.424 42.5812 121.531 43.0719 121.744C43.5732 121.947 43.9999 122.24 44.3519 122.624C44.7039 123.008 44.9759 123.472 45.1679 124.016C45.3705 124.549 45.4719 125.147 45.4719 125.808ZM43.4879 125.808C43.4879 124.976 43.3065 124.32 42.9439 123.84C42.5919 123.349 42.0959 123.104 41.4559 123.104C40.8159 123.104 40.3145 123.349 39.9519 123.84C39.5999 124.32 39.4239 124.976 39.4239 125.808C39.4239 126.651 39.5999 127.317 39.9519 127.808C40.3145 128.299 40.8159 128.544 41.4559 128.544C42.0959 128.544 42.5919 128.299 42.9439 127.808C43.3065 127.317 43.4879 126.651 43.4879 125.808ZM49.4184 124.512C49.3864 124.96 49.3544 125.429 49.3224 125.92C49.2904 126.4 49.2637 126.88 49.2424 127.36C49.221 127.84 49.1997 128.304 49.1784 128.752C49.157 129.2 49.141 129.616 49.1304 130H47.2584C47.2797 129.381 47.3117 128.715 47.3544 128C47.397 127.275 47.445 126.544 47.4984 125.808C47.5624 125.061 47.6264 124.331 47.6904 123.616C47.7544 122.901 47.8237 122.24 47.8984 121.632H49.5784C49.9837 122.283 50.3944 123.051 50.8104 123.936C51.2264 124.811 51.6904 125.808 52.2024 126.928C52.7357 125.787 53.221 124.757 53.6584 123.84C54.0957 122.912 54.485 122.176 54.8264 121.632H56.5224C56.597 122.24 56.6664 122.901 56.7304 123.616C56.805 124.331 56.869 125.061 56.9224 125.808C56.9757 126.544 57.0237 127.275 57.0664 128C57.109 128.715 57.141 129.381 57.1624 130H55.2424C55.221 129.125 55.1837 128.224 55.1304 127.296C55.0877 126.357 55.0344 125.429 54.9704 124.512C54.8104 124.832 54.6344 125.189 54.4424 125.584C54.261 125.979 54.0797 126.379 53.8984 126.784C53.717 127.189 53.541 127.584 53.3704 127.968C53.1997 128.341 53.0504 128.672 52.9224 128.96H51.4824C51.3544 128.672 51.1997 128.336 51.0184 127.952C50.8477 127.568 50.6717 127.173 50.4904 126.768C50.309 126.363 50.1224 125.968 49.9304 125.584C49.749 125.189 49.5784 124.832 49.4184 124.512ZM66.7475 121.632V130H64.8275C64.8275 129.392 64.8275 128.789 64.8275 128.192C64.8382 127.595 64.8435 127.04 64.8435 126.528C64.8542 126.016 64.8595 125.573 64.8595 125.2C64.8702 124.816 64.8755 124.533 64.8755 124.352C64.5555 124.768 64.2248 125.227 63.8835 125.728C63.5422 126.229 63.2008 126.731 62.8595 127.232C62.5288 127.733 62.2142 128.224 61.9155 128.704C61.6168 129.184 61.3555 129.616 61.1315 130H59.4195V121.632H61.3235C61.3235 122.251 61.3182 122.843 61.3075 123.408C61.3075 123.963 61.3075 124.469 61.3075 124.928C61.3075 125.387 61.3022 125.787 61.2915 126.128C61.2915 126.469 61.2915 126.731 61.2915 126.912C61.5902 126.453 61.8995 125.984 62.2195 125.504C62.5395 125.013 62.8595 124.539 63.1795 124.08C63.5102 123.611 63.8355 123.168 64.1555 122.752C64.4755 122.336 64.7848 121.963 65.0835 121.632H66.7475ZM76.2404 130H74.3044V126.496H71.1524V130H69.2164V121.632H71.1524V124.896H74.3044V121.632H76.2404V130ZM81.6448 128.64C82.2421 128.64 82.6954 128.608 83.0048 128.544V126.4C82.8981 126.368 82.7434 126.336 82.5408 126.304C82.3381 126.272 82.1141 126.256 81.8688 126.256C81.6554 126.256 81.4368 126.272 81.2128 126.304C80.9994 126.336 80.8021 126.395 80.6208 126.48C80.4501 126.565 80.3114 126.688 80.2048 126.848C80.0981 126.997 80.0448 127.189 80.0448 127.424C80.0448 127.883 80.1888 128.203 80.4768 128.384C80.7648 128.555 81.1541 128.64 81.6448 128.64ZM81.4848 121.424C82.1248 121.424 82.6634 121.504 83.1008 121.664C83.5381 121.824 83.8848 122.048 84.1408 122.336C84.4074 122.624 84.5941 122.976 84.7008 123.392C84.8181 123.797 84.8768 124.245 84.8768 124.736V129.808C84.5781 129.872 84.1248 129.947 83.5168 130.032C82.9194 130.128 82.2421 130.176 81.4848 130.176C80.9834 130.176 80.5248 130.128 80.1088 130.032C79.6928 129.936 79.3354 129.781 79.0368 129.568C78.7488 129.355 78.5194 129.077 78.3488 128.736C78.1888 128.395 78.1088 127.973 78.1088 127.472C78.1088 126.992 78.1994 126.587 78.3808 126.256C78.5728 125.925 78.8288 125.659 79.1488 125.456C79.4688 125.243 79.8368 125.093 80.2528 125.008C80.6794 124.912 81.1221 124.864 81.5807 124.864C81.7941 124.864 82.0181 124.88 82.2528 124.912C82.4874 124.933 82.7381 124.976 83.0048 125.04V124.72C83.0048 124.496 82.9781 124.283 82.9248 124.08C82.8714 123.877 82.7754 123.701 82.6368 123.552C82.5088 123.392 82.3328 123.269 82.1088 123.184C81.8954 123.099 81.6234 123.056 81.2928 123.056C80.8448 123.056 80.4341 123.088 80.0608 123.152C79.6874 123.216 79.3834 123.291 79.1488 123.376L78.9088 121.808C79.1541 121.723 79.5114 121.637 79.9808 121.552C80.4501 121.467 80.9514 121.424 81.4848 121.424ZM90.5276 123.232C90.517 123.701 90.501 124.192 90.4796 124.704C90.4583 125.205 90.405 125.701 90.3196 126.192C90.245 126.683 90.1223 127.152 89.9516 127.6C89.781 128.048 89.541 128.453 89.2316 128.816C88.933 129.168 88.5543 129.467 88.0956 129.712C87.6476 129.947 87.0983 130.096 86.4476 130.16L86.1756 128.544C86.7196 128.437 87.141 128.267 87.4396 128.032C87.7383 127.787 87.9676 127.477 88.1276 127.104C88.2556 126.827 88.3516 126.512 88.4156 126.16C88.4903 125.808 88.5436 125.44 88.5756 125.056C88.6183 124.661 88.645 124.261 88.6556 123.856C88.6663 123.451 88.6716 123.056 88.6716 122.672V121.632H94.5916V130H92.6556V123.232H90.5276ZM98.9961 124.72C99.1561 124.677 99.3908 124.64 99.7001 124.608C100.009 124.576 100.319 124.56 100.628 124.56C101.108 124.56 101.556 124.613 101.972 124.72C102.399 124.827 102.767 124.997 103.076 125.232C103.385 125.456 103.631 125.749 103.812 126.112C103.993 126.464 104.084 126.885 104.084 127.376C104.084 127.877 103.999 128.304 103.828 128.656C103.657 129.008 103.412 129.296 103.092 129.52C102.772 129.744 102.388 129.909 101.94 130.016C101.503 130.123 101.012 130.176 100.468 130.176C99.8388 130.176 99.2521 130.144 98.7081 130.08C98.1641 130.016 97.6148 129.92 97.0601 129.792V121.632H98.9961V124.72ZM100.42 128.656C100.964 128.656 101.385 128.555 101.684 128.352C101.993 128.139 102.148 127.803 102.148 127.344C102.148 127.109 102.095 126.912 101.988 126.752C101.892 126.592 101.759 126.464 101.588 126.368C101.428 126.261 101.236 126.187 101.012 126.144C100.788 126.101 100.553 126.08 100.308 126.08C100.084 126.08 99.8495 126.091 99.6041 126.112C99.3588 126.123 99.1561 126.149 98.9961 126.192V128.576C99.1348 128.597 99.3375 128.619 99.6041 128.64C99.8815 128.651 100.153 128.656 100.42 128.656ZM112.865 130H110.929V126.496H107.777V130H105.841V121.632H107.777V124.896H110.929V121.632H112.865V130ZM125.518 130H123.582V121.632H125.518V130ZM117.262 124.72C117.422 124.677 117.651 124.64 117.95 124.608C118.259 124.576 118.558 124.56 118.846 124.56C119.304 124.56 119.736 124.613 120.142 124.72C120.558 124.827 120.915 124.997 121.214 125.232C121.523 125.456 121.763 125.749 121.934 126.112C122.115 126.464 122.206 126.885 122.206 127.376C122.206 127.877 122.12 128.304 121.95 128.656C121.779 129.008 121.539 129.296 121.23 129.52C120.92 129.744 120.547 129.909 120.11 130.016C119.683 130.123 119.208 130.176 118.686 130.176C118.078 130.176 117.502 130.144 116.958 130.08C116.424 130.016 115.88 129.92 115.326 129.792V121.632H117.262V124.72ZM118.638 128.656C119.139 128.656 119.534 128.555 119.822 128.352C120.12 128.139 120.27 127.803 120.27 127.344C120.27 127.109 120.222 126.912 120.126 126.752C120.03 126.592 119.896 126.464 119.726 126.368C119.566 126.261 119.379 126.187 119.166 126.144C118.963 126.101 118.75 126.08 118.526 126.08C118.323 126.08 118.099 126.091 117.854 126.112C117.619 126.123 117.422 126.149 117.262 126.192V128.576C117.4 128.597 117.603 128.619 117.87 128.64C118.136 128.651 118.392 128.656 118.638 128.656ZM135.31 121.632V130H133.39C133.39 129.392 133.39 128.789 133.39 128.192C133.401 127.595 133.406 127.04 133.406 126.528C133.417 126.016 133.422 125.573 133.422 125.2C133.433 124.816 133.438 124.533 133.438 124.352C133.118 124.768 132.787 125.227 132.446 125.728C132.105 126.229 131.763 126.731 131.422 127.232C131.091 127.733 130.777 128.224 130.478 128.704C130.179 129.184 129.918 129.616 129.694 130H127.982V121.632H129.886C129.886 122.251 129.881 122.843 129.87 123.408C129.87 123.963 129.87 124.469 129.87 124.928C129.87 125.387 129.865 125.787 129.854 126.128C129.854 126.469 129.854 126.731 129.854 126.912C130.153 126.453 130.462 125.984 130.782 125.504C131.102 125.013 131.422 124.539 131.742 124.08C132.073 123.611 132.398 123.168 132.718 122.752C133.038 122.336 133.347 121.963 133.646 121.632H135.31ZM131.662 120.384C131.321 120.384 131.001 120.336 130.702 120.24C130.414 120.144 130.153 120.005 129.918 119.824C129.683 119.643 129.491 119.424 129.342 119.168C129.193 118.901 129.102 118.603 129.07 118.272L130.462 117.904C130.643 118.661 131.043 119.04 131.662 119.04C132.291 119.04 132.691 118.667 132.862 117.92L134.238 118.288C134.195 118.619 134.099 118.917 133.95 119.184C133.811 119.44 133.625 119.659 133.39 119.84C133.166 120.011 132.905 120.144 132.606 120.24C132.307 120.336 131.993 120.384 131.662 120.384ZM140.489 128.416H141.449C141.78 127.979 142.036 127.493 142.217 126.96C142.409 126.416 142.548 125.851 142.633 125.264C142.719 124.667 142.772 124.059 142.793 123.44C142.815 122.821 142.831 122.219 142.841 121.632H148.841V128.416H150.121V132.368H148.393V130H142.201V132.368H140.489V128.416ZM146.905 128.416V123.232H144.633C144.612 123.669 144.585 124.117 144.553 124.576C144.521 125.024 144.463 125.472 144.377 125.92C144.292 126.357 144.175 126.789 144.025 127.216C143.887 127.632 143.7 128.032 143.465 128.416H146.905ZM158.966 121.632V130H157.046C157.046 129.392 157.046 128.789 157.046 128.192C157.057 127.595 157.062 127.04 157.062 126.528C157.073 126.016 157.078 125.573 157.078 125.2C157.089 124.816 157.094 124.533 157.094 124.352C156.774 124.768 156.444 125.227 156.102 125.728C155.761 126.229 155.42 126.731 155.078 127.232C154.748 127.733 154.433 128.224 154.134 128.704C153.836 129.184 153.574 129.616 153.35 130H151.638V121.632H153.542C153.542 122.251 153.537 122.843 153.526 123.408C153.526 123.963 153.526 124.469 153.526 124.928C153.526 125.387 153.521 125.787 153.51 126.128C153.51 126.469 153.51 126.731 153.51 126.912C153.809 126.453 154.118 125.984 154.438 125.504C154.758 125.013 155.078 124.539 155.398 124.08C155.729 123.611 156.054 123.168 156.374 122.752C156.694 122.336 157.004 121.963 157.302 121.632H158.966ZM164.379 128.64C164.976 128.64 165.43 128.608 165.739 128.544V126.4C165.632 126.368 165.478 126.336 165.275 126.304C165.072 126.272 164.848 126.256 164.603 126.256C164.39 126.256 164.171 126.272 163.947 126.304C163.734 126.336 163.536 126.395 163.355 126.48C163.184 126.565 163.046 126.688 162.939 126.848C162.832 126.997 162.779 127.189 162.779 127.424C162.779 127.883 162.923 128.203 163.211 128.384C163.499 128.555 163.888 128.64 164.379 128.64ZM164.219 121.424C164.859 121.424 165.398 121.504 165.835 121.664C166.272 121.824 166.619 122.048 166.875 122.336C167.142 122.624 167.328 122.976 167.435 123.392C167.552 123.797 167.611 124.245 167.611 124.736V129.808C167.312 129.872 166.859 129.947 166.251 130.032C165.654 130.128 164.976 130.176 164.219 130.176C163.718 130.176 163.259 130.128 162.843 130.032C162.427 129.936 162.07 129.781 161.771 129.568C161.483 129.355 161.254 129.077 161.083 128.736C160.923 128.395 160.843 127.973 160.843 127.472C160.843 126.992 160.934 126.587 161.115 126.256C161.307 125.925 161.563 125.659 161.883 125.456C162.203 125.243 162.571 125.093 162.987 125.008C163.414 124.912 163.856 124.864 164.315 124.864C164.528 124.864 164.752 124.88 164.987 124.912C165.222 124.933 165.472 124.976 165.739 125.04V124.72C165.739 124.496 165.712 124.283 165.659 124.08C165.606 123.877 165.51 123.701 165.371 123.552C165.243 123.392 165.067 123.269 164.843 123.184C164.63 123.099 164.358 123.056 164.027 123.056C163.579 123.056 163.168 123.088 162.795 123.152C162.422 123.216 162.118 123.291 161.883 123.376L161.643 121.808C161.888 121.723 162.246 121.637 162.715 121.552C163.184 121.467 163.686 121.424 164.219 121.424ZM171.934 124.512C171.902 124.96 171.87 125.429 171.838 125.92C171.806 126.4 171.779 126.88 171.758 127.36C171.737 127.84 171.715 128.304 171.694 128.752C171.673 129.2 171.657 129.616 171.646 130H169.774C169.795 129.381 169.827 128.715 169.87 128C169.913 127.275 169.961 126.544 170.014 125.808C170.078 125.061 170.142 124.331 170.206 123.616C170.27 122.901 170.339 122.24 170.414 121.632H172.094C172.499 122.283 172.91 123.051 173.326 123.936C173.742 124.811 174.206 125.808 174.718 126.928C175.251 125.787 175.737 124.757 176.174 123.84C176.611 122.912 177.001 122.176 177.342 121.632H179.038C179.113 122.24 179.182 122.901 179.246 123.616C179.321 124.331 179.385 125.061 179.438 125.808C179.491 126.544 179.539 127.275 179.582 128C179.625 128.715 179.657 129.381 179.678 130H177.758C177.737 129.125 177.699 128.224 177.646 127.296C177.603 126.357 177.55 125.429 177.486 124.512C177.326 124.832 177.15 125.189 176.958 125.584C176.777 125.979 176.595 126.379 176.414 126.784C176.233 127.189 176.057 127.584 175.886 127.968C175.715 128.341 175.566 128.672 175.438 128.96H173.998C173.87 128.672 173.715 128.336 173.534 127.952C173.363 127.568 173.187 127.173 173.006 126.768C172.825 126.363 172.638 125.968 172.446 125.584C172.265 125.189 172.094 124.832 171.934 124.512ZM181.471 125.856C181.471 125.12 181.578 124.475 181.791 123.92C182.015 123.365 182.308 122.907 182.671 122.544C183.034 122.171 183.45 121.893 183.919 121.712C184.388 121.52 184.868 121.424 185.359 121.424C186.511 121.424 187.407 121.781 188.047 122.496C188.698 123.211 189.023 124.277 189.023 125.696C189.023 125.803 189.018 125.925 189.007 126.064C189.007 126.192 189.002 126.309 188.991 126.416H183.471C183.524 127.088 183.759 127.611 184.175 127.984C184.602 128.347 185.215 128.528 186.015 128.528C186.484 128.528 186.911 128.485 187.295 128.4C187.69 128.315 187.999 128.224 188.223 128.128L188.479 129.712C188.372 129.765 188.223 129.824 188.031 129.888C187.85 129.941 187.636 129.989 187.391 130.032C187.156 130.085 186.9 130.128 186.623 130.16C186.346 130.192 186.063 130.208 185.775 130.208C185.039 130.208 184.399 130.101 183.855 129.888C183.311 129.664 182.863 129.36 182.511 128.976C182.159 128.581 181.898 128.123 181.727 127.6C181.556 127.067 181.471 126.485 181.471 125.856ZM187.087 124.992C187.087 124.725 187.05 124.475 186.975 124.24C186.9 123.995 186.788 123.787 186.639 123.616C186.5 123.435 186.324 123.296 186.111 123.2C185.908 123.093 185.663 123.04 185.375 123.04C185.076 123.04 184.815 123.099 184.591 123.216C184.367 123.323 184.175 123.467 184.015 123.648C183.866 123.829 183.748 124.037 183.663 124.272C183.578 124.507 183.519 124.747 183.487 124.992H187.087ZM197.38 123.248H194.676V130H192.74V123.248H190.052V121.632H197.38V123.248ZM204.378 125.856C204.378 124.992 204.18 124.32 203.786 123.84C203.402 123.36 202.778 123.12 201.914 123.12C201.732 123.12 201.54 123.131 201.338 123.152C201.146 123.163 200.954 123.195 200.762 123.248V128.032C200.932 128.149 201.156 128.261 201.434 128.368C201.722 128.464 202.026 128.512 202.346 128.512C203.05 128.512 203.562 128.272 203.882 127.792C204.212 127.312 204.378 126.667 204.378 125.856ZM206.362 125.824C206.362 126.464 206.276 127.051 206.106 127.584C205.946 128.117 205.711 128.576 205.402 128.96C205.092 129.344 204.703 129.643 204.234 129.856C203.775 130.069 203.252 130.176 202.666 130.176C202.271 130.176 201.908 130.128 201.578 130.032C201.247 129.936 200.975 129.829 200.762 129.712V132.96H198.826V121.904C199.22 121.797 199.706 121.696 200.282 121.6C200.858 121.504 201.466 121.456 202.106 121.456C202.767 121.456 203.359 121.557 203.882 121.76C204.404 121.963 204.847 122.256 205.21 122.64C205.583 123.013 205.866 123.472 206.058 124.016C206.26 124.549 206.362 125.152 206.362 125.824ZM210.091 127.872C210.113 128.053 210.123 128.187 210.123 128.272C210.123 128.357 210.123 128.443 210.123 128.528C210.123 129.189 210.017 129.872 209.803 130.576C209.601 131.28 209.313 131.947 208.939 132.576L207.419 132.16C207.675 131.541 207.846 130.933 207.931 130.336C208.027 129.749 208.075 129.232 208.075 128.784C208.075 128.656 208.07 128.496 208.059 128.304C208.059 128.112 208.054 127.968 208.043 127.872H210.091ZM218.059 124.512C218.027 124.96 217.995 125.429 217.963 125.92C217.931 126.4 217.904 126.88 217.883 127.36C217.862 127.84 217.84 128.304 217.819 128.752C217.798 129.2 217.782 129.616 217.771 130H215.899C215.92 129.381 215.952 128.715 215.995 128C216.038 127.275 216.086 126.544 216.139 125.808C216.203 125.061 216.267 124.331 216.331 123.616C216.395 122.901 216.464 122.24 216.539 121.632H218.219C218.624 122.283 219.035 123.051 219.451 123.936C219.867 124.811 220.331 125.808 220.843 126.928C221.376 125.787 221.862 124.757 222.299 123.84C222.736 122.912 223.126 122.176 223.467 121.632H225.163C225.238 122.24 225.307 122.901 225.371 123.616C225.446 124.331 225.51 125.061 225.563 125.808C225.616 126.544 225.664 127.275 225.707 128C225.75 128.715 225.782 129.381 225.803 130H223.883C223.862 129.125 223.824 128.224 223.771 127.296C223.728 126.357 223.675 125.429 223.611 124.512C223.451 124.832 223.275 125.189 223.083 125.584C222.902 125.979 222.72 126.379 222.539 126.784C222.358 127.189 222.182 127.584 222.011 127.968C221.84 128.341 221.691 128.672 221.563 128.96H220.123C219.995 128.672 219.84 128.336 219.659 127.952C219.488 127.568 219.312 127.173 219.131 126.768C218.95 126.363 218.763 125.968 218.571 125.584C218.39 125.189 218.219 124.832 218.059 124.512ZM230.012 124.512C229.98 124.96 229.948 125.429 229.916 125.92C229.884 126.4 229.857 126.88 229.836 127.36C229.815 127.84 229.793 128.304 229.772 128.752C229.751 129.2 229.735 129.616 229.724 130H227.852C227.873 129.381 227.905 128.715 227.948 128C227.991 127.275 228.039 126.544 228.092 125.808C228.156 125.061 228.22 124.331 228.284 123.616C228.348 122.901 228.417 122.24 228.492 121.632H230.172C230.577 122.283 230.988 123.051 231.404 123.936C231.82 124.811 232.284 125.808 232.796 126.928C233.329 125.787 233.815 124.757 234.252 123.84C234.689 122.912 235.079 122.176 235.42 121.632H237.116C237.191 122.24 237.26 122.901 237.324 123.616C237.399 124.331 237.463 125.061 237.516 125.808C237.569 126.544 237.617 127.275 237.66 128C237.703 128.715 237.735 129.381 237.756 130H235.836C235.815 129.125 235.777 128.224 235.724 127.296C235.681 126.357 235.628 125.429 235.564 124.512C235.404 124.832 235.228 125.189 235.036 125.584C234.855 125.979 234.673 126.379 234.492 126.784C234.311 127.189 234.135 127.584 233.964 127.968C233.793 128.341 233.644 128.672 233.516 128.96H232.076C231.948 128.672 231.793 128.336 231.612 127.952C231.441 127.568 231.265 127.173 231.084 126.768C230.903 126.363 230.716 125.968 230.524 125.584C230.343 125.189 230.172 124.832 230.012 124.512ZM242.189 122.96C242.189 123.333 242.061 123.637 241.805 123.872C241.56 124.107 241.261 124.224 240.909 124.224C240.547 124.224 240.243 124.107 239.997 123.872C239.752 123.637 239.629 123.333 239.629 122.96C239.629 122.587 239.752 122.283 239.997 122.048C240.243 121.803 240.547 121.68 240.909 121.68C241.261 121.68 241.56 121.803 241.805 122.048C242.061 122.283 242.189 122.587 242.189 122.96ZM242.189 128.944C242.189 129.317 242.061 129.621 241.805 129.856C241.56 130.091 241.261 130.208 240.909 130.208C240.547 130.208 240.243 130.091 239.997 129.856C239.752 129.621 239.629 129.317 239.629 128.944C239.629 128.571 239.752 128.267 239.997 128.032C240.243 127.787 240.547 127.664 240.909 127.664C241.261 127.664 241.56 127.787 241.805 128.032C242.061 128.267 242.189 128.571 242.189 128.944Z" fill="#828D99"/>
<line x1="251.5" y1="132.5" x2="573.5" y2="132.5" stroke="#A6ACB3" stroke-linecap="round" stroke-dasharray="2 2"/>
<path d="M588.696 121.792C588.696 122.176 588.616 122.555 588.456 122.928C588.296 123.291 588.088 123.648 587.832 124C587.587 124.341 587.304 124.677 586.984 125.008C586.664 125.328 586.344 125.643 586.024 125.952C585.853 126.112 585.661 126.304 585.448 126.528C585.235 126.752 585.032 126.976 584.84 127.2C584.648 127.424 584.483 127.643 584.344 127.856C584.205 128.059 584.131 128.229 584.12 128.368H589.048V130H581.992C581.981 129.915 581.976 129.813 581.976 129.696C581.976 129.568 581.976 129.472 581.976 129.408C581.976 128.896 582.056 128.427 582.216 128C582.387 127.563 582.605 127.157 582.872 126.784C583.139 126.411 583.437 126.059 583.768 125.728C584.099 125.397 584.429 125.072 584.76 124.752C585.016 124.507 585.261 124.267 585.496 124.032C585.731 123.797 585.933 123.568 586.104 123.344C586.285 123.109 586.429 122.875 586.536 122.64C586.643 122.395 586.696 122.144 586.696 121.888C586.696 121.333 586.536 120.939 586.216 120.704C585.896 120.469 585.507 120.352 585.048 120.352C584.749 120.352 584.472 120.395 584.216 120.48C583.96 120.565 583.731 120.667 583.528 120.784C583.336 120.901 583.165 121.024 583.016 121.152C582.867 121.269 582.755 121.365 582.68 121.44L581.72 120.08C582.168 119.653 582.691 119.312 583.288 119.056C583.896 118.789 584.547 118.656 585.24 118.656C586.424 118.656 587.293 118.939 587.848 119.504C588.413 120.059 588.696 120.821 588.696 121.792ZM598.494 124.448C598.494 126.315 598.152 127.749 597.47 128.752C596.787 129.744 595.843 130.24 594.638 130.24C593.432 130.24 592.488 129.744 591.806 128.752C591.123 127.749 590.782 126.315 590.782 124.448C590.782 123.52 590.867 122.699 591.038 121.984C591.219 121.259 591.475 120.651 591.806 120.16C592.147 119.669 592.552 119.296 593.022 119.04C593.502 118.784 594.04 118.656 594.638 118.656C595.843 118.656 596.787 119.157 597.47 120.16C598.152 121.152 598.494 122.581 598.494 124.448ZM596.494 124.448C596.494 123.872 596.462 123.333 596.398 122.832C596.334 122.331 596.227 121.899 596.078 121.536C595.939 121.163 595.752 120.869 595.518 120.656C595.283 120.443 594.99 120.336 594.638 120.336C594.286 120.336 593.987 120.443 593.742 120.656C593.507 120.869 593.315 121.163 593.166 121.536C593.027 121.899 592.926 122.331 592.862 122.832C592.808 123.333 592.782 123.872 592.782 124.448C592.782 125.024 592.808 125.563 592.862 126.064C592.926 126.565 593.027 127.003 593.166 127.376C593.315 127.739 593.507 128.027 593.742 128.24C593.987 128.453 594.286 128.56 594.638 128.56C594.99 128.56 595.283 128.453 595.518 128.24C595.752 128.027 595.939 127.739 596.078 127.376C596.227 127.003 596.334 126.565 596.398 126.064C596.462 125.563 596.494 125.024 596.494 124.448Z" fill="#A6ACB3"/>
<path d="M9.056 144.912V146.656H5.648V156H3.616V146.656H0.208V144.912H9.056ZM17.1906 151.808C17.1906 152.469 17.0946 153.072 16.9026 153.616C16.7106 154.16 16.4386 154.624 16.0866 155.008C15.7346 155.392 15.308 155.691 14.8066 155.904C14.316 156.117 13.772 156.224 13.1746 156.224C12.5773 156.224 12.0333 156.117 11.5426 155.904C11.052 155.691 10.6306 155.392 10.2786 155.008C9.92663 154.624 9.64929 154.16 9.44662 153.616C9.25463 153.072 9.15863 152.469 9.15863 151.808C9.15863 151.147 9.25463 150.549 9.44662 150.016C9.64929 149.472 9.92663 149.008 10.2786 148.624C10.6413 148.24 11.068 147.947 11.5586 147.744C12.0493 147.531 12.588 147.424 13.1746 147.424C13.7613 147.424 14.3 147.531 14.7906 147.744C15.292 147.947 15.7186 148.24 16.0706 148.624C16.4226 149.008 16.6946 149.472 16.8866 150.016C17.0893 150.549 17.1906 151.147 17.1906 151.808ZM15.2066 151.808C15.2066 150.976 15.0253 150.32 14.6626 149.84C14.3106 149.349 13.8146 149.104 13.1746 149.104C12.5346 149.104 12.0333 149.349 11.6706 149.84C11.3186 150.32 11.1426 150.976 11.1426 151.808C11.1426 152.651 11.3186 153.317 11.6706 153.808C12.0333 154.299 12.5346 154.544 13.1746 154.544C13.8146 154.544 14.3106 154.299 14.6626 153.808C15.0253 153.317 15.2066 152.651 15.2066 151.808ZM22.4651 149.232C22.4545 149.701 22.4385 150.192 22.4171 150.704C22.3958 151.205 22.3425 151.701 22.2571 152.192C22.1825 152.683 22.0598 153.152 21.8891 153.6C21.7185 154.048 21.4785 154.453 21.1691 154.816C20.8705 155.168 20.4918 155.467 20.0331 155.712C19.5851 155.947 19.0358 156.096 18.3851 156.16L18.1131 154.544C18.6571 154.437 19.0785 154.267 19.3771 154.032C19.6758 153.787 19.9051 153.477 20.0651 153.104C20.1931 152.827 20.2891 152.512 20.3531 152.16C20.4278 151.808 20.4811 151.44 20.5131 151.056C20.5558 150.661 20.5825 150.261 20.5931 149.856C20.6038 149.451 20.6091 149.056 20.6091 148.672V147.632H26.5291V156H24.5931V149.232H22.4651ZM28.9976 156V147.632H30.9336V154.416H33.5576V147.632H35.4936V154.416H38.1176V147.632H40.0536V154.416H41.3336V158.368H39.6056V156H28.9976ZM50.185 147.632V156H48.265C48.265 155.392 48.265 154.789 48.265 154.192C48.2757 153.595 48.281 153.04 48.281 152.528C48.2917 152.016 48.297 151.573 48.297 151.2C48.3077 150.816 48.313 150.533 48.313 150.352C47.993 150.768 47.6623 151.227 47.321 151.728C46.9797 152.229 46.6383 152.731 46.297 153.232C45.9663 153.733 45.6517 154.224 45.353 154.704C45.0543 155.184 44.793 155.616 44.569 156H42.857V147.632H44.761C44.761 148.251 44.7557 148.843 44.745 149.408C44.745 149.963 44.745 150.469 44.745 150.928C44.745 151.387 44.7397 151.787 44.729 152.128C44.729 152.469 44.729 152.731 44.729 152.912C45.0277 152.453 45.337 151.984 45.657 151.504C45.977 151.013 46.297 150.539 46.617 150.08C46.9477 149.611 47.273 149.168 47.593 148.752C47.913 148.336 48.2223 147.963 48.521 147.632H50.185ZM59.6779 156H57.7419V152.496H54.5899V156H52.6539V147.632H54.5899V150.896H57.7419V147.632H59.6779V156ZM65.0823 154.64C65.6796 154.64 66.1329 154.608 66.4423 154.544V152.4C66.3356 152.368 66.1809 152.336 65.9783 152.304C65.7756 152.272 65.5516 152.256 65.3063 152.256C65.0929 152.256 64.8743 152.272 64.6503 152.304C64.4369 152.336 64.2396 152.395 64.0583 152.48C63.8876 152.565 63.7489 152.688 63.6423 152.848C63.5356 152.997 63.4823 153.189 63.4823 153.424C63.4823 153.883 63.6263 154.203 63.9143 154.384C64.2023 154.555 64.5916 154.64 65.0823 154.64ZM64.9223 147.424C65.5623 147.424 66.1009 147.504 66.5383 147.664C66.9756 147.824 67.3223 148.048 67.5783 148.336C67.8449 148.624 68.0316 148.976 68.1383 149.392C68.2556 149.797 68.3143 150.245 68.3143 150.736V155.808C68.0156 155.872 67.5623 155.947 66.9543 156.032C66.3569 156.128 65.6796 156.176 64.9223 156.176C64.4209 156.176 63.9623 156.128 63.5463 156.032C63.1303 155.936 62.7729 155.781 62.4743 155.568C62.1863 155.355 61.9569 155.077 61.7863 154.736C61.6263 154.395 61.5463 153.973 61.5463 153.472C61.5463 152.992 61.6369 152.587 61.8183 152.256C62.0103 151.925 62.2663 151.659 62.5863 151.456C62.9063 151.243 63.2743 151.093 63.6903 151.008C64.1169 150.912 64.5596 150.864 65.0182 150.864C65.2316 150.864 65.4556 150.88 65.6903 150.912C65.9249 150.933 66.1756 150.976 66.4423 151.04V150.72C66.4423 150.496 66.4156 150.283 66.3623 150.08C66.3089 149.877 66.2129 149.701 66.0743 149.552C65.9463 149.392 65.7703 149.269 65.5463 149.184C65.3329 149.099 65.0609 149.056 64.7303 149.056C64.2823 149.056 63.8716 149.088 63.4983 149.152C63.1249 149.216 62.8209 149.291 62.5863 149.376L62.3463 147.808C62.5916 147.723 62.9489 147.637 63.4183 147.552C63.8876 147.467 64.3889 147.424 64.9223 147.424ZM73.9555 151.824C73.9555 151.205 74.0515 150.629 74.2435 150.096C74.4355 149.552 74.7075 149.083 75.0595 148.688C75.4222 148.293 75.8595 147.984 76.3715 147.76C76.8835 147.536 77.4595 147.424 78.0995 147.424C78.8888 147.424 79.6355 147.568 80.3395 147.856L79.9235 149.44C79.6995 149.344 79.4435 149.264 79.1555 149.2C78.8782 149.136 78.5795 149.104 78.2595 149.104C77.5022 149.104 76.9262 149.344 76.5315 149.824C76.1368 150.293 75.9395 150.96 75.9395 151.824C75.9395 152.656 76.1262 153.317 76.4995 153.808C76.8728 154.288 77.5022 154.528 78.3875 154.528C78.7182 154.528 79.0435 154.496 79.3635 154.432C79.6835 154.368 79.9608 154.288 80.1955 154.192L80.4675 155.792C80.2542 155.899 79.9288 155.995 79.4915 156.08C79.0648 156.165 78.6222 156.208 78.1635 156.208C77.4488 156.208 76.8248 156.101 76.2915 155.888C75.7688 155.664 75.3315 155.36 74.9795 154.976C74.6382 154.581 74.3822 154.117 74.2115 153.584C74.0408 153.04 73.9555 152.453 73.9555 151.824ZM88.4735 149.248H85.7695V156H83.8335V149.248H81.1455V147.632H88.4735V149.248ZM89.4555 151.856C89.4555 151.12 89.5622 150.475 89.7755 149.92C89.9995 149.365 90.2928 148.907 90.6555 148.544C91.0182 148.171 91.4342 147.893 91.9035 147.712C92.3728 147.52 92.8528 147.424 93.3435 147.424C94.4955 147.424 95.3915 147.781 96.0315 148.496C96.6822 149.211 97.0075 150.277 97.0075 151.696C97.0075 151.803 97.0022 151.925 96.9915 152.064C96.9915 152.192 96.9862 152.309 96.9755 152.416H91.4555C91.5088 153.088 91.7435 153.611 92.1595 153.984C92.5862 154.347 93.1995 154.528 93.9995 154.528C94.4688 154.528 94.8955 154.485 95.2795 154.4C95.6742 154.315 95.9835 154.224 96.2075 154.128L96.4635 155.712C96.3568 155.765 96.2075 155.824 96.0155 155.888C95.8342 155.941 95.6208 155.989 95.3755 156.032C95.1408 156.085 94.8848 156.128 94.6075 156.16C94.3302 156.192 94.0475 156.208 93.7595 156.208C93.0235 156.208 92.3835 156.101 91.8395 155.888C91.2955 155.664 90.8475 155.36 90.4955 154.976C90.1435 154.581 89.8822 154.123 89.7115 153.6C89.5408 153.067 89.4555 152.485 89.4555 151.856ZM95.0715 150.992C95.0715 150.725 95.0342 150.475 94.9595 150.24C94.8848 149.995 94.7728 149.787 94.6235 149.616C94.4848 149.435 94.3088 149.296 94.0955 149.2C93.8928 149.093 93.6475 149.04 93.3595 149.04C93.0608 149.04 92.7995 149.099 92.5755 149.216C92.3515 149.323 92.1595 149.467 91.9995 149.648C91.8502 149.829 91.7328 150.037 91.6475 150.272C91.5622 150.507 91.5035 150.747 91.4715 150.992H95.0715ZM106.084 156H104.148V152.496H100.996V156H99.0601V147.632H100.996V150.896H104.148V147.632H106.084V156ZM116.113 151.808C116.113 152.469 116.017 153.072 115.825 153.616C115.633 154.16 115.361 154.624 115.009 155.008C114.657 155.392 114.23 155.691 113.729 155.904C113.238 156.117 112.694 156.224 112.097 156.224C111.499 156.224 110.955 156.117 110.465 155.904C109.974 155.691 109.553 155.392 109.201 155.008C108.849 154.624 108.571 154.16 108.368 153.616C108.177 153.072 108.081 152.469 108.081 151.808C108.081 151.147 108.177 150.549 108.368 150.016C108.571 149.472 108.849 149.008 109.201 148.624C109.563 148.24 109.99 147.947 110.481 147.744C110.971 147.531 111.51 147.424 112.097 147.424C112.683 147.424 113.222 147.531 113.713 147.744C114.214 147.947 114.641 148.24 114.993 148.624C115.345 149.008 115.617 149.472 115.809 150.016C116.011 150.549 116.113 151.147 116.113 151.808ZM114.129 151.808C114.129 150.976 113.947 150.32 113.585 149.84C113.233 149.349 112.737 149.104 112.097 149.104C111.457 149.104 110.955 149.349 110.593 149.84C110.241 150.32 110.065 150.976 110.065 151.808C110.065 152.651 110.241 153.317 110.593 153.808C110.955 154.299 111.457 154.544 112.097 154.544C112.737 154.544 113.233 154.299 113.585 153.808C113.947 153.317 114.129 152.651 114.129 151.808ZM120.043 150.992C120.288 150.747 120.555 150.475 120.843 150.176C121.131 149.867 121.414 149.557 121.691 149.248C121.979 148.939 122.251 148.645 122.507 148.368C122.763 148.08 122.976 147.835 123.147 147.632H125.419C125.184 147.909 124.912 148.213 124.603 148.544C124.304 148.875 123.99 149.216 123.659 149.568C123.339 149.909 123.019 150.245 122.699 150.576C122.39 150.896 122.107 151.184 121.851 151.44C122.182 151.717 122.523 152.043 122.875 152.416C123.238 152.779 123.59 153.168 123.931 153.584C124.283 153.989 124.608 154.405 124.907 154.832C125.206 155.248 125.456 155.637 125.659 156H123.419C123.216 155.68 122.976 155.344 122.699 154.992C122.432 154.64 122.15 154.299 121.851 153.968C121.552 153.627 121.248 153.307 120.939 153.008C120.63 152.709 120.331 152.453 120.043 152.24V156H118.107V147.632H120.043V150.992ZM129.06 153.872C129.081 154.053 129.092 154.187 129.092 154.272C129.092 154.357 129.092 154.443 129.092 154.528C129.092 155.189 128.985 155.872 128.772 156.576C128.569 157.28 128.281 157.947 127.908 158.576L126.388 158.16C126.644 157.541 126.815 156.933 126.9 156.336C126.996 155.749 127.044 155.232 127.044 154.784C127.044 154.656 127.039 154.496 127.028 154.304C127.028 154.112 127.023 153.968 127.012 153.872H129.06ZM137.028 150.512C136.996 150.96 136.964 151.429 136.932 151.92C136.9 152.4 136.873 152.88 136.852 153.36C136.83 153.84 136.809 154.304 136.788 154.752C136.766 155.2 136.75 155.616 136.74 156H134.868C134.889 155.381 134.921 154.715 134.964 154C135.006 153.275 135.054 152.544 135.108 151.808C135.172 151.061 135.236 150.331 135.3 149.616C135.364 148.901 135.433 148.24 135.508 147.632H137.188C137.593 148.283 138.004 149.051 138.42 149.936C138.836 150.811 139.3 151.808 139.812 152.928C140.345 151.787 140.83 150.757 141.268 149.84C141.705 148.912 142.094 148.176 142.436 147.632H144.132C144.206 148.24 144.276 148.901 144.34 149.616C144.414 150.331 144.478 151.061 144.532 151.808C144.585 152.544 144.633 153.275 144.676 154C144.718 154.715 144.75 155.381 144.772 156H142.852C142.83 155.125 142.793 154.224 142.74 153.296C142.697 152.357 142.644 151.429 142.58 150.512C142.42 150.832 142.244 151.189 142.052 151.584C141.87 151.979 141.689 152.379 141.508 152.784C141.326 153.189 141.15 153.584 140.98 153.968C140.809 154.341 140.66 154.672 140.532 154.96H139.092C138.964 154.672 138.809 154.336 138.628 153.952C138.457 153.568 138.281 153.173 138.1 152.768C137.918 152.363 137.732 151.968 137.54 151.584C137.358 151.189 137.188 150.832 137.028 150.512ZM148.981 150.512C148.949 150.96 148.917 151.429 148.885 151.92C148.853 152.4 148.826 152.88 148.805 153.36C148.784 153.84 148.762 154.304 148.741 154.752C148.72 155.2 148.704 155.616 148.693 156H146.821C146.842 155.381 146.874 154.715 146.917 154C146.96 153.275 147.008 152.544 147.061 151.808C147.125 151.061 147.189 150.331 147.253 149.616C147.317 148.901 147.386 148.24 147.461 147.632H149.141C149.546 148.283 149.957 149.051 150.373 149.936C150.789 150.811 151.253 151.808 151.765 152.928C152.298 151.787 152.784 150.757 153.221 149.84C153.658 148.912 154.048 148.176 154.389 147.632H156.085C156.16 148.24 156.229 148.901 156.293 149.616C156.368 150.331 156.432 151.061 156.485 151.808C156.538 152.544 156.586 153.275 156.629 154C156.672 154.715 156.704 155.381 156.725 156H154.805C154.784 155.125 154.746 154.224 154.693 153.296C154.65 152.357 154.597 151.429 154.533 150.512C154.373 150.832 154.197 151.189 154.005 151.584C153.824 151.979 153.642 152.379 153.461 152.784C153.28 153.189 153.104 153.584 152.933 153.968C152.762 154.341 152.613 154.672 152.485 154.96H151.045C150.917 154.672 150.762 154.336 150.581 153.952C150.41 153.568 150.234 153.173 150.053 152.768C149.872 152.363 149.685 151.968 149.493 151.584C149.312 151.189 149.141 150.832 148.981 150.512ZM161.158 148.96C161.158 149.333 161.03 149.637 160.774 149.872C160.529 150.107 160.23 150.224 159.878 150.224C159.515 150.224 159.211 150.107 158.966 149.872C158.721 149.637 158.598 149.333 158.598 148.96C158.598 148.587 158.721 148.283 158.966 148.048C159.211 147.803 159.515 147.68 159.878 147.68C160.23 147.68 160.529 147.803 160.774 148.048C161.03 148.283 161.158 148.587 161.158 148.96ZM161.158 154.944C161.158 155.317 161.03 155.621 160.774 155.856C160.529 156.091 160.23 156.208 159.878 156.208C159.515 156.208 159.211 156.091 158.966 155.856C158.721 155.621 158.598 155.317 158.598 154.944C158.598 154.571 158.721 154.267 158.966 154.032C159.211 153.787 159.515 153.664 159.878 153.664C160.23 153.664 160.529 153.787 160.774 154.032C161.03 154.267 161.158 154.571 161.158 154.944Z" fill="#828D99"/>
<line x1="166.5" y1="158.5" x2="572.5" y2="158.5" stroke="#A6ACB3" stroke-linecap="round" stroke-dasharray="2 2"/>
<path d="M578.44 147.216C579.059 146.971 579.677 146.656 580.296 146.272C580.925 145.888 581.48 145.435 581.96 144.912H583.32V156H581.384V147.504C581.096 147.728 580.733 147.947 580.296 148.16C579.859 148.373 579.437 148.549 579.032 148.688L578.44 147.216ZM589.326 153.872C589.347 154.053 589.358 154.187 589.358 154.272C589.358 154.357 589.358 154.443 589.358 154.528C589.358 155.189 589.251 155.872 589.038 156.576C588.835 157.28 588.547 157.947 588.174 158.576L586.654 158.16C586.91 157.541 587.08 156.933 587.166 156.336C587.262 155.749 587.31 155.232 587.31 154.784C587.31 154.656 587.304 154.496 587.294 154.304C587.294 154.112 587.288 153.968 587.278 153.872H589.326ZM594.967 150.256C595.276 150.256 595.58 150.229 595.879 150.176C596.178 150.112 596.434 150.021 596.647 149.904C596.658 149.787 596.663 149.685 596.663 149.6C596.663 149.515 596.663 149.44 596.663 149.376C596.663 148.949 596.631 148.549 596.567 148.176C596.514 147.792 596.412 147.461 596.263 147.184C596.124 146.896 595.927 146.672 595.671 146.512C595.426 146.341 595.116 146.256 594.743 146.256C594.434 146.256 594.167 146.32 593.943 146.448C593.73 146.576 593.554 146.741 593.415 146.944C593.276 147.147 593.175 147.365 593.111 147.6C593.047 147.835 593.015 148.064 593.015 148.288C593.015 148.939 593.17 149.429 593.479 149.76C593.799 150.091 594.295 150.256 594.967 150.256ZM596.487 151.424C596.231 151.541 595.948 151.632 595.639 151.696C595.33 151.76 595.031 151.792 594.743 151.792C594.082 151.792 593.516 151.707 593.047 151.536C592.588 151.355 592.21 151.109 591.911 150.8C591.623 150.48 591.41 150.112 591.271 149.696C591.132 149.28 591.063 148.832 591.063 148.352C591.063 147.936 591.132 147.515 591.271 147.088C591.41 146.651 591.628 146.251 591.927 145.888C592.226 145.525 592.604 145.232 593.063 145.008C593.522 144.773 594.066 144.656 594.695 144.656C595.996 144.656 596.978 145.077 597.639 145.92C598.311 146.752 598.647 147.931 598.647 149.456C598.647 151.611 598.092 153.243 596.983 154.352C595.874 155.461 594.172 156.021 591.879 156.032L591.799 154.416C592.439 154.416 593.015 154.363 593.527 154.256C594.05 154.149 594.503 153.979 594.887 153.744C595.282 153.509 595.612 153.205 595.879 152.832C596.146 152.448 596.348 151.979 596.487 151.424Z" fill="#A6ACB3"/>
</svg>
