<svg width="20" height="19" viewBox="0 0 20 19" fill="none" xmlns="http://www.w3.org/2000/svg">
<path d="M5.02079 18.0931C3.43875 17.1944 2.13602 15.8894 1.25266 14.3183C0.369297 12.7473 -0.0613238 10.9697 0.00703953 9.17639C0.0754028 7.38312 0.640168 5.64204 1.64067 4.14023C2.64118 2.63843 4.03959 1.43267 5.68564 0.652533C5.39892 1.11336 5.28445 1.65776 5.36177 2.1924C5.5419 2.95193 5.92431 3.65085 6.46989 4.21765L9.04411 6.32659C9.38507 6.59439 9.62377 6.64461 9.86244 7.07978C8.3963 7.83298 4.23657 8.23468 3.57169 13.256C3.4466 14.112 3.50804 14.9844 3.75197 15.8154C3.99589 16.6463 4.41678 17.417 4.98671 18.0764L5.02079 18.0931ZM15.2156 1.12119C16.8153 2.08833 18.1072 3.47604 18.9449 5.12709C19.7825 6.77813 20.1325 8.62651 19.955 10.4628C19.7776 12.2991 19.0798 14.0499 17.9409 15.5168C16.8019 16.9837 15.2672 18.1081 13.5108 18.7626C14.9338 17.7099 15.9154 16.1823 16.2702 14.468C16.6251 12.7537 16.3288 10.9711 15.4371 9.45653C13.8346 7.02957 10.8001 5.65708 8.34519 4.0168C4.2707 1.27183 7.47569 -0.401937 9.89652 0.0834539C11.7036 0.451682 12.5731 2.47694 13.5108 2.79495C13.7212 2.86636 13.9468 2.88331 14.1659 2.84417C14.385 2.80503 14.5901 2.71112 14.7615 2.57149C14.9328 2.43187 15.0646 2.25124 15.1441 2.04705C15.2237 1.84285 15.2483 1.62197 15.2156 1.40573C15.2491 1.34098 15.2776 1.27384 15.3008 1.20488L15.2156 1.12119ZM10.9024 7.89993C12.0276 9.47326 14.0052 10.5779 13.8347 14.2602C13.5789 19.9343 8.53269 20.1853 6.93017 16.7541C5.78795 14.3439 5.78798 8.40206 10.9024 7.89993Z" fill="#00949F"/>
</svg>
