<svg width="87" height="24" viewBox="0 0 87 24" fill="none" xmlns="http://www.w3.org/2000/svg">
<path d="M0.767578 11.6392C0.767578 5.21103 6.00874 0 12.474 0H74.6247C81.09 0 86.3312 5.21103 86.3312 11.6392C86.3312 18.0673 81.09 23.2783 74.6247 23.2783H12.474C6.00874 23.2783 0.767578 18.0673 0.767578 11.6392Z" fill="white"/>
<path d="M38.1362 14.3964C38.2143 14.4034 38.303 14.4105 38.4023 14.4175C38.5087 14.4175 38.6329 14.4175 38.7748 14.4175C39.6049 14.4175 40.2186 14.2094 40.6159 13.7932C41.0203 13.3771 41.2225 12.8021 41.2225 12.0685C41.2225 11.2996 41.0309 10.7177 40.6478 10.3227C40.2647 9.92763 39.6581 9.73011 38.828 9.73011C38.7145 9.73011 38.5974 9.73364 38.4768 9.74069C38.3562 9.74069 38.2426 9.74775 38.1362 9.76186V14.3964ZM42.9359 12.0685C42.9359 12.7034 42.8365 13.2571 42.6379 13.7298C42.4392 14.2024 42.1554 14.5939 41.7865 14.9043C41.4247 15.2146 40.9812 15.4474 40.4562 15.6026C39.9312 15.7578 39.3423 15.8354 38.6896 15.8354C38.3916 15.8354 38.044 15.8213 37.6467 15.7931C37.2494 15.7719 36.8592 15.7225 36.476 15.6449V8.50271C36.8592 8.43217 37.2565 8.38632 37.668 8.36516C38.0866 8.33694 38.4448 8.32283 38.7428 8.32283C39.3743 8.32283 39.9454 8.39337 40.4562 8.53445C40.9742 8.67553 41.4176 8.89774 41.7865 9.20106C42.1554 9.50438 42.4392 9.89236 42.6379 10.365C42.8365 10.8376 42.9359 11.4054 42.9359 12.0685Z" fill="#333333"/>
<path d="M44.3226 15.7402V8.40748H49.3032V9.7936H45.9828V11.2326H48.9307V12.587H45.9828V14.354H49.5479V15.7402H44.3226Z" fill="#333333"/>
<path d="M55.7039 14.3223V15.7402H50.7765V8.40748H52.4367V14.3223H55.7039Z" fill="#333333"/>
<path d="M61.4119 8.40748V9.81476H59.1877V15.7402H57.5275V9.81476H55.3032V8.40748H61.4119Z" fill="#333333"/>
<path d="M66.5439 15.7402C66.4658 15.4862 66.3771 15.2252 66.2778 14.9572C66.1856 14.6891 66.0933 14.4211 66.0011 14.153H63.1277C63.0355 14.4211 62.9397 14.6891 62.8404 14.9572C62.7481 15.2252 62.663 15.4862 62.5849 15.7402H60.8609C61.1376 14.9501 61.4001 14.22 61.6484 13.5499C61.8967 12.8797 62.138 12.2484 62.3721 11.6559C62.6133 11.0633 62.8474 10.5025 63.0745 9.97348C63.3086 9.43737 63.5498 8.91537 63.7981 8.40748H65.3839C65.6251 8.91537 65.8627 9.43737 66.0969 9.97348C66.331 10.5025 66.5651 11.0633 66.7993 11.6559C67.0405 12.2484 67.2853 12.8797 67.5336 13.5499C67.7819 14.22 68.0444 14.9501 68.3211 15.7402H66.5439ZM64.5538 10.0687C64.5183 10.1745 64.4651 10.3191 64.3941 10.5025C64.3232 10.6859 64.2416 10.8976 64.1493 11.1374C64.0571 11.3772 63.9542 11.6418 63.8407 11.931C63.7343 12.2202 63.6243 12.5235 63.5108 12.8409H65.6073C65.4938 12.5235 65.3839 12.2202 65.2774 11.931C65.171 11.6418 65.0681 11.3772 64.9688 11.1374C64.8766 10.8976 64.795 10.6859 64.724 10.5025C64.6531 10.3191 64.5963 10.1745 64.5538 10.0687Z" fill="#333333"/>
<path d="M16.0032 19.1248C14.69 18.364 13.6086 17.2593 12.8753 15.9294C12.1421 14.5996 11.7846 13.0948 11.8414 11.5769C11.8981 10.0589 12.3669 8.58508 13.1974 7.31383C14.0279 6.04257 15.1888 5.02192 16.5551 4.36154C16.3171 4.75162 16.2221 5.21245 16.2863 5.66501C16.4358 6.30795 16.7532 6.89957 17.2061 7.37936L19.343 9.16455C19.626 9.39124 19.8241 9.43374 20.0223 9.80211C18.8052 10.4397 15.3523 10.7797 14.8004 15.0302C14.6965 15.7548 14.7475 16.4932 14.95 17.1966C15.1525 17.9001 15.5019 18.5524 15.975 19.1106L16.0032 19.1248ZM24.4659 4.75825C25.7938 5.57693 26.8662 6.7516 27.5616 8.14919C28.2569 9.54677 28.5474 11.1114 28.4001 12.6658C28.2528 14.2202 27.6736 15.7022 26.7281 16.9439C25.7827 18.1856 24.5088 19.1374 23.0507 19.6915C24.232 18.8004 25.0468 17.5073 25.3413 16.0561C25.6359 14.605 25.3899 13.0961 24.6498 11.814C23.3196 9.75961 20.8006 8.59782 18.7628 7.20934C15.3806 4.88576 18.041 3.46895 20.0506 3.87982C21.5506 4.19152 22.2724 5.90587 23.0507 6.17507C23.2254 6.23551 23.4127 6.24986 23.5946 6.21673C23.7764 6.1836 23.9467 6.1041 24.0889 5.98591C24.2312 5.86772 24.3405 5.71483 24.4066 5.54198C24.4726 5.36913 24.493 5.18216 24.4659 4.99911C24.4937 4.9443 24.5173 4.88747 24.5366 4.82909L24.4659 4.75825ZM20.8855 10.4964C21.8195 11.8282 23.4611 12.7633 23.3196 15.8802C23.1073 20.6833 18.9184 20.8958 17.5882 17.9913C16.6401 15.9511 16.6401 10.9214 20.8855 10.4964Z" fill="#00949F"/>
</svg>
