<svg width="22" height="20" viewBox="0 0 22 20" fill="none" xmlns="http://www.w3.org/2000/svg">
<path d="M5.7744 19.0454C4.09029 18.0994 2.70352 16.7257 1.76316 15.0719C0.82281 13.4182 0.364407 11.547 0.437181 9.65935C0.509955 7.7717 1.11116 5.93899 2.17621 4.35814C3.24127 2.77729 4.7299 1.50808 6.48214 0.686877C6.17693 1.17196 6.05507 1.74501 6.13738 2.30778C6.32913 3.1073 6.73621 3.843 7.31699 4.43963L10.0573 6.65957C10.4203 6.94147 10.6743 6.99432 10.9284 7.4524C9.36769 8.24524 4.93958 8.66808 4.23181 13.9537C4.09865 14.8547 4.16405 15.773 4.42372 16.6477C4.68338 17.5225 5.13142 18.3337 5.73813 19.0278L5.7744 19.0454ZM16.6269 1.1802C18.3299 2.19825 19.7051 3.65899 20.5968 5.39694C21.4885 7.13488 21.861 9.08054 21.6721 11.0135C21.4832 12.9464 20.7405 14.7893 19.528 16.3335C18.3156 17.8776 16.6819 19.0612 14.8121 19.7502C16.327 18.642 17.3719 17.034 17.7496 15.2295C18.1274 13.4249 17.8119 11.5486 16.8628 9.95424C15.1569 7.39955 11.9266 5.95483 9.31328 4.22821C4.97591 1.33876 8.38768 -0.423092 10.9647 0.0878462C12.8884 0.475454 13.814 2.6073 14.8121 2.94205C15.0361 3.01722 15.2763 3.03507 15.5095 2.99387C15.7428 2.95267 15.9611 2.85381 16.1435 2.70684C16.3259 2.55986 16.4662 2.36973 16.5509 2.15479C16.6355 1.93984 16.6617 1.70734 16.6269 1.47971C16.6626 1.41156 16.6929 1.34089 16.7176 1.26829L16.6269 1.1802ZM12.0355 8.31571C13.2332 9.97186 15.3384 11.1347 15.1569 15.0108C14.8847 20.9835 9.51287 21.2477 7.80696 17.6359C6.59105 15.0989 6.59108 8.84427 12.0355 8.31571Z" fill="#8CA7DD"/>
</svg>
