<svg width="21" height="21" viewBox="0 0 21 21" fill="none" xmlns="http://www.w3.org/2000/svg">
<path d="M10.4863 0.171877C13.0455 0.170485 15.5132 1.12037 17.406 2.83553C13.9283 2.83553 8.73855 2.83553 7.2048 3.03086C6.11251 3.15773 5.06758 3.54735 4.16031 4.1661C3.25303 4.78485 2.51059 5.61414 1.99709 6.58239C1.31879 7.89163 0.992926 9.35356 1.05116 10.8256C1.1094 12.2976 1.54979 13.7295 2.32941 14.9816C3.10904 16.2336 4.20123 17.2631 5.49952 17.9696C6.79781 18.6761 8.25788 19.0355 9.73724 19.0128C11.1709 19.1342 12.6102 18.8544 13.8927 18.2049C15.1752 17.5555 16.25 16.5621 16.9958 15.3369C17.6297 14.014 17.7985 12.5173 17.475 11.0873C17.1516 9.65732 16.3547 8.37715 15.2124 7.45252C14.7844 7.07961 14.499 6.831 13.9997 6.45809C13.5571 6.18998 13.1284 5.89956 12.7155 5.58796H19.5461C20.6372 7.56342 21.0459 9.84117 20.7093 12.0706C20.3728 14.3 19.3096 16.3575 17.6836 17.9263C16.0575 19.4951 13.9587 20.4883 11.7102 20.7529C9.46166 21.0176 7.18808 20.5391 5.23947 19.391C3.29086 18.2429 1.7752 16.489 0.925873 14.3991C0.0765452 12.3093 -0.0593558 9.99946 0.539013 7.82516C1.13738 5.65086 2.43688 3.73265 4.23748 2.36582C6.03809 0.99899 8.23992 0.259317 10.5041 0.260665L10.4863 0.171877ZM9.14868 5.58796C9.5767 5.58796 10.0404 5.58796 10.4863 5.58796C10.9321 5.58796 11.1818 5.58796 11.5385 5.94312C12.0383 6.38965 12.4869 6.88991 12.8761 7.43476C13.7602 8.59139 14.3092 9.96709 14.4634 11.4125C14.7152 13.0361 14.3666 14.6956 13.4824 16.0827C13.0556 16.7005 12.4689 17.1917 11.7844 17.5043C11.1 17.8169 10.3432 17.9393 9.59454 17.8585C8.87283 17.801 8.17041 17.5982 7.52972 17.2624C6.88903 16.9267 6.32345 16.4649 5.86722 15.9052C4.93078 14.7945 4.35813 13.425 4.22638 11.9807C3.79836 7.86094 5.51047 5.85433 9.14868 5.53469V5.58796Z" fill="#224386"/>
</svg>
