<svg width="510" height="510" viewBox="0 0 510 510" fill="none" xmlns="http://www.w3.org/2000/svg">
<g clip-path="url(#clip0_258_19681)">
<rect x="0.470703" y="0.078125" width="509" height="509" rx="2" fill="#E9EDF5"/>
<rect x="0.970703" y="0.578125" width="508" height="508" rx="1.5" stroke="#A6ACB3"/>
</g>
<rect x="221.471" y="227.078" width="68" height="56" rx="4" fill="#E9EDF5"/>
<path fill-rule="evenodd" clip-rule="evenodd" d="M285.471 227.078H225.471C223.262 227.078 221.471 228.869 221.471 231.078V279.078C221.471 281.287 223.262 283.078 225.471 283.078H285.471C287.68 283.078 289.471 281.287 289.471 279.078V231.078C289.471 228.869 287.68 227.078 285.471 227.078ZM225.471 279.078V231.078H285.471V279.078H225.471Z" fill="#C3D3E5"/>
<path fill-rule="evenodd" clip-rule="evenodd" d="M232.471 243.578C232.471 247.72 235.829 251.078 239.971 251.078C244.113 251.078 247.471 247.72 247.471 243.578C247.471 239.436 244.113 236.078 239.971 236.078C235.829 236.078 232.471 239.436 232.471 243.578ZM243.471 243.578C243.471 245.511 241.904 247.078 239.971 247.078C238.038 247.078 236.471 245.511 236.471 243.578C236.471 241.645 238.038 240.078 239.971 240.078C241.904 240.078 243.471 241.645 243.471 243.578Z" fill="#C3D3E5"/>
<path d="M235.879 274.5C235.094 275.278 233.828 275.272 233.05 274.488C232.273 273.703 232.278 272.437 233.063 271.659L249.512 255.352L258.783 263.416C259.617 264.141 259.705 265.404 258.98 266.237C258.255 267.071 256.992 267.159 256.158 266.434L249.69 260.808L235.879 274.5Z" fill="#C3D3E5"/>
<path d="M250.885 274.493C250.104 275.274 248.838 275.274 248.057 274.493C247.275 273.712 247.275 272.446 248.056 271.665L274.379 245.34L288.79 257.984C289.62 258.713 289.703 259.976 288.974 260.807C288.246 261.637 286.982 261.719 286.152 260.991L274.558 250.818L250.885 274.493Z" fill="#C3D3E5"/>
<defs>
<clipPath id="clip0_258_19681">
<rect width="509" height="509" fill="white" transform="translate(0.470703 0.078125)"/>
</clipPath>
</defs>
</svg>
