<svg width="87" height="24" viewBox="0 0 87 24" fill="none" xmlns="http://www.w3.org/2000/svg">
<path d="M0.620605 11.6392C0.620605 5.21103 5.86177 0 12.3271 0H74.4777C80.943 0 86.1842 5.21103 86.1842 11.6392C86.1842 18.0673 80.943 23.2783 74.4777 23.2783H12.3271C5.86177 23.2783 0.620605 18.0673 0.620605 11.6392Z" fill="white"/>
<path d="M37.7232 12.0685C37.7232 12.4283 37.7658 12.7528 37.8509 13.042C37.9431 13.3312 38.0708 13.5816 38.234 13.7932C38.4043 13.9978 38.6101 14.1565 38.8513 14.2694C39.0925 14.3823 39.3692 14.4387 39.6814 14.4387C39.9864 14.4387 40.2596 14.3823 40.5008 14.2694C40.7491 14.1565 40.9549 13.9978 41.1181 13.7932C41.2883 13.5816 41.416 13.3312 41.5012 13.042C41.5934 12.7528 41.6395 12.4283 41.6395 12.0685C41.6395 11.7088 41.5934 11.3843 41.5012 11.0951C41.416 10.7988 41.2883 10.5484 41.1181 10.3438C40.9549 10.1322 40.7491 9.96995 40.5008 9.85709C40.2596 9.74422 39.9864 9.68779 39.6814 9.68779C39.3692 9.68779 39.0925 9.74775 38.8513 9.86767C38.6101 9.98053 38.4043 10.1428 38.234 10.3544C38.0708 10.559 37.9431 10.8094 37.8509 11.1057C37.7658 11.3949 37.7232 11.7158 37.7232 12.0685ZM43.3529 12.0685C43.3529 12.6963 43.2572 13.2501 43.0656 13.7298C42.8811 14.2024 42.6257 14.6009 42.2994 14.9254C41.973 15.2428 41.5828 15.4827 41.1287 15.6449C40.6817 15.8072 40.1993 15.8883 39.6814 15.8883C39.1776 15.8883 38.7023 15.8072 38.2553 15.6449C37.8083 15.4827 37.4181 15.2428 37.0847 14.9254C36.7512 14.6009 36.4887 14.2024 36.2971 13.7298C36.1056 13.2501 36.0098 12.6963 36.0098 12.0685C36.0098 11.4407 36.1091 10.8905 36.3078 10.4179C36.5064 9.93821 36.7725 9.53613 37.1059 9.21164C37.4465 8.88715 37.8367 8.64379 38.2766 8.48155C38.7236 8.3193 39.1918 8.23818 39.6814 8.23818C40.1851 8.23818 40.6604 8.3193 41.1074 8.48155C41.5544 8.64379 41.9446 8.88715 42.2781 9.21164C42.6115 9.53613 42.874 9.93821 43.0656 10.4179C43.2572 10.8905 43.3529 11.4407 43.3529 12.0685Z" fill="#333333"/>
<path d="M46.695 8.40748C46.8227 8.64026 46.9682 8.92948 47.1313 9.27513C47.3016 9.61372 47.4754 9.98406 47.6528 10.3861C47.8373 10.7812 48.0182 11.1868 48.1956 11.603C48.3729 12.0191 48.5397 12.4106 48.6958 12.7775C48.8518 12.4106 49.0186 12.0191 49.1959 11.603C49.3733 11.1868 49.5507 10.7812 49.7281 10.3861C49.9125 9.98406 50.0863 9.61372 50.2495 9.27513C50.4198 8.92948 50.5688 8.64026 50.6965 8.40748H52.2077C52.2786 8.89421 52.3425 9.4409 52.3993 10.0475C52.4631 10.6471 52.5163 11.2749 52.5589 11.931C52.6086 12.5799 52.6511 13.2324 52.6866 13.8885C52.7292 14.5445 52.7646 15.1617 52.793 15.7402H51.1754C51.1541 15.0277 51.1257 14.2518 51.0903 13.4123C51.0548 12.5729 51.0016 11.7264 50.9306 10.8729C50.8029 11.1691 50.661 11.4972 50.5049 11.8569C50.3489 12.2167 50.1928 12.5764 50.0367 12.9362C49.8877 13.2959 49.7422 13.6416 49.6003 13.9731C49.4585 14.2976 49.3378 14.5762 49.2385 14.809H48.0785C47.9792 14.5762 47.8586 14.2976 47.7167 13.9731C47.5748 13.6416 47.4258 13.2959 47.2697 12.9362C47.1207 12.5764 46.9682 12.2167 46.8121 11.8569C46.656 11.4972 46.5141 11.1691 46.3864 10.8729C46.3154 11.7264 46.2622 12.5729 46.2268 13.4123C46.1913 14.2518 46.1629 15.0277 46.1416 15.7402H44.524C44.5524 15.1617 44.5843 14.5445 44.6198 13.8885C44.6623 13.2324 44.7049 12.5799 44.7475 11.931C44.7972 11.2749 44.8504 10.6471 44.9071 10.0475C44.971 9.4409 45.0384 8.89421 45.1093 8.40748H46.695Z" fill="#333333"/>
<path d="M54.2878 15.7402V8.40748H59.2684V9.7936H55.948V11.2326H58.8959V12.587H55.948V14.354H59.5132V15.7402H54.2878Z" fill="#333333"/>
<path d="M64.3389 9.67721C63.5655 9.67721 63.005 9.89236 62.6574 10.3227C62.3168 10.7459 62.1466 11.3279 62.1466 12.0685C62.1466 12.4283 62.1891 12.7563 62.2743 13.0526C62.3594 13.3418 62.4871 13.5922 62.6574 13.8038C62.8277 14.0154 63.0405 14.1812 63.2959 14.3011C63.5513 14.414 63.8493 14.4704 64.1899 14.4704C64.3743 14.4704 64.5304 14.4669 64.6581 14.4598C64.7929 14.4528 64.91 14.4387 65.0093 14.4175V11.8675H66.6695V15.4968C66.4708 15.5744 66.1516 15.6555 65.7117 15.7402C65.2718 15.8319 64.7291 15.8777 64.0834 15.8777C63.53 15.8777 63.0263 15.7931 62.5722 15.6238C62.1253 15.4545 61.7421 15.2076 61.4229 14.8831C61.1036 14.5586 60.8553 14.1601 60.6779 13.6874C60.5076 13.2148 60.4225 12.6752 60.4225 12.0685C60.4225 11.4548 60.5183 10.9117 60.7099 10.439C60.9014 9.96642 61.1639 9.56787 61.4974 9.24338C61.8308 8.91184 62.221 8.66143 62.668 8.49213C63.1221 8.32283 63.6045 8.23818 64.1154 8.23818C64.463 8.23818 64.7752 8.26287 65.0519 8.31225C65.3357 8.35457 65.5769 8.40748 65.7756 8.47097C65.9813 8.5274 66.148 8.58736 66.2757 8.65084C66.4105 8.71433 66.5063 8.76371 66.5631 8.79898L66.0842 10.1216C65.8571 10.0017 65.5946 9.89941 65.2967 9.81476C65.0058 9.72306 64.6865 9.67721 64.3389 9.67721Z" fill="#333333"/>
<path d="M73.1522 15.7402C73.0742 15.4862 72.9855 15.2252 72.8862 14.9572C72.7939 14.6891 72.7017 14.4211 72.6095 14.153H69.736C69.6438 14.4211 69.548 14.6891 69.4487 14.9572C69.3565 15.2252 69.2713 15.4862 69.1933 15.7402H67.4693C67.7459 14.9501 68.0085 14.22 68.2568 13.5499C68.5051 12.8797 68.7463 12.2484 68.9805 11.6559C69.2217 11.0633 69.4558 10.5025 69.6828 9.97348C69.917 9.43737 70.1582 8.91537 70.4065 8.40748H71.9922C72.2334 8.91537 72.4711 9.43737 72.7052 9.97348C72.9394 10.5025 73.1735 11.0633 73.4076 11.6559C73.6488 12.2484 73.8936 12.8797 74.1419 13.5499C74.3903 14.22 74.6528 14.9501 74.9295 15.7402H73.1522ZM71.1621 10.0687C71.1266 10.1745 71.0734 10.3191 71.0025 10.5025C70.9315 10.6859 70.8499 10.8976 70.7577 11.1374C70.6655 11.3772 70.5626 11.6418 70.4491 11.931C70.3427 12.2202 70.2327 12.5235 70.1192 12.8409H72.2157C72.1022 12.5235 71.9922 12.2202 71.8858 11.931C71.7794 11.6418 71.6765 11.3772 71.5772 11.1374C71.4849 10.8976 71.4033 10.6859 71.3324 10.5025C71.2614 10.3191 71.2047 10.1745 71.1621 10.0687Z" fill="#333333"/>
<path d="M24.8278 18.3283C23.4037 19.3451 21.6915 19.8924 19.9345 19.8924C18.1776 19.8924 16.4654 19.3451 15.0413 18.3283H17.5422V16.6284C17.5422 16.5284 17.0072 16.1427 16.8482 15.9855C16.6145 15.762 16.4017 15.5182 16.2122 15.257C16.0775 15.0776 15.952 14.8917 15.8363 14.6999C15.1505 13.5254 14.9097 12.1481 15.1569 10.8143C15.1868 10.6552 15.2254 10.4978 15.2726 10.3429C15.3112 10.1877 15.3594 10.035 15.4171 9.88573C15.5484 9.55489 15.7234 9.24267 15.9375 8.95719L16.0532 8.78577C16.1476 8.67933 16.2491 8.57912 16.3568 8.48577C16.6519 8.19032 16.9937 7.94425 17.3687 7.75723C17.796 7.54171 18.2542 7.39235 18.7275 7.31438C19.7338 7.13098 20.7714 7.21478 21.7343 7.55723L22.804 8.14293L22.9631 8.28578C23.1221 8.44292 22.9631 8.28578 23.2377 8.5572C23.377 8.69778 23.5028 8.85081 23.6135 9.01433L23.8159 9.35717C23.8863 9.4868 23.9491 9.62035 24.0038 9.75716C24.2443 10.3723 24.3669 11.0262 24.3652 11.6857C24.3724 12.8242 24.0461 13.9405 23.4256 14.8998C23.3101 15.0862 23.1797 15.2629 23.0353 15.4284C22.9682 15.5182 22.8958 15.6041 22.8185 15.6855C22.6686 15.847 22.5093 15.9996 22.3414 16.1427L22.0812 16.3569L21.9511 16.4569C21.9511 16.4569 21.8499 16.4569 21.8499 16.5855V18.2855L24.8278 18.3283ZM19.9273 3.38594C21.4233 3.38459 22.8922 3.78016 24.1806 4.53136C25.4691 5.28257 26.5299 6.36184 27.2521 7.65647C27.9744 8.95111 28.3317 10.4136 28.2866 11.8913C28.2416 13.369 27.7959 14.8076 26.9962 16.057H25.4494C25.825 15.4436 26.1212 14.7861 26.3312 14.0999C26.4986 13.517 26.6052 12.9186 26.6493 12.3142C26.7143 11.5738 26.6704 10.828 26.5191 10.1C25.6951 6.08585 21.8355 4.2002 17.6722 5.22874C17.1685 5.37294 16.6835 5.57427 16.2266 5.82872C15.8431 6.03045 15.4842 6.27489 15.1569 6.55727L14.9835 6.70012C14.5519 7.08981 14.1772 7.53693 13.8704 8.02865C13.7075 8.27282 13.5672 8.531 13.4512 8.80005C13.3853 8.93961 13.3274 9.08268 13.2777 9.22861C12.6995 10.8952 12.6995 12.7047 13.2777 14.3713C13.4195 14.8114 13.6034 15.2371 13.827 15.6427C13.9093 15.7705 13.9818 15.9042 14.0438 16.0427H12.9741C12.1831 14.8018 11.7409 13.375 11.6929 11.9092C11.6449 10.4434 11.9928 8.99143 12.7009 7.70254C13.4089 6.41366 14.4516 5.3344 15.7217 4.57574C16.9918 3.81708 18.4434 3.40641 19.9273 3.38594Z" fill="#B92F2C"/>
</svg>
