<svg width="22" height="21" viewBox="0 0 22 21" fill="none" xmlns="http://www.w3.org/2000/svg">
<path d="M17.2678 19.0101C15.4415 20.3037 13.2458 21 10.9927 21C8.73959 21 6.54381 20.3037 4.71753 19.0101H7.92469V16.8474C7.92469 16.7202 7.2387 16.2295 7.03478 16.0296C6.73508 15.7452 6.46208 15.435 6.2191 15.1027C6.04636 14.8745 5.88548 14.638 5.7371 14.3939C4.85756 12.8997 4.54878 11.1475 4.86586 9.45054C4.90416 9.24813 4.95369 9.04792 5.0142 8.85079C5.06364 8.65336 5.12551 8.45913 5.19953 8.26922C5.36787 7.84832 5.59225 7.4511 5.86688 7.08791L6.01521 6.86982C6.13634 6.7344 6.26643 6.60691 6.40455 6.48816C6.78299 6.11227 7.22129 5.79922 7.70224 5.56128C8.25024 5.28709 8.83784 5.09708 9.44471 4.99788C10.7353 4.76455 12.0659 4.87117 13.3007 5.30684L14.6725 6.05198L14.8765 6.23372C15.0804 6.43364 14.8765 6.23372 15.2287 6.57903C15.4073 6.75788 15.5686 6.95257 15.7106 7.1606L15.9701 7.59678C16.0605 7.76169 16.1409 7.9316 16.2111 8.10566C16.5196 8.88822 16.6767 9.72022 16.6746 10.5592C16.6838 12.0077 16.2653 13.4278 15.4696 14.6483C15.3215 14.8854 15.1542 15.1103 14.9691 15.3208C14.883 15.4351 14.7901 15.5443 14.691 15.6479C14.4988 15.8533 14.2945 16.0475 14.0792 16.2295L13.7456 16.5021L13.5788 16.6293C13.5788 16.6293 13.449 16.6293 13.449 16.7929V18.9556L17.2678 19.0101ZM10.9834 4.41911e-06C12.9019 -0.00172048 14.7856 0.501544 16.4379 1.45724C18.0902 2.41294 19.4506 3.78602 20.3768 5.4331C21.303 7.08017 21.7612 8.94083 21.7034 10.8208C21.6457 12.7007 21.0742 14.531 20.0485 16.1204H18.065C18.5466 15.3401 18.9265 14.5036 19.1958 13.6306C19.4105 12.889 19.5472 12.1277 19.6036 11.3588C19.687 10.4169 19.6307 9.46801 19.4368 8.54183C18.3801 3.43491 13.4304 1.03593 8.09147 2.34446C7.44556 2.52791 6.82348 2.78406 6.23766 3.10778C5.74582 3.36443 5.28558 3.67541 4.86586 4.03466L4.64341 4.2164C4.08995 4.71217 3.6095 5.28102 3.21595 5.90659C3.00706 6.21724 2.82717 6.5457 2.67838 6.88799C2.59395 7.06554 2.5197 7.24756 2.45594 7.43321C1.71441 9.55353 1.71441 11.8556 2.45594 13.9759C2.63771 14.5358 2.87361 15.0774 3.16039 15.5934C3.26593 15.756 3.35882 15.9261 3.43839 16.1023H2.0666C1.05226 14.5235 0.485177 12.7084 0.423583 10.8436C0.361989 8.97874 0.808144 7.13147 1.71618 5.49171C2.62421 3.85195 3.96136 2.47889 5.59012 1.5137C7.21887 0.548515 9.0804 0.0260412 10.9834 4.41911e-06Z" fill="#B92F2C"/>
</svg>
