<svg width="372" height="326" viewBox="0 0 372 326" fill="none" xmlns="http://www.w3.org/2000/svg">
<rect width="372" height="326" rx="29" fill="#EDEDED"/>
<path d="M30.8633 31.6953H97.3299V98H30.8633V31.6953Z" fill="white" fill-opacity="0.01"/>
<path d="M30.8633 31.6953H97.3299V98H30.8633V31.6953Z" fill="white" fill-opacity="0.01"/>
<path d="M69.0803 57.3894V47.4437C69.0803 43.324 65.7325 39.9844 61.6028 39.9844L51.6328 62.3622V89.7129H80.5956C83.0813 89.7409 85.2079 87.9377 85.5806 85.486L89.0203 63.1081C89.2398 61.6656 88.8131 60.1998 87.8534 59.0988C86.8938 57.9978 85.4977 57.3728 84.0353 57.3894H69.0803Z" fill="#EDEDED" stroke="#224386" stroke-width="4" stroke-linejoin="round"/>
<path d="M51.6344 62.0867H44.9794C42.0595 62.0352 39.5633 64.448 39.1719 67.335V84.74C39.5633 87.627 42.0595 89.7644 44.9794 89.7129H51.6344V62.0867Z" fill="#EDEDED" stroke="#224386" stroke-width="4" stroke-linejoin="round"/>
<path d="M42.496 132.536V135.272H43.72C44.952 135.272 46.048 135.368 47.008 135.56C47.984 135.752 48.8 136.064 49.456 136.496C50.128 136.928 50.64 137.488 50.992 138.176C51.344 138.864 51.52 139.704 51.52 140.696C51.52 142.536 50.848 143.912 49.504 144.824C48.176 145.72 46.272 146.168 43.792 146.168C43.12 146.168 42.352 146.128 41.488 146.048C40.64 145.968 39.784 145.824 38.92 145.616V129.368H49.96V132.536H42.496ZM43.984 142.976C44.48 142.976 44.952 142.944 45.4 142.88C45.848 142.816 46.24 142.704 46.576 142.544C46.928 142.368 47.208 142.136 47.416 141.848C47.624 141.56 47.728 141.184 47.728 140.72C47.728 140.24 47.632 139.848 47.44 139.544C47.248 139.24 46.976 139 46.624 138.824C46.272 138.648 45.84 138.528 45.328 138.464C44.816 138.4 44.24 138.368 43.6 138.368H42.496V142.928C42.672 142.944 42.88 142.96 43.12 142.976C43.376 142.976 43.664 142.976 43.984 142.976ZM54.5294 146V129.368H65.7614V132.512H58.2734V135.776H64.9214V138.848H58.2734V142.856H66.3134V146H54.5294ZM70.5721 135.848H73.0921C73.5241 135.848 73.9241 135.816 74.2921 135.752C74.6761 135.688 75.0041 135.576 75.2761 135.416C75.5641 135.256 75.7881 135.048 75.9481 134.792C76.1081 134.536 76.1881 134.216 76.1881 133.832C76.1881 133.288 75.9721 132.88 75.5401 132.608C75.1081 132.336 74.5001 132.2 73.7161 132.2C72.8361 132.2 72.0681 132.304 71.4121 132.512C70.7561 132.704 70.1321 132.968 69.5401 133.304L68.3401 130.352C68.9801 129.952 69.7481 129.632 70.6441 129.392C71.5561 129.136 72.5881 129.008 73.7401 129.008C74.6361 129.008 75.4681 129.112 76.2361 129.32C77.0041 129.512 77.6681 129.808 78.2281 130.208C78.7881 130.592 79.2201 131.088 79.5241 131.696C79.8441 132.288 80.0041 132.984 80.0041 133.784C80.0041 134.392 79.8361 135 79.5001 135.608C79.1801 136.2 78.6841 136.704 78.0121 137.12C78.3801 137.312 78.7241 137.536 79.0441 137.792C79.3801 138.048 79.6681 138.344 79.9081 138.68C80.1641 139.016 80.3641 139.4 80.5081 139.832C80.6521 140.248 80.7241 140.72 80.7241 141.248C80.7241 143.024 80.0921 144.32 78.8281 145.136C77.5801 145.936 75.8361 146.336 73.5961 146.336C73.0361 146.336 72.4761 146.296 71.9161 146.216C71.3721 146.136 70.8441 146.04 70.3321 145.928C69.8361 145.8 69.3641 145.656 68.9161 145.496C68.4841 145.336 68.1001 145.168 67.7641 144.992L68.8681 142.064C69.0921 142.16 69.3641 142.272 69.6841 142.4C70.0201 142.512 70.3881 142.624 70.7881 142.736C71.1881 142.848 71.6041 142.944 72.0361 143.024C72.4681 143.104 72.9001 143.144 73.3321 143.144C74.3881 143.144 75.2361 142.992 75.8761 142.688C76.5321 142.384 76.8601 141.856 76.8601 141.104C76.8601 140.64 76.7561 140.264 76.5481 139.976C76.3401 139.688 76.0521 139.472 75.6841 139.328C75.3321 139.168 74.9081 139.064 74.4121 139.016C73.9321 138.952 73.4041 138.92 72.8281 138.92H70.5721V135.848ZM103.178 129.368V146H99.4341V132.536H93.2421V146H89.4981V129.368H103.178ZM110.173 137.672C110.173 138.488 110.269 139.224 110.461 139.88C110.669 140.536 110.957 141.104 111.325 141.584C111.709 142.048 112.173 142.408 112.717 142.664C113.261 142.92 113.885 143.048 114.589 143.048C115.277 143.048 115.893 142.92 116.437 142.664C116.997 142.408 117.461 142.048 117.829 141.584C118.213 141.104 118.501 140.536 118.693 139.88C118.901 139.224 119.005 138.488 119.005 137.672C119.005 136.856 118.901 136.12 118.693 135.464C118.501 134.792 118.213 134.224 117.829 133.76C117.461 133.28 116.997 132.912 116.437 132.656C115.893 132.4 115.277 132.272 114.589 132.272C113.885 132.272 113.261 132.408 112.717 132.68C112.173 132.936 111.709 133.304 111.325 133.784C110.957 134.248 110.669 134.816 110.461 135.488C110.269 136.144 110.173 136.872 110.173 137.672ZM122.869 137.672C122.869 139.096 122.653 140.352 122.221 141.44C121.805 142.512 121.229 143.416 120.493 144.152C119.757 144.872 118.877 145.416 117.853 145.784C116.845 146.152 115.757 146.336 114.589 146.336C113.453 146.336 112.381 146.152 111.373 145.784C110.365 145.416 109.485 144.872 108.733 144.152C107.981 143.416 107.389 142.512 106.957 141.44C106.525 140.352 106.309 139.096 106.309 137.672C106.309 136.248 106.533 135 106.981 133.928C107.429 132.84 108.029 131.928 108.781 131.192C109.549 130.456 110.429 129.904 111.421 129.536C112.429 129.168 113.485 128.984 114.589 128.984C115.725 128.984 116.797 129.168 117.805 129.536C118.813 129.904 119.693 130.456 120.445 131.192C121.197 131.928 121.789 132.84 122.221 133.928C122.653 135 122.869 136.248 122.869 137.672ZM133.574 146.336C130.87 146.336 128.806 145.584 127.382 144.08C125.974 142.576 125.27 140.44 125.27 137.672C125.27 136.296 125.486 135.072 125.918 134C126.35 132.912 126.942 132 127.694 131.264C128.446 130.512 129.342 129.944 130.382 129.56C131.422 129.176 132.55 128.984 133.766 128.984C134.47 128.984 135.11 129.04 135.686 129.152C136.262 129.248 136.766 129.368 137.198 129.512C137.63 129.64 137.99 129.776 138.278 129.92C138.566 130.064 138.774 130.176 138.902 130.256L137.822 133.28C137.31 133.008 136.71 132.776 136.022 132.584C135.35 132.392 134.582 132.296 133.718 132.296C133.142 132.296 132.574 132.392 132.014 132.584C131.47 132.776 130.982 133.088 130.55 133.52C130.134 133.936 129.798 134.48 129.542 135.152C129.286 135.824 129.158 136.64 129.158 137.6C129.158 138.368 129.238 139.088 129.398 139.76C129.574 140.416 129.846 140.984 130.214 141.464C130.598 141.944 131.094 142.328 131.702 142.616C132.31 142.888 133.046 143.024 133.91 143.024C134.454 143.024 134.942 142.992 135.374 142.928C135.806 142.864 136.19 142.792 136.526 142.712C136.862 142.616 137.158 142.512 137.414 142.4C137.67 142.288 137.902 142.184 138.11 142.088L139.142 145.088C138.614 145.408 137.87 145.696 136.91 145.952C135.95 146.208 134.838 146.336 133.574 146.336ZM146.545 129.176C149.025 129.176 150.929 129.616 152.257 130.496C153.585 131.36 154.249 132.784 154.249 134.768C154.249 136.768 153.577 138.216 152.233 139.112C150.889 139.992 148.969 140.432 146.473 140.432H145.297V146H141.553V129.608C142.369 129.448 143.233 129.336 144.145 129.272C145.057 129.208 145.857 129.176 146.545 129.176ZM146.785 132.368C146.513 132.368 146.241 132.376 145.969 132.392C145.713 132.408 145.489 132.424 145.297 132.44V137.24H146.473C147.769 137.24 148.745 137.064 149.401 136.712C150.057 136.36 150.385 135.704 150.385 134.744C150.385 134.28 150.297 133.896 150.121 133.592C149.961 133.288 149.721 133.048 149.401 132.872C149.097 132.68 148.721 132.552 148.273 132.488C147.825 132.408 147.329 132.368 146.785 132.368ZM156.998 146V129.368H168.23V132.512H160.742V135.776H167.39V138.848H160.742V142.856H168.782V146H156.998ZM170.113 142.832H172.513C173.105 141.808 173.569 140.792 173.905 139.784C174.241 138.776 174.489 137.752 174.649 136.712C174.825 135.672 174.929 134.6 174.961 133.496C175.009 132.392 175.033 131.232 175.033 130.016V129.368H186.025V142.832H188.881V150.44H185.281V146H173.713V150.44H170.113V142.832ZM178.561 132.536C178.529 133.4 178.473 134.288 178.393 135.2C178.313 136.112 178.193 137.016 178.033 137.912C177.873 138.792 177.657 139.656 177.385 140.504C177.129 141.336 176.801 142.112 176.401 142.832H182.377V132.536H178.561ZM201.319 129.368H205.063V146H201.319V138.944H195.031V146H191.287V129.368H195.031V135.728H201.319V129.368ZM208.912 146V129.368H212.632V139.184C213.208 138.32 213.824 137.424 214.48 136.496C215.136 135.552 215.792 134.648 216.448 133.784C217.12 132.904 217.776 132.08 218.416 131.312C219.056 130.544 219.64 129.896 220.168 129.368H223.216V146H219.52V135.104C218.112 136.752 216.784 138.504 215.536 140.36C214.288 142.216 213.128 144.096 212.056 146H208.912ZM236.869 146C236.533 145.456 236.133 144.872 235.669 144.248C235.221 143.608 234.725 142.976 234.181 142.352C233.653 141.712 233.101 141.104 232.525 140.528C231.949 139.936 231.373 139.416 230.797 138.968V146H227.053V129.368H230.797V135.656C231.773 134.632 232.749 133.568 233.725 132.464C234.717 131.344 235.637 130.312 236.485 129.368H240.925C239.789 130.712 238.645 132.008 237.493 133.256C236.357 134.504 235.157 135.76 233.893 137.024C235.221 138.128 236.501 139.44 237.733 140.96C238.981 142.48 240.173 144.16 241.309 146H236.869ZM245.291 137.672C245.291 138.488 245.387 139.224 245.579 139.88C245.787 140.536 246.075 141.104 246.443 141.584C246.827 142.048 247.291 142.408 247.835 142.664C248.379 142.92 249.003 143.048 249.707 143.048C250.395 143.048 251.011 142.92 251.555 142.664C252.115 142.408 252.579 142.048 252.947 141.584C253.331 141.104 253.619 140.536 253.811 139.88C254.019 139.224 254.123 138.488 254.123 137.672C254.123 136.856 254.019 136.12 253.811 135.464C253.619 134.792 253.331 134.224 252.947 133.76C252.579 133.28 252.115 132.912 251.555 132.656C251.011 132.4 250.395 132.272 249.707 132.272C249.003 132.272 248.379 132.408 247.835 132.68C247.291 132.936 246.827 133.304 246.443 133.784C246.075 134.248 245.787 134.816 245.579 135.488C245.387 136.144 245.291 136.872 245.291 137.672ZM257.987 137.672C257.987 139.096 257.771 140.352 257.339 141.44C256.923 142.512 256.347 143.416 255.611 144.152C254.875 144.872 253.995 145.416 252.971 145.784C251.963 146.152 250.875 146.336 249.707 146.336C248.571 146.336 247.499 146.152 246.491 145.784C245.483 145.416 244.603 144.872 243.851 144.152C243.099 143.416 242.507 142.512 242.075 141.44C241.643 140.352 241.427 139.096 241.427 137.672C241.427 136.248 241.651 135 242.099 133.928C242.547 132.84 243.147 131.928 243.899 131.192C244.667 130.456 245.547 129.904 246.539 129.536C247.547 129.168 248.603 128.984 249.707 128.984C250.843 128.984 251.915 129.168 252.923 129.536C253.931 129.904 254.811 130.456 255.563 131.192C256.315 131.928 256.907 132.84 257.339 133.928C257.771 135 257.987 136.248 257.987 137.672ZM266.652 146.216C265.74 146.216 264.828 146.184 263.916 146.12C263.02 146.072 262.084 145.944 261.108 145.736V129.608C261.876 129.464 262.716 129.36 263.628 129.296C264.54 129.216 265.388 129.176 266.172 129.176C267.228 129.176 268.196 129.256 269.076 129.416C269.972 129.56 270.74 129.816 271.38 130.184C272.02 130.552 272.516 131.04 272.868 131.648C273.236 132.24 273.42 132.976 273.42 133.856C273.42 135.184 272.78 136.232 271.5 137C272.556 137.4 273.276 137.944 273.66 138.632C274.044 139.32 274.236 140.096 274.236 140.96C274.236 142.704 273.596 144.016 272.316 144.896C271.052 145.776 269.164 146.216 266.652 146.216ZM264.756 138.752V143.048C265.028 143.08 265.324 143.104 265.644 143.12C265.964 143.136 266.316 143.144 266.7 143.144C267.82 143.144 268.724 142.984 269.412 142.664C270.1 142.344 270.444 141.752 270.444 140.888C270.444 140.12 270.156 139.576 269.58 139.256C269.004 138.92 268.18 138.752 267.108 138.752H264.756ZM264.756 135.896H266.58C267.732 135.896 268.556 135.752 269.052 135.464C269.548 135.16 269.796 134.68 269.796 134.024C269.796 133.352 269.54 132.88 269.028 132.608C268.516 132.336 267.764 132.2 266.772 132.2C266.452 132.2 266.108 132.208 265.74 132.224C265.372 132.224 265.044 132.24 264.756 132.272V135.896Z" fill="#224386"/>
<path d="M47.421 182.589H48.9V187.145H47.336V184H38.462V172.219H40.111V182.589H45.772V172.219H47.421V182.589ZM50.0691 179.597C50.0691 178.815 50.1825 178.135 50.4091 177.557C50.6358 176.968 50.9361 176.48 51.3101 176.095C51.6841 175.71 52.1148 175.421 52.6021 175.228C53.0895 175.035 53.5881 174.939 54.0981 174.939C55.2881 174.939 56.2005 175.313 56.8351 176.061C57.4698 176.798 57.7871 177.925 57.7871 179.444C57.7871 179.512 57.7871 179.603 57.7871 179.716C57.7871 179.818 57.7815 179.914 57.7701 180.005H51.7181C51.7861 180.923 52.0525 181.62 52.5171 182.096C52.9818 182.572 53.7071 182.81 54.6931 182.81C55.2485 182.81 55.7131 182.765 56.0871 182.674C56.4725 182.572 56.7615 182.476 56.9541 182.385L57.1751 183.711C56.9825 183.813 56.6425 183.921 56.1551 184.034C55.6791 184.147 55.1351 184.204 54.5231 184.204C53.7525 184.204 53.0838 184.091 52.5171 183.864C51.9618 183.626 51.5028 183.303 51.1401 182.895C50.7775 182.487 50.5055 182.005 50.3241 181.45C50.1541 180.883 50.0691 180.266 50.0691 179.597ZM56.1381 178.73C56.1495 178.016 55.9681 177.432 55.5941 176.979C55.2315 176.514 54.7271 176.282 54.0811 176.282C53.7185 176.282 53.3955 176.356 53.1121 176.503C52.8401 176.639 52.6078 176.82 52.4151 177.047C52.2225 177.274 52.0695 177.534 51.9561 177.829C51.8541 178.124 51.7861 178.424 51.7521 178.73H56.1381ZM67.3002 184H65.7192V180.09H61.6392V184H60.0582V175.16H61.6392V178.764H65.7192V175.16H67.3002V184ZM73.0112 182.861C73.3852 182.861 73.7138 182.855 73.9972 182.844C74.2918 182.821 74.5355 182.787 74.7282 182.742V180.107C74.6148 180.05 74.4278 180.005 74.1672 179.971C73.9178 179.926 73.6118 179.903 73.2492 179.903C73.0112 179.903 72.7562 179.92 72.4842 179.954C72.2235 179.988 71.9798 180.062 71.7532 180.175C71.5378 180.277 71.3565 180.424 71.2092 180.617C71.0618 180.798 70.9882 181.042 70.9882 181.348C70.9882 181.915 71.1695 182.311 71.5322 182.538C71.8948 182.753 72.3878 182.861 73.0112 182.861ZM72.8752 174.939C73.5098 174.939 74.0425 175.024 74.4732 175.194C74.9152 175.353 75.2665 175.585 75.5272 175.891C75.7992 176.186 75.9918 176.543 76.1052 176.962C76.2185 177.37 76.2752 177.823 76.2752 178.322V183.847C76.1392 183.87 75.9465 183.904 75.6972 183.949C75.4592 183.983 75.1872 184.017 74.8812 184.051C74.5752 184.085 74.2408 184.113 73.8782 184.136C73.5268 184.17 73.1755 184.187 72.8242 184.187C72.3255 184.187 71.8665 184.136 71.4472 184.034C71.0278 183.932 70.6652 183.773 70.3592 183.558C70.0532 183.331 69.8152 183.037 69.6452 182.674C69.4752 182.311 69.3902 181.875 69.3902 181.365C69.3902 180.878 69.4865 180.458 69.6792 180.107C69.8832 179.756 70.1552 179.472 70.4952 179.257C70.8352 179.042 71.2318 178.883 71.6852 178.781C72.1385 178.679 72.6145 178.628 73.1132 178.628C73.2718 178.628 73.4362 178.639 73.6062 178.662C73.7762 178.673 73.9348 178.696 74.0822 178.73C74.2408 178.753 74.3768 178.775 74.4902 178.798C74.6035 178.821 74.6828 178.838 74.7282 178.849V178.407C74.7282 178.146 74.6998 177.891 74.6432 177.642C74.5865 177.381 74.4845 177.155 74.3372 176.962C74.1898 176.758 73.9858 176.599 73.7252 176.486C73.4758 176.361 73.1472 176.299 72.7392 176.299C72.2178 176.299 71.7588 176.339 71.3622 176.418C70.9768 176.486 70.6878 176.56 70.4952 176.639L70.3082 175.33C70.5122 175.239 70.8522 175.154 71.3282 175.075C71.8042 174.984 72.3198 174.939 72.8752 174.939ZM89.9416 184H88.3606V176.486H84.4166V184H82.8356V175.16H89.9416V184ZM98.8007 179.597C98.8007 178.566 98.5457 177.772 98.0357 177.217C97.5257 176.662 96.8457 176.384 95.9957 176.384C95.5197 176.384 95.1457 176.401 94.8737 176.435C94.613 176.469 94.4034 176.509 94.2447 176.554V182.13C94.4374 182.289 94.715 182.442 95.0777 182.589C95.4404 182.736 95.837 182.81 96.2677 182.81C96.721 182.81 97.1064 182.731 97.4237 182.572C97.7524 182.402 98.0187 182.175 98.2227 181.892C98.4267 181.597 98.574 181.257 98.6647 180.872C98.7554 180.475 98.8007 180.05 98.8007 179.597ZM100.45 179.597C100.45 180.266 100.359 180.883 100.178 181.45C100.008 182.017 99.7527 182.504 99.4127 182.912C99.0727 183.32 98.6534 183.637 98.1547 183.864C97.6674 184.091 97.1064 184.204 96.4717 184.204C95.9617 184.204 95.5084 184.136 95.1117 184C94.7264 183.864 94.4374 183.734 94.2447 183.609V187.145H92.6637V175.432C93.0377 175.341 93.5024 175.245 94.0577 175.143C94.6244 175.03 95.276 174.973 96.0127 174.973C96.6927 174.973 97.3047 175.081 97.8487 175.296C98.3927 175.511 98.8574 175.817 99.2427 176.214C99.628 176.611 99.9227 177.098 100.127 177.676C100.342 178.243 100.45 178.883 100.45 179.597ZM110.477 179.58C110.477 180.283 110.375 180.917 110.171 181.484C109.967 182.051 109.678 182.538 109.304 182.946C108.942 183.354 108.505 183.671 107.995 183.898C107.485 184.113 106.93 184.221 106.329 184.221C105.729 184.221 105.173 184.113 104.663 183.898C104.153 183.671 103.711 183.354 103.337 182.946C102.975 182.538 102.691 182.051 102.487 181.484C102.283 180.917 102.181 180.283 102.181 179.58C102.181 178.889 102.283 178.26 102.487 177.693C102.691 177.115 102.975 176.622 103.337 176.214C103.711 175.806 104.153 175.494 104.663 175.279C105.173 175.052 105.729 174.939 106.329 174.939C106.93 174.939 107.485 175.052 107.995 175.279C108.505 175.494 108.942 175.806 109.304 176.214C109.678 176.622 109.967 177.115 110.171 177.693C110.375 178.26 110.477 178.889 110.477 179.58ZM108.828 179.58C108.828 178.583 108.602 177.795 108.148 177.217C107.706 176.628 107.1 176.333 106.329 176.333C105.559 176.333 104.947 176.628 104.493 177.217C104.051 177.795 103.83 178.583 103.83 179.58C103.83 180.577 104.051 181.371 104.493 181.96C104.947 182.538 105.559 182.827 106.329 182.827C107.1 182.827 107.706 182.538 108.148 181.96C108.602 181.371 108.828 180.577 108.828 179.58ZM111.614 182.708H112.566C112.94 182.164 113.234 181.603 113.45 181.025C113.676 180.447 113.846 179.852 113.96 179.24C114.073 178.617 114.147 177.971 114.181 177.302C114.215 176.622 114.237 175.908 114.249 175.16H120.046V182.708H121.236V186.465H119.74V184H113.11V186.465H111.614V182.708ZM118.465 182.708V176.486H115.694C115.682 177.019 115.654 177.557 115.609 178.101C115.563 178.634 115.49 179.166 115.388 179.699C115.286 180.22 115.138 180.736 114.946 181.246C114.764 181.745 114.532 182.232 114.249 182.708H118.465ZM122.323 185.649C122.448 185.706 122.606 185.757 122.799 185.802C123.003 185.859 123.201 185.887 123.394 185.887C124.017 185.887 124.505 185.745 124.856 185.462C125.207 185.19 125.525 184.742 125.808 184.119C125.094 182.759 124.425 181.32 123.802 179.801C123.19 178.271 122.68 176.724 122.272 175.16H123.972C124.097 175.67 124.244 176.22 124.414 176.809C124.595 177.398 124.794 178.005 125.009 178.628C125.224 179.251 125.457 179.875 125.706 180.498C125.955 181.121 126.216 181.722 126.488 182.3C126.919 181.11 127.293 179.931 127.61 178.764C127.927 177.597 128.228 176.395 128.511 175.16H130.143C129.735 176.826 129.282 178.43 128.783 179.971C128.284 181.501 127.746 182.935 127.168 184.272C126.941 184.782 126.703 185.218 126.454 185.581C126.216 185.955 125.95 186.261 125.655 186.499C125.36 186.737 125.026 186.913 124.652 187.026C124.289 187.139 123.876 187.196 123.411 187.196C123.286 187.196 123.156 187.185 123.02 187.162C122.884 187.151 122.748 187.128 122.612 187.094C122.487 187.071 122.368 187.043 122.255 187.009C122.153 186.975 122.079 186.947 122.034 186.924L122.323 185.649ZM135.04 179.189C135.392 179.438 135.771 179.756 136.179 180.141C136.587 180.515 136.984 180.923 137.369 181.365C137.766 181.807 138.134 182.26 138.474 182.725C138.814 183.178 139.103 183.603 139.341 184H137.471C137.222 183.615 136.927 183.224 136.587 182.827C136.259 182.419 135.913 182.028 135.55 181.654C135.188 181.28 134.819 180.934 134.445 180.617C134.071 180.3 133.72 180.033 133.391 179.818V184H131.81V175.16H133.391V178.951C133.663 178.69 133.975 178.39 134.326 178.05C134.678 177.699 135.029 177.347 135.38 176.996C135.743 176.633 136.077 176.293 136.383 175.976C136.689 175.647 136.939 175.375 137.131 175.16H138.967C138.718 175.432 138.423 175.744 138.083 176.095C137.755 176.435 137.409 176.786 137.046 177.149C136.695 177.512 136.344 177.874 135.992 178.237C135.641 178.588 135.324 178.906 135.04 179.189ZM147.996 182.691H149.186V186.465H147.69V184H140.941V175.16H142.522V182.691H146.415V175.16H147.996V182.691ZM158.331 175.16V184H156.801V177.268C156.461 177.699 156.087 178.203 155.679 178.781C155.271 179.359 154.863 179.96 154.455 180.583C154.047 181.195 153.656 181.801 153.282 182.402C152.908 183.003 152.585 183.535 152.313 184H150.902V175.16H152.432V181.518C152.727 181.031 153.061 180.498 153.435 179.92C153.809 179.331 154.194 178.753 154.591 178.186C154.999 177.608 155.401 177.058 155.798 176.537C156.206 176.004 156.586 175.545 156.937 175.16H158.331ZM168.475 175.16V184H166.945V177.268C166.605 177.699 166.231 178.203 165.823 178.781C165.415 179.359 165.007 179.96 164.599 180.583C164.191 181.195 163.8 181.801 163.426 182.402C163.052 183.003 162.729 183.535 162.457 184H161.046V175.16H162.576V181.518C162.87 181.031 163.205 180.498 163.579 179.92C163.953 179.331 164.338 178.753 164.735 178.186C165.143 177.608 165.545 177.058 165.942 176.537C166.35 176.004 166.729 175.545 167.081 175.16H168.475ZM182.366 184H180.785V180.09H176.705V184H175.124V175.16H176.705V178.764H180.785V175.16H182.366V184ZM188.077 182.861C188.451 182.861 188.779 182.855 189.063 182.844C189.357 182.821 189.601 182.787 189.794 182.742V180.107C189.68 180.05 189.493 180.005 189.233 179.971C188.983 179.926 188.677 179.903 188.315 179.903C188.077 179.903 187.822 179.92 187.55 179.954C187.289 179.988 187.045 180.062 186.819 180.175C186.603 180.277 186.422 180.424 186.275 180.617C186.127 180.798 186.054 181.042 186.054 181.348C186.054 181.915 186.235 182.311 186.598 182.538C186.96 182.753 187.453 182.861 188.077 182.861ZM187.941 174.939C188.575 174.939 189.108 175.024 189.539 175.194C189.981 175.353 190.332 175.585 190.593 175.891C190.865 176.186 191.057 176.543 191.171 176.962C191.284 177.37 191.341 177.823 191.341 178.322V183.847C191.205 183.87 191.012 183.904 190.763 183.949C190.525 183.983 190.253 184.017 189.947 184.051C189.641 184.085 189.306 184.113 188.944 184.136C188.592 184.17 188.241 184.187 187.89 184.187C187.391 184.187 186.932 184.136 186.513 184.034C186.093 183.932 185.731 183.773 185.425 183.558C185.119 183.331 184.881 183.037 184.711 182.674C184.541 182.311 184.456 181.875 184.456 181.365C184.456 180.878 184.552 180.458 184.745 180.107C184.949 179.756 185.221 179.472 185.561 179.257C185.901 179.042 186.297 178.883 186.751 178.781C187.204 178.679 187.68 178.628 188.179 178.628C188.337 178.628 188.502 178.639 188.672 178.662C188.842 178.673 189 178.696 189.148 178.73C189.306 178.753 189.442 178.775 189.556 178.798C189.669 178.821 189.748 178.838 189.794 178.849V178.407C189.794 178.146 189.765 177.891 189.709 177.642C189.652 177.381 189.55 177.155 189.403 176.962C189.255 176.758 189.051 176.599 188.791 176.486C188.541 176.361 188.213 176.299 187.805 176.299C187.283 176.299 186.824 176.339 186.428 176.418C186.042 176.486 185.753 176.56 185.561 176.639L185.374 175.33C185.578 175.239 185.918 175.154 186.394 175.075C186.87 174.984 187.385 174.939 187.941 174.939ZM201.072 184H199.491V176.486H195.547V184H193.966V175.16H201.072V184ZM209.932 179.597C209.932 178.566 209.677 177.772 209.167 177.217C208.657 176.662 207.977 176.384 207.127 176.384C206.651 176.384 206.277 176.401 206.005 176.435C205.744 176.469 205.534 176.509 205.376 176.554V182.13C205.568 182.289 205.846 182.442 206.209 182.589C206.571 182.736 206.968 182.81 207.399 182.81C207.852 182.81 208.237 182.731 208.555 182.572C208.883 182.402 209.15 182.175 209.354 181.892C209.558 181.597 209.705 181.257 209.796 180.872C209.886 180.475 209.932 180.05 209.932 179.597ZM211.581 179.597C211.581 180.266 211.49 180.883 211.309 181.45C211.139 182.017 210.884 182.504 210.544 182.912C210.204 183.32 209.784 183.637 209.286 183.864C208.798 184.091 208.237 184.204 207.603 184.204C207.093 184.204 206.639 184.136 206.243 184C205.857 183.864 205.568 183.734 205.376 183.609V187.145H203.795V175.432C204.169 175.341 204.633 175.245 205.189 175.143C205.755 175.03 206.407 174.973 207.144 174.973C207.824 174.973 208.436 175.081 208.98 175.296C209.524 175.511 209.988 175.817 210.374 176.214C210.759 176.611 211.054 177.098 211.258 177.676C211.473 178.243 211.581 178.883 211.581 179.597ZM217.46 180.566C217.29 180.566 217.126 180.566 216.967 180.566C216.809 180.555 216.656 180.543 216.508 180.532C216.146 181.076 215.794 181.66 215.454 182.283C215.126 182.895 214.831 183.467 214.57 184H212.972C213.108 183.671 213.267 183.337 213.448 182.997C213.63 182.646 213.811 182.306 213.992 181.977C214.185 181.648 214.378 181.337 214.57 181.042C214.763 180.747 214.944 180.481 215.114 180.243C214.797 180.13 214.536 179.994 214.332 179.835C214.128 179.665 213.964 179.478 213.839 179.274C213.715 179.07 213.624 178.855 213.567 178.628C213.522 178.39 213.499 178.152 213.499 177.914C213.499 177.415 213.59 176.979 213.771 176.605C213.964 176.231 214.225 175.925 214.553 175.687C214.882 175.438 215.267 175.251 215.709 175.126C216.163 175.001 216.656 174.939 217.188 174.939C217.936 174.939 218.571 174.973 219.092 175.041C219.614 175.109 220.05 175.188 220.401 175.279V184H218.837V180.566H217.46ZM218.837 176.333C218.713 176.31 218.503 176.288 218.208 176.265C217.925 176.242 217.596 176.231 217.222 176.231C216.576 176.231 216.055 176.367 215.658 176.639C215.262 176.9 215.063 177.319 215.063 177.897C215.063 178.464 215.267 178.855 215.675 179.07C216.083 179.285 216.61 179.393 217.256 179.393H218.837V176.333ZM224.802 177.489C224.688 178.611 224.603 179.733 224.547 180.855C224.49 181.966 224.445 183.014 224.411 184H222.898C222.92 183.309 222.954 182.589 223 181.841C223.045 181.082 223.096 180.322 223.153 179.563C223.209 178.792 223.272 178.039 223.34 177.302C223.408 176.554 223.481 175.84 223.561 175.16H225.006C225.368 175.749 225.793 176.56 226.281 177.591C226.768 178.611 227.329 179.79 227.964 181.127C228.598 179.79 229.159 178.611 229.647 177.591C230.134 176.56 230.559 175.749 230.922 175.16H232.384C232.463 175.84 232.537 176.554 232.605 177.302C232.673 178.039 232.735 178.792 232.792 179.563C232.848 180.322 232.899 181.082 232.945 181.841C232.99 182.589 233.024 183.309 233.047 184H231.483C231.449 183.014 231.403 181.966 231.347 180.855C231.29 179.733 231.205 178.611 231.092 177.489C230.91 177.84 230.701 178.265 230.463 178.764C230.225 179.251 229.987 179.75 229.749 180.26C229.522 180.77 229.307 181.257 229.103 181.722C228.899 182.187 228.74 182.555 228.627 182.827H227.301C227.176 182.544 227.006 182.17 226.791 181.705C226.587 181.24 226.366 180.753 226.128 180.243C225.901 179.722 225.669 179.217 225.431 178.73C225.193 178.231 224.983 177.818 224.802 177.489ZM234.516 185.649C234.641 185.706 234.8 185.757 234.992 185.802C235.196 185.859 235.395 185.887 235.587 185.887C236.211 185.887 236.698 185.745 237.049 185.462C237.401 185.19 237.718 184.742 238.001 184.119C237.287 182.759 236.619 181.32 235.995 179.801C235.383 178.271 234.873 176.724 234.465 175.16H236.165C236.29 175.67 236.437 176.22 236.607 176.809C236.789 177.398 236.987 178.005 237.202 178.628C237.418 179.251 237.65 179.875 237.899 180.498C238.149 181.121 238.409 181.722 238.681 182.3C239.112 181.11 239.486 179.931 239.803 178.764C240.121 177.597 240.421 176.395 240.704 175.16H242.336C241.928 176.826 241.475 178.43 240.976 179.971C240.478 181.501 239.939 182.935 239.361 184.272C239.135 184.782 238.897 185.218 238.647 185.581C238.409 185.955 238.143 186.261 237.848 186.499C237.554 186.737 237.219 186.913 236.845 187.026C236.483 187.139 236.069 187.196 235.604 187.196C235.48 187.196 235.349 187.185 235.213 187.162C235.077 187.151 234.941 187.128 234.805 187.094C234.681 187.071 234.562 187.043 234.448 187.009C234.346 186.975 234.273 186.947 234.227 186.924L234.516 185.649ZM245.585 178.815H247.523C247.591 178.226 247.738 177.693 247.965 177.217C248.203 176.741 248.497 176.333 248.849 175.993C249.2 175.653 249.602 175.392 250.056 175.211C250.509 175.03 250.996 174.939 251.518 174.939C252.096 174.939 252.628 175.052 253.116 175.279C253.614 175.494 254.045 175.806 254.408 176.214C254.77 176.622 255.054 177.115 255.258 177.693C255.462 178.26 255.564 178.889 255.564 179.58C255.564 180.283 255.462 180.917 255.258 181.484C255.054 182.051 254.77 182.538 254.408 182.946C254.045 183.354 253.614 183.671 253.116 183.898C252.628 184.113 252.096 184.221 251.518 184.221C250.974 184.221 250.464 184.125 249.988 183.932C249.523 183.728 249.115 183.45 248.764 183.099C248.412 182.736 248.123 182.3 247.897 181.79C247.681 181.28 247.551 180.713 247.506 180.09H245.585V184H244.004V175.16H245.585V178.815ZM253.932 179.58C253.932 178.583 253.711 177.795 253.269 177.217C252.838 176.628 252.254 176.333 251.518 176.333C250.781 176.333 250.192 176.628 249.75 177.217C249.319 177.795 249.104 178.583 249.104 179.58C249.104 180.577 249.319 181.371 249.75 181.96C250.192 182.538 250.781 182.827 251.518 182.827C252.254 182.827 252.838 182.538 253.269 181.96C253.711 181.371 253.932 180.577 253.932 179.58ZM269.52 179.58C269.52 180.283 269.418 180.917 269.214 181.484C269.01 182.051 268.721 182.538 268.347 182.946C267.985 183.354 267.548 183.671 267.038 183.898C266.528 184.113 265.973 184.221 265.372 184.221C264.772 184.221 264.216 184.113 263.706 183.898C263.196 183.671 262.754 183.354 262.38 182.946C262.018 182.538 261.734 182.051 261.53 181.484C261.326 180.917 261.224 180.283 261.224 179.58C261.224 178.889 261.326 178.26 261.53 177.693C261.734 177.115 262.018 176.622 262.38 176.214C262.754 175.806 263.196 175.494 263.706 175.279C264.216 175.052 264.772 174.939 265.372 174.939C265.973 174.939 266.528 175.052 267.038 175.279C267.548 175.494 267.985 175.806 268.347 176.214C268.721 176.622 269.01 177.115 269.214 177.693C269.418 178.26 269.52 178.889 269.52 179.58ZM267.871 179.58C267.871 178.583 267.645 177.795 267.191 177.217C266.749 176.628 266.143 176.333 265.372 176.333C264.602 176.333 263.99 176.628 263.536 177.217C263.094 177.795 262.873 178.583 262.873 179.58C262.873 180.577 263.094 181.371 263.536 181.96C263.99 182.538 264.602 182.827 265.372 182.827C266.143 182.827 266.749 182.538 267.191 181.96C267.645 181.371 267.871 180.577 267.871 179.58ZM277.984 175.16V176.486H275.111V184H273.53V176.486H270.657V175.16H277.984ZM44.497 208.597C44.497 207.566 44.242 206.772 43.732 206.217C43.222 205.662 42.542 205.384 41.692 205.384C41.216 205.384 40.842 205.401 40.57 205.435C40.3093 205.469 40.0997 205.509 39.941 205.554V211.13C40.1337 211.289 40.4113 211.442 40.774 211.589C41.1367 211.736 41.5333 211.81 41.964 211.81C42.4173 211.81 42.8027 211.731 43.12 211.572C43.4487 211.402 43.715 211.175 43.919 210.892C44.123 210.597 44.2703 210.257 44.361 209.872C44.4517 209.475 44.497 209.05 44.497 208.597ZM46.146 208.597C46.146 209.266 46.0553 209.883 45.874 210.45C45.704 211.017 45.449 211.504 45.109 211.912C44.769 212.32 44.3497 212.637 43.851 212.864C43.3637 213.091 42.8027 213.204 42.168 213.204C41.658 213.204 41.2047 213.136 40.808 213C40.4227 212.864 40.1337 212.734 39.941 212.609V216.145H38.36V204.432C38.734 204.341 39.1987 204.245 39.754 204.143C40.3207 204.03 40.9723 203.973 41.709 203.973C42.389 203.973 43.001 204.081 43.545 204.296C44.089 204.511 44.5537 204.817 44.939 205.214C45.3243 205.611 45.619 206.098 45.823 206.676C46.0383 207.243 46.146 207.883 46.146 208.597ZM56.1737 208.58C56.1737 209.283 56.0717 209.917 55.8677 210.484C55.6637 211.051 55.3747 211.538 55.0007 211.946C54.6381 212.354 54.2017 212.671 53.6917 212.898C53.1817 213.113 52.6264 213.221 52.0257 213.221C51.4251 213.221 50.8697 213.113 50.3597 212.898C49.8497 212.671 49.4077 212.354 49.0337 211.946C48.6711 211.538 48.3877 211.051 48.1837 210.484C47.9797 209.917 47.8777 209.283 47.8777 208.58C47.8777 207.889 47.9797 207.26 48.1837 206.693C48.3877 206.115 48.6711 205.622 49.0337 205.214C49.4077 204.806 49.8497 204.494 50.3597 204.279C50.8697 204.052 51.4251 203.939 52.0257 203.939C52.6264 203.939 53.1817 204.052 53.6917 204.279C54.2017 204.494 54.6381 204.806 55.0007 205.214C55.3747 205.622 55.6637 206.115 55.8677 206.693C56.0717 207.26 56.1737 207.889 56.1737 208.58ZM54.5247 208.58C54.5247 207.583 54.2981 206.795 53.8447 206.217C53.4027 205.628 52.7964 205.333 52.0257 205.333C51.2551 205.333 50.6431 205.628 50.1897 206.217C49.7477 206.795 49.5267 207.583 49.5267 208.58C49.5267 209.577 49.7477 210.371 50.1897 210.96C50.6431 211.538 51.2551 211.827 52.0257 211.827C52.7964 211.827 53.4027 211.538 53.8447 210.96C54.2981 210.371 54.5247 209.577 54.5247 208.58ZM62.2401 213.204C61.5261 213.204 60.8971 213.091 60.3531 212.864C59.8204 212.637 59.3671 212.32 58.9931 211.912C58.6304 211.504 58.3584 211.022 58.1771 210.467C57.9958 209.9 57.9051 209.277 57.9051 208.597C57.9051 207.917 58.0014 207.294 58.1941 206.727C58.3981 206.16 58.6814 205.673 59.0441 205.265C59.4068 204.846 59.8488 204.523 60.3701 204.296C60.9028 204.058 61.4921 203.939 62.1381 203.939C62.5348 203.939 62.9314 203.973 63.3281 204.041C63.7248 204.109 64.1044 204.217 64.4671 204.364L64.1101 205.707C63.8721 205.594 63.5944 205.503 63.2771 205.435C62.9711 205.367 62.6424 205.333 62.2911 205.333C61.4071 205.333 60.7271 205.611 60.2511 206.166C59.7864 206.721 59.5541 207.532 59.5541 208.597C59.5541 209.073 59.6051 209.509 59.7071 209.906C59.8204 210.303 59.9904 210.643 60.2171 210.926C60.4551 211.209 60.7554 211.43 61.1181 211.589C61.4808 211.736 61.9228 211.81 62.4441 211.81C62.8634 211.81 63.2431 211.77 63.5831 211.691C63.9231 211.612 64.1894 211.527 64.3821 211.436L64.6031 212.762C64.5124 212.819 64.3821 212.875 64.2121 212.932C64.0421 212.977 63.8494 213.017 63.6341 213.051C63.4188 213.096 63.1864 213.13 62.9371 213.153C62.6991 213.187 62.4668 213.204 62.2401 213.204ZM70.1424 213.204C69.4284 213.204 68.7994 213.091 68.2554 212.864C67.7228 212.637 67.2694 212.32 66.8954 211.912C66.5328 211.504 66.2608 211.022 66.0794 210.467C65.8981 209.9 65.8074 209.277 65.8074 208.597C65.8074 207.917 65.9038 207.294 66.0964 206.727C66.3004 206.16 66.5838 205.673 66.9464 205.265C67.3091 204.846 67.7511 204.523 68.2724 204.296C68.8051 204.058 69.3944 203.939 70.0404 203.939C70.4371 203.939 70.8338 203.973 71.2304 204.041C71.6271 204.109 72.0068 204.217 72.3694 204.364L72.0124 205.707C71.7744 205.594 71.4968 205.503 71.1794 205.435C70.8734 205.367 70.5448 205.333 70.1934 205.333C69.3094 205.333 68.6294 205.611 68.1534 206.166C67.6888 206.721 67.4564 207.532 67.4564 208.597C67.4564 209.073 67.5074 209.509 67.6094 209.906C67.7228 210.303 67.8928 210.643 68.1194 210.926C68.3574 211.209 68.6578 211.43 69.0204 211.589C69.3831 211.736 69.8251 211.81 70.3464 211.81C70.7658 211.81 71.1454 211.77 71.4854 211.691C71.8254 211.612 72.0918 211.527 72.2844 211.436L72.5054 212.762C72.4148 212.819 72.2844 212.875 72.1144 212.932C71.9444 212.977 71.7518 213.017 71.5364 213.051C71.3211 213.096 71.0888 213.13 70.8394 213.153C70.6014 213.187 70.3691 213.204 70.1424 213.204ZM81.6318 204.16V213H80.1018V206.268C79.7618 206.699 79.3878 207.203 78.9798 207.781C78.5718 208.359 78.1638 208.96 77.7558 209.583C77.3478 210.195 76.9568 210.801 76.5828 211.402C76.2088 212.003 75.8858 212.535 75.6138 213H74.2028V204.16H75.7328V210.518C76.0274 210.031 76.3618 209.498 76.7358 208.92C77.1098 208.331 77.4951 207.753 77.8918 207.186C78.2998 206.608 78.7021 206.058 79.0988 205.537C79.5068 205.004 79.8864 204.545 80.2378 204.16H81.6318ZM91.7753 204.16V213H90.2453V206.268C89.9053 206.699 89.5313 207.203 89.1233 207.781C88.7153 208.359 88.3073 208.96 87.8993 209.583C87.4913 210.195 87.1003 210.801 86.7263 211.402C86.3523 212.003 86.0293 212.535 85.7573 213H84.3463V204.16H85.8763V210.518C86.171 210.031 86.5053 209.498 86.8793 208.92C87.2533 208.331 87.6387 207.753 88.0353 207.186C88.4433 206.608 88.8457 206.058 89.2423 205.537C89.6503 205.004 90.03 204.545 90.3813 204.16H91.7753ZM88.0693 202.732C87.3553 202.732 86.7717 202.551 86.3183 202.188C85.8763 201.825 85.61 201.321 85.5193 200.675L86.7263 200.352C86.817 200.715 86.97 201.009 87.1853 201.236C87.4007 201.463 87.6953 201.576 88.0693 201.576C88.4433 201.576 88.738 201.463 88.9533 201.236C89.1687 201.009 89.3217 200.715 89.4123 200.352L90.6023 200.675C90.5117 201.321 90.2453 201.825 89.8033 202.188C89.3613 202.551 88.7833 202.732 88.0693 202.732ZM98.3319 213.204C97.6179 213.204 96.9889 213.091 96.4449 212.864C95.9122 212.637 95.4589 212.32 95.0849 211.912C94.7222 211.504 94.4502 211.022 94.2689 210.467C94.0875 209.9 93.9969 209.277 93.9969 208.597C93.9969 207.917 94.0932 207.294 94.2859 206.727C94.4899 206.16 94.7732 205.673 95.1359 205.265C95.4985 204.846 95.9405 204.523 96.4619 204.296C96.9945 204.058 97.5839 203.939 98.2299 203.939C98.6265 203.939 99.0232 203.973 99.4199 204.041C99.8165 204.109 100.196 204.217 100.559 204.364L100.202 205.707C99.9639 205.594 99.6862 205.503 99.3689 205.435C99.0629 205.367 98.7342 205.333 98.3829 205.333C97.4989 205.333 96.8189 205.611 96.3429 206.166C95.8782 206.721 95.6459 207.532 95.6459 208.597C95.6459 209.073 95.6969 209.509 95.7989 209.906C95.9122 210.303 96.0822 210.643 96.3089 210.926C96.5469 211.209 96.8472 211.43 97.2099 211.589C97.5725 211.736 98.0145 211.81 98.5359 211.81C98.9552 211.81 99.3349 211.77 99.6749 211.691C100.015 211.612 100.281 211.527 100.474 211.436L100.695 212.762C100.604 212.819 100.474 212.875 100.304 212.932C100.134 212.977 99.9412 213.017 99.7259 213.051C99.5105 213.096 99.2782 213.13 99.0289 213.153C98.7909 213.187 98.5585 213.204 98.3319 213.204ZM105.622 208.189C105.974 208.438 106.353 208.756 106.761 209.141C107.169 209.515 107.566 209.923 107.951 210.365C108.348 210.807 108.716 211.26 109.056 211.725C109.396 212.178 109.685 212.603 109.923 213H108.053C107.804 212.615 107.509 212.224 107.169 211.827C106.841 211.419 106.495 211.028 106.132 210.654C105.77 210.28 105.401 209.934 105.027 209.617C104.653 209.3 104.302 209.033 103.973 208.818V213H102.392V204.16H103.973V207.951C104.245 207.69 104.557 207.39 104.908 207.05C105.26 206.699 105.611 206.347 105.962 205.996C106.325 205.633 106.659 205.293 106.965 204.976C107.271 204.647 107.521 204.375 107.713 204.16H109.549C109.3 204.432 109.005 204.744 108.665 205.095C108.337 205.435 107.991 205.786 107.628 206.149C107.277 206.512 106.926 206.874 106.574 207.237C106.223 207.588 105.906 207.906 105.622 208.189ZM118.828 208.58C118.828 209.283 118.726 209.917 118.522 210.484C118.318 211.051 118.029 211.538 117.655 211.946C117.292 212.354 116.856 212.671 116.346 212.898C115.836 213.113 115.281 213.221 114.68 213.221C114.079 213.221 113.524 213.113 113.014 212.898C112.504 212.671 112.062 212.354 111.688 211.946C111.325 211.538 111.042 211.051 110.838 210.484C110.634 209.917 110.532 209.283 110.532 208.58C110.532 207.889 110.634 207.26 110.838 206.693C111.042 206.115 111.325 205.622 111.688 205.214C112.062 204.806 112.504 204.494 113.014 204.279C113.524 204.052 114.079 203.939 114.68 203.939C115.281 203.939 115.836 204.052 116.346 204.279C116.856 204.494 117.292 204.806 117.655 205.214C118.029 205.622 118.318 206.115 118.522 206.693C118.726 207.26 118.828 207.889 118.828 208.58ZM117.179 208.58C117.179 207.583 116.952 206.795 116.499 206.217C116.057 205.628 115.451 205.333 114.68 205.333C113.909 205.333 113.297 205.628 112.844 206.217C112.402 206.795 112.181 207.583 112.181 208.58C112.181 209.577 112.402 210.371 112.844 210.96C113.297 211.538 113.909 211.827 114.68 211.827C115.451 211.827 116.057 211.538 116.499 210.96C116.952 210.371 117.179 209.577 117.179 208.58ZM126.526 205.486H122.633V213H121.052V204.16H126.526V205.486ZM135.961 208.58C135.961 209.283 135.859 209.917 135.655 210.484C135.451 211.051 135.162 211.538 134.788 211.946C134.425 212.354 133.989 212.671 133.479 212.898C132.969 213.113 132.414 213.221 131.813 213.221C131.212 213.221 130.657 213.113 130.147 212.898C129.637 212.671 129.195 212.354 128.821 211.946C128.458 211.538 128.175 211.051 127.971 210.484C127.767 209.917 127.665 209.283 127.665 208.58C127.665 207.889 127.767 207.26 127.971 206.693C128.175 206.115 128.458 205.622 128.821 205.214C129.195 204.806 129.637 204.494 130.147 204.279C130.657 204.052 131.212 203.939 131.813 203.939C132.414 203.939 132.969 204.052 133.479 204.279C133.989 204.494 134.425 204.806 134.788 205.214C135.162 205.622 135.451 206.115 135.655 206.693C135.859 207.26 135.961 207.889 135.961 208.58ZM134.312 208.58C134.312 207.583 134.085 206.795 133.632 206.217C133.19 205.628 132.584 205.333 131.813 205.333C131.042 205.333 130.43 205.628 129.977 206.217C129.535 206.795 129.314 207.583 129.314 208.58C129.314 209.577 129.535 210.371 129.977 210.96C130.43 211.538 131.042 211.827 131.813 211.827C132.584 211.827 133.19 211.538 133.632 210.96C134.085 210.371 134.312 209.577 134.312 208.58ZM149.226 213H147.645V205.486H143.701V213H142.12V204.16H149.226V213ZM158.085 208.597C158.085 207.566 157.83 206.772 157.32 206.217C156.81 205.662 156.13 205.384 155.28 205.384C154.804 205.384 154.43 205.401 154.158 205.435C153.897 205.469 153.688 205.509 153.529 205.554V211.13C153.722 211.289 153.999 211.442 154.362 211.589C154.725 211.736 155.121 211.81 155.552 211.81C156.005 211.81 156.391 211.731 156.708 211.572C157.037 211.402 157.303 211.175 157.507 210.892C157.711 210.597 157.858 210.257 157.949 209.872C158.04 209.475 158.085 209.05 158.085 208.597ZM159.734 208.597C159.734 209.266 159.643 209.883 159.462 210.45C159.292 211.017 159.037 211.504 158.697 211.912C158.357 212.32 157.938 212.637 157.439 212.864C156.952 213.091 156.391 213.204 155.756 213.204C155.246 213.204 154.793 213.136 154.396 213C154.011 212.864 153.722 212.734 153.529 212.609V216.145H151.948V204.432C152.322 204.341 152.787 204.245 153.342 204.143C153.909 204.03 154.56 203.973 155.297 203.973C155.977 203.973 156.589 204.081 157.133 204.296C157.677 204.511 158.142 204.817 158.527 205.214C158.912 205.611 159.207 206.098 159.411 206.676C159.626 207.243 159.734 207.883 159.734 208.597ZM169.762 208.58C169.762 209.283 169.66 209.917 169.456 210.484C169.252 211.051 168.963 211.538 168.589 211.946C168.226 212.354 167.79 212.671 167.28 212.898C166.77 213.113 166.214 213.221 165.614 213.221C165.013 213.221 164.458 213.113 163.948 212.898C163.438 212.671 162.996 212.354 162.622 211.946C162.259 211.538 161.976 211.051 161.772 210.484C161.568 209.917 161.466 209.283 161.466 208.58C161.466 207.889 161.568 207.26 161.772 206.693C161.976 206.115 162.259 205.622 162.622 205.214C162.996 204.806 163.438 204.494 163.948 204.279C164.458 204.052 165.013 203.939 165.614 203.939C166.214 203.939 166.77 204.052 167.28 204.279C167.79 204.494 168.226 204.806 168.589 205.214C168.963 205.622 169.252 206.115 169.456 206.693C169.66 207.26 169.762 207.889 169.762 208.58ZM168.113 208.58C168.113 207.583 167.886 206.795 167.433 206.217C166.991 205.628 166.384 205.333 165.614 205.333C164.843 205.333 164.231 205.628 163.778 206.217C163.336 206.795 163.115 207.583 163.115 208.58C163.115 209.577 163.336 210.371 163.778 210.96C164.231 211.538 164.843 211.827 165.614 211.827C166.384 211.827 166.991 211.538 167.433 210.96C167.886 210.371 168.113 209.577 168.113 208.58ZM179.415 204.16V213H177.885V206.268C177.545 206.699 177.171 207.203 176.763 207.781C176.355 208.359 175.947 208.96 175.539 209.583C175.131 210.195 174.74 210.801 174.366 211.402C173.992 212.003 173.669 212.535 173.397 213H171.986V204.16H173.516V210.518C173.811 210.031 174.145 209.498 174.519 208.92C174.893 208.331 175.278 207.753 175.675 207.186C176.083 206.608 176.485 206.058 176.882 205.537C177.29 205.004 177.67 204.545 178.021 204.16H179.415ZM184.374 203.939C184.884 203.939 185.36 203.99 185.802 204.092C186.244 204.194 186.623 204.347 186.941 204.551C187.258 204.755 187.507 205.01 187.689 205.316C187.87 205.622 187.961 205.979 187.961 206.387C187.961 206.648 187.915 206.886 187.825 207.101C187.734 207.316 187.621 207.509 187.485 207.679C187.349 207.849 187.196 207.996 187.026 208.121C186.867 208.234 186.714 208.314 186.567 208.359C187.088 208.518 187.496 208.801 187.791 209.209C188.097 209.606 188.25 210.11 188.25 210.722C188.25 211.561 187.91 212.184 187.23 212.592C186.55 213 185.626 213.204 184.459 213.204C183.745 213.204 183.127 213.147 182.606 213.034C182.096 212.921 181.733 212.813 181.518 212.711L181.79 211.368C181.971 211.436 182.294 211.532 182.759 211.657C183.235 211.77 183.801 211.827 184.459 211.827C185.173 211.827 185.717 211.719 186.091 211.504C186.465 211.277 186.652 210.943 186.652 210.501C186.652 210.184 186.578 209.929 186.431 209.736C186.295 209.532 186.119 209.379 185.904 209.277C185.688 209.175 185.456 209.107 185.207 209.073C184.957 209.039 184.725 209.022 184.51 209.022H183.031V207.764H184.459C184.663 207.764 184.872 207.753 185.088 207.73C185.314 207.696 185.518 207.634 185.7 207.543C185.892 207.452 186.051 207.328 186.176 207.169C186.3 206.999 186.363 206.778 186.363 206.506C186.363 206.291 186.306 206.109 186.193 205.962C186.091 205.803 185.949 205.673 185.768 205.571C185.586 205.469 185.371 205.395 185.122 205.35C184.884 205.293 184.634 205.265 184.374 205.265C184.17 205.265 183.949 205.282 183.711 205.316C183.473 205.35 183.24 205.395 183.014 205.452C182.787 205.497 182.583 205.548 182.402 205.605C182.22 205.662 182.09 205.713 182.011 205.758L181.722 204.398C181.812 204.364 181.954 204.319 182.147 204.262C182.339 204.205 182.555 204.154 182.793 204.109C183.042 204.064 183.303 204.024 183.575 203.99C183.847 203.956 184.113 203.939 184.374 203.939ZM191.994 211.81C192.062 211.821 192.158 211.833 192.283 211.844C192.408 211.855 192.549 211.867 192.708 211.878C192.867 211.878 193.031 211.884 193.201 211.895C193.382 211.895 193.552 211.895 193.711 211.895C194.04 211.895 194.351 211.872 194.646 211.827C194.952 211.782 195.213 211.702 195.428 211.589C195.655 211.476 195.83 211.328 195.955 211.147C196.091 210.954 196.159 210.711 196.159 210.416C196.159 210.133 196.097 209.9 195.972 209.719C195.859 209.526 195.7 209.373 195.496 209.26C195.292 209.147 195.048 209.067 194.765 209.022C194.493 208.977 194.198 208.954 193.881 208.954H191.994V211.81ZM193.677 207.781C193.983 207.781 194.261 207.764 194.51 207.73C194.771 207.685 194.992 207.611 195.173 207.509C195.366 207.407 195.513 207.271 195.615 207.101C195.728 206.931 195.785 206.716 195.785 206.455C195.785 206.183 195.717 205.968 195.581 205.809C195.445 205.65 195.264 205.531 195.037 205.452C194.822 205.361 194.572 205.305 194.289 205.282C194.017 205.248 193.739 205.231 193.456 205.231C193.195 205.231 192.929 205.237 192.657 205.248C192.396 205.259 192.175 205.271 191.994 205.282V207.781H193.677ZM193.643 213.153C192.974 213.153 192.357 213.119 191.79 213.051C191.223 212.994 190.776 212.926 190.447 212.847V204.245C190.776 204.166 191.223 204.098 191.79 204.041C192.357 203.973 192.974 203.939 193.643 203.939C194.108 203.939 194.561 203.979 195.003 204.058C195.445 204.137 195.836 204.273 196.176 204.466C196.516 204.647 196.788 204.902 196.992 205.231C197.207 205.548 197.315 205.945 197.315 206.421C197.315 206.852 197.207 207.22 196.992 207.526C196.777 207.832 196.488 208.07 196.125 208.24C196.612 208.41 196.998 208.665 197.281 209.005C197.576 209.334 197.723 209.798 197.723 210.399C197.723 210.932 197.615 211.374 197.4 211.725C197.196 212.076 196.907 212.36 196.533 212.575C196.17 212.79 195.74 212.938 195.241 213.017C194.742 213.108 194.21 213.153 193.643 213.153ZM207.563 208.58C207.563 209.283 207.461 209.917 207.257 210.484C207.053 211.051 206.764 211.538 206.39 211.946C206.028 212.354 205.591 212.671 205.081 212.898C204.571 213.113 204.016 213.221 203.415 213.221C202.815 213.221 202.259 213.113 201.749 212.898C201.239 212.671 200.797 212.354 200.423 211.946C200.061 211.538 199.777 211.051 199.573 210.484C199.369 209.917 199.267 209.283 199.267 208.58C199.267 207.889 199.369 207.26 199.573 206.693C199.777 206.115 200.061 205.622 200.423 205.214C200.797 204.806 201.239 204.494 201.749 204.279C202.259 204.052 202.815 203.939 203.415 203.939C204.016 203.939 204.571 204.052 205.081 204.279C205.591 204.494 206.028 204.806 206.39 205.214C206.764 205.622 207.053 206.115 207.257 206.693C207.461 207.26 207.563 207.889 207.563 208.58ZM205.914 208.58C205.914 207.583 205.688 206.795 205.234 206.217C204.792 205.628 204.186 205.333 203.415 205.333C202.645 205.333 202.033 205.628 201.579 206.217C201.137 206.795 200.916 207.583 200.916 208.58C200.916 209.577 201.137 210.371 201.579 210.96C202.033 211.538 202.645 211.827 203.415 211.827C204.186 211.827 204.792 211.538 205.234 210.96C205.688 210.371 205.914 209.577 205.914 208.58ZM208.7 211.708H209.652C210.026 211.164 210.32 210.603 210.536 210.025C210.762 209.447 210.932 208.852 211.046 208.24C211.159 207.617 211.233 206.971 211.267 206.302C211.301 205.622 211.323 204.908 211.335 204.16H217.132V211.708H218.322V215.465H216.826V213H210.196V215.465H208.7V211.708ZM215.551 211.708V205.486H212.78C212.768 206.019 212.74 206.557 212.695 207.101C212.649 207.634 212.576 208.166 212.474 208.699C212.372 209.22 212.224 209.736 212.032 210.246C211.85 210.745 211.618 211.232 211.335 211.708H215.551ZM227.46 204.16V213H225.93V206.268C225.59 206.699 225.216 207.203 224.808 207.781C224.4 208.359 223.992 208.96 223.584 209.583C223.176 210.195 222.785 210.801 222.411 211.402C222.037 212.003 221.714 212.535 221.442 213H220.031V204.16H221.561V210.518C221.856 210.031 222.19 209.498 222.564 208.92C222.938 208.331 223.323 207.753 223.72 207.186C224.128 206.608 224.53 206.058 224.927 205.537C225.335 205.004 225.715 204.545 226.066 204.16H227.46ZM236.413 204.16V205.486H233.54V213H231.959V205.486H229.086V204.16H236.413ZM237.551 208.597C237.551 207.815 237.664 207.135 237.891 206.557C238.117 205.968 238.418 205.48 238.792 205.095C239.166 204.71 239.596 204.421 240.084 204.228C240.571 204.035 241.07 203.939 241.58 203.939C242.77 203.939 243.682 204.313 244.317 205.061C244.951 205.798 245.269 206.925 245.269 208.444C245.269 208.512 245.269 208.603 245.269 208.716C245.269 208.818 245.263 208.914 245.252 209.005H239.2C239.268 209.923 239.534 210.62 239.999 211.096C240.463 211.572 241.189 211.81 242.175 211.81C242.73 211.81 243.195 211.765 243.569 211.674C243.954 211.572 244.243 211.476 244.436 211.385L244.657 212.711C244.464 212.813 244.124 212.921 243.637 213.034C243.161 213.147 242.617 213.204 242.005 213.204C241.234 213.204 240.565 213.091 239.999 212.864C239.443 212.626 238.984 212.303 238.622 211.895C238.259 211.487 237.987 211.005 237.806 210.45C237.636 209.883 237.551 209.266 237.551 208.597ZM243.62 207.73C243.631 207.016 243.45 206.432 243.076 205.979C242.713 205.514 242.209 205.282 241.563 205.282C241.2 205.282 240.877 205.356 240.594 205.503C240.322 205.639 240.089 205.82 239.897 206.047C239.704 206.274 239.551 206.534 239.438 206.829C239.336 207.124 239.268 207.424 239.234 207.73H243.62ZM250.617 205.486C250.617 205.86 250.605 206.262 250.583 206.693C250.571 207.112 250.543 207.537 250.498 207.968C250.452 208.387 250.39 208.807 250.311 209.226C250.231 209.634 250.129 210.019 250.005 210.382C249.88 210.745 249.721 211.085 249.529 211.402C249.347 211.719 249.121 212.003 248.849 212.252C248.577 212.49 248.259 212.694 247.897 212.864C247.534 213.023 247.109 213.125 246.622 213.17L246.401 211.844C246.956 211.731 247.392 211.521 247.71 211.215C248.038 210.909 248.299 210.535 248.492 210.093C248.662 209.708 248.786 209.271 248.866 208.784C248.945 208.297 249.002 207.792 249.036 207.271C249.07 206.738 249.087 206.206 249.087 205.673C249.098 205.14 249.104 204.636 249.104 204.16H254.986V213H253.405V205.486H250.617ZM261.355 209.566C261.185 209.566 261.021 209.566 260.862 209.566C260.703 209.555 260.55 209.543 260.403 209.532C260.04 210.076 259.689 210.66 259.349 211.283C259.02 211.895 258.726 212.467 258.465 213H256.867C257.003 212.671 257.162 212.337 257.343 211.997C257.524 211.646 257.706 211.306 257.887 210.977C258.08 210.648 258.272 210.337 258.465 210.042C258.658 209.747 258.839 209.481 259.009 209.243C258.692 209.13 258.431 208.994 258.227 208.835C258.023 208.665 257.859 208.478 257.734 208.274C257.609 208.07 257.519 207.855 257.462 207.628C257.417 207.39 257.394 207.152 257.394 206.914C257.394 206.415 257.485 205.979 257.666 205.605C257.859 205.231 258.119 204.925 258.448 204.687C258.777 204.438 259.162 204.251 259.604 204.126C260.057 204.001 260.55 203.939 261.083 203.939C261.831 203.939 262.466 203.973 262.987 204.041C263.508 204.109 263.945 204.188 264.296 204.279V213H262.732V209.566H261.355ZM262.732 205.333C262.607 205.31 262.398 205.288 262.103 205.265C261.82 205.242 261.491 205.231 261.117 205.231C260.471 205.231 259.95 205.367 259.553 205.639C259.156 205.9 258.958 206.319 258.958 206.897C258.958 207.464 259.162 207.855 259.57 208.07C259.978 208.285 260.505 208.393 261.151 208.393H262.732V205.333ZM274.79 213.204C274.076 213.204 273.447 213.091 272.903 212.864C272.37 212.637 271.917 212.32 271.543 211.912C271.18 211.504 270.908 211.022 270.727 210.467C270.546 209.9 270.455 209.277 270.455 208.597C270.455 207.917 270.551 207.294 270.744 206.727C270.948 206.16 271.231 205.673 271.594 205.265C271.957 204.846 272.399 204.523 272.92 204.296C273.453 204.058 274.042 203.939 274.688 203.939C275.085 203.939 275.481 203.973 275.878 204.041C276.275 204.109 276.654 204.217 277.017 204.364L276.66 205.707C276.422 205.594 276.144 205.503 275.827 205.435C275.521 205.367 275.192 205.333 274.841 205.333C273.957 205.333 273.277 205.611 272.801 206.166C272.336 206.721 272.104 207.532 272.104 208.597C272.104 209.073 272.155 209.509 272.257 209.906C272.37 210.303 272.54 210.643 272.767 210.926C273.005 211.209 273.305 211.43 273.668 211.589C274.031 211.736 274.473 211.81 274.994 211.81C275.413 211.81 275.793 211.77 276.133 211.691C276.473 211.612 276.739 211.527 276.932 211.436L277.153 212.762C277.062 212.819 276.932 212.875 276.762 212.932C276.592 212.977 276.399 213.017 276.184 213.051C275.969 213.096 275.736 213.13 275.487 213.153C275.249 213.187 275.017 213.204 274.79 213.204ZM41.59 237.189C41.9413 237.438 42.321 237.756 42.729 238.141C43.137 238.515 43.5337 238.923 43.919 239.365C44.3157 239.807 44.684 240.26 45.024 240.725C45.364 241.178 45.653 241.603 45.891 242H44.021C43.7717 241.615 43.477 241.224 43.137 240.827C42.8083 240.419 42.4627 240.028 42.1 239.654C41.7373 239.28 41.369 238.934 40.995 238.617C40.621 238.3 40.2697 238.033 39.941 237.818V242H38.36V233.16H39.941V236.951C40.213 236.69 40.5247 236.39 40.876 236.05C41.2273 235.699 41.5787 235.347 41.93 234.996C42.2927 234.633 42.627 234.293 42.933 233.976C43.239 233.647 43.4883 233.375 43.681 233.16H45.517C45.2677 233.432 44.973 233.744 44.633 234.095C44.3043 234.435 43.9587 234.786 43.596 235.149C43.2447 235.512 42.8933 235.874 42.542 236.237C42.1907 236.588 41.8733 236.906 41.59 237.189ZM50.4829 240.861C50.8569 240.861 51.1855 240.855 51.4689 240.844C51.7635 240.821 52.0072 240.787 52.1999 240.742V238.107C52.0865 238.05 51.8995 238.005 51.6389 237.971C51.3895 237.926 51.0835 237.903 50.7209 237.903C50.4829 237.903 50.2279 237.92 49.9559 237.954C49.6952 237.988 49.4515 238.062 49.2249 238.175C49.0095 238.277 48.8282 238.424 48.6809 238.617C48.5335 238.798 48.4599 239.042 48.4599 239.348C48.4599 239.915 48.6412 240.311 49.0039 240.538C49.3665 240.753 49.8595 240.861 50.4829 240.861ZM50.3469 232.939C50.9815 232.939 51.5142 233.024 51.9449 233.194C52.3869 233.353 52.7382 233.585 52.9989 233.891C53.2709 234.186 53.4635 234.543 53.5769 234.962C53.6902 235.37 53.7469 235.823 53.7469 236.322V241.847C53.6109 241.87 53.4182 241.904 53.1689 241.949C52.9309 241.983 52.6589 242.017 52.3529 242.051C52.0469 242.085 51.7125 242.113 51.3499 242.136C50.9985 242.17 50.6472 242.187 50.2959 242.187C49.7972 242.187 49.3382 242.136 48.9189 242.034C48.4995 241.932 48.1369 241.773 47.8309 241.558C47.5249 241.331 47.2869 241.037 47.1169 240.674C46.9469 240.311 46.8619 239.875 46.8619 239.365C46.8619 238.878 46.9582 238.458 47.1509 238.107C47.3549 237.756 47.6269 237.472 47.9669 237.257C48.3069 237.042 48.7035 236.883 49.1569 236.781C49.6102 236.679 50.0862 236.628 50.5849 236.628C50.7435 236.628 50.9079 236.639 51.0779 236.662C51.2479 236.673 51.4065 236.696 51.5539 236.73C51.7125 236.753 51.8485 236.775 51.9619 236.798C52.0752 236.821 52.1545 236.838 52.1999 236.849V236.407C52.1999 236.146 52.1715 235.891 52.1149 235.642C52.0582 235.381 51.9562 235.155 51.8089 234.962C51.6615 234.758 51.4575 234.599 51.1969 234.486C50.9475 234.361 50.6189 234.299 50.2109 234.299C49.6895 234.299 49.2305 234.339 48.8339 234.418C48.4485 234.486 48.1595 234.56 47.9669 234.639L47.7799 233.33C47.9839 233.239 48.3239 233.154 48.7999 233.075C49.2759 232.984 49.7915 232.939 50.3469 232.939ZM57.3757 233.16V235.761C57.3757 236.43 57.5457 236.9 57.8857 237.172C58.2257 237.433 58.6904 237.563 59.2797 237.563C59.7104 237.563 60.0674 237.54 60.3507 237.495C60.6454 237.45 60.906 237.399 61.1327 237.342V233.16H62.7137V242H61.1327V238.566C61.042 238.589 60.923 238.617 60.7757 238.651C60.6284 238.685 60.4584 238.719 60.2657 238.753C60.0844 238.776 59.8917 238.798 59.6877 238.821C59.4837 238.844 59.2854 238.855 59.0927 238.855C58.6054 238.855 58.1577 238.804 57.7497 238.702C57.353 238.6 57.0074 238.43 56.7127 238.192C56.4294 237.954 56.2027 237.642 56.0327 237.257C55.874 236.86 55.7947 236.367 55.7947 235.778V233.16H57.3757ZM64.9441 237.597C64.9441 236.815 65.0575 236.135 65.2841 235.557C65.5108 234.968 65.8111 234.48 66.1851 234.095C66.5591 233.71 66.9898 233.421 67.4771 233.228C67.9645 233.035 68.4631 232.939 68.9731 232.939C70.1631 232.939 71.0755 233.313 71.7101 234.061C72.3448 234.798 72.6621 235.925 72.6621 237.444C72.6621 237.512 72.6621 237.603 72.6621 237.716C72.6621 237.818 72.6565 237.914 72.6451 238.005H66.5931C66.6611 238.923 66.9275 239.62 67.3921 240.096C67.8568 240.572 68.5821 240.81 69.5681 240.81C70.1235 240.81 70.5881 240.765 70.9621 240.674C71.3475 240.572 71.6365 240.476 71.8291 240.385L72.0501 241.711C71.8575 241.813 71.5175 241.921 71.0301 242.034C70.5541 242.147 70.0101 242.204 69.3981 242.204C68.6275 242.204 67.9588 242.091 67.3921 241.864C66.8368 241.626 66.3778 241.303 66.0151 240.895C65.6525 240.487 65.3805 240.005 65.1991 239.45C65.0291 238.883 64.9441 238.266 64.9441 237.597ZM71.0131 236.73C71.0245 236.016 70.8431 235.432 70.4691 234.979C70.1065 234.514 69.6021 234.282 68.9561 234.282C68.5935 234.282 68.2705 234.356 67.9871 234.503C67.7151 234.639 67.4828 234.82 67.2901 235.047C67.0975 235.274 66.9445 235.534 66.8311 235.829C66.7291 236.124 66.6611 236.424 66.6271 236.73H71.0131ZM78.7752 242.204C78.0612 242.204 77.4322 242.091 76.8882 241.864C76.3556 241.637 75.9022 241.32 75.5282 240.912C75.1656 240.504 74.8936 240.022 74.7122 239.467C74.5309 238.9 74.4402 238.277 74.4402 237.597C74.4402 236.917 74.5366 236.294 74.7292 235.727C74.9332 235.16 75.2166 234.673 75.5792 234.265C75.9419 233.846 76.3839 233.523 76.9052 233.296C77.4379 233.058 78.0272 232.939 78.6732 232.939C79.0699 232.939 79.4666 232.973 79.8632 233.041C80.2599 233.109 80.6396 233.217 81.0022 233.364L80.6452 234.707C80.4072 234.594 80.1296 234.503 79.8122 234.435C79.5062 234.367 79.1776 234.333 78.8262 234.333C77.9422 234.333 77.2622 234.611 76.7862 235.166C76.3216 235.721 76.0892 236.532 76.0892 237.597C76.0892 238.073 76.1402 238.509 76.2422 238.906C76.3556 239.303 76.5256 239.643 76.7522 239.926C76.9902 240.209 77.2906 240.43 77.6532 240.589C78.0159 240.736 78.4579 240.81 78.9792 240.81C79.3986 240.81 79.7782 240.77 80.1182 240.691C80.4582 240.612 80.7246 240.527 80.9172 240.436L81.1382 241.762C81.0476 241.819 80.9172 241.875 80.7472 241.932C80.5772 241.977 80.3846 242.017 80.1692 242.051C79.9539 242.096 79.7216 242.13 79.4722 242.153C79.2342 242.187 79.0019 242.204 78.7752 242.204ZM89.3236 233.16V234.486H86.4506V242H84.8696V234.486H81.9966V233.16H89.3236ZM92.5008 240.81C92.5688 240.821 92.6651 240.833 92.7898 240.844C92.9144 240.855 93.0561 240.867 93.2148 240.878C93.3734 240.878 93.5378 240.884 93.7078 240.895C93.8891 240.895 94.0591 240.895 94.2178 240.895C94.5464 240.895 94.8581 240.872 95.1528 240.827C95.4588 240.782 95.7194 240.702 95.9348 240.589C96.1614 240.476 96.3371 240.328 96.4618 240.147C96.5978 239.954 96.6658 239.711 96.6658 239.416C96.6658 239.133 96.6034 238.9 96.4788 238.719C96.3654 238.526 96.2068 238.373 96.0028 238.26C95.7988 238.147 95.5551 238.067 95.2718 238.022C94.9998 237.977 94.7051 237.954 94.3878 237.954H92.5008V240.81ZM94.1838 236.781C94.4898 236.781 94.7674 236.764 95.0168 236.73C95.2774 236.685 95.4984 236.611 95.6798 236.509C95.8724 236.407 96.0198 236.271 96.1218 236.101C96.2351 235.931 96.2918 235.716 96.2918 235.455C96.2918 235.183 96.2238 234.968 96.0878 234.809C95.9518 234.65 95.7704 234.531 95.5438 234.452C95.3284 234.361 95.0791 234.305 94.7958 234.282C94.5238 234.248 94.2461 234.231 93.9627 234.231C93.7021 234.231 93.4358 234.237 93.1638 234.248C92.9031 234.259 92.6821 234.271 92.5008 234.282V236.781H94.1838ZM94.1498 242.153C93.4811 242.153 92.8634 242.119 92.2968 242.051C91.7301 241.994 91.2824 241.926 90.9538 241.847V233.245C91.2824 233.166 91.7301 233.098 92.2968 233.041C92.8634 232.973 93.4811 232.939 94.1498 232.939C94.6144 232.939 95.0678 232.979 95.5098 233.058C95.9518 233.137 96.3428 233.273 96.6828 233.466C97.0228 233.647 97.2948 233.902 97.4988 234.231C97.7141 234.548 97.8218 234.945 97.8218 235.421C97.8218 235.852 97.7141 236.22 97.4988 236.526C97.2834 236.832 96.9944 237.07 96.6318 237.24C97.1191 237.41 97.5044 237.665 97.7878 238.005C98.0824 238.334 98.2298 238.798 98.2298 239.399C98.2298 239.932 98.1221 240.374 97.9068 240.725C97.7028 241.076 97.4138 241.36 97.0398 241.575C96.6771 241.79 96.2464 241.938 95.7478 242.017C95.2491 242.108 94.7164 242.153 94.1498 242.153ZM108.07 237.58C108.07 238.283 107.968 238.917 107.764 239.484C107.56 240.051 107.271 240.538 106.897 240.946C106.535 241.354 106.098 241.671 105.588 241.898C105.078 242.113 104.523 242.221 103.922 242.221C103.322 242.221 102.766 242.113 102.256 241.898C101.746 241.671 101.304 241.354 100.93 240.946C100.568 240.538 100.284 240.051 100.08 239.484C99.8762 238.917 99.7742 238.283 99.7742 237.58C99.7742 236.889 99.8762 236.26 100.08 235.693C100.284 235.115 100.568 234.622 100.93 234.214C101.304 233.806 101.746 233.494 102.256 233.279C102.766 233.052 103.322 232.939 103.922 232.939C104.523 232.939 105.078 233.052 105.588 233.279C106.098 233.494 106.535 233.806 106.897 234.214C107.271 234.622 107.56 235.115 107.764 235.693C107.968 236.26 108.07 236.889 108.07 237.58ZM106.421 237.58C106.421 236.583 106.195 235.795 105.741 235.217C105.299 234.628 104.693 234.333 103.922 234.333C103.152 234.333 102.54 234.628 102.086 235.217C101.644 235.795 101.423 236.583 101.423 237.58C101.423 238.577 101.644 239.371 102.086 239.96C102.54 240.538 103.152 240.827 103.922 240.827C104.693 240.827 105.299 240.538 105.741 239.96C106.195 239.371 106.421 238.577 106.421 237.58ZM111.978 235.489C111.864 236.611 111.779 237.733 111.723 238.855C111.666 239.966 111.621 241.014 111.587 242H110.074C110.096 241.309 110.13 240.589 110.176 239.841C110.221 239.082 110.272 238.322 110.329 237.563C110.385 236.792 110.448 236.039 110.516 235.302C110.584 234.554 110.657 233.84 110.737 233.16H112.182C112.544 233.749 112.969 234.56 113.457 235.591C113.944 236.611 114.505 237.79 115.14 239.127C115.774 237.79 116.335 236.611 116.823 235.591C117.31 234.56 117.735 233.749 118.098 233.16H119.56C119.639 233.84 119.713 234.554 119.781 235.302C119.849 236.039 119.911 236.792 119.968 237.563C120.024 238.322 120.075 239.082 120.121 239.841C120.166 240.589 120.2 241.309 120.223 242H118.659C118.625 241.014 118.579 239.966 118.523 238.855C118.466 237.733 118.381 236.611 118.268 235.489C118.086 235.84 117.877 236.265 117.639 236.764C117.401 237.251 117.163 237.75 116.925 238.26C116.698 238.77 116.483 239.257 116.279 239.722C116.075 240.187 115.916 240.555 115.803 240.827H114.477C114.352 240.544 114.182 240.17 113.967 239.705C113.763 239.24 113.542 238.753 113.304 238.243C113.077 237.722 112.845 237.217 112.607 236.73C112.369 236.231 112.159 235.818 111.978 235.489ZM133.906 242H132.325V238.09H128.245V242H126.664V233.16H128.245V236.764H132.325V233.16H133.906V242ZM139.617 240.861C139.991 240.861 140.319 240.855 140.603 240.844C140.897 240.821 141.141 240.787 141.334 240.742V238.107C141.22 238.05 141.033 238.005 140.773 237.971C140.523 237.926 140.217 237.903 139.855 237.903C139.617 237.903 139.362 237.92 139.09 237.954C138.829 237.988 138.585 238.062 138.359 238.175C138.143 238.277 137.962 238.424 137.815 238.617C137.667 238.798 137.594 239.042 137.594 239.348C137.594 239.915 137.775 240.311 138.138 240.538C138.5 240.753 138.993 240.861 139.617 240.861ZM139.481 232.939C140.115 232.939 140.648 233.024 141.079 233.194C141.521 233.353 141.872 233.585 142.133 233.891C142.405 234.186 142.597 234.543 142.711 234.962C142.824 235.37 142.881 235.823 142.881 236.322V241.847C142.745 241.87 142.552 241.904 142.303 241.949C142.065 241.983 141.793 242.017 141.487 242.051C141.181 242.085 140.846 242.113 140.484 242.136C140.132 242.17 139.781 242.187 139.43 242.187C138.931 242.187 138.472 242.136 138.053 242.034C137.633 241.932 137.271 241.773 136.965 241.558C136.659 241.331 136.421 241.037 136.251 240.674C136.081 240.311 135.996 239.875 135.996 239.365C135.996 238.878 136.092 238.458 136.285 238.107C136.489 237.756 136.761 237.472 137.101 237.257C137.441 237.042 137.837 236.883 138.291 236.781C138.744 236.679 139.22 236.628 139.719 236.628C139.877 236.628 140.042 236.639 140.212 236.662C140.382 236.673 140.54 236.696 140.688 236.73C140.846 236.753 140.982 236.775 141.096 236.798C141.209 236.821 141.288 236.838 141.334 236.849V236.407C141.334 236.146 141.305 235.891 141.249 235.642C141.192 235.381 141.09 235.155 140.943 234.962C140.795 234.758 140.591 234.599 140.331 234.486C140.081 234.361 139.753 234.299 139.345 234.299C138.823 234.299 138.364 234.339 137.968 234.418C137.582 234.486 137.293 234.56 137.101 234.639L136.914 233.33C137.118 233.239 137.458 233.154 137.934 233.075C138.41 232.984 138.925 232.939 139.481 232.939ZM148.404 243.649C148.529 243.706 148.687 243.757 148.88 243.802C149.084 243.859 149.282 243.887 149.475 243.887C150.098 243.887 150.586 243.745 150.937 243.462C151.288 243.19 151.606 242.742 151.889 242.119C151.175 240.759 150.506 239.32 149.883 237.801C149.271 236.271 148.761 234.724 148.353 233.16H150.053C150.178 233.67 150.325 234.22 150.495 234.809C150.676 235.398 150.875 236.005 151.09 236.628C151.305 237.251 151.538 237.875 151.787 238.498C152.036 239.121 152.297 239.722 152.569 240.3C153 239.11 153.374 237.931 153.691 236.764C154.008 235.597 154.309 234.395 154.592 233.16H156.224C155.816 234.826 155.363 236.43 154.864 237.971C154.365 239.501 153.827 240.935 153.249 242.272C153.022 242.782 152.784 243.218 152.535 243.581C152.297 243.955 152.031 244.261 151.736 244.499C151.441 244.737 151.107 244.913 150.733 245.026C150.37 245.139 149.957 245.196 149.492 245.196C149.367 245.196 149.237 245.185 149.101 245.162C148.965 245.151 148.829 245.128 148.693 245.094C148.568 245.071 148.449 245.043 148.336 245.009C148.234 244.975 148.16 244.947 148.115 244.924L148.404 243.649ZM164.028 237.597C164.028 236.566 163.773 235.772 163.263 235.217C162.753 234.662 162.073 234.384 161.223 234.384C160.747 234.384 160.373 234.401 160.101 234.435C159.841 234.469 159.631 234.509 159.472 234.554V240.13C159.665 240.289 159.943 240.442 160.305 240.589C160.668 240.736 161.065 240.81 161.495 240.81C161.949 240.81 162.334 240.731 162.651 240.572C162.98 240.402 163.246 240.175 163.45 239.892C163.654 239.597 163.802 239.257 163.892 238.872C163.983 238.475 164.028 238.05 164.028 237.597ZM165.677 237.597C165.677 238.266 165.587 238.883 165.405 239.45C165.235 240.017 164.98 240.504 164.64 240.912C164.3 241.32 163.881 241.637 163.382 241.864C162.895 242.091 162.334 242.204 161.699 242.204C161.189 242.204 160.736 242.136 160.339 242C159.954 241.864 159.665 241.734 159.472 241.609V245.145H157.891V233.432C158.265 233.341 158.73 233.245 159.285 233.143C159.852 233.03 160.504 232.973 161.24 232.973C161.92 232.973 162.532 233.081 163.076 233.296C163.62 233.511 164.085 233.817 164.47 234.214C164.856 234.611 165.15 235.098 165.354 235.676C165.57 236.243 165.677 236.883 165.677 237.597ZM175.705 237.58C175.705 238.283 175.603 238.917 175.399 239.484C175.195 240.051 174.906 240.538 174.532 240.946C174.169 241.354 173.733 241.671 173.223 241.898C172.713 242.113 172.158 242.221 171.557 242.221C170.956 242.221 170.401 242.113 169.891 241.898C169.381 241.671 168.939 241.354 168.565 240.946C168.202 240.538 167.919 240.051 167.715 239.484C167.511 238.917 167.409 238.283 167.409 237.58C167.409 236.889 167.511 236.26 167.715 235.693C167.919 235.115 168.202 234.622 168.565 234.214C168.939 233.806 169.381 233.494 169.891 233.279C170.401 233.052 170.956 232.939 171.557 232.939C172.158 232.939 172.713 233.052 173.223 233.279C173.733 233.494 174.169 233.806 174.532 234.214C174.906 234.622 175.195 235.115 175.399 235.693C175.603 236.26 175.705 236.889 175.705 237.58ZM174.056 237.58C174.056 236.583 173.829 235.795 173.376 235.217C172.934 234.628 172.328 234.333 171.557 234.333C170.786 234.333 170.174 234.628 169.721 235.217C169.279 235.795 169.058 236.583 169.058 237.58C169.058 238.577 169.279 239.371 169.721 239.96C170.174 240.538 170.786 240.827 171.557 240.827C172.328 240.827 172.934 240.538 173.376 239.96C173.829 239.371 174.056 238.577 174.056 237.58ZM179.476 240.81C179.544 240.821 179.641 240.833 179.765 240.844C179.89 240.855 180.032 240.867 180.19 240.878C180.349 240.878 180.513 240.884 180.683 240.895C180.865 240.895 181.035 240.895 181.193 240.895C181.522 240.895 181.834 240.872 182.128 240.827C182.434 240.782 182.695 240.702 182.91 240.589C183.137 240.476 183.313 240.328 183.437 240.147C183.573 239.954 183.641 239.711 183.641 239.416C183.641 239.133 183.579 238.9 183.454 238.719C183.341 238.526 183.182 238.373 182.978 238.26C182.774 238.147 182.531 238.067 182.247 238.022C181.975 237.977 181.681 237.954 181.363 237.954H179.476V240.81ZM181.159 236.781C181.465 236.781 181.743 236.764 181.992 236.73C182.253 236.685 182.474 236.611 182.655 236.509C182.848 236.407 182.995 236.271 183.097 236.101C183.211 235.931 183.267 235.716 183.267 235.455C183.267 235.183 183.199 234.968 183.063 234.809C182.927 234.65 182.746 234.531 182.519 234.452C182.304 234.361 182.055 234.305 181.771 234.282C181.499 234.248 181.222 234.231 180.938 234.231C180.678 234.231 180.411 234.237 180.139 234.248C179.879 234.259 179.658 234.271 179.476 234.282V236.781H181.159ZM181.125 242.153C180.457 242.153 179.839 242.119 179.272 242.051C178.706 241.994 178.258 241.926 177.929 241.847V233.245C178.258 233.166 178.706 233.098 179.272 233.041C179.839 232.973 180.457 232.939 181.125 232.939C181.59 232.939 182.043 232.979 182.485 233.058C182.927 233.137 183.318 233.273 183.658 233.466C183.998 233.647 184.27 233.902 184.474 234.231C184.69 234.548 184.797 234.945 184.797 235.421C184.797 235.852 184.69 236.22 184.474 236.526C184.259 236.832 183.97 237.07 183.607 237.24C184.095 237.41 184.48 237.665 184.763 238.005C185.058 238.334 185.205 238.798 185.205 239.399C185.205 239.932 185.098 240.374 184.882 240.725C184.678 241.076 184.389 241.36 184.015 241.575C183.653 241.79 183.222 241.938 182.723 242.017C182.225 242.108 181.692 242.153 181.125 242.153ZM194.485 242H192.904V238.09H188.824V242H187.243V233.16H188.824V236.764H192.904V233.16H194.485V242ZM196.711 237.597C196.711 236.815 196.824 236.135 197.051 235.557C197.277 234.968 197.578 234.48 197.952 234.095C198.326 233.71 198.756 233.421 199.244 233.228C199.731 233.035 200.23 232.939 200.74 232.939C201.93 232.939 202.842 233.313 203.477 234.061C204.111 234.798 204.429 235.925 204.429 237.444C204.429 237.512 204.429 237.603 204.429 237.716C204.429 237.818 204.423 237.914 204.412 238.005H198.36C198.428 238.923 198.694 239.62 199.159 240.096C199.623 240.572 200.349 240.81 201.335 240.81C201.89 240.81 202.355 240.765 202.729 240.674C203.114 240.572 203.403 240.476 203.596 240.385L203.817 241.711C203.624 241.813 203.284 241.921 202.797 242.034C202.321 242.147 201.777 242.204 201.165 242.204C200.394 242.204 199.725 242.091 199.159 241.864C198.603 241.626 198.144 241.303 197.782 240.895C197.419 240.487 197.147 240.005 196.966 239.45C196.796 238.883 196.711 238.266 196.711 237.597ZM202.78 236.73C202.791 236.016 202.61 235.432 202.236 234.979C201.873 234.514 201.369 234.282 200.723 234.282C200.36 234.282 200.037 234.356 199.754 234.503C199.482 234.639 199.249 234.82 199.057 235.047C198.864 235.274 198.711 235.534 198.598 235.829C198.496 236.124 198.428 236.424 198.394 236.73H202.78ZM210.141 237.597C210.141 236.815 210.255 236.135 210.481 235.557C210.708 234.968 211.008 234.48 211.382 234.095C211.756 233.71 212.187 233.421 212.674 233.228C213.162 233.035 213.66 232.939 214.17 232.939C215.36 232.939 216.273 233.313 216.907 234.061C217.542 234.798 217.859 235.925 217.859 237.444C217.859 237.512 217.859 237.603 217.859 237.716C217.859 237.818 217.854 237.914 217.842 238.005H211.79C211.858 238.923 212.125 239.62 212.589 240.096C213.054 240.572 213.779 240.81 214.765 240.81C215.321 240.81 215.785 240.765 216.159 240.674C216.545 240.572 216.834 240.476 217.026 240.385L217.247 241.711C217.055 241.813 216.715 241.921 216.227 242.034C215.751 242.147 215.207 242.204 214.595 242.204C213.825 242.204 213.156 242.091 212.589 241.864C212.034 241.626 211.575 241.303 211.212 240.895C210.85 240.487 210.578 240.005 210.396 239.45C210.226 238.883 210.141 238.266 210.141 237.597ZM216.21 236.73C216.222 236.016 216.04 235.432 215.666 234.979C215.304 234.514 214.799 234.282 214.153 234.282C213.791 234.282 213.468 234.356 213.184 234.503C212.912 234.639 212.68 234.82 212.487 235.047C212.295 235.274 212.142 235.534 212.028 235.829C211.926 236.124 211.858 236.424 211.824 236.73H216.21ZM221.678 240.81C221.746 240.821 221.842 240.833 221.967 240.844C222.091 240.855 222.233 240.867 222.392 240.878C222.55 240.878 222.715 240.884 222.885 240.895C223.066 240.895 223.236 240.895 223.395 240.895C223.723 240.895 224.035 240.872 224.33 240.827C224.636 240.782 224.896 240.702 225.112 240.589C225.338 240.476 225.514 240.328 225.639 240.147C225.775 239.954 225.843 239.711 225.843 239.416C225.843 239.133 225.78 238.9 225.656 238.719C225.542 238.526 225.384 238.373 225.18 238.26C224.976 238.147 224.732 238.067 224.449 238.022C224.177 237.977 223.882 237.954 223.565 237.954H221.678V240.81ZM223.361 236.781C223.667 236.781 223.944 236.764 224.194 236.73C224.454 236.685 224.675 236.611 224.857 236.509C225.049 236.407 225.197 236.271 225.299 236.101C225.412 235.931 225.469 235.716 225.469 235.455C225.469 235.183 225.401 234.968 225.265 234.809C225.129 234.65 224.947 234.531 224.721 234.452C224.505 234.361 224.256 234.305 223.973 234.282C223.701 234.248 223.423 234.231 223.14 234.231C222.879 234.231 222.613 234.237 222.341 234.248C222.08 234.259 221.859 234.271 221.678 234.282V236.781H223.361ZM223.327 242.153C222.658 242.153 222.04 242.119 221.474 242.051C220.907 241.994 220.459 241.926 220.131 241.847V233.245C220.459 233.166 220.907 233.098 221.474 233.041C222.04 232.973 222.658 232.939 223.327 232.939C223.791 232.939 224.245 232.979 224.687 233.058C225.129 233.137 225.52 233.273 225.86 233.466C226.2 233.647 226.472 233.902 226.676 234.231C226.891 234.548 226.999 234.945 226.999 235.421C226.999 235.852 226.891 236.22 226.676 236.526C226.46 236.832 226.171 237.07 225.809 237.24C226.296 237.41 226.681 237.665 226.965 238.005C227.259 238.334 227.407 238.798 227.407 239.399C227.407 239.932 227.299 240.374 227.084 240.725C226.88 241.076 226.591 241.36 226.217 241.575C225.854 241.79 225.423 241.938 224.925 242.017C224.426 242.108 223.893 242.153 223.327 242.153ZM235.581 237.597C235.581 236.566 235.326 235.772 234.816 235.217C234.306 234.662 233.626 234.384 232.776 234.384C232.3 234.384 231.926 234.401 231.654 234.435C231.393 234.469 231.184 234.509 231.025 234.554V240.13C231.218 240.289 231.495 240.442 231.858 240.589C232.221 240.736 232.617 240.81 233.048 240.81C233.501 240.81 233.887 240.731 234.204 240.572C234.533 240.402 234.799 240.175 235.003 239.892C235.207 239.597 235.354 239.257 235.445 238.872C235.536 238.475 235.581 238.05 235.581 237.597ZM237.23 237.597C237.23 238.266 237.139 238.883 236.958 239.45C236.788 240.017 236.533 240.504 236.193 240.912C235.853 241.32 235.434 241.637 234.935 241.864C234.448 242.091 233.887 242.204 233.252 242.204C232.742 242.204 232.289 242.136 231.892 242C231.507 241.864 231.218 241.734 231.025 241.609V245.145H229.444V233.432C229.818 233.341 230.283 233.245 230.838 233.143C231.405 233.03 232.056 232.973 232.793 232.973C233.473 232.973 234.085 233.081 234.629 233.296C235.173 233.511 235.638 233.817 236.023 234.214C236.408 234.611 236.703 235.098 236.907 235.676C237.122 236.243 237.23 236.883 237.23 237.597ZM247.258 237.58C247.258 238.283 247.156 238.917 246.952 239.484C246.748 240.051 246.459 240.538 246.085 240.946C245.722 241.354 245.286 241.671 244.776 241.898C244.266 242.113 243.71 242.221 243.11 242.221C242.509 242.221 241.954 242.113 241.444 241.898C240.934 241.671 240.492 241.354 240.118 240.946C239.755 240.538 239.472 240.051 239.268 239.484C239.064 238.917 238.962 238.283 238.962 237.58C238.962 236.889 239.064 236.26 239.268 235.693C239.472 235.115 239.755 234.622 240.118 234.214C240.492 233.806 240.934 233.494 241.444 233.279C241.954 233.052 242.509 232.939 243.11 232.939C243.71 232.939 244.266 233.052 244.776 233.279C245.286 233.494 245.722 233.806 246.085 234.214C246.459 234.622 246.748 235.115 246.952 235.693C247.156 236.26 247.258 236.889 247.258 237.58ZM245.609 237.58C245.609 236.583 245.382 235.795 244.929 235.217C244.487 234.628 243.88 234.333 243.11 234.333C242.339 234.333 241.727 234.628 241.274 235.217C240.832 235.795 240.611 236.583 240.611 237.58C240.611 238.577 240.832 239.371 241.274 239.96C241.727 240.538 242.339 240.827 243.11 240.827C243.88 240.827 244.487 240.538 244.929 239.96C245.382 239.371 245.609 238.577 245.609 237.58ZM256.588 242H255.007V234.486H251.063V242H249.482V233.16H256.588V242ZM258.817 237.597C258.817 236.815 258.931 236.135 259.157 235.557C259.384 234.968 259.684 234.48 260.058 234.095C260.432 233.71 260.863 233.421 261.35 233.228C261.838 233.035 262.336 232.939 262.846 232.939C264.036 232.939 264.949 233.313 265.583 234.061C266.218 234.798 266.535 235.925 266.535 237.444C266.535 237.512 266.535 237.603 266.535 237.716C266.535 237.818 266.53 237.914 266.518 238.005H260.466C260.534 238.923 260.801 239.62 261.265 240.096C261.73 240.572 262.455 240.81 263.441 240.81C263.997 240.81 264.461 240.765 264.835 240.674C265.221 240.572 265.51 240.476 265.702 240.385L265.923 241.711C265.731 241.813 265.391 241.921 264.903 242.034C264.427 242.147 263.883 242.204 263.271 242.204C262.501 242.204 261.832 242.091 261.265 241.864C260.71 241.626 260.251 241.303 259.888 240.895C259.526 240.487 259.254 240.005 259.072 239.45C258.902 238.883 258.817 238.266 258.817 237.597ZM264.886 236.73C264.898 236.016 264.716 235.432 264.342 234.979C263.98 234.514 263.475 234.282 262.829 234.282C262.467 234.282 262.144 234.356 261.86 234.503C261.588 234.639 261.356 234.82 261.163 235.047C260.971 235.274 260.818 235.534 260.704 235.829C260.602 236.124 260.534 236.424 260.5 236.73H264.886ZM276.235 233.16V242H274.705V235.268C274.365 235.699 273.991 236.203 273.583 236.781C273.175 237.359 272.767 237.96 272.359 238.583C271.951 239.195 271.56 239.801 271.186 240.402C270.812 241.003 270.489 241.535 270.217 242H268.806V233.16H270.336V239.518C270.631 239.031 270.965 238.498 271.339 237.92C271.713 237.331 272.099 236.753 272.495 236.186C272.903 235.608 273.306 235.058 273.702 234.537C274.11 234.004 274.49 233.545 274.841 233.16H276.235ZM272.529 231.732C271.815 231.732 271.232 231.551 270.778 231.188C270.336 230.825 270.07 230.321 269.979 229.675L271.186 229.352C271.277 229.715 271.43 230.009 271.645 230.236C271.861 230.463 272.155 230.576 272.529 230.576C272.903 230.576 273.198 230.463 273.413 230.236C273.629 230.009 273.782 229.715 273.872 229.352L275.062 229.675C274.972 230.321 274.705 230.825 274.263 231.188C273.821 231.551 273.243 231.732 272.529 231.732ZM282.792 242.204C282.078 242.204 281.449 242.091 280.905 241.864C280.372 241.637 279.919 241.32 279.545 240.912C279.182 240.504 278.91 240.022 278.729 239.467C278.548 238.9 278.457 238.277 278.457 237.597C278.457 236.917 278.553 236.294 278.746 235.727C278.95 235.16 279.233 234.673 279.596 234.265C279.959 233.846 280.401 233.523 280.922 233.296C281.455 233.058 282.044 232.939 282.69 232.939C283.087 232.939 283.483 232.973 283.88 233.041C284.277 233.109 284.656 233.217 285.019 233.364L284.662 234.707C284.424 234.594 284.146 234.503 283.829 234.435C283.523 234.367 283.194 234.333 282.843 234.333C281.959 234.333 281.279 234.611 280.803 235.166C280.338 235.721 280.106 236.532 280.106 237.597C280.106 238.073 280.157 238.509 280.259 238.906C280.372 239.303 280.542 239.643 280.769 239.926C281.007 240.209 281.307 240.43 281.67 240.589C282.033 240.736 282.475 240.81 282.996 240.81C283.415 240.81 283.795 240.77 284.135 240.691C284.475 240.612 284.741 240.527 284.934 240.436L285.155 241.762C285.064 241.819 284.934 241.875 284.764 241.932C284.594 241.977 284.401 242.017 284.186 242.051C283.971 242.096 283.738 242.13 283.489 242.153C283.251 242.187 283.019 242.204 282.792 242.204ZM290.082 237.189C290.434 237.438 290.813 237.756 291.221 238.141C291.629 238.515 292.026 238.923 292.411 239.365C292.808 239.807 293.176 240.26 293.516 240.725C293.856 241.178 294.145 241.603 294.383 242H292.513C292.264 241.615 291.969 241.224 291.629 240.827C291.301 240.419 290.955 240.028 290.592 239.654C290.23 239.28 289.861 238.934 289.487 238.617C289.113 238.3 288.762 238.033 288.433 237.818V242H286.852V233.16H288.433V236.951C288.705 236.69 289.017 236.39 289.368 236.05C289.72 235.699 290.071 235.347 290.422 234.996C290.785 234.633 291.119 234.293 291.425 233.976C291.731 233.647 291.981 233.375 292.173 233.16H294.009C293.76 233.432 293.465 233.744 293.125 234.095C292.797 234.435 292.451 234.786 292.088 235.149C291.737 235.512 291.386 235.874 291.034 236.237C290.683 236.588 290.366 236.906 290.082 237.189ZM303.412 233.16V242H301.882V235.268C301.542 235.699 301.168 236.203 300.76 236.781C300.352 237.359 299.944 237.96 299.536 238.583C299.128 239.195 298.737 239.801 298.363 240.402C297.989 241.003 297.666 241.535 297.394 242H295.983V233.16H297.513V239.518C297.808 239.031 298.142 238.498 298.516 237.92C298.89 237.331 299.275 236.753 299.672 236.186C300.08 235.608 300.482 235.058 300.879 234.537C301.287 234.004 301.667 233.545 302.018 233.16H303.412ZM311.414 242C311.289 241.751 311.136 241.473 310.955 241.167C310.773 240.861 310.575 240.549 310.36 240.232C310.144 239.903 309.923 239.58 309.697 239.263C309.47 238.946 309.249 238.645 309.034 238.362C308.818 238.645 308.597 238.951 308.371 239.28C308.144 239.597 307.923 239.92 307.708 240.249C307.504 240.566 307.311 240.878 307.13 241.184C306.948 241.49 306.795 241.762 306.671 242H305.039C305.435 241.229 305.906 240.447 306.45 239.654C307.005 238.849 307.555 238.084 308.099 237.359L305.175 233.16H306.96L309.068 236.254L311.193 233.16H312.876L310.02 237.257C310.564 237.994 311.119 238.776 311.686 239.603C312.264 240.419 312.751 241.218 313.148 242H311.414ZM45.466 271H43.885V263.486H39.941V271H38.36V262.16H45.466V271ZM55.9911 266.58C55.9911 267.283 55.8891 267.917 55.6851 268.484C55.4811 269.051 55.1921 269.538 54.8181 269.946C54.4555 270.354 54.0191 270.671 53.5091 270.898C52.9991 271.113 52.4438 271.221 51.8431 271.221C51.2425 271.221 50.6871 271.113 50.1771 270.898C49.6671 270.671 49.2251 270.354 48.8511 269.946C48.4885 269.538 48.2051 269.051 48.0011 268.484C47.7971 267.917 47.6951 267.283 47.6951 266.58C47.6951 265.889 47.7971 265.26 48.0011 264.693C48.2051 264.115 48.4885 263.622 48.8511 263.214C49.2251 262.806 49.6671 262.494 50.1771 262.279C50.6871 262.052 51.2425 261.939 51.8431 261.939C52.4438 261.939 52.9991 262.052 53.5091 262.279C54.0191 262.494 54.4555 262.806 54.8181 263.214C55.1921 263.622 55.4811 264.115 55.6851 264.693C55.8891 265.26 55.9911 265.889 55.9911 266.58ZM54.3421 266.58C54.3421 265.583 54.1155 264.795 53.6621 264.217C53.2201 263.628 52.6138 263.333 51.8431 263.333C51.0725 263.333 50.4605 263.628 50.0071 264.217C49.5651 264.795 49.3441 265.583 49.3441 266.58C49.3441 267.577 49.5651 268.371 50.0071 268.96C50.4605 269.538 51.0725 269.827 51.8431 269.827C52.6138 269.827 53.2201 269.538 53.6621 268.96C54.1155 268.371 54.3421 267.577 54.3421 266.58ZM62.0575 271.204C61.3435 271.204 60.7145 271.091 60.1705 270.864C59.6378 270.637 59.1845 270.32 58.8105 269.912C58.4478 269.504 58.1758 269.022 57.9945 268.467C57.8131 267.9 57.7225 267.277 57.7225 266.597C57.7225 265.917 57.8188 265.294 58.0115 264.727C58.2155 264.16 58.4988 263.673 58.8615 263.265C59.2241 262.846 59.6661 262.523 60.1875 262.296C60.7201 262.058 61.3095 261.939 61.9555 261.939C62.3521 261.939 62.7488 261.973 63.1455 262.041C63.5421 262.109 63.9218 262.217 64.2845 262.364L63.9275 263.707C63.6895 263.594 63.4118 263.503 63.0945 263.435C62.7885 263.367 62.4598 263.333 62.1085 263.333C61.2245 263.333 60.5445 263.611 60.0685 264.166C59.6038 264.721 59.3715 265.532 59.3715 266.597C59.3715 267.073 59.4225 267.509 59.5245 267.906C59.6378 268.303 59.8078 268.643 60.0345 268.926C60.2725 269.209 60.5728 269.43 60.9355 269.589C61.2981 269.736 61.7401 269.81 62.2615 269.81C62.6808 269.81 63.0605 269.77 63.4005 269.691C63.7405 269.612 64.0068 269.527 64.1995 269.436L64.4205 270.762C64.3298 270.819 64.1995 270.875 64.0295 270.932C63.8595 270.977 63.6668 271.017 63.4515 271.051C63.2361 271.096 63.0038 271.13 62.7545 271.153C62.5165 271.187 62.2841 271.204 62.0575 271.204ZM72.6058 262.16V263.486H69.7328V271H68.1518V263.486H65.2788V262.16H72.6058ZM77.228 269.861C77.602 269.861 77.9306 269.855 78.214 269.844C78.5086 269.821 78.7523 269.787 78.945 269.742V267.107C78.8316 267.05 78.6446 267.005 78.384 266.971C78.1346 266.926 77.8286 266.903 77.466 266.903C77.228 266.903 76.973 266.92 76.701 266.954C76.4403 266.988 76.1966 267.062 75.97 267.175C75.7546 267.277 75.5733 267.424 75.426 267.617C75.2786 267.798 75.205 268.042 75.205 268.348C75.205 268.915 75.3863 269.311 75.749 269.538C76.1116 269.753 76.6046 269.861 77.228 269.861ZM77.092 261.939C77.7266 261.939 78.2593 262.024 78.69 262.194C79.132 262.353 79.4833 262.585 79.744 262.891C80.016 263.186 80.2086 263.543 80.322 263.962C80.4353 264.37 80.492 264.823 80.492 265.322V270.847C80.356 270.87 80.1633 270.904 79.914 270.949C79.676 270.983 79.404 271.017 79.098 271.051C78.792 271.085 78.4576 271.113 78.095 271.136C77.7436 271.17 77.3923 271.187 77.041 271.187C76.5423 271.187 76.0833 271.136 75.664 271.034C75.2446 270.932 74.882 270.773 74.576 270.558C74.27 270.331 74.032 270.037 73.862 269.674C73.692 269.311 73.607 268.875 73.607 268.365C73.607 267.878 73.7033 267.458 73.896 267.107C74.1 266.756 74.372 266.472 74.712 266.257C75.052 266.042 75.4486 265.883 75.902 265.781C76.3553 265.679 76.8313 265.628 77.33 265.628C77.4886 265.628 77.653 265.639 77.823 265.662C77.993 265.673 78.1516 265.696 78.299 265.73C78.4576 265.753 78.5936 265.775 78.707 265.798C78.8203 265.821 78.8996 265.838 78.945 265.849V265.407C78.945 265.146 78.9166 264.891 78.86 264.642C78.8033 264.381 78.7013 264.155 78.554 263.962C78.4066 263.758 78.2026 263.599 77.942 263.486C77.6926 263.361 77.364 263.299 76.956 263.299C76.4346 263.299 75.9756 263.339 75.579 263.418C75.1936 263.486 74.9046 263.56 74.712 263.639L74.525 262.33C74.729 262.239 75.069 262.154 75.545 262.075C76.021 261.984 76.5366 261.939 77.092 261.939ZM84.6648 269.81C84.7328 269.821 84.8291 269.833 84.9538 269.844C85.0785 269.855 85.2201 269.867 85.3788 269.878C85.5375 269.878 85.7018 269.884 85.8718 269.895C86.0531 269.895 86.2231 269.895 86.3818 269.895C86.7105 269.895 87.0221 269.872 87.3168 269.827C87.6228 269.782 87.8835 269.702 88.0988 269.589C88.3255 269.476 88.5011 269.328 88.6258 269.147C88.7618 268.954 88.8298 268.711 88.8298 268.416C88.8298 268.133 88.7675 267.9 88.6428 267.719C88.5295 267.526 88.3708 267.373 88.1668 267.26C87.9628 267.147 87.7191 267.067 87.4358 267.022C87.1638 266.977 86.8691 266.954 86.5518 266.954H84.6648V269.81ZM86.3478 265.781C86.6538 265.781 86.9315 265.764 87.1808 265.73C87.4415 265.685 87.6625 265.611 87.8438 265.509C88.0365 265.407 88.1838 265.271 88.2858 265.101C88.3991 264.931 88.4558 264.716 88.4558 264.455C88.4558 264.183 88.3878 263.968 88.2518 263.809C88.1158 263.65 87.9345 263.531 87.7078 263.452C87.4925 263.361 87.2431 263.305 86.9598 263.282C86.6878 263.248 86.4101 263.231 86.1268 263.231C85.8661 263.231 85.5998 263.237 85.3278 263.248C85.0671 263.259 84.8461 263.271 84.6648 263.282V265.781H86.3478ZM86.3138 271.153C85.6451 271.153 85.0275 271.119 84.4608 271.051C83.8941 270.994 83.4465 270.926 83.1178 270.847V262.245C83.4465 262.166 83.8941 262.098 84.4608 262.041C85.0275 261.973 85.6451 261.939 86.3138 261.939C86.7785 261.939 87.2318 261.979 87.6738 262.058C88.1158 262.137 88.5068 262.273 88.8468 262.466C89.1868 262.647 89.4588 262.902 89.6628 263.231C89.8781 263.548 89.9858 263.945 89.9858 264.421C89.9858 264.852 89.8781 265.22 89.6628 265.526C89.4475 265.832 89.1585 266.07 88.7958 266.24C89.2831 266.41 89.6685 266.665 89.9518 267.005C90.2465 267.334 90.3938 267.798 90.3938 268.399C90.3938 268.932 90.2861 269.374 90.0708 269.725C89.8668 270.076 89.5778 270.36 89.2038 270.575C88.8411 270.79 88.4105 270.938 87.9118 271.017C87.4131 271.108 86.8805 271.153 86.3138 271.153ZM92.4313 271V262.16H94.0123V269.691H97.2763V262.16H98.8573V269.691H102.121V262.16H103.702V269.691H104.892V273.465H103.396V271H92.4313ZM114.038 262.16V271H112.508V264.268C112.168 264.699 111.794 265.203 111.386 265.781C110.978 266.359 110.57 266.96 110.162 267.583C109.754 268.195 109.363 268.801 108.989 269.402C108.615 270.003 108.292 270.535 108.02 271H106.609V262.16H108.139V268.518C108.434 268.031 108.768 267.498 109.142 266.92C109.516 266.331 109.901 265.753 110.298 265.186C110.706 264.608 111.108 264.058 111.505 263.537C111.913 263.004 112.293 262.545 112.644 262.16H114.038ZM119.983 266.189C120.334 266.438 120.714 266.756 121.122 267.141C121.53 267.515 121.926 267.923 122.312 268.365C122.708 268.807 123.077 269.26 123.417 269.725C123.757 270.178 124.046 270.603 124.284 271H122.414C122.164 270.615 121.87 270.224 121.53 269.827C121.201 269.419 120.855 269.028 120.493 268.654C120.13 268.28 119.762 267.934 119.388 267.617C119.014 267.3 118.662 267.033 118.334 266.818V271H116.753V262.16H118.334V265.951C118.606 265.69 118.917 265.39 119.269 265.05C119.62 264.699 119.971 264.347 120.323 263.996C120.685 263.633 121.02 263.293 121.326 262.976C121.632 262.647 121.881 262.375 122.074 262.16H123.91C123.66 262.432 123.366 262.744 123.026 263.095C122.697 263.435 122.351 263.786 121.989 264.149C121.637 264.512 121.286 264.874 120.935 265.237C120.583 265.588 120.266 265.906 119.983 266.189ZM133.188 266.58C133.188 267.283 133.086 267.917 132.882 268.484C132.678 269.051 132.389 269.538 132.015 269.946C131.653 270.354 131.216 270.671 130.706 270.898C130.196 271.113 129.641 271.221 129.04 271.221C128.44 271.221 127.884 271.113 127.374 270.898C126.864 270.671 126.422 270.354 126.048 269.946C125.686 269.538 125.402 269.051 125.198 268.484C124.994 267.917 124.892 267.283 124.892 266.58C124.892 265.889 124.994 265.26 125.198 264.693C125.402 264.115 125.686 263.622 126.048 263.214C126.422 262.806 126.864 262.494 127.374 262.279C127.884 262.052 128.44 261.939 129.04 261.939C129.641 261.939 130.196 262.052 130.706 262.279C131.216 262.494 131.653 262.806 132.015 263.214C132.389 263.622 132.678 264.115 132.882 264.693C133.086 265.26 133.188 265.889 133.188 266.58ZM131.539 266.58C131.539 265.583 131.313 264.795 130.859 264.217C130.417 263.628 129.811 263.333 129.04 263.333C128.27 263.333 127.658 263.628 127.204 264.217C126.762 264.795 126.541 265.583 126.541 266.58C126.541 267.577 126.762 268.371 127.204 268.96C127.658 269.538 128.27 269.827 129.04 269.827C129.811 269.827 130.417 269.538 130.859 268.96C131.313 268.371 131.539 267.577 131.539 266.58ZM136.96 269.81C137.028 269.821 137.124 269.833 137.249 269.844C137.373 269.855 137.515 269.867 137.674 269.878C137.832 269.878 137.997 269.884 138.167 269.895C138.348 269.895 138.518 269.895 138.677 269.895C139.005 269.895 139.317 269.872 139.612 269.827C139.918 269.782 140.178 269.702 140.394 269.589C140.62 269.476 140.796 269.328 140.921 269.147C141.057 268.954 141.125 268.711 141.125 268.416C141.125 268.133 141.062 267.9 140.938 267.719C140.824 267.526 140.666 267.373 140.462 267.26C140.258 267.147 140.014 267.067 139.731 267.022C139.459 266.977 139.164 266.954 138.847 266.954H136.96V269.81ZM138.643 265.781C138.949 265.781 139.226 265.764 139.476 265.73C139.736 265.685 139.957 265.611 140.139 265.509C140.331 265.407 140.479 265.271 140.581 265.101C140.694 264.931 140.751 264.716 140.751 264.455C140.751 264.183 140.683 263.968 140.547 263.809C140.411 263.65 140.229 263.531 140.003 263.452C139.787 263.361 139.538 263.305 139.255 263.282C138.983 263.248 138.705 263.231 138.422 263.231C138.161 263.231 137.895 263.237 137.623 263.248C137.362 263.259 137.141 263.271 136.96 263.282V265.781H138.643ZM138.609 271.153C137.94 271.153 137.322 271.119 136.756 271.051C136.189 270.994 135.741 270.926 135.413 270.847V262.245C135.741 262.166 136.189 262.098 136.756 262.041C137.322 261.973 137.94 261.939 138.609 261.939C139.073 261.939 139.527 261.979 139.969 262.058C140.411 262.137 140.802 262.273 141.142 262.466C141.482 262.647 141.754 262.902 141.958 263.231C142.173 263.548 142.281 263.945 142.281 264.421C142.281 264.852 142.173 265.22 141.958 265.526C141.742 265.832 141.453 266.07 141.091 266.24C141.578 266.41 141.963 266.665 142.247 267.005C142.541 267.334 142.689 267.798 142.689 268.399C142.689 268.932 142.581 269.374 142.366 269.725C142.162 270.076 141.873 270.36 141.499 270.575C141.136 270.79 140.705 270.938 140.207 271.017C139.708 271.108 139.175 271.153 138.609 271.153ZM146.596 270.082C146.596 270.388 146.494 270.654 146.29 270.881C146.086 271.108 145.809 271.221 145.457 271.221C145.106 271.221 144.828 271.108 144.624 270.881C144.42 270.654 144.318 270.388 144.318 270.082C144.318 269.776 144.42 269.51 144.624 269.283C144.828 269.056 145.106 268.943 145.457 268.943C145.809 268.943 146.086 269.056 146.29 269.283C146.494 269.51 146.596 269.776 146.596 270.082Z" fill="#6C7689"/>
</svg>
