<svg width="114" height="33" viewBox="0 0 114 33" fill="none" xmlns="http://www.w3.org/2000/svg">
<rect x="0.710938" y="0.09375" width="112.823" height="32" rx="6" fill="#DC1818"/>
<path d="M27.4519 11.2937C28.8145 11.2937 29.8599 11.5551 30.5879 12.0777C31.3252 12.5911 31.6939 13.3611 31.6939 14.3877C31.6939 14.9477 31.5912 15.4284 31.3859 15.8297C31.1899 16.2217 30.9005 16.5437 30.5179 16.7957C30.1445 17.0384 29.6872 17.2157 29.1459 17.3277C28.6045 17.4397 27.9932 17.4958 27.3119 17.4958H26.2339V21.0938H24.8759V11.5317C25.2585 11.4384 25.6832 11.3777 26.1499 11.3497C26.6259 11.3124 27.0599 11.2937 27.4519 11.2937ZM27.5639 12.4837C26.9852 12.4837 26.5419 12.4977 26.2339 12.5257V16.3337H27.2559C27.7225 16.3337 28.1425 16.3057 28.5159 16.2497C28.8892 16.1844 29.2019 16.0817 29.4539 15.9417C29.7152 15.7924 29.9159 15.5917 30.0559 15.3397C30.1959 15.0877 30.2659 14.7657 30.2659 14.3737C30.2659 14.0004 30.1912 13.6924 30.0419 13.4497C29.9019 13.2071 29.7059 13.0157 29.4539 12.8757C29.2112 12.7264 28.9265 12.6237 28.5999 12.5677C28.2732 12.5117 27.9279 12.4837 27.5639 12.4837ZM35.5137 20.1557C35.8217 20.1557 36.0924 20.1511 36.3257 20.1417C36.5684 20.1231 36.769 20.0951 36.9277 20.0577V17.8877C36.8344 17.8411 36.6804 17.8037 36.4657 17.7757C36.2604 17.7384 36.0084 17.7197 35.7097 17.7197C35.5137 17.7197 35.3037 17.7337 35.0797 17.7617C34.865 17.7897 34.6644 17.8504 34.4777 17.9437C34.3004 18.0277 34.151 18.1491 34.0297 18.3077C33.9084 18.4571 33.8477 18.6577 33.8477 18.9097C33.8477 19.3764 33.997 19.7031 34.2957 19.8897C34.5944 20.0671 35.0004 20.1557 35.5137 20.1557ZM35.4017 13.6317C35.9244 13.6317 36.363 13.7017 36.7177 13.8417C37.0817 13.9724 37.371 14.1637 37.5857 14.4157C37.8097 14.6584 37.9684 14.9524 38.0617 15.2977C38.155 15.6337 38.2017 16.0071 38.2017 16.4177V20.9677C38.0897 20.9864 37.931 21.0144 37.7257 21.0517C37.5297 21.0797 37.3057 21.1078 37.0537 21.1358C36.8017 21.1638 36.5264 21.1871 36.2277 21.2058C35.9384 21.2338 35.649 21.2478 35.3597 21.2478C34.949 21.2478 34.571 21.2058 34.2257 21.1218C33.8804 21.0377 33.5817 20.9071 33.3297 20.7297C33.0777 20.5431 32.8817 20.3004 32.7417 20.0017C32.6017 19.7031 32.5317 19.3437 32.5317 18.9237C32.5317 18.5224 32.611 18.1771 32.7697 17.8877C32.9377 17.5984 33.1617 17.3651 33.4417 17.1877C33.7217 17.0104 34.0484 16.8797 34.4217 16.7957C34.795 16.7117 35.187 16.6697 35.5977 16.6697C35.7284 16.6697 35.8637 16.6791 36.0037 16.6977C36.1437 16.7071 36.2744 16.7257 36.3957 16.7537C36.5264 16.7724 36.6384 16.7911 36.7317 16.8097C36.825 16.8284 36.8904 16.8424 36.9277 16.8517V16.4877C36.9277 16.2731 36.9044 16.0631 36.8577 15.8577C36.811 15.6431 36.727 15.4564 36.6057 15.2977C36.4844 15.1297 36.3164 14.9991 36.1017 14.9057C35.8964 14.8031 35.6257 14.7517 35.2897 14.7517C34.8604 14.7517 34.4824 14.7844 34.1557 14.8497C33.8384 14.9057 33.6004 14.9664 33.4417 15.0317L33.2877 13.9537C33.4557 13.8791 33.7357 13.8091 34.1277 13.7437C34.5197 13.6691 34.9444 13.6317 35.4017 13.6317ZM43.5281 21.2618C42.9401 21.2618 42.4221 21.1684 41.9741 20.9817C41.5355 20.7951 41.1621 20.5337 40.8541 20.1977C40.5555 19.8617 40.3315 19.4651 40.1821 19.0077C40.0328 18.5411 39.9581 18.0277 39.9581 17.4677C39.9581 16.9077 40.0375 16.3944 40.1961 15.9277C40.3641 15.4611 40.5975 15.0597 40.8961 14.7237C41.1948 14.3784 41.5588 14.1124 41.9881 13.9257C42.4268 13.7297 42.9121 13.6317 43.4441 13.6317C43.7708 13.6317 44.0975 13.6597 44.4241 13.7157C44.7508 13.7717 45.0635 13.8604 45.3621 13.9817L45.0681 15.0877C44.8721 14.9944 44.6435 14.9197 44.3821 14.8637C44.1301 14.8077 43.8595 14.7797 43.5701 14.7797C42.8421 14.7797 42.2821 15.0084 41.8901 15.4657C41.5075 15.9231 41.3161 16.5904 41.3161 17.4677C41.3161 17.8597 41.3581 18.2191 41.4421 18.5457C41.5355 18.8724 41.6755 19.1524 41.8621 19.3857C42.0581 19.6191 42.3055 19.8011 42.6041 19.9317C42.9028 20.0531 43.2668 20.1137 43.6961 20.1137C44.0415 20.1137 44.3541 20.0811 44.6341 20.0157C44.9141 19.9504 45.1335 19.8804 45.2921 19.8057L45.4741 20.8977C45.3995 20.9444 45.2921 20.9911 45.1521 21.0377C45.0121 21.0751 44.8535 21.1078 44.6761 21.1358C44.4988 21.1731 44.3075 21.2011 44.1021 21.2198C43.9061 21.2478 43.7148 21.2618 43.5281 21.2618ZM52.724 21.0938H51.422V14.9057H48.174V21.0938H46.872V13.8137H52.724V21.0938ZM60.0197 17.4677C60.0197 16.6184 59.8097 15.9651 59.3897 15.5077C58.9697 15.0504 58.4097 14.8217 57.7097 14.8217C57.3177 14.8217 57.0097 14.8357 56.7857 14.8637C56.571 14.8917 56.3984 14.9244 56.2677 14.9617V19.5537C56.4264 19.6844 56.655 19.8104 56.9537 19.9317C57.2524 20.0531 57.579 20.1137 57.9337 20.1137C58.307 20.1137 58.6244 20.0484 58.8857 19.9177C59.1564 19.7777 59.3757 19.5911 59.5437 19.3577C59.7117 19.1151 59.833 18.8351 59.9077 18.5177C59.9824 18.1911 60.0197 17.8411 60.0197 17.4677ZM61.3777 17.4677C61.3777 18.0184 61.303 18.5271 61.1537 18.9937C61.0137 19.4604 60.8037 19.8617 60.5237 20.1977C60.2437 20.5337 59.8984 20.7951 59.4877 20.9817C59.0864 21.1684 58.6244 21.2618 58.1017 21.2618C57.6817 21.2618 57.3084 21.2058 56.9817 21.0938C56.6644 20.9817 56.4264 20.8744 56.2677 20.7717V23.6838H54.9657V14.0377C55.2737 13.9631 55.6564 13.8837 56.1137 13.7997C56.5804 13.7064 57.117 13.6597 57.7237 13.6597C58.2837 13.6597 58.7877 13.7484 59.2357 13.9257C59.6837 14.1031 60.0664 14.3551 60.3837 14.6817C60.701 15.0084 60.9437 15.4097 61.1117 15.8857C61.289 16.3524 61.3777 16.8797 61.3777 17.4677ZM69.6358 17.4537C69.6358 18.0324 69.5518 18.5551 69.3838 19.0217C69.2158 19.4884 68.9778 19.8897 68.6698 20.2257C68.3712 20.5617 68.0118 20.8231 67.5918 21.0097C67.1718 21.1871 66.7145 21.2758 66.2198 21.2758C65.7252 21.2758 65.2678 21.1871 64.8478 21.0097C64.4278 20.8231 64.0638 20.5617 63.7558 20.2257C63.4572 19.8897 63.2238 19.4884 63.0558 19.0217C62.8878 18.5551 62.8038 18.0324 62.8038 17.4537C62.8038 16.8844 62.8878 16.3664 63.0558 15.8997C63.2238 15.4237 63.4572 15.0177 63.7558 14.6817C64.0638 14.3457 64.4278 14.0891 64.8478 13.9117C65.2678 13.7251 65.7252 13.6317 66.2198 13.6317C66.7145 13.6317 67.1718 13.7251 67.5918 13.9117C68.0118 14.0891 68.3712 14.3457 68.6698 14.6817C68.9778 15.0177 69.2158 15.4237 69.3838 15.8997C69.5518 16.3664 69.6358 16.8844 69.6358 17.4537ZM68.2778 17.4537C68.2778 16.6324 68.0912 15.9837 67.7178 15.5077C67.3538 15.0224 66.8545 14.7797 66.2198 14.7797C65.5852 14.7797 65.0812 15.0224 64.7078 15.5077C64.3438 15.9837 64.1618 16.6324 64.1618 17.4537C64.1618 18.2751 64.3438 18.9284 64.7078 19.4137C65.0812 19.8897 65.5852 20.1277 66.2198 20.1277C66.8545 20.1277 67.3538 19.8897 67.7178 19.4137C68.0912 18.9284 68.2778 18.2751 68.2778 17.4537ZM70.5717 20.0297H71.3557C71.6637 19.5817 71.9063 19.1197 72.0837 18.6437C72.2703 18.1677 72.4103 17.6777 72.5037 17.1737C72.597 16.6604 72.6577 16.1284 72.6857 15.5777C72.7137 15.0177 72.7323 14.4297 72.7417 13.8137H77.5157V20.0297H78.4957V23.1238H77.2637V21.0938H71.8037V23.1238H70.5717V20.0297ZM76.2137 20.0297V14.9057H73.9317C73.9223 15.3444 73.899 15.7877 73.8617 16.2357C73.8243 16.6744 73.7637 17.1131 73.6797 17.5517C73.5957 17.9811 73.4743 18.4057 73.3157 18.8257C73.1663 19.2364 72.975 19.6377 72.7417 20.0297H76.2137ZM82.3672 20.1557C82.6752 20.1557 82.9459 20.1511 83.1792 20.1417C83.4219 20.1231 83.6225 20.0951 83.7812 20.0577V17.8877C83.6879 17.8411 83.5339 17.8037 83.3192 17.7757C83.1139 17.7384 82.8619 17.7197 82.5632 17.7197C82.3672 17.7197 82.1572 17.7337 81.9332 17.7617C81.7185 17.7897 81.5179 17.8504 81.3312 17.9437C81.1539 18.0277 81.0045 18.1491 80.8832 18.3077C80.7619 18.4571 80.7012 18.6577 80.7012 18.9097C80.7012 19.3764 80.8505 19.7031 81.1492 19.8897C81.4479 20.0671 81.8539 20.1557 82.3672 20.1557ZM82.2552 13.6317C82.7779 13.6317 83.2165 13.7017 83.5712 13.8417C83.9352 13.9724 84.2245 14.1637 84.4392 14.4157C84.6632 14.6584 84.8219 14.9524 84.9152 15.2977C85.0085 15.6337 85.0552 16.0071 85.0552 16.4177V20.9677C84.9432 20.9864 84.7845 21.0144 84.5792 21.0517C84.3832 21.0797 84.1592 21.1078 83.9072 21.1358C83.6552 21.1638 83.3799 21.1871 83.0812 21.2058C82.7919 21.2338 82.5025 21.2478 82.2132 21.2478C81.8025 21.2478 81.4245 21.2058 81.0792 21.1218C80.7339 21.0377 80.4352 20.9071 80.1832 20.7297C79.9312 20.5431 79.7352 20.3004 79.5952 20.0017C79.4552 19.7031 79.3852 19.3437 79.3852 18.9237C79.3852 18.5224 79.4645 18.1771 79.6232 17.8877C79.7912 17.5984 80.0152 17.3651 80.2952 17.1877C80.5752 17.0104 80.9019 16.8797 81.2752 16.7957C81.6485 16.7117 82.0405 16.6697 82.4512 16.6697C82.5819 16.6697 82.7172 16.6791 82.8572 16.6977C82.9972 16.7071 83.1279 16.7257 83.2492 16.7537C83.3799 16.7724 83.4919 16.7911 83.5852 16.8097C83.6785 16.8284 83.7439 16.8424 83.7812 16.8517V16.4877C83.7812 16.2731 83.7579 16.0631 83.7112 15.8577C83.6645 15.6431 83.5805 15.4564 83.4592 15.2977C83.3379 15.1297 83.1699 14.9991 82.9552 14.9057C82.7499 14.8031 82.4792 14.7517 82.1432 14.7517C81.7139 14.7517 81.3359 14.7844 81.0092 14.8497C80.6919 14.9057 80.4539 14.9664 80.2952 15.0317L80.1412 13.9537C80.3092 13.8791 80.5892 13.8091 80.9812 13.7437C81.3732 13.6691 81.7979 13.6317 82.2552 13.6317ZM96.1917 13.8137C96.005 14.0471 95.795 14.3037 95.5617 14.5837C95.3283 14.8544 95.0857 15.1391 94.8337 15.4377C94.5817 15.7271 94.325 16.0164 94.0637 16.3057C93.8117 16.5951 93.569 16.8704 93.3357 17.1317C93.6157 17.4024 93.905 17.6964 94.2037 18.0137C94.5023 18.3311 94.7917 18.6624 95.0717 19.0077C95.361 19.3437 95.6363 19.6937 95.8977 20.0577C96.159 20.4124 96.3877 20.7577 96.5837 21.0938H95.1277C94.9317 20.7858 94.703 20.4637 94.4417 20.1277C94.1897 19.7824 93.9237 19.4511 93.6437 19.1337C93.373 18.8164 93.0977 18.5224 92.8177 18.2517C92.547 17.9717 92.295 17.7431 92.0617 17.5657V21.0938H90.8157V17.5657C90.5823 17.7431 90.3257 17.9717 90.0457 18.2517C89.775 18.5224 89.4997 18.8164 89.2197 19.1337C88.949 19.4511 88.683 19.7824 88.4217 20.1277C88.1697 20.4637 87.9457 20.7858 87.7497 21.0938H86.3077C86.5037 20.7577 86.7277 20.4124 86.9797 20.0577C87.241 19.7031 87.5117 19.3577 87.7917 19.0217C88.081 18.6764 88.375 18.3451 88.6737 18.0277C88.9723 17.7104 89.2617 17.4164 89.5417 17.1457C89.3083 16.8844 89.061 16.6091 88.7997 16.3197C88.5477 16.0304 88.2957 15.7411 88.0437 15.4517C87.7917 15.1531 87.549 14.8684 87.3157 14.5977C87.0823 14.3177 86.8677 14.0564 86.6717 13.8137H88.1137C88.4497 14.2337 88.837 14.7004 89.2757 15.2137C89.7143 15.7271 90.2277 16.3197 90.8157 16.9917V13.8137H92.0617V16.9917C92.6497 16.3197 93.163 15.7271 93.6017 15.2137C94.0403 14.7004 94.4277 14.2337 94.7637 13.8137H96.1917ZM100.359 20.1557C100.667 20.1557 100.938 20.1511 101.171 20.1417C101.414 20.1231 101.615 20.0951 101.773 20.0577V17.8877C101.68 17.8411 101.526 17.8037 101.311 17.7757C101.106 17.7384 100.854 17.7197 100.555 17.7197C100.359 17.7197 100.149 17.7337 99.9254 17.7617C99.7107 17.7897 99.5101 17.8504 99.3234 17.9437C99.1461 18.0277 98.9967 18.1491 98.8754 18.3077C98.7541 18.4571 98.6934 18.6577 98.6934 18.9097C98.6934 19.3764 98.8427 19.7031 99.1414 19.8897C99.4401 20.0671 99.8461 20.1557 100.359 20.1557ZM100.247 13.6317C100.77 13.6317 101.209 13.7017 101.563 13.8417C101.927 13.9724 102.217 14.1637 102.431 14.4157C102.655 14.6584 102.814 14.9524 102.907 15.2977C103.001 15.6337 103.047 16.0071 103.047 16.4177V20.9677C102.935 20.9864 102.777 21.0144 102.571 21.0517C102.375 21.0797 102.151 21.1078 101.899 21.1358C101.647 21.1638 101.372 21.1871 101.073 21.2058C100.784 21.2338 100.495 21.2478 100.205 21.2478C99.7947 21.2478 99.4167 21.2058 99.0714 21.1218C98.7261 21.0377 98.4274 20.9071 98.1754 20.7297C97.9234 20.5431 97.7274 20.3004 97.5874 20.0017C97.4474 19.7031 97.3774 19.3437 97.3774 18.9237C97.3774 18.5224 97.4567 18.1771 97.6154 17.8877C97.7834 17.5984 98.0074 17.3651 98.2874 17.1877C98.5674 17.0104 98.8941 16.8797 99.2674 16.7957C99.6407 16.7117 100.033 16.6697 100.443 16.6697C100.574 16.6697 100.709 16.6791 100.849 16.6977C100.989 16.7071 101.12 16.7257 101.241 16.7537C101.372 16.7724 101.484 16.7911 101.577 16.8097C101.671 16.8284 101.736 16.8424 101.773 16.8517V16.4877C101.773 16.2731 101.75 16.0631 101.703 15.8577C101.657 15.6431 101.573 15.4564 101.451 15.2977C101.33 15.1297 101.162 14.9991 100.947 14.9057C100.742 14.8031 100.471 14.7517 100.135 14.7517C99.7061 14.7517 99.3281 14.7844 99.0014 14.8497C98.6841 14.9057 98.4461 14.9664 98.2874 15.0317L98.1334 13.9537C98.3014 13.8791 98.5814 13.8091 98.9734 13.7437C99.3654 13.6691 99.7901 13.6317 100.247 13.6317Z" fill="white"/>
<path d="M15.452 6.96484L8.80078 18.0503H13.235V24.7016L19.8862 13.6161H15.452V6.96484Z" fill="white"/>
</svg>
