<svg width="22" height="21" viewBox="0 0 22 21" fill="none" xmlns="http://www.w3.org/2000/svg">
<path d="M8.86998 20.8348C6.90487 20.425 5.0969 19.4736 3.65488 18.0906C2.21285 16.7075 1.19554 14.9491 0.720342 13.0184C0.245138 11.0876 0.331467 9.06325 0.969316 7.17897C1.60716 5.29469 2.77053 3.62731 4.32515 2.36933L4.21385 2.69972C4.14321 2.94709 4.08746 3.19839 4.04691 3.45229C4.02499 3.72444 3.98156 3.99448 3.91704 4.25993C3.93472 4.39396 3.93472 4.52971 3.91704 4.66374V5.50809H4.67761V4.70045C4.82601 3.45229 5.40104 2.4611 6.7923 2.55288C7.05958 2.57403 7.31904 2.65226 7.55281 2.78218C7.78659 2.9121 7.98915 3.09062 8.14649 3.30545C8.45523 3.72634 8.69907 4.19029 8.86998 4.6821C8.96115 4.84161 9.02386 5.01547 9.05543 5.19605C9.22264 5.56649 9.34711 5.9544 9.42646 6.35244L9.57484 6.88474C9.70469 7.50882 9.85313 8.16961 9.96443 8.83041C10.0757 9.4912 10.2241 10.152 10.3354 10.8311V11.1065L10.4838 11.9875C10.5118 12.1269 10.5118 12.2703 10.4838 12.4097C10.5704 12.6323 10.6143 12.8688 10.6136 13.1072V13.6395C10.4258 14.0459 10.2089 14.4385 9.96443 14.8142C9.91324 15.0033 9.83182 15.183 9.72327 15.3466C9.65087 15.5304 9.56401 15.7084 9.46354 15.8789L8.98127 17.0169C8.96242 17.1954 8.91217 17.3694 8.83284 17.5308C8.78921 17.7497 8.72715 17.9646 8.64733 18.1733C8.67041 18.3315 8.67041 18.4923 8.64733 18.6505C8.57879 19.2237 8.57879 19.8028 8.64733 20.3759L8.86998 20.8348ZM17.57 2.18577C19.2518 3.47141 20.5064 5.22563 21.1722 7.22271C21.8381 9.21979 21.8847 11.3683 21.3061 13.3918C20.7275 15.4154 19.5502 17.2213 17.9257 18.5771C16.3011 19.933 14.3037 20.7768 12.1904 21V20.8532C12.2056 20.6958 12.2431 20.5413 12.3017 20.3943C12.4063 19.7566 12.4683 19.1127 12.4872 18.467C12.4908 17.7867 12.4599 17.1067 12.3945 16.4295V15.9156V15.2915C12.3681 15.1458 12.3681 14.9966 12.3945 14.851L12.1533 14.2269C12.1533 14.1167 12.1533 13.9515 12.1533 13.8231C12.1533 13.6946 12.042 13.5294 12.1533 13.4743L12.2461 13.254V13.1623C12.2461 13.1623 12.2461 13.1623 12.2461 13.0521C12.3008 12.8759 12.3822 12.7088 12.4872 12.5565L16.5683 4.22322C16.5683 4.09473 16.5683 4.22322 16.5683 4.22322C16.6232 4.04127 16.7044 3.86815 16.8095 3.70927L17.0506 3.17696C17.1004 3.0167 17.1689 2.86271 17.2547 2.71808V2.58959C17.3319 2.43573 17.439 2.2985 17.57 2.18577ZM11.0589 0.00148618C12.3851 -0.00173077 13.7001 0.241082 14.9359 0.717345C14.9563 0.832715 14.9563 0.950726 14.9359 1.0661V1.21294C14.9247 1.37891 14.8806 1.54108 14.806 1.69018C14.7106 2.10405 14.5803 2.50929 14.4165 2.90163C14.3356 3.28716 14.2303 3.66726 14.1011 4.03966C14.1011 4.27828 13.155 7.23349 13.0623 7.34362C12.9898 7.71913 12.8843 8.08764 12.747 8.44494C12.7171 8.65174 12.6478 8.85105 12.5429 9.03232C12.5429 9.19751 11.9308 11.1248 11.8195 11.4369L11.4855 9.01396V8.44494C11.4594 8.26845 11.4594 8.08913 11.4855 7.91264C11.412 7.71897 11.3743 7.51379 11.3742 7.30691C11.3432 7.16168 11.3432 7.01162 11.3742 6.86638C11.2629 6.46816 11.1762 6.0636 11.1145 5.65493C11.0919 5.49049 11.0919 5.32378 11.1145 5.15934C11.027 4.95458 10.9707 4.73806 10.9476 4.5169C10.7394 3.55329 10.4349 2.61254 10.0386 1.70853C9.74498 1.05186 9.20681 0.53248 8.53603 0.258461C9.36362 0.0736564 10.2106 -0.0126136 11.0589 0.00148618Z" fill="#003C47"/>
</svg>
