<svg width="83" height="24" viewBox="0 0 83 24" fill="none" xmlns="http://www.w3.org/2000/svg">
<path d="M0.359375 11.6392C0.359375 5.21103 5.40785 0 11.6355 0H71.5012C77.7288 0 82.7773 5.21103 82.7773 11.6392C82.7773 18.0673 77.7288 23.2783 71.5012 23.2783H11.6355C5.40785 23.2783 0.359375 18.0673 0.359375 11.6392Z" fill="white"/>
<path d="M36.6925 14.4802C36.918 14.4802 37.1025 14.4625 37.246 14.4273C37.3964 14.385 37.5159 14.332 37.6048 14.2686C37.6936 14.198 37.7551 14.1169 37.7893 14.0252C37.8235 13.9335 37.8406 13.8312 37.8406 13.7183C37.8406 13.4785 37.7312 13.281 37.5125 13.1258C37.2938 12.9636 36.918 12.7907 36.3849 12.6073C36.1526 12.5227 35.9202 12.4275 35.6879 12.3216C35.4555 12.2088 35.2471 12.0712 35.0625 11.909C34.878 11.7397 34.7277 11.5386 34.6115 11.3059C34.4953 11.066 34.4372 10.7768 34.4372 10.4382C34.4372 10.0996 34.4987 9.7963 34.6218 9.52825C34.7448 9.25314 34.919 9.02036 35.1446 8.8299C35.3701 8.63944 35.6434 8.49483 35.9646 8.39607C36.2858 8.29026 36.648 8.23736 37.0512 8.23736C37.5296 8.23736 37.9431 8.29026 38.2916 8.39607C38.6401 8.50188 38.9272 8.61827 39.1527 8.74525L38.6914 10.0467C38.4932 9.94091 38.2711 9.84921 38.0251 9.77161C37.7859 9.68696 37.4954 9.64464 37.1537 9.64464C36.771 9.64464 36.4943 9.70107 36.3234 9.81394C36.1594 9.91975 36.0774 10.0855 36.0774 10.3112C36.0774 10.4453 36.1081 10.5581 36.1697 10.6498C36.2312 10.7415 36.3166 10.8262 36.4259 10.9038C36.5421 10.9743 36.672 11.0413 36.8155 11.1048C36.9658 11.1613 37.1298 11.2212 37.3075 11.2847C37.6765 11.4258 37.9977 11.5669 38.2711 11.7079C38.5445 11.842 38.77 12.0007 38.9477 12.1841C39.1322 12.3675 39.2689 12.5826 39.3577 12.8295C39.4465 13.0764 39.491 13.3762 39.491 13.7289C39.491 14.4132 39.2586 14.9458 38.7939 15.3267C38.3292 15.7005 37.6287 15.8875 36.6925 15.8875C36.3781 15.8875 36.0945 15.8663 35.8416 15.824C35.5888 15.7887 35.3632 15.7429 35.1651 15.6864C34.9737 15.63 34.8063 15.57 34.6628 15.5065C34.5261 15.4431 34.4099 15.3831 34.3142 15.3267L34.7653 14.0146C34.9771 14.1345 35.2368 14.2439 35.5443 14.3426C35.8587 14.4343 36.2414 14.4802 36.6925 14.4802Z" fill="#333333"/>
<path d="M40.7214 8.40665H42.3206V15.7393H40.7214V8.40665Z" fill="#333333"/>
<path d="M47.4297 9.67638C46.6848 9.67638 46.1449 9.89153 45.8101 10.3218C45.482 10.7451 45.318 11.327 45.318 12.0677C45.318 12.4275 45.359 12.7555 45.441 13.0517C45.523 13.341 45.646 13.5914 45.8101 13.803C45.9741 14.0146 46.1791 14.1804 46.4251 14.3003C46.6711 14.4132 46.9582 14.4696 47.2862 14.4696C47.4639 14.4696 47.6142 14.4661 47.7372 14.459C47.8671 14.452 47.9799 14.4379 48.0755 14.4167V11.8667H49.6747V15.496C49.4833 15.5736 49.1758 15.6547 48.7521 15.7393C48.3284 15.831 47.8056 15.8769 47.1837 15.8769C46.6506 15.8769 46.1654 15.7922 45.7281 15.6229C45.2975 15.4536 44.9285 15.2067 44.6209 14.8823C44.3134 14.5578 44.0742 14.1592 43.9034 13.6866C43.7394 13.214 43.6574 12.6743 43.6574 12.0677C43.6574 11.454 43.7496 10.9108 43.9341 10.4382C44.1186 9.9656 44.3715 9.56704 44.6927 9.24256C45.0139 8.91102 45.3898 8.6606 45.8203 8.4913C46.2577 8.322 46.7224 8.23736 47.2144 8.23736C47.5493 8.23736 47.85 8.26204 48.1165 8.31142C48.3899 8.35375 48.6222 8.40665 48.8136 8.47014C49.0118 8.52657 49.1724 8.58653 49.2954 8.65002C49.4252 8.7135 49.5175 8.76288 49.5722 8.79815L49.1109 10.1208C48.8922 10.0009 48.6393 9.89858 48.3523 9.81394C48.0721 9.72223 47.7646 9.67638 47.4297 9.67638Z" fill="#333333"/>
<path d="M53.0488 8.40665C53.1718 8.63944 53.3119 8.92865 53.4691 9.2743C53.6331 9.6129 53.8005 9.98323 53.9714 10.3853C54.149 10.7803 54.3233 11.1859 54.4942 11.6021C54.665 12.0183 54.8256 12.4098 54.976 12.7766C55.1263 12.4098 55.2869 12.0183 55.4578 11.6021C55.6286 11.1859 55.7995 10.7803 55.9703 10.3853C56.148 9.98323 56.3154 9.6129 56.4726 9.2743C56.6366 8.92865 56.7801 8.63944 56.9031 8.40665H58.3588C58.4271 8.89338 58.4886 9.44007 58.5433 10.0467C58.6048 10.6463 58.6561 11.2741 58.6971 11.9301C58.7449 12.5791 58.7859 13.2316 58.8201 13.8876C58.8611 14.5437 58.8953 15.1609 58.9226 15.7393H57.3644C57.3439 15.0269 57.3166 14.2509 57.2824 13.4115C57.2483 12.5721 57.197 11.7256 57.1287 10.872C57.0057 11.1683 56.869 11.4963 56.7186 11.8561C56.5683 12.2158 56.4179 12.5756 56.2676 12.9353C56.1241 13.2951 55.984 13.6408 55.8473 13.9723C55.7106 14.2968 55.5944 14.5754 55.4988 14.8082H54.3814C54.2857 14.5754 54.1695 14.2968 54.0329 13.9723C53.8962 13.6408 53.7527 13.2951 53.6023 12.9353C53.4588 12.5756 53.3119 12.2158 53.1615 11.8561C53.0112 11.4963 52.8745 11.1683 52.7515 10.872C52.6832 11.7256 52.6319 12.5721 52.5977 13.4115C52.5636 14.2509 52.5362 15.0269 52.5157 15.7393H50.9576C50.9849 15.1609 51.0157 14.5437 51.0498 13.8876C51.0908 13.2316 51.1318 12.5791 51.1728 11.9301C51.2207 11.2741 51.2719 10.6463 51.3266 10.0467C51.3881 9.44007 51.453 8.89338 51.5214 8.40665H53.0488Z" fill="#333333"/>
<path d="M65.1189 15.7393C65.0437 15.4854 64.9583 15.2244 64.8626 14.9563C64.7738 14.6883 64.6849 14.4202 64.5961 14.1522H61.8283C61.7395 14.4202 61.6472 14.6883 61.5516 14.9563C61.4627 15.2244 61.3807 15.4854 61.3055 15.7393H59.6449C59.9114 14.9493 60.1643 14.2192 60.4035 13.5491C60.6426 12.8789 60.875 12.2476 61.1005 11.655C61.3329 11.0625 61.5584 10.5017 61.7771 9.97265C62.0026 9.43654 62.235 8.91454 62.4741 8.40665H64.0015C64.2339 8.91454 64.4628 9.43654 64.6884 9.97265C64.9139 10.5017 65.1394 11.0625 65.3649 11.655C65.5973 12.2476 65.8331 12.8789 66.0722 13.5491C66.3114 14.2192 66.5643 14.9493 66.8308 15.7393H65.1189ZM63.202 10.0679C63.1678 10.1737 63.1165 10.3183 63.0482 10.5017C62.9799 10.6851 62.9013 10.8967 62.8124 11.1366C62.7236 11.3764 62.6245 11.6409 62.5152 11.9301C62.4126 12.2194 62.3067 12.5227 62.1974 12.8401H64.2168C64.1075 12.5227 64.0015 12.2194 63.899 11.9301C63.7965 11.6409 63.6974 11.3764 63.6018 11.1366C63.5129 10.8967 63.4343 10.6851 63.366 10.5017C63.2976 10.3183 63.243 10.1737 63.202 10.0679Z" fill="#333333"/>
<path d="M17.3688 19.7625C15.8928 19.4404 14.5348 18.6927 13.4517 17.6055C12.3686 16.5184 11.6044 15.1363 11.2475 13.6186C10.8906 12.101 10.9554 10.5099 11.4345 9.02877C11.9136 7.54768 12.7874 6.23709 13.9551 5.24828L13.8715 5.50798C13.8185 5.70242 13.7766 5.89994 13.7462 6.09952C13.7297 6.31343 13.6971 6.52569 13.6486 6.73433C13.6619 6.83969 13.6619 6.94639 13.6486 7.05174V7.71542H14.2199V7.0806C14.3314 6.09952 14.7633 5.32042 15.8083 5.39256C16.009 5.40918 16.2039 5.47067 16.3795 5.57279C16.5551 5.67491 16.7072 5.81524 16.8254 5.98409C17.0573 6.31492 17.2405 6.6796 17.3688 7.06617C17.4373 7.19155 17.4844 7.32821 17.5081 7.47015C17.6337 7.76132 17.7272 8.06623 17.7868 8.37909L17.8983 8.79749C17.9958 9.28804 18.1073 9.80743 18.1909 10.3268C18.2745 10.8462 18.386 11.3656 18.4696 11.8995V12.1159L18.581 12.8084C18.6021 12.9179 18.6021 13.0307 18.581 13.1402C18.646 13.3152 18.6791 13.5011 18.6785 13.6885V14.1069C18.5375 14.4263 18.3745 14.7349 18.1909 15.0303C18.1525 15.1788 18.0913 15.3201 18.0098 15.4487C17.9554 15.5932 17.8901 15.7331 17.8147 15.8671L17.4524 16.7616C17.4383 16.9019 17.4005 17.0386 17.341 17.1656C17.3082 17.3376 17.2616 17.5065 17.2016 17.6705C17.2189 17.7949 17.2189 17.9213 17.2016 18.0457C17.1501 18.4961 17.1501 18.9514 17.2016 19.4019L17.3688 19.7625ZM23.9036 5.104C25.1668 6.11454 26.1092 7.4934 26.6093 9.06315C27.1094 10.6329 27.1444 12.3217 26.7098 13.9122C26.2753 15.5027 25.3909 16.9222 24.1707 17.988C22.9505 19.0537 21.4502 19.717 19.8629 19.8924V19.777C19.8743 19.6533 19.9025 19.5319 19.9465 19.4163C20.0251 18.915 20.0716 18.409 20.0858 17.9014C20.0885 17.3667 20.0653 16.8322 20.0162 16.2999V15.4054C19.9964 15.2909 19.9964 15.1736 20.0162 15.0591L19.835 14.5686C19.835 14.482 19.835 14.3522 19.835 14.2512C19.835 14.1502 19.7514 14.0203 19.835 13.977L19.9047 13.8039V13.7318C19.9047 13.7318 19.9047 13.7318 19.9047 13.6452C19.9458 13.5067 20.0069 13.3753 20.0858 13.2557L23.1512 6.70548C23.1924 6.56246 23.2534 6.42639 23.3323 6.3015L23.5134 5.8831C23.5509 5.75713 23.6023 5.63609 23.6667 5.52241V5.42141C23.7247 5.30048 23.8052 5.19261 23.9036 5.104ZM19.013 3.38711C20.0091 3.38458 20.9968 3.57544 21.925 3.94979C21.9404 4.04047 21.9404 4.13323 21.925 4.22391V4.33934C21.9166 4.4698 21.8835 4.59726 21.8275 4.71446C21.7558 5.03977 21.658 5.35829 21.5349 5.66668C21.4742 5.96972 21.3951 6.26848 21.298 6.5612C21.298 6.74876 20.5874 9.07162 20.5178 9.15819C20.4633 9.45334 20.3841 9.743 20.2809 10.0238C20.2585 10.1864 20.2064 10.3431 20.1276 10.4855C20.1276 10.6154 19.6678 12.1303 19.5842 12.3756L19.3334 10.4711V10.0238C19.3138 9.88512 19.3138 9.74417 19.3334 9.60545C19.2782 9.45322 19.2499 9.29194 19.2498 9.12933C19.2265 9.01517 19.2265 8.89723 19.2498 8.78307C19.1662 8.47006 19.1011 8.15206 19.0548 7.83084C19.0378 7.70159 19.0378 7.57054 19.0548 7.44129C18.989 7.28035 18.9467 7.11016 18.9294 6.93632C18.773 6.1789 18.5443 5.43945 18.2466 4.72888C18.0261 4.21272 17.6218 3.80448 17.118 3.5891C17.7396 3.44384 18.3758 3.37603 19.013 3.38711Z" fill="#003C47"/>
</svg>
