<svg width="28" height="28" viewBox="0 0 28 28" fill="none" xmlns="http://www.w3.org/2000/svg">
<path d="M23.1257 8.66951C23.0184 8.51442 22.8751 8.38766 22.708 8.30009C22.541 8.21252 22.3553 8.16674 22.1667 8.16667H6.22183L4.8755 4.93501C4.69897 4.50943 4.40005 4.14586 4.01663 3.89038C3.63321 3.63491 3.18257 3.49904 2.72183 3.50001H0V5.83334H2.72183L8.2565 19.1158C8.34515 19.3284 8.49471 19.5099 8.68633 19.6376C8.87795 19.7652 9.10307 19.8334 9.33333 19.8333H18.6667C19.1532 19.8333 19.5883 19.5312 19.7598 19.0773L23.2598 9.74401C23.326 9.5674 23.3483 9.37738 23.325 9.19025C23.3016 9.00311 23.2332 8.82443 23.1257 8.66951ZM17.8582 17.5H10.1115L7.19483 10.5H20.4832L17.8582 17.5Z" fill="#828D99"/>
<path d="M9.91602 24.5C10.8825 24.5 11.666 23.7165 11.666 22.75C11.666 21.7835 10.8825 21 9.91602 21C8.94952 21 8.16602 21.7835 8.16602 22.75C8.16602 23.7165 8.94952 24.5 9.91602 24.5Z" fill="#828D99"/>
<path d="M18.084 24.5C19.0505 24.5 19.834 23.7165 19.834 22.75C19.834 21.7835 19.0505 21 18.084 21C17.1175 21 16.334 21.7835 16.334 22.75C16.334 23.7165 17.1175 24.5 18.084 24.5Z" fill="#828D99"/>
</svg>
