<svg width="97" height="25" viewBox="0 0 97 25" fill="none" xmlns="http://www.w3.org/2000/svg">
<path d="M4.8018 20.1937C5.26567 20.6583 5.81676 21.0266 6.42341 21.2775C7.03006 21.5284 7.68031 21.6569 8.3368 21.6557C8.99342 21.6569 9.64381 21.5283 10.2506 21.2774C10.8574 21.0265 11.4087 20.6583 11.8728 20.1937L14.7008 17.3647L13.2868 15.9507L10.4588 18.7797C9.89527 19.3407 9.13247 19.6557 8.3373 19.6557C7.54212 19.6557 6.77933 19.3407 6.2158 18.7797C5.6543 18.2165 5.339 17.4536 5.339 16.6582C5.339 15.8629 5.6543 15.1 6.2158 14.5367L9.0448 11.7087L7.6308 10.2947L4.8018 13.1227C3.8656 14.0612 3.33984 15.3327 3.33984 16.6582C3.33984 17.9838 3.8656 19.2553 4.8018 20.1937ZM20.3578 11.7087C21.2935 10.77 21.8189 9.49865 21.8189 8.17323C21.8189 6.84782 21.2935 5.57645 20.3578 4.63773C19.4193 3.70154 18.1479 3.17578 16.8223 3.17578C15.4967 3.17578 14.2253 3.70154 13.2868 4.63773L10.4588 7.46673L11.8728 8.88073L14.7008 6.05173C15.2643 5.49072 16.0271 5.17576 16.8223 5.17576C17.6175 5.17576 18.3803 5.49072 18.9438 6.05173C19.5053 6.61501 19.8206 7.3779 19.8206 8.17323C19.8206 8.96857 19.5053 9.73146 18.9438 10.2947L16.1148 13.1227L17.5288 14.5367L20.3578 11.7087Z" fill="#828D99"/>
<path d="M9.04391 17.3648L7.62891 15.9508L16.1159 7.46484L17.5299 8.87984L9.04391 17.3648Z" fill="#828D99"/>
<path d="M42.0797 15.4156C42.9548 15.4106 43.7965 15.079 44.4397 14.4856L50.6997 18.0656C50.62 18.3419 50.5796 18.628 50.5797 18.9156C50.5733 19.7271 50.8467 20.5161 51.3539 21.1497C51.8611 21.7832 52.5711 22.2227 53.3644 22.394C54.1576 22.5653 54.9857 22.4581 55.7092 22.0903C56.4327 21.7226 57.0073 21.1168 57.3364 20.3749C57.6654 19.633 57.7288 18.8004 57.5159 18.0173C57.3029 17.2342 56.8267 16.5483 56.1672 16.0753C55.5078 15.6022 54.7055 15.3708 53.8954 15.4201C53.0853 15.4693 52.317 15.7962 51.7197 16.3456L45.4597 12.7656C45.5352 12.5192 45.5756 12.2633 45.5797 12.0056L51.7297 8.48561C52.3238 9.02245 53.0843 9.33869 53.8839 9.38131C54.6834 9.42392 55.4733 9.19031 56.1211 8.71966C56.7689 8.249 57.2351 7.56993 57.4416 6.79633C57.6481 6.02272 57.5823 5.20164 57.2553 4.47079C56.9282 3.73993 56.3598 3.14375 55.6454 2.78224C54.931 2.42072 54.1139 2.31586 53.3314 2.48523C52.5488 2.65461 51.8483 3.08792 51.3473 3.7125C50.8463 4.33707 50.5753 5.11493 50.5797 5.91561C50.5831 6.20291 50.6234 6.48859 50.6997 6.76561L45.0097 10.0156C44.68 9.50556 44.2233 9.09009 43.6844 8.81001C43.1455 8.52994 42.543 8.39491 41.9361 8.41819C41.3292 8.44148 40.7389 8.62228 40.223 8.94282C39.7072 9.26337 39.2836 9.71262 38.994 10.2464C38.7043 10.7802 38.5586 11.3802 38.571 11.9874C38.5835 12.5946 38.7537 13.1881 39.065 13.7096C39.3763 14.2311 39.818 14.6626 40.3465 14.9617C40.8751 15.2608 41.4724 15.4172 42.0797 15.4156ZM54.0797 17.4156C54.3764 17.4156 54.6664 17.5036 54.913 17.6684C55.1597 17.8332 55.352 18.0675 55.4655 18.3416C55.579 18.6157 55.6087 18.9173 55.5509 19.2082C55.493 19.4992 55.3501 19.7665 55.1404 19.9763C54.9306 20.186 54.6633 20.3289 54.3723 20.3868C54.0814 20.4447 53.7798 20.415 53.5057 20.3014C53.2316 20.1879 52.9973 19.9956 52.8325 19.749C52.6677 19.5023 52.5797 19.2123 52.5797 18.9156C52.5797 18.5178 52.7377 18.1363 53.019 17.8549C53.3003 17.5736 53.6819 17.4156 54.0797 17.4156ZM54.0797 4.41561C54.3764 4.41561 54.6664 4.50358 54.913 4.6684C55.1597 4.83323 55.352 5.06749 55.4655 5.34158C55.579 5.61567 55.6087 5.91727 55.5509 6.20824C55.493 6.49922 55.3501 6.76649 55.1404 6.97627C54.9306 7.18605 54.6633 7.32891 54.3723 7.38679C54.0814 7.44466 53.7798 7.41496 53.5057 7.30143C53.2316 7.1879 52.9973 6.99564 52.8325 6.74896C52.6677 6.50229 52.5797 6.21228 52.5797 5.91561C52.5797 5.51778 52.7377 5.13625 53.019 4.85495C53.3003 4.57364 53.6819 4.41561 54.0797 4.41561ZM42.0797 10.4156C42.3764 10.4156 42.6664 10.5036 42.913 10.6684C43.1597 10.8332 43.352 11.0675 43.4655 11.3416C43.579 11.6157 43.6087 11.9173 43.5509 12.2082C43.493 12.4992 43.3501 12.7665 43.1404 12.9763C42.9306 13.186 42.6633 13.3289 42.3723 13.3868C42.0814 13.4447 41.7798 13.415 41.5057 13.3014C41.2316 13.1879 40.9973 12.9956 40.8325 12.749C40.6677 12.5023 40.5797 12.2123 40.5797 11.9156C40.5797 11.5178 40.7377 11.1363 41.019 10.8549C41.3003 10.5736 41.6819 10.4156 42.0797 10.4156Z" fill="#828D99"/>
<path d="M91.5801 7.41406H90.5801V2.41406H78.5801V7.41406H77.5801C75.9261 7.41406 74.5801 8.76006 74.5801 10.4141V17.4141C74.5801 18.5171 75.4771 19.4141 76.5801 19.4141H78.5801V22.4141H90.5801V19.4141H92.5801C93.6831 19.4141 94.5801 18.5171 94.5801 17.4141V10.4141C94.5801 8.76006 93.2341 7.41406 91.5801 7.41406ZM80.5801 4.41406H88.5801V7.41406H80.5801V4.41406ZM88.5801 20.4141H80.5801V16.4141H88.5801V20.4141ZM92.5801 17.4141H90.5801V14.4141H78.5801V17.4141H76.5801V10.4141C76.5801 9.86306 77.0291 9.41406 77.5801 9.41406H91.5801C92.1321 9.41406 92.5801 9.86306 92.5801 10.4141V17.4141Z" fill="#828D99"/>
<path d="M86.5801 10.4141H90.5801V12.4141H86.5801V10.4141Z" fill="#828D99"/>
</svg>
