<svg width="63" height="52" viewBox="0 0 63 52" fill="none" xmlns="http://www.w3.org/2000/svg">
<rect x="0.824219" y="0.65625" width="61.7706" height="50.8699" rx="4" fill="#F2F4F7"/>
<path fill-rule="evenodd" clip-rule="evenodd" d="M58.9612 0.65625H4.45778C2.45102 0.65625 0.824219 2.28305 0.824219 4.28981V47.8926C0.824219 49.8993 2.45102 51.5261 4.45778 51.5261H58.9612C60.968 51.5261 62.5948 49.8993 62.5948 47.8926V4.28981C62.5948 2.28305 60.968 0.65625 58.9612 0.65625ZM4.45778 47.8926V4.28981H58.9612V47.8926H4.45778Z" fill="#A6ACB3"/>
<path fill-rule="evenodd" clip-rule="evenodd" d="M10.8164 15.645C10.8164 19.4076 13.8667 22.4579 17.6293 22.4579C21.392 22.4579 24.4423 19.4076 24.4423 15.645C24.4423 11.8823 21.392 8.83203 17.6293 8.83203C13.8667 8.83203 10.8164 11.8823 10.8164 15.645ZM20.8087 15.645C20.8087 17.4009 19.3853 18.8243 17.6293 18.8243C15.8734 18.8243 14.45 17.4009 14.45 15.645C14.45 13.889 15.8734 12.4656 17.6293 12.4656C19.3853 12.4656 20.8087 13.889 20.8087 15.645Z" fill="#A6ACB3"/>
<path d="M13.9123 43.7341C13.1997 44.4405 12.0494 44.4355 11.343 43.723C10.6366 43.0104 10.6415 41.8601 11.3541 41.1537L26.2965 26.3398L34.7185 33.6653C35.4756 34.3238 35.5555 35.4713 34.897 36.2284C34.2385 36.9855 33.0909 37.0654 32.3339 36.4069L26.4582 31.2962L13.9123 43.7341Z" fill="#A6ACB3"/>
<path d="M27.5449 43.7287C26.8354 44.4382 25.6851 44.4383 24.9755 43.7288C24.266 43.0194 24.266 41.869 24.9754 41.1595L48.8867 17.2461L61.9772 28.7321C62.7314 29.3939 62.8064 30.5418 62.1446 31.296C61.4829 32.0502 60.335 32.1252 59.5808 31.4634L49.0491 22.2226L27.5449 43.7287Z" fill="#A6ACB3"/>
</svg>
