<svg width="18" height="18" viewBox="0 0 18 18" fill="none" xmlns="http://www.w3.org/2000/svg">
<path d="M1.70443 8H7.45443C7.70859 8 7.95235 7.89464 8.13207 7.70711C8.31179 7.51957 8.41276 7.26522 8.41276 7V1C8.41276 0.734784 8.31179 0.48043 8.13207 0.292893C7.95235 0.105357 7.70859 0 7.45443 0H1.70443C1.45026 0 1.20651 0.105357 1.02678 0.292893C0.847061 0.48043 0.746094 0.734784 0.746094 1V7C0.746094 7.26522 0.847061 7.51957 1.02678 7.70711C1.20651 7.89464 1.45026 8 1.70443 8ZM11.2878 8H17.0378C17.2919 8 17.5357 7.89464 17.7154 7.70711C17.8951 7.51957 17.9961 7.26522 17.9961 7V1C17.9961 0.734784 17.8951 0.48043 17.7154 0.292893C17.5357 0.105357 17.2919 0 17.0378 0H11.2878C11.0336 0 10.7898 0.105357 10.6101 0.292893C10.4304 0.48043 10.3294 0.734784 10.3294 1V7C10.3294 7.26522 10.4304 7.51957 10.6101 7.70711C10.7898 7.89464 11.0336 8 11.2878 8ZM1.70443 18H7.45443C7.70859 18 7.95235 17.8946 8.13207 17.7071C8.31179 17.5196 8.41276 17.2652 8.41276 17V11C8.41276 10.7348 8.31179 10.4804 8.13207 10.2929C7.95235 10.1054 7.70859 10 7.45443 10H1.70443C1.45026 10 1.20651 10.1054 1.02678 10.2929C0.847061 10.4804 0.746094 10.7348 0.746094 11V17C0.746094 17.2652 0.847061 17.5196 1.02678 17.7071C1.20651 17.8946 1.45026 18 1.70443 18ZM11.2878 18H17.0378C17.2919 18 17.5357 17.8946 17.7154 17.7071C17.8951 17.5196 17.9961 17.2652 17.9961 17V11C17.9961 10.7348 17.8951 10.4804 17.7154 10.2929C17.5357 10.1054 17.2919 10 17.0378 10H11.2878C11.0336 10 10.7898 10.1054 10.6101 10.2929C10.4304 10.4804 10.3294 10.7348 10.3294 11V17C10.3294 17.2652 10.4304 17.5196 10.6101 17.7071C10.7898 17.8946 11.0336 18 11.2878 18Z" fill="#828D99"/>
</svg>
